<svg version="1.1" id="logo" xmlns="http://www.w3.org/2000/svg" xmlns:xlink="http://www.w3.org/1999/xlink" x="0" y="0" viewBox="0 0 489.5 251.6" xml:space="preserve"><style>.st0{fill:#fff}</style><path class="st0" d="M78.5 167.1c.6-.1 1.2-.3 1.8-.3h330.5c0 .7.1 1.3.1 2.1H80.6c-.7 0-1.4-.2-2.2-.3.1-.5.1-1 .1-1.5zm65.4 42.9v-20.1h4.5v11.8c2.8.2 5-1.2 6.2-3.8 1.8-3.8 1-8.5-1.9-11.2-2.9-2.6-7.9-3-11.5-.8-3.6 2.2-4.9 6.7-3.3 11.5l.6 1.8c-.1.1-.3.1-.4.2-.2-.3-.5-.6-.7-1-2.4-4.5-1.5-10.7 2-14.1 3.7-3.6 9.7-4.4 14.4-1.9 4.6 2.4 7 7.4 6.1 12.6-.8 4.5-4.3 7.5-8.9 7.7h-2.6v7.2c-1.5.1-3 .1-4.5.1zM258.3 41.6c1.5 1.3 1.6 1.6.3 2.7-3.4 2.9-3.5 5.2 0 8.5 1.2-1.3 2.4-2.7 3.6-4 .1.1.2.1.3.2-1.7 4.9-3.5 9.8-5.3 14.9-1-1.6-1.1-2.9-.5-4.3.4-.8.8-1.5 1.3-2.2 1-1.5.8-3-.2-4.3L256 51c-1.9-2.5-1.4-5.1 1.4-6.7.5-.3 1-.7 1.6-1.1-2.5-1.3-5.5.6-5.5 3.2 0 1.1.3 2.3.8 3.3 1.4 3.1 1.4 6.2.6 9.4-.4 1.7-.1 3.5-.1 5.4-.9-.7-1.9-1.6-3.4-2.7-.1 1.2-.4 2.2-.1 3 .1.4 1.2.6 2.4 1-.9.2-1.7.6-2 .4-.8-.6-1.9-1.4-2.1-2.3-.4-1.7-.6-3.6-.1-5.2.6-1.8.8-3.2.1-5 .4.6.9 1.1 1.7 2.1.3-1.3.7-2.3.8-3.2.1-.7-.2-1.4-.3-2-1.4-5-.9-6.4 3.4-8.9 1.1-.1 2.1-.1 3.1-.1zm-4.5 11.7c-1.2 2.5-2.2 4.6-3.3 6.7.1.1.3.1.4.2 1.5-2 3.7-3.6 2.9-6.9z"/><path class="st0" d="M264.4 116.8c-1.7-1.1-3.3-2-4.8-3-.2.1-.3.2-.5.3.4.9.7 1.9 1.2 2.7.4.7 1.3 1.3 1.3 1.9.1 1.1 0 2.3-.4 3.2-.7 1.3-2.1 1.3-3.8.9.7-.4 1.1-.6 2-1-2.5-1.6-5.6-2.7-5.2-6.5-.6.4-.9.6-1.3.9v-.5c.5-1.4 1.1-2.8 1.4-4.2.1-.6-.2-1.5-.7-2-.7-.8-1.7-1.3-2.7-2.1-.2 3.9-.4 7.8-.6 12.1-1.4-1.8-2.5-3.2-3.7-4.9-1.7 4.4-5.2 5-9.1 4.7 1-1.6 2.7-3.1 2.9-4.8.2-1.7-.9-3.5-1.6-5.5-1.1.6-1.9 1-2.7 1.4 0-.1-.1-.1-.1-.2.4-.4.8-.8 1-1.3.4-.8.9-1.6.8-2.4-.1-2.4 1.1-3.9 2.8-5.2 2-1.6 2-2.3.2-4.5-3.5 5.6-6.9 11-10.3 16.5-.1 0-.2-.1-.3-.1.4-2.7.8-5.4 1.2-8.2-3.1.4-4.4 1.5-5.2 4.4-.4 1.2-.8 2.4-1.6 3.4-1.4 1.8-4.1 1.1-4.9-1-.5-1.5.1-2.3 2.6-3.2-.2-.4-.3-.8-.5-1.2-1.4-2.6-.6-4.9 2.1-6 1.3-.5 2.8-.8 4.1-1.3.8-.3 1.5-.9 2.3-1.3 0-.1-.1-.3-.1-.4-.6.1-1.3.2-1.9.2-.6.1-1.2.1-1.9-.2 1-.3 1.9-.7 2.9-.8 2-.2 2.6-1.4 2.7-3.1 0-.6.1-1.2.2-2.3-4.5 2.5-8.7 4.8-12.8 7.1-.1-.1-.2-.1-.3-.2 1.1-1.8 2.2-3.6 3.2-5.4-.1-.1-.2-.2-.3-.1-3.1 2.4-6.1 2.2-9.1-.4-.8-.7-1.9-1-2.8-1.6.6-1.8 1.5-2.6 3.4-1.9 3.3 1.3 4.9-.8 6.9-2.9-2.5-1.4-4.9-2.6-7.2-3.9 7-.4 14.1-.3 21.2-.4-.3-1.8-1.3-1.8-2.2-1.7-1.9.2-3.9.6-5.8.8-2.1.3-4 0-5.8-1.2-.7-.4-1.8-.2-2.6-.3.3-.2.8-.6 1.2-.9-2.4-2.9-3.5-3.1-8-1.4-.9-1.8-.5-3.8 1.2-5.4 1.9-1.8 4.6-2.3 6.7-1 1 .6 1.9 1.5 2.9 2.2.9.7 1.9 1.2 3.3.4-1.9-2.2-3.7-4.4-5.5-6.5l.2-.2c3 1.4 5.9 2.9 9.2 4.5-.6-2.3-.8-4.4-3.6-4.5h2.2c-.4-1.6-1.5-2.4-2.8-3-1.1-.5-2.2-.7-3.2-1.3-3.3-1.6-3.6-6.4-.6-8.3.7-.5 1.7-.5 2.8-.8-.7 5.1 1.1 7.1 5.3 6.2-.5-1.5-.9-3-1.2-4.2 3.9 3.8 8.1 7.8 12.2 11.8-1.6 1.3-3.4 1.4-4.8-.2-1.1-1.2-1.9-2.7-2.6-4.2-1-2-1.5-2.4-3.6-1.8-.9.3-1.7.5-3 .9 2.9.8 3.2 2.9 3.7 5.1.3 1.4.7 2.9 1.6 3.9.9 1 2.5 1.5 3.8 2.3-1.7 1.1-4.7-.6-6.2 1.5 1.9 1 3.8 2.1 5.8 3.2-.4-.9-.9-1.9-1.4-2.9 2-.3 4.2-.4 4.6-3.2 2.1 1 1.8 2.2-.8 4.5.1.5.1 1 .2 1.5s.3 1 .5 1.7c.3-.5.5-.8.7-1.1.8.6 1.6 1.3 2.7 2.1-.2-1.4-.4-2.3-.6-3.4-.3.1-.6.3-1 .4l-.3-.3c.5-.7 1-1.4 1.4-2.1 1.3.5 2.5.9 3.6 1.4-.1.1-.2.2-.2.3-.9.2-2.2.3-1.7 1.6.4 1.3 1.7.9 2.7.5 1.6-.7 2.5-2 2.8-3.7.1-.7.1-1.3.2-2 1.4.1 2 1.4 1.7 3.2-.2 1.1-1.1 2.5 1 2.8-.9.3-1.8.5-2.6.8 0 .3.1.5.1.8 1.4.1 2.9.2 4.3.3v.4c-1.5.1-3.1.2-4.6.3.4 1.3 2 2.5 3.1 2.2 3-.8 3.5-1.3 3.1-3 1.2.4 1.4.9.6 1.6-.6.6-1.5.8-2.2 1.4-.6.5-1.4 1.2-1.3 1.8 0 .7.8 1.8 1.4 1.8.9.1 2.1-.3 2.6-.9 1.6-2.1 2.1-4.3.7-6.9-1.4-2.7-1.2-2.8 2.1-3.4-1.6 1.8-.5 2.4 1.3 2.6-.5.5-.9.9-1.2 1.3-1 1.3-.7 2.2.8 2.7 2.2.8 3.8 2.4 4.9 4.4.7 1.4 1.3 2.9 2.1 4.2.9 1.5 2.1 2.8 3 4.1-2.3.4-4.8-1.6-7.4-6.3-.5 3.1 2.7 7.4 6.1 7.8 1.4.2 2.9.2 4.3.2 1.9 0 3.2.9 3.9 2.6.4 1 .8 2 1.3 3 .9 1.7 3.6 3 5.3 2.6.7-.2 1.3-.8 2.2-1.5-1.3-.1-2.5 0-3.5-.4-.7-.2-1.4-.9-1.7-1.6-.7-1.4-1.3-3-1.8-4.5-.7-2-1.9-3.3-4-3.6-3.1-.5-5.2-2.3-6.9-5-1.8-2.9-3.9-5.6-5.9-8.4 1.4-.3 2.9.1 4.1 1.2 1.4 1.3 2.6 2.8 3.9 4.2.5.6.9 1.2 1.4 1.8 3.7 4.5 6.2 4.8 11.2 1.9 1.5-.8 3.3-1.3 5-1.5 2.3-.2 3.2.8 3.2 3.2 0 .3 0 .5-.1 1.2 1.2-2.9.3-5.1-2.2-5.5-1.6-.2-3.5 0-5 .5-3.9 1.4-6.3.8-8.7-2.5-.7-.9-1.3-1.9-2-2.8-1.3-1.8-2.7-3.5-5-4.1 0-.2 0-.3.1-.5.9 0 1.9-.2 2.7.1 1.2.4 2.2 1.2 3.3 1.8 2 1 3.2.6 4.3-1.3.6-1.1 1-2.2 1.5-3.3.7-1.4 1.6-1.5 2.8-.6.5.3.9.7 1.3 1.2 1.4 1.6 3.1 2.1 5.3 1.1-.1.5-.2.9-.3 1.3 2.4-.8 3.2-4.4 1.8-6.5-.6 1.3-1 2.8-2 4.1-.4.5-1.8.2-2.8.3 0-.2-.1-.3-.1-.5.6-.2 1.2-.4 1.5-.6-1.7-.8-3.5-1.6-5.2-2.4-1.8-.9-3.7-.2-5 1.9-1.7 2.6-1.6 2.6-4.7 1.7-.7-.2-1.4-.2-2.1-.4 0-.2-.1-.3-.1-.5.9-.2 1.7-.3 2.6-.6 1-.3 2.3-.4 3.1-1 1.9-1.6 3.6-3.1 6.3-2.2.4.1 1.1-.5 1.8-.8l-.6 1.5c3.6 2.9 5.3 2.3 6-2.2 2.6 1.2 3.4 4 2.1 6.8-1.2 2.6-3.7 3.6-6.3 2.3-.4-.2-.7-.4-1.1-.6-1.7-1-1.9-1-3.5.6l1.2.6c.3.2.7.3 1 .7-.4 0-.8 0-1.2-.1-1.2-.3-2.1 0-3.2.6-1.4.7-3.1.8-4.7 1.2h15.4c0 .2.1.4.1.6-3.2 1.4-6.4 2.9-9.6 4.3 0 .1.1.3.1.4 1-.3 2.1-.7 3.1-.8 1.6-.3 3.3-.7 4.9-.5 3.5.6 5.3 4.3 3.7 7.2-.3.5-.9.9-1.5 1.7-.8-2.3.9-6-3.5-5-1 .2-2.1 1-2.6 1.8-.4.7 0 1.9.1 2.9-.4-.5-1-1.1-1.6-1.7-.5.3-1 .5-1.5.7-.5.2-1.1.4-1.9.7 2.3 1.4 4.4 2.6 6.5 3.9v.3h-4.4c-.4 3.5.7 4.2 6.8 5-.4 1.5-1.4 2.5-2.8 2.7-1.7.2-3.5-.1-5.3-.2-.4 0-.8-.1-1.6-.2-1.1-2-2-4.8-4.8-5.9-1.2-.5-2.6-.5-3.9-.8-.1.2-.3.5-.4.7 3.3 3.1 6.6 6.2 9.9 9.2-.1.1-.2.2-.3.4h-1.6c-.7 4.5-2.8 7.5-5.7 7.9.5-.9 1-1.6 1.3-2.4 1.1-2.3.7-4.3-1.6-5.5-3.9-2-5.4-5.5-6.6-9.5.8.9 1.7 1.9 2.5 2.8 1.3 1.5 2.4 3.1 3.9 4.4 3.6 3.1 3.9 3.5 2.7 8.1 2.6-2.6 2.7-6.3-.1-8.4-5.2-3.9-8.8-9.2-12.9-14.1-.7-.9-1.2-1.9-1.9-3.2 0 .7-.2 1.2-.1 1.6.4 1.3.7 2.6 1.4 3.7 1.6 2.6 3 5.3 3.6 8.3.6 2.6 1.8 4.9 4.2 6.7-1.8.4-2.9-.4-3.6-1.6-1.3-2.3-2.5-4.8-3.6-7.2-.3-.6-.5-1.2-.8-1.9-.2.1-.4.1-.6.2 2.4 5.5 4.3 11.2 6.2 17.1zm-27.5-21.1c-.4-4.1.4-7.8 2.2-11.3-2.3 1.3-3.6 3.2-4 5.6-.3 1.7-.4 3.4-.6 5.1-.4 3.9-2.5 6.1-6.4 6.9-1.1.2-2.3.4-3.4.7-2.1.7-2.6 2.3-1.3 4.2l1.2 2.1c.4-.8.8-1.6 1.3-2.5-.5-.4-1-.8-1.8-1.5 5-1.1 9.5-2.7 12.9-6.3 3.5-3.7 4.1-8.6 5.4-13.6-3.3 3-3.3 7.3-5.5 10.6zm23 24.4c.1 0 .2-.1.3-.1l-1.8-3.6c-.7-1.4-1.3-2.9-.2-4.4 1.8-2.4 1.6-4.7.1-7.2-2-3.2-3.3-6.6-2.3-10.6.2-.9-.5-2.1-.8-3.3-.5 1.8-.7 3.3-1.2 4.6-1.5 3.8-1.1 7.3 1.4 10.6.7 1 1.4 2.6 1.1 3.6-1.3 4.2-.3 7.5 3 10.2.2 0 .3.1.4.2zm-15.8-29.2c-.4 1.8-.1 3.5.8 5.2.9 1.9.7 3-.8 4.5-.5.5-1 .9-1.5 1.4-1.9 2.1-2.5 4.5-1.3 7 1.3 2.9 2.2 5.7-.2 8.8 2.9-.9 4-2.9 3-6.2-1.2-3.9-.8-7.3 2-10.5 1.8-2 1.6-4.3.2-6.6-.9-1.1-1.5-2.4-2.2-3.6zm4.5.7c1.7 3.9.9 7.4-1.4 10.7-2 3-2 6.2-.5 9.5.6-1.1 1.2-2.2 1.3-3.3.2-2.4.7-4.7 2.1-6.8 2.1-3.2 1.5-7.3-1.5-10.1zm-35.4-18.3c.1.2.1.3.2.5.3 0 .6.1 1 .1 1.7-.2 3 .3 4.1 1.6 2.8 3 6.3 4.5 10.5 4-3.6-1.1-6.4-3.3-9-5.9-1-1-4.2-1.7-5.5-1.1-.5.1-.9.5-1.3.8zm22.4 10.9c-.1-.2-.2-.5-.3-.7-2.5 1.6-5 1.7-7.7.9-.8-.2-1.6-.3-2.4-.3-1.5 0-2.4.8-2.8 1.8 1.9.4 3.8.8 5.6 1.2 1.2.2 2.3.4 3.9.6-.4-.9-.5-1.3-.6-1.4 1.5-.7 2.9-1.4 4.3-2.1zm-1.7 3.3c-1.9 2.2-4.2 2-6.6 1.5-1.1-.2-2.4-.2-3.6 0-1.4.2-2 .9-2.2 1.8 1.8.2 3.7.5 5.6.7 3.1.4 5.5-.9 6.8-4zm-14.6 4.2c-2.6-.4-4.7-.7-6.8-1 0 .2 0 .4-.1.5 1.3.8 2.6 1.6 4 2.3.6.3 1.6.3 2 0 .5-.4.7-1.3.9-1.8zm27.4-4.6c0 .2-.1.4-.1.6.9.1 1.8.5 2.6.2.5-.1 1.1-1.4.9-1.8-.3-.6-1.2-1-1.9-1.3-.8-.3-1.6-.4-2.4-.6 0 .1-.1.2-.1.3.5.3 1.1.7 1.8 1.1-.4.2-.7.3-1.1.5l1.6.8c-.7.1-1 .2-1.3.2zm-21.6-25.5c-.9-.8-2.3-1.4-2.7-2.4-.5-1-.1-2.5-.1-3.6-1.3.5-1.9 1.7-1.5 3.3.5 2 2.1 2.9 4.3 2.7zm-2.7 49.7l-.7-1.4c-1.1.5-1.6 1.3-.9 2.2.4.5 1.6.9 2.2.7 1.3-.4 1.2-1.6.7-2.8-.4.4-.8.7-1.3 1.3zM254 89.6v-.4h-6.1v.4h6.1zm24.2-10.1c2.3-1.8 2.9-3 2.2-4.7-.7 1.6-1.4 3-2.2 4.7zm131.2 45.2v1.7c-.1.1-.2.2-.3.2-2.7.2-2.7.2-2.7 3V153c0 4.5.1 4.5 4.3 5.2v1.9h-16.2v-1.9c2.8-.5 2.8-.5 2.8-3.3v-12.4h-11.7v13.6c0 1.3.7 2.1 2.2 1.9.6-.1 1.2 0 2 0 0 .7.1 1.3.1 2.1h-16.5v-1.8c.1-.1.2-.2.3-.2 2.6-.2 2.6-.2 2.6-2.9v-25.1c-.1-3.1-.3-3.2-3.4-3.3-.2 0-.5 0-.9-.1 0-.6-.1-1.2-.1-1.9h16.5v1.7c-.1.1-.2.2-.3.2-2.9.3-2.9.3-2.9 3.3v9.6H397v-10.9c0-1.4-.7-2.1-2.2-2-.6.1-1.1 0-1.9 0 0-.7-.1-1.3-.1-2h16.6zm-170.5 17.8c3.3 4.8 6.4 9.3 9.6 13.7.7.9 1.9 1.4 3.1 2.3v1.5c-3.5 0-7 .1-10.5-.1-.7 0-1.6-.9-2-1.7-2.2-4-4.4-8.1-6.3-12.3-.8-1.7-1.7-2-3.2-1.7v12.2c0 1 .7 1.5 1.7 1.4.7-.1 1.5 0 2.4 0 0 .7.1 1.3.1 2.1h-16.5v-1.8c.1-.1.2-.2.3-.2 2.6-.2 2.6-.2 2.6-2.9v-25.5c-.1-2.5-.4-2.8-3-2.8-.3 0-.7 0-1.2-.1 0-.6-.1-1.2-.1-1.9.5-.1 1-.2 1.4-.2 5.7 0 11.4-.1 17.1.1 2.1.1 4.4.6 6.3 1.4 3.8 1.5 5.9 5.1 5.8 9.2-.1 2.9-2.2 5.7-5.2 6.7-.5.1-1.2.3-2.4.6zm-9.6-.7c3.2.1 5.8-.3 7.4-3.2 1.9-3.5.4-8.8-3.2-10.7-.9-.5-2.1-.7-3.1-.8-.3 0-1 .6-1 .9-.1 4.5-.1 9-.1 13.8zM151.1 160v-2c.9-.1 1.8-.2 2.8-.2 0-.6.1-1.2.1-1.7V129c-.1-1.5-.7-2.4-2.4-2.2-.6.1-1.1 0-1.8-.1 0-.7-.1-1.2-.1-1.9.6 0 1.1-.1 1.6-.1 5.7 0 11.4-.1 17.1.1 2.2.1 4.5.6 6.5 1.4 3.2 1.3 5 4 5.4 7.5.3 3.6-1.3 6.4-4.2 8.3-3.4 2.3-7.2 2.6-11.1 2-.6-.1-1.1-.2-1.7-.3v12c0 1.8.8 2.7 2.7 2.4.5-.1 1 0 1.6.1v2c-5.6-.2-10.9-.2-16.5-.2zm11.9-25.9v5.9c0 1 .4 1.3 1.3 1.4 2.9.5 5.8-1.1 6.6-4 .9-3.4.2-6.5-2.5-8.8-1-.9-2.5-1.2-3.9-1.6-1-.3-1.6.2-1.5 1.4v5.7zm104.8-7.5v-1.8c.1-.1.2-.2.3-.2 6.7 0 13.5-.1 20.2.1 2.9.1 5.5 1.2 7.6 3.3 4.1 4.3 3 11-2.4 14.1-3.3 1.9-6.9 2.2-10.6 1.7-.6-.1-1.1-.2-1.7-.3v12.2c0 1.5.7 2.5 2.5 2.2.5-.1 1.1 0 1.8 0v2.1h-16.4v-1.9c.2-.1.3-.2.4-.2 2.6-.2 2.6-.2 2.6-2.7v-25.9c-.2-2.3-.5-2.6-2.8-2.6-.5 0-.9-.1-1.5-.1zm13.3 7.5v5.9c0 .9.3 1.3 1.2 1.5 2.6.5 5.4-.9 6.4-3.3 1.4-3.2.2-8-2.7-9.9-1-.7-2.4-.9-3.7-1.2-.8-.2-1.2.3-1.2 1.2v5.8zm-145.4-7.5v-1.9h10.4c0 .6.1 1.1.1 1.6-.2.1-.2.3-.3.3-2.8.3-2.8.3-2.8 3.2 0 5.2-.1 10.4 0 15.6.4 13-8.3 16.1-17 15.8-2.2-.1-4.5-.6-6.6-1.4-4.5-1.7-6.8-5.1-6.8-10v-19.5c0-3.3-.2-3.5-3.5-3.6-.2 0-.5 0-.9-.1 0-.6-.1-1.2-.1-1.9h16.4v1.8c-.1.1-.2.2-.3.2-2.6.2-2.6.2-2.6 2.9 0 6-.1 12 0 18 0 1.8.3 3.7.7 5.4.8 2.9 2.9 4.7 5.9 5.1 5.3.7 11.4-1.2 11.7-9.3.2-6.2.1-12.3.1-18.5 0-3.1-.4-3.4-3.4-3.5-.2-.1-.5-.2-1-.2zm47.2.1v-2h28.5c-.2 1.8-.3 3.5-.6 5.2-.1.4-.6.9-.9 1-.3 0-.9-.5-1-.9-.2-1.2-1-1.9-2.1-2-3.2-.4-6.4-.6-9.6-.9-.3 0-.9.7-1 1-.1 3.8 0 7.6 0 11.7 2.7-.2 5.3-.3 7.9-.5 1.1-.1 1.7-.9 1.7-2 0-.5.1-1 .1-1.7.5 0 1-.1 1.7-.1v9.9c-.5 0-1 0-1.5.1-.6-3.1-.7-3.3-3.9-3.4-1.9-.1-3.8 0-5.5 0v14.1c0 .9.5 1.5 1.6 1.4 2.7-.2 5.4-.2 8.1-.6 2.2-.3 4.3-1 5.5-3.1.2-.3.9-.5 1.1-.4.3.1.5.8.5 1.1-.4 1.6-.8 3.2-1.3 4.8-.1.3-.7.7-1 .7-8.8 0-17.6 0-26.4-.1l-.2-.2v-1.7c.1-.1.2-.2.3-.2 2.5-.2 2.5-.2 2.5-2.7v-26.3c-.1-1.6-.7-2.5-2.5-2.3-.8.1-1.4.1-2 .1zm117 0v-2h16.4v1.7c-.1.1-.2.2-.3.2-2.7.2-2.7.2-2.7 3 0 5.9-.1 11.8 0 17.6 0 1.8.2 3.7.7 5.5.8 3.1 3 4.9 6.3 5.4 6.3.8 10.9-2.5 11.3-8.7.4-6.7.2-13.4.1-20 0-2.4-.4-2.5-4.3-2.7 0-.6-.1-1.2-.1-1.9h10.4c0 .5.1 1.1.1 1.7-.2.1-.3.2-.4.3-2.8.2-2.8.2-2.8 3v16.6c0 9-4.5 13.9-13.4 14.8-3.4.3-6.7.1-9.9-1.1-4.6-1.8-7.1-5.2-7.1-10.2v-20.6c-.1-2.1-.5-2.4-2.6-2.4-.4-.2-.9-.2-1.7-.2zm-198.2 1.2v.3c-.2.8-.1 2.1-.6 2.2-1.3.5-1.2-1-1.7-1.6-.6-.8-1.4-1.6-2.2-2.1-2.6-1.2-5.3-1.1-7.8.3-1.7 1-2.7 2.4-2.7 4.5s1.2 3.3 2.9 4.1c1.5.7 3.1 1.2 4.7 1.8 1.5.6 3.1 1.2 4.6 2 3.9 2 6 5.4 5.9 9.8 0 4.5-2.2 7.8-6.1 9.9-4.4 2.4-9.1 2.5-13.8 1.5-6.3-1.3-4.6-.4-6-6.2-.1-.5.3-1.2.5-1.8.5.4 1.3.6 1.6 1.1 2.4 4.8 10.2 6.4 14.2 2.8 3.3-2.9 2.8-7.6-1.1-9.6-1.4-.7-3-1.2-4.5-1.8-1.6-.6-3.3-1.2-4.8-2-3.4-1.8-5.4-4.7-5.4-8.6 0-4 1.8-7 5.2-8.9 4.1-2.3 8.5-2.8 13.1-2h.2c4.1.9 3.5.3 3.8 4.3zm250 33.3c-1.5-.3-4.3-.8-7.1-1.3-1-.2-1.6-.7-1.8-1.8-.2-1.3-.6-2.5-.7-3.7 0-.5.4-1.1.7-1.7.5.3 1.2.5 1.4 1 2.4 4.4 8.6 6.3 13 3.9 2.3-1.2 3.4-3.2 3.4-5.8 0-2.5-1.5-4.1-3.6-5-2.4-1-5-1.8-7.4-2.9-3.2-1.4-5.7-3.5-6.5-7.1-1.1-4.8.8-9.1 5.3-11.4 4.9-2.6 10.1-2.6 15.3-1.2.4.1.9.7.9 1.2.2 1.3.3 2.6.3 4 0 .4-.4 1-.7 1.1-.3.1-1-.3-1.1-.7-2.1-3.9-6.7-5.1-10.6-2.7-1.7 1-2.7 2.5-2.6 4.6.1 2 1.2 3.2 2.9 3.9 1.5.7 3.1 1.2 4.7 1.8 1.6.7 3.4 1.3 4.9 2.1 7.1 4 7.7 13.6 1.2 18.5-3.2 2.5-6.8 3.1-11.9 3.2zm-80.9 30.6v-9.5c0-.8 0-1.5 1-1.6 2.8-.3 5.7-1 8.5-.7 5.6.5 9.3 4.6 9.9 10.3.7 6.5-2.8 12.2-8.6 13-3.2.5-6.6-.2-9.9-.5-.3 0-.9-1-.9-1.5v-9.5zm5.1-.1c0 2.4.1 4.7 0 7.1 0 1.2.5 1.6 1.6 1.7 2.3.2 4.2-.5 5.6-2.3 2.7-3.3 2.8-9.4.2-12.7-1.5-2-3.5-2.9-6-2.5-1 .1-1.4.6-1.3 1.6-.1 2.3-.1 4.7-.1 7.1zm63.8 15.3c.8-1.5 1.9-1.8 3.4-1.3.1 0 .2.1.3.1 3.1 1 4.2.1 3.9-3.3-1.8 1.1-3.6 1.1-5.4.1-1.9-1.1-2.8-2.9-3.2-4.9-.5-2.7-.4-5.4 1-7.9 1.8-3.2 5.4-3.9 8.2-1.8 1.3-.5 2.6-1 4.1-1.5v16.1c0 3.3-1.4 5.7-3.9 6.7-2.7.9-6.3 0-8.4-2.3zm7.7-12c-.1-1 0-2.3-.3-3.4-.2-.6-.9-1.5-1.5-1.5-.5-.1-1.6.8-1.7 1.3-.2 2.5-.2 5 0 7.5 0 .5 1.2 1.4 1.8 1.4.6-.1 1.3-1 1.5-1.7.2-1.1.1-2.3.2-3.6zm-162.3 6.9c-1.2 1.4-3 .1-4.6.8v-25.3h4.4v9.6c1.8-.3 3.5-.7 5.2-.8.9 0 1.9.4 2.8.8 3 1.6 4.2 5.5 3.2 9.8-.8 3.6-3.5 6-6.9 6-1.3-.1-2.6-.6-4.1-.9zm6.7-7.7h-.2c-.1-.9-.1-1.7-.2-2.6-.1-.6-.2-1.1-.4-1.7-.6-2-1.7-3-3.2-2.9-1.6.1-2.8 1.6-2.8 3.6-.1 2.6 0 5.3 0 7.9 0 1.6.8 2.8 2.4 3.1 1.7.3 2.8-.7 3.3-2.2.5-1.6.7-3.4 1.1-5.2zm137.5-7.4c4.6 0 7.7 3.3 7.8 8.3 0 4.8-3.3 8.3-7.8 8.3s-7.7-3.5-7.7-8.2c0-5 3.2-8.4 7.7-8.4zm-3 8.4c.2 1 .2 1.9.5 2.9.3 1.2 1.2 2 2.5 2s2.4-.7 2.5-1.9c.2-2 .2-4 0-5.9-.1-1.2-1.2-1.9-2.5-1.9s-2.1.8-2.5 2c-.2.8-.3 1.8-.5 2.8zm-17.9 6.3c-2.5 2.1-5.6 2.5-7.8 1-1.5-1-2.1-3.2-1.4-5.1.8-2.3 4.1-4 7.4-3.7.2 1.2-.2 2.1-1.3 2.7-.4.2-1 .4-1.1.7-.3.8-.6 1.7-.4 2.5.1.4 1.3.9 1.8.8.7-.2 1.6-.9 1.7-1.5.2-2.3.1-4.7.1-7.1 0-1.2-1-1.7-2-1.6-.7 0-1.4.2-2 .5-2 .7-2.5.6-3.8-1.1 2.2-2.5 7-3.5 10-1.9 1.7.9 2.6 2.4 2.7 4.3.2 2.8-.3 5.6.8 8.4.5 1.4-.7 2.1-1.8 2.8-1.7.8-2-.9-2.9-1.7zm-140.1-14.9c-.6 3.6-1.2 6.8-1.7 10.1-.1.5-.1.9-.1 1.4.1 2.2 1 3.4 2.7 3.4 1.9 0 3.4-1.5 3.4-3.6v-10c0-.3 0-.7.1-1.2h4.4v15.7h-4.4c-.1-.5-.1-1-.2-1.7-1.8 1.8-3.8 2.4-6.1 2.1-2.7-.4-4.7-2.3-4.4-5.1.3-3.5 1.1-6.9 1.7-10.4.1-.3.6-.7.9-.7 1.2-.1 2.4 0 3.7 0zm68.5 14.1c.4.2.8.5 1.3.6 1.4.2 3 .6 4.4.3 1.7-.3 2.5-2 1.7-3.6-.6-1.3-1.6-2.5-2.5-3.7-1.3-1.6-2.8-2.9-4-4.5-1.5-1.9-2.5-4.1-1.2-6.5 1.3-2.5 3.6-3.1 6.2-3 1.4.1 2.7.6 4.1.9-.1.3-.2.5-.2.8-.5-.2-1-.4-1.6-.6-1.5-.4-3-.8-4.1.7-1.1 1.4-.5 2.9.4 4.1 1.5 1.8 3.2 3.5 4.7 5.3 1.4 1.6 2.7 3.4 2.4 5.7-.2 1.2-.7 2.6-1.6 3.5-2 2.2-6.7 2.7-9.3 1.2-.3-.2-.6-.5-.9-.8 0-.1.1-.2.2-.4zm-33.5-23.3v25h-4.4v-25h4.4zm111.5 2.6c2.8-.2 4.6 1 4.7 3.2.1 6.7 0 13.3 0 20-2.8.6-4.6-.9-4.7-3.8-.1-3.9 0-7.8 0-11.7V180z"/><path class="st0" d="M241.8 66.7c-.6-2.1-2.3-3.1-3.9-4.2-1.1-.8-2.2-1.8-2.8-2.9-.7-1.6-1.4-3-3.2-3.6.7.1 1.4.2 2.3.3.6-2.1 1.3-4.2 1.8-6.3.4-2.2-.4-2.9-2.6-2.5-.8.1-2.1.8-2.3-.5-.1-.8.6-2 1.3-2.4 2.2-1.3 4.6-1.4 7-.4 1.9.9 2.6 2.5 2.5 4.5-.1 1.8-.2 3.7-.2 5.5 0 1.2.4 2.4 2 2.8.7-2.9 1.4-5.7 2.1-8.6h.3c.7 4.1 1.5 8.1 2.2 12.2-1.6-.7-3-1.4-4.5-2-2.3-1-3.2-2.5-3.1-5.1.1-1.5.3-3 .3-4.5.1-3.2-1.5-4.7-5-4.7.5.3.7.6 1.1.7 1.6.9 2.1 2.3 1.5 4-.5 1.5-1.2 3-1.9 4.5-1.7 4-1.1 5.9 2.4 8.4 1.9 1.3 3.1 2.6 2.7 4.8zm-10-19.9h4.1c-1.5-1.4-2.5-1.5-4.1 0zm50.5 12c-.8.3-1.5.6-2.3.9 1-2.1 2.1-2.3 4.7-1-.7-1.2-1.7-1.9-2.9-1.7-1.7.3-3 1.3-3.5 2.9-.4 1.1-.5 2.2-.6 3.4-.6 3.9-2.1 4.9-5.8 3.6-1.8-.6-2.9.3-4 1.5-.7.7-1.5 1.3-2.5 1.7 1.7-2.7 3.1-5.6 6.8-6.1 2.9-.4 3.6-2.9 4-5 .8-.5 1.4-.7 1.8-1.1 2.5-2.2 5.5-2.3 7.5 0 .5.5.7 1.2 1 1.6-1.7.6-3.9.7-4.5 1.7-1.1 1.7-1.1 4.1-1.7 6.4h4.3c0 .1.1.3.1.4-4.9 2.2-9.8 4.4-14.7 6.5-.1-.1-.2-.2-.3-.4.6-.5 1.2-1.2 1.9-1.5 1.2-.6 2.5-.9 3.7-1.3 2.7-.8 4.2-2.6 4.4-5.5.1-1.1 0-2.4.4-3.4.4-1.2 1.3-2.3 2.2-3.6zm-10 6.9c.5.2 1.1.5 1.8.6.4.1 1.1 0 1.2-.2.6-1.2 1-2.5 1.4-3.7-1.5 1.1-2.9 2.2-4.4 3.3zm-46.6 122c-.4-.1-.8-.1-1.2-.2-2.8-.9-4.8 0-5.2 2.9-.4 2.6-.4 5.3 0 7.8.5 3.3 2.8 4.2 5.9 3 .3-.1.6-.2 1-.3-1 2.1-5.7 2.5-8.7.9-3.8-2.1-5-8.4-2.4-12.4 2.3-3.4 7.6-4.5 10.6-1.7zm7.6-1v15.6h-4.5v-15.6h4.5zm-26.6-.1h4.4v15.7h-4.4v-15.7zm90.7 16.7c-3.3-.1-4.6-1.2-4.7-4.1-.1-3.2-.1-6.4 0-9.6 0-2 .9-2.8 2.5-2.8 1.5 0 2.2.9 2.2 2.9v13.6zM272.3 56.2c.9-.5 2.1-1.1 3.3-1.6-3.5 4.8-6.7 9.8-11.2 13.8 2.2-1.8 2.7-4.1 3.1-6.7.2-1.4 1.4-2.8 2.3-3.9 1.6-1.9 2.4-4 2.4-6.5-.1-2-1.1-3.2-3.4-3.9.3.5.6.8.8 1.2 1.2 1.9.9 3.5-1 4.7-.9.6-1.9 1.1-2.9 1.5-1.8.6-2.8 1.9-3.2 3.7-.1.7-.3 1.4-.3 2-.1 3.2-2.3 4.7-5.2 5.4.5-.5.9-1.1 1.4-1.4 1.8-1.3 2.7-2.9 2.7-5.1 0-1.7.6-3.2 2-4.4.5-.5.5-1.6.8-2.6.3.6.5 1.2.8 1.9.9-.4 1.7-.6 2.5-1.1 2.1-1.1 2.3-2.5.9-4.3-.2-.2-.4-.4-.5-.7-.2-.4-.5-1.1-.3-1.3.2-.3.9-.4 1.4-.4 1.8.1 3.7 1.8 3.9 3.8.1 1.9-.2 3.9-.3 5.9zm-9.8 135.3c0 1.7-1.5 3.2-3.2 3.2-1.7 0-3.2-1.5-3.1-3.2 0-1.8 1.4-3.2 3.2-3.2 1.7 0 3.1 1.4 3.1 3.2zm-29-9.8c0 1.5-1 2.5-2.5 2.4-1.4 0-2.4-.9-2.4-2.3 0-1.5 1-2.5 2.4-2.6 1.4 0 2.5 1.1 2.5 2.5zm-22.1 0c0 1.5-1 2.5-2.5 2.5-1.4 0-2.4-.9-2.5-2.3-.1-1.5.9-2.5 2.4-2.6 1.5-.1 2.6.9 2.6 2.4zm86.1.7c0 1.4-1.1 2.5-2.5 2.5s-2.4-1.1-2.4-2.4c0-1.4 1.2-2.5 2.5-2.5 1.4 0 2.4 1.1 2.4 2.4zM254.8 76.5c-.5-1.5-.7-2.9.7-3.8 1.9-1.2 3.3.4 4.8 1.1-1 1.5-1.9 2-5.5 2.7zM231 63.3c.4.5 1.1 1 1.5 1.7.4.6.5 1.4.7 2.1.8 2.7 1.4 3.2 4.2 3.4.1.2.1.3.2.5-.9.3-1.8 1-2.5.8-1-.3-2.1-1-2.8-1.9-.5-.7-.3-1.9-.5-2.8-.2-1.3-.5-2.5-.8-3.8zM241.2 74c1.5-.7 2.8-2.3 4.7-1.1 1.4.9 1.1 2.2.7 4-1.9-.8-3.7-1.5-5.5-2.2 0-.3.1-.5.1-.7z"/><path class="st0" d="M262.2 67.4c.4-1.3 1.3-2.6 1.3-3.9 0-3.5 1-6.1 4.4-7.5.6-.2 1-.7 1.8-.9-.5.5-.9 1.1-1.4 1.4-2.2 1.5-3.4 3.5-3.4 6.2 0 1.7-.1 3.5-2 4.5-.4.2-.8.2-.7.2zm-14.4-2.8c-1.2-.8-2.3-1.8-3.6-2.5-1.4-.7-3.1-1-4.5-1.8-1.8-.9-2.1-2.1-1.2-4.2.2 2.5 1.9 3.4 3.8 4.1 1.2.4 2.5.8 3.7 1.4 1.4.8 2.1 1.9 1.8 3zm-2.8 3.9c-.7.7-1.4 1.3-2.2 2.1h7.6c-.6 1.6-1.5 1.7-2.4 1.2-1.9-.9-3.6-.7-5.4.2-1.1.6-2.1.4-2.4-.7 1.6-1.1 3.1-2.1 4.6-3 .1 0 .1.1.2.2zm16.9 2.9c-.7.2-1.6.7-2.1.4-1.8-1-3.4-.7-5.1-.1-.6.2-1.9-.2-2.3-.8-.7-.9-.3-2 .5-2.4.4.8.5 1.9 1.1 2.4.5.3 1.6-.1 2.3-.4 1.2-.5 2.3-.9 3.6-.1.5.3 1.2.3 1.7.4.2.3.3.5.3.6zm16.6-4.3c-2.4 3.4-6.8 2.1-9.9 4.7 1-2 2.1-2.6 5.2-3.2 1.5-.3 2.9-1.2 4.3-1.8h.1c.1 0 .1.1.3.3zm-12.6 10.1c-1.5.1-2.9.1-4.5.2.9-1.5 2.6-1.5 4.5-.2z"/></svg>