<svg version="1.1" id="logo" xmlns="http://www.w3.org/2000/svg" xmlns:xlink="http://www.w3.org/1999/xlink" x="0" y="0" viewBox="0 0 489.5 251.6" xml:space="preserve"><style>.st1{fill:#fff}</style><path class="st1" d="M160.8 100h4.3l5.7-26.1h-8.6v-5.4h-3.9v8.8h7.4zm13.5-26.1v3.4h2.8s.8 7.4 1.1 9.7c.6 4.3-.4 8.8-5 8.8h-.9v4.2h.8c3.2 0 5.3-2.8 5.9-5.9l.7 5.9h4.1l-2.9-26.1h-6.6zm11.2 10.5h9.4v3.4h-9.4zm28.6-.5h4.4V100h-4.4zm-9.1.6V100h4.4V85.2c0-6.6-.4-11.3-7.5-11.3h-4.8v3.4h4.4c3.7 0 3.5 3.3 3.5 7.2z"/><path class="st1" d="M223.2 100h4.4V73.9h-13.5v3.4h9.1zm-60.9 16.6h3v15.6c0 2.4-.4 3.6-2.6 3.6h-1.8v1.7h2.5c3.7 0 4.3-2.3 4.3-6.4v-16.3h-5.4v1.8zm-7.7-1.7h2.4v22.7h-2.4zm64.8 0h2.4v14.2h-2.4zm-92.7 1.7h2.9c3.2 0 4.5 2.3 4.5 6.2v14.8h2.4v-12.9c0-5.8-.5-9.8-6.6-9.8h-5.5v22.7h2.4v-21zm-10.3-1.7h2.4v22.7h-2.4zm-11.5 0h-6.3v1.7h2.2v19.3h-3.5v1.7h5.9v-21h2c2.9 0 3.7 1.8 3.7 6.5v14.5h2.4v-12.9c0-5.8-.1-9.8-6.4-9.8zm44.8 8.7c0-6.1-1.3-8.8-6.3-8.8h-3.3v1.7h3.8c2 0 3.4 1.6 3.4 6.1v7.1c0 4.5-1.4 6.1-3.4 6.1h-3.8v1.7h3.3c5 0 6.3-2.6 6.3-8.7v-5.2zm32.3 12.3v-2.4h-2l-1.9 9.1h1zm10.9-13.1v14.8h2.4v-12.7c0-5.8 0-10-6.2-10H185v1.7h3.9c3.8 0 4 2.9 4 6.2zm15.5.8c0-6.1-1.3-8.8-6.3-8.8h-3.3v1.7h3.8c2 0 3.4 1.6 3.4 6.1v7.1c0 4.5-1.4 6.1-3.4 6.1h-3.8v1.7h3.3c5 0 6.3-2.6 6.3-8.7v-5.2z"/><path class="st1" d="M225.9 128.7c0 6.4-2.3 7.1-5.8 7.1h-3.7l-1.9-21h-2.4l1.9 22.7h6.3c4.9 0 7.9-1.4 7.9-9.7v-13h-2.4v13.9zm-25 39.2c0 6.4-2.3 7.1-5.8 7.1h-3.7l-1.9-21h-2.4l1.9 22.7h6.3c4.9 0 7.9-1.4 7.9-9.7v-13h-2.4v13.9zm-36-13.9h-9v1.7h6.7V175h-6.8v1.7h11.4V175h-2.3zm48.5 0h-6.5v1.7h3l-3 21h2.5l2.8-21h1.2c2.9 0 4 1.8 4 5.3v14h-4v1.7h6.4v-13.9c-.1-5.8-1.4-8.8-6.4-8.8zm-121 0h2.4v14.2h-2.4zm132.6 0h2.4v22.7H225z"/><path class="st1" d="M194.4 154h2.4v14.2h-2.4zm-57 7.6V154H135v8.1c0 2.4-.7 3.1-2.8 3.9l-5.6-12.1h-2.5l3.5 7.4c-2.8.7-3.5 2.8-3.5 5.7v9.6h2.3v-10.5c0-1.5.5-2.6 1.8-3.1l6.6 13.6h2.5l-4.4-9c3.6-.9 4.5-2.7 4.5-6zm11.9-7.6h2.3v12h-2.3zm34.2 7.6V154h-2.3v8.1c0 2.4-.7 3.1-2.8 3.9l-5.6-12.1h-2.5l3.5 7.4c-2.8.7-3.5 2.8-3.5 5.7v9.6h2.3v-10.5c0-1.5.5-2.6 1.8-3.1l6.6 13.6h2.5l-4.4-9c3.5-.9 4.4-2.7 4.4-6zm-77.4-7.6h2.4v22.7h-2.4zm-7.3 13.9c0 6.4-2.3 7.1-5.8 7.1h-3.7l-1.9-21H85l1.9 22.7h6.3c4.9 0 7.9-1.4 7.9-9.7v-13h-2.4v13.9zm15-12.2h3v15.6c0 2.4-.4 3.6-2.6 3.6h-1.8v1.7h2.5c3.7 0 4.3-2.3 4.3-6.4V154h-5.4v1.7zm143.5-82.1h.8v102.8h-.8zm82.5-12.5c-35.7 0-64.7 29-64.7 64.7s29 64.7 64.7 64.7 64.7-29 64.7-64.7c-.1-35.7-29-64.7-64.7-64.7zm15.6 113.4c-4.6-.7-9.5-2.2-14.9-4.8-43.8-21.4-39.6-73.6-39.5-74.4 3.9-7.4 9.1-13.2 14.7-17.6.9-.4 28.1-12 53.1.9 7.2 8.3 17.8 24.1 17.1 44.5-2.6 33.5-24 47.8-30.5 51.4z"/></svg>