<svg version="1.1" id="logo" xmlns="http://www.w3.org/2000/svg" xmlns:xlink="http://www.w3.org/1999/xlink" x="0" y="0" viewBox="0 0 489.5 251.6" xml:space="preserve"><path d="M173.8 83.5c-6 0-10.5 2.4-13.6 7.1-2.5 3.9-3.8 9.5-3.8 16.8 0 8.7 2 15.1 5.9 19.2 2.7 2.9 6.5 4.3 11.4 4.3 3.3 0 6.1-.6 8.3-1.9 2.8-1.6 5-4.2 6.6-7.7 1.6-3.5 2.4-8.1 2.4-13.7 0-6.7-.8-11.8-2.4-15.1-1.6-3.3-3.6-5.7-6.1-7.1-2.6-1.2-5.5-1.9-8.7-1.9zM110.9 112v15.3c0 3 .2 4.9.5 5.6s1 1.4 1.9 1.8c.9.5 2.6.7 5.1.7v1.5h-28v-1.5c2.5 0 4.3-.2 5.2-.7.9-.5 1.5-1.1 1.9-1.8.4-.8.5-2.6.5-5.6V91.5c0-3-.2-4.8-.5-5.6s-1-1.4-1.9-1.8c-.9-.5-2.6-.7-5.2-.7v-1.5h24c7.9 0 13.6 1.4 17 4.2 3.4 2.8 5.2 6.3 5.2 10.6 0 3.6-1.1 6.6-3.3 9.2-2.2 2.5-5.3 4.3-9.2 5.2-2.5.5-7 .9-13.2.9zm0-27v23.8c.9.1 1.6.1 2 .1 3.3 0 5.8-1 7.6-2.9 1.8-2 2.7-5 2.7-9.1s-.9-7.1-2.7-9c-1.8-1.9-4.5-2.8-8-2.8h-1.6zm116-3.2l27.2 34.1V92.3c0-3.3-.5-5.5-1.4-6.7-1.3-1.6-3.5-2.3-6.5-2.3v-1.5h18.2v1.5c-2.3.3-3.9.7-4.7 1.2-.8.5-1.4 1.2-1.9 2.3s-.7 2.9-.7 5.5v45.8h-1.4l-37.2-45.8v35c0 3.2.7 5.3 2.2 6.4 1.4 1.1 3.1 1.7 5 1.7h1.3v1.5h-19.5v-1.5c3 0 5.1-.6 6.3-1.9 1.2-1.2 1.8-3.3 1.8-6.2V88.4l-1.2-1.5c-1.2-1.5-2.2-2.4-3.1-2.9-.9-.5-2.2-.7-3.9-.8v-1.5h19.5zm92.6 0v14.9H318c-.9-3.4-1.8-5.9-2.9-7.4-1.1-1.5-2.5-2.7-4.3-3.6-1-.5-2.8-.7-5.4-.7h-4.1v42.5c0 2.8.2 4.6.5 5.3.3.7.9 1.3 1.8 1.8s2.1.8 3.7.8h1.8v1.5h-28.8v-1.5h1.8c1.6 0 2.9-.3 3.9-.9.7-.4 1.3-1 1.7-1.9.3-.6.4-2.4.4-5.1V85h-4c-3.7 0-6.4.8-8.1 2.4-2.4 2.2-3.8 5.3-4.5 9.4H270v-15h49.5zm35.4 53.6v1.5h-28.8v-1.5h1.8c1.6 0 2.9-.3 3.9-.9.7-.4 1.2-1 1.6-1.9.3-.6.4-2.4.4-5.1V91.2c0-2.8-.1-4.6-.4-5.3-.3-.7-.9-1.3-1.8-1.8s-2.1-.8-3.7-.8h-1.8v-1.5h28.8v1.5H353c-1.6 0-2.9.3-3.9.9-.7.4-1.3 1-1.7 1.9-.3.6-.4 2.4-.4 5.1v36.2c0 2.8.2 4.6.5 5.3.3.7.9 1.3 1.8 1.8s2.1.8 3.7.8h1.9zm40.2-54.8l.4 18.4h-1.7c-.8-4.6-2.7-8.3-5.8-11.1-3.1-2.8-6.4-4.2-10-4.2-2.8 0-4.9.7-6.6 2.2-1.6 1.5-2.4 3.2-2.4 5.1 0 1.2.3 2.3.9 3.2.8 1.3 2 2.5 3.8 3.8 1.3.9 4.2 2.5 8.8 4.8 6.4 3.2 10.8 6.2 13 9 2.2 2.8 3.3 6 3.3 9.7 0 4.6-1.8 8.6-5.4 11.9-3.6 3.3-8.1 5-13.7 5-1.7 0-3.4-.2-4.9-.5-1.5-.4-3.5-1-5.8-2-1.3-.5-2.4-.8-3.2-.8-.7 0-1.4.3-2.2.8-.8.5-1.4 1.4-1.9 2.5h-1.5v-20.8h1.5c1.2 5.8 3.5 10.3 6.9 13.4s7.1 4.6 11 4.6c3 0 5.4-.8 7.2-2.5 1.8-1.7 2.7-3.6 2.7-5.8 0-1.3-.3-2.6-1-3.8-.7-1.2-1.7-2.4-3.1-3.5-1.4-1.1-3.9-2.5-7.5-4.3-5-2.5-8.6-4.6-10.8-6.3-2.2-1.7-3.9-3.7-5.1-5.8-1.2-2.1-1.8-4.5-1.8-7.1 0-4.4 1.6-8.1 4.8-11.2 3.2-3.1 7.3-4.6 12.2-4.6 1.8 0 3.5.2 5.2.6 1.3.3 2.8.9 4.6 1.8 1.8.9 3.1 1.3 3.8 1.3.7 0 1.3-.2 1.7-.6.4-.4.8-1.5 1.1-3.1h1.5zm-206.4 2.9c-.1-.1-.1-.3-.2-.4-3.9-6.3-8.9-9.3-15.2-9-5.8-.4-10.6 2.6-14.6 9-.1.1-.1.2-.2.4 4.2-2.9 9.1-4.2 14.7-4 6.1-.2 11.2 1.1 15.5 4zM150.6 92c-6.8 3.8-10.3 8.9-10.3 15.5 0 6.5 3.5 11.6 10.5 15.3-2.8-4.6-4.2-9.9-4.2-15.8.1-5.6 1.4-10.6 4-15zm8 39.2c3.7 6.4 8.8 9.6 15.1 9.6 6.2 0 11.1-3.2 14.8-9.5-4.1 2.7-9 4.1-14.8 4.1-5.8-.1-10.9-1.5-15.1-4.2zm39.3-38.6c-.4-.3-.9-.5-1.3-.7 2.6 4.4 3.9 9.4 3.9 15.1 0 6.1-1.5 11.6-4.5 16.4.7-.3 1.3-.7 1.9-1 6.3-3.9 9.3-8.9 9-15.2.4-5.8-2.6-10.7-9-14.6zm-27.8 57.8h2.8v18.2h10.5v2.5h-13.3v-20.7zm22 5.3c1.1 0 2.1.3 3.1.7 1 .5 1.8 1.2 2.4 2.1.4.7.7 1.5.9 2.5.1.8.2 1.9.2 3.3h-11.1c.1 3.4 1.5 5.1 4.2 5.1 1.3 0 2.4-.4 3.2-1.3.5-.5.8-1.1 1-1.8h2.5c-.2 1.3-.8 2.5-1.9 3.5-1.2 1.2-2.9 1.7-4.9 1.7-2.1 0-3.8-.8-5-2.4-1.1-1.4-1.7-3.3-1.7-5.4 0-2.3.6-4.2 1.8-5.7 1.3-1.5 3.1-2.3 5.3-2.3zm4.1 6.7c-.1-1.1-.3-2-.7-2.6-.7-1.2-1.9-1.8-3.5-1.8-1.2 0-2.2.4-3 1.3-.7.8-1.1 1.9-1.2 3.1h8.4zm6.2-10.6h2.6v4.2h2.4v2.1H205v9.9c0 .5.2.9.5 1.1.2.1.5.2 1 .2h.9v2c-.6.2-1.2.2-1.9.2-2 0-3-1.1-3-3.3v-10h-2V156h2v-4.2zm8.1 4.7c1.1-.2 1.6-1 1.6-2.6v-.4h-1.5v-3.1h3v2.8c0 1.2-.2 2.1-.6 2.9-.5.9-1.3 1.5-2.4 1.6v-1.2zm7.4 9.9c.1.8.3 1.5.6 1.9.6.8 1.7 1.2 3.3 1.2.9 0 1.7-.2 2.4-.5.8-.5 1.2-1.1 1.2-2 0-.7-.3-1.1-.9-1.5-.3-.2-1.1-.4-2.2-.7l-2-.5c-1.3-.3-2.2-.7-2.8-1.1-1.1-.7-1.6-1.6-1.6-2.8 0-1.6.6-2.8 1.7-3.6 1-.8 2.4-1.2 4-1.2 2.3 0 3.9.7 4.9 2 .6.8.9 1.7.9 2.7H225c0-.6-.2-1.1-.6-1.6-.6-.7-1.6-1-3-1-1.9 0-2.9.7-2.9 2 0 .7.3 1.2 1 1.6.4.2.9.4 1.7.6l1.7.4c1.8.4 3 .9 3.7 1.3 1 .6 1.5 1.7 1.5 3.1 0 1.6-.6 2.9-1.9 3.8-1.1.8-2.5 1.2-4.3 1.2-4 0-6.1-1.8-6.3-5.3h2.3zm26.2-10.6c1.2 0 2.2.3 3.1.9.5.3 1 .8 1.5 1.4v-1.9h2.3v13.7c0 1.9-.3 3.4-.8 4.5-1.1 2-3 3.1-6 3.1-1.6 0-3-.3-4-1-1.2-.8-1.8-1.9-2-3.5h2.6c.3 1.6 1.4 2.4 3.4 2.4 1.9 0 3.2-.7 3.8-2.1.4-.8.5-2.2.5-4.3-1 1.5-2.6 2.3-4.7 2.3s-3.7-.8-4.7-2.3c-.9-1.3-1.4-3.1-1.4-5.2 0-2.2.5-4 1.5-5.5 1.3-1.7 2.9-2.5 4.9-2.5zm4.6 7.7c0-1.5-.3-2.8-.9-3.8-.7-1.2-1.8-1.8-3.2-1.8-1.8 0-3 .8-3.7 2.5-.3.9-.5 2.1-.5 3.5s.3 2.6.8 3.5c.7 1.1 1.7 1.7 3 1.7 1.8 0 3.1-.8 3.8-2.5.5-.7.7-1.8.7-3.1zm12.5-7.8c1.1 0 2.1.3 3.1.7 1 .5 1.8 1.2 2.4 2.1.4.7.7 1.5.9 2.5.1.8.2 1.9.2 3.3h-11.1c.1 3.4 1.5 5.1 4.2 5.1 1.3 0 2.4-.4 3.2-1.3.5-.5.8-1.1 1-1.8h2.5c-.2 1.3-.8 2.5-1.9 3.5-1.2 1.2-2.9 1.7-4.9 1.7-2.1 0-3.8-.8-5-2.4-1.1-1.4-1.7-3.3-1.7-5.4 0-2.3.6-4.2 1.8-5.7 1.2-1.5 3-2.3 5.3-2.3zm4 6.7c-.1-1.1-.3-2-.7-2.6-.7-1.2-1.9-1.8-3.5-1.8-1.2 0-2.2.4-3 1.3-.7.8-1.1 1.9-1.2 3.1h8.4zm6.2-10.6h2.6v4.2h2.4v2.1H274v9.9c0 .5.2.9.5 1.1.2.1.5.2 1 .2h.9v2c-.6.2-1.2.2-1.9.2-2 0-3-1.1-3-3.3v-10h-2V156h2v-4.2zm15.4 4.3h2.5v2c1.2-1.6 2.8-2.4 4.7-2.4 2 0 3.6.8 4.7 2.4 1 1.4 1.5 3.1 1.5 5.2 0 3.3-.9 5.6-2.6 7-1.1.9-2.4 1.3-3.8 1.3-1.1 0-2.1-.2-2.9-.7-.5-.3-1-.8-1.5-1.5v7.7h-2.5v-21zm6.5 13.3c1.5 0 2.5-.7 3.3-2 .6-1 .9-2.4.9-3.9 0-1.2-.2-2.2-.5-3.1-.7-1.7-1.9-2.5-3.6-2.5-2.7 0-4.1 2.1-4.1 6.2 0 1.2.2 2.2.5 3 .6 1.6 1.8 2.3 3.5 2.3zm16-13.7c1.1 0 2.1.3 3.1.7 1 .5 1.8 1.2 2.4 2.1.4.7.7 1.5.9 2.5.1.8.2 1.9.2 3.3h-11.1c.1 3.4 1.5 5.1 4.2 5.1 1.3 0 2.4-.4 3.2-1.3.5-.5.8-1.1 1-1.8h2.5c-.2 1.3-.8 2.5-1.9 3.5-1.2 1.2-2.9 1.7-4.9 1.7-2.1 0-3.8-.8-5-2.4-1.1-1.4-1.7-3.3-1.7-5.4 0-2.3.6-4.2 1.8-5.7 1.3-1.5 3.1-2.3 5.3-2.3zm4.1 6.7c-.1-1.1-.3-2-.7-2.6-.7-1.2-1.9-1.8-3.5-1.8-1.2 0-2.2.4-3 1.3-.7.8-1.1 1.9-1.2 3.1h8.4zm5.7-6.4h2.4v2.6c.3-.8.9-1.5 1.7-2 .8-.6 1.6-.9 2.4-.9.1 0 .4 0 .8.1v2.7c-.3 0-.5-.1-.8-.1-1.2 0-2.1.4-2.9 1.1-.7.8-1.1 1.7-1.1 2.9v8.7h-2.5V156zm11.1 10.4c.1.8.3 1.5.6 1.9.6.8 1.7 1.2 3.3 1.2.9 0 1.7-.2 2.4-.5.8-.5 1.2-1.1 1.2-2 0-.7-.3-1.1-.9-1.5-.3-.2-1.1-.4-2.2-.7l-2-.5c-1.3-.3-2.2-.7-2.8-1.1-1.1-.7-1.6-1.6-1.6-2.8 0-1.6.6-2.8 1.7-3.6 1-.8 2.4-1.2 4-1.2 2.3 0 3.9.7 4.9 2 .6.8.9 1.7.9 2.7h-2.4c0-.6-.2-1.1-.6-1.6-.6-.7-1.6-1-3-1-1.9 0-2.9.7-2.9 2 0 .7.3 1.2 1 1.6.4.2.9.4 1.7.6l1.7.4c1.8.4 3 .9 3.7 1.3 1 .6 1.5 1.7 1.5 3.1 0 1.6-.6 2.9-1.9 3.8-1.1.8-2.5 1.2-4.3 1.2-4 0-6.1-1.8-6.3-5.3h2.3zm19-10.8c2.2 0 3.9.7 5.2 2.2 1.2 1.4 1.8 3.2 1.8 5.5 0 2.5-.6 4.5-1.7 6-1.3 1.6-3.1 2.4-5.6 2.4-2.2 0-3.9-.8-5.1-2.3-1.1-1.4-1.7-3.2-1.7-5.5 0-2.4.6-4.3 1.7-5.8 1.3-1.7 3.1-2.5 5.4-2.5zm-.1 13.9c2.9 0 4.4-2.1 4.4-6.2 0-3.7-1.5-5.5-4.4-5.5-1.6 0-2.7.6-3.5 1.9-.6 1.1-.9 2.4-.9 4.1 0 1.6.3 2.9 1 3.9.8 1.2 1.9 1.8 3.4 1.8zm10.1-13.5h2.4v2.1c1.3-1.7 3-2.5 4.9-2.5 2.1 0 3.6.7 4.3 2.2.4.8.6 2 .6 3.5v9.7h-2.6v-9.5c0-2.4-1-3.6-2.9-3.6-.6 0-1.1.1-1.5.2-.7.2-1.3.6-1.8 1.2-.7.8-1 2.1-1 3.8v7.9h-2.5v-15zm24.1 6c.6-.1 1-.3 1.2-.7.1-.2.2-.6.2-1 0-1.6-1.2-2.5-3.6-2.5-1.3 0-2.3.4-2.8 1.1-.3.4-.5 1-.6 1.8h-2.4c.1-3.3 2-5 5.9-5 1.7 0 3 .3 4 .8 1.3.7 1.9 1.8 1.9 3.3v8.7c0 .6.3.9.8.9.2 0 .5 0 .8-.1v1.9c-.6.2-1.2.3-1.7.3-.9 0-1.5-.3-1.9-.9-.2-.3-.4-.8-.4-1.4-.6.8-1.4 1.4-2.4 1.9-1 .4-2 .6-3 .6-1.4 0-2.5-.4-3.4-1.2-.9-.8-1.4-1.9-1.4-3.3 0-2.7 1.6-4.3 4.8-4.7l4-.5zm-6.1 5.1c0 .7.3 1.3.8 1.8.5.4 1.1.6 1.9.6.9 0 1.8-.2 2.6-.6 1.4-.7 2.1-1.8 2.1-3.4v-2c-.6.4-1.5.6-2.6.8l-1.5.2c-.9.1-1.6.3-2.1.6-.8.3-1.2 1.1-1.2 2zm14.2-16.7h2.5v20.7h-2.5v-20.7z" fill="#fff"/></svg>