<svg version="1.1" id="logo" xmlns="http://www.w3.org/2000/svg" xmlns:xlink="http://www.w3.org/1999/xlink" x="0" y="0" viewBox="0 0 489.5 251.6" xml:space="preserve"><path d="M102 81.1H49.6L54.8 99H102c4.9 0 8.9 4 8.9 8.9v8.9H66.3c-14.8 0-26.8 12-26.8 26.8s12 26.8 26.8 26.8H102c14.8 0 26.8-12 26.8-26.8v-35.7c0-14.8-12-26.7-26.8-26.8zm8.9 62.4c0 4.9-4 8.9-8.9 8.9H66.3c-4.9-.3-8.7-4.6-8.4-9.5.3-4.5 3.9-8.1 8.4-8.4h44.6v9zm43.4-26.6h-16.2v17.8h21.4zm65.2 26.9h-7.8v-4.3c-2.7 3.4-6.9 5.4-11.2 5.2-9.9 0-17.9-8.1-17.9-18v-.8c-.5-9.9 7.2-18.3 17.1-18.8h.8c4.4-.1 8.6 1.8 11.2 5.3V108h7.8v35.8zm-28.9-17.9c-.5 6 4 11.2 9.9 11.6 6 .5 11.2-4 11.6-9.9v-1.7c.5-6-4-11.2-9.9-11.6-6-.5-11.2 4-11.6 9.9-.1.6-.1 1.1 0 1.7zm96.1-4.6v22.5h-7.8v-19.9c0-6-3.1-9.4-8.3-9.4-4.9-.2-9 3.5-9.3 8.4v20.9h-7.9v-19.9c0-6-3.1-9.4-8.3-9.4-4.9-.2-9 3.6-9.3 8.5v20.8H228V108h7.8v4.4c2.5-3.5 6.7-5.5 11-5.3 5-.2 9.6 2.2 12.4 6.4 2.9-4.3 7.9-6.8 13.1-6.4 7.6-.4 14.1 5.4 14.5 13-.1.4-.1.8-.1 1.2zm89.2 4.6c.2 10.6-8.2 19.5-18.8 19.7-10.6.2-19.5-8.2-19.7-18.8s8.2-19.5 18.8-19.7h.4c10.3-.4 18.9 7.6 19.2 17.9.1.3.2.6.1.9zm-30.6 0c0 6.2 5 11.2 11.2 11.2 6.2 0 11.2-5 11.2-11.2 0-6.2-5-11.2-11.2-11.2-6.1 0-11.2 5-11.2 11.2zm68.3-13l-5 5.3c-2.2-2.3-5.3-3.7-8.6-3.7-5.9 0-10.7 4.9-10.6 10.8v.7c-.4 5.9 4 11 9.9 11.4h.7c3.3-.1 6.4-1.4 8.8-3.7l4.8 5.4c-3.4 3.8-8.3 5.9-13.4 5.7-9.9.4-18.4-7.3-18.8-17.2V126c-.4-9.9 7.3-18.4 17.2-18.8h1.6c5.2-.2 10 1.9 13.4 5.7zm32.2 4.1c-3.4-1.9-7.2-3-11.1-3.1-4.3 0-6.8 1.7-6.8 4.3s2.6 3.2 5.9 3.7l3.7.5c7.8 1.1 12.4 4.5 12.4 10.6 0 6.8-6 11.7-16.3 11.7-5.4.1-10.8-1.5-15.3-4.5l3.6-5.9c3.4 2.6 7.6 3.9 11.8 3.7 5.3 0 8.1-1.7 8.1-4.4 0-2-1.9-3.4-6.2-3.9l-3.7-.5c-7.9-1.1-12.1-4.8-12.1-10.5 0-7.1 5.7-11.5 14.8-11.5 5.1-.1 10.1 1.2 14.5 3.8l-3.3 6zm-123.3-4.7v-13l7.8-2.8v47.3h-7.8v-4.3c-2.7 3.5-6.9 5.4-11.3 5.2-9.9 0-17.9-8.1-17.9-18v-.8c-.5-9.9 7.2-18.3 17.1-18.8h.8c4.4-.2 8.6 1.8 11.3 5.2zM301.4 126c-.3 6 4.2 11.1 10.2 11.4s11.1-4.2 11.4-10.2V126c.3-6-4.2-11.1-10.2-11.4s-11.1 4.2-11.4 10.2v1.2z" fill="#fff"/></svg>