<svg version="1.1" id="logo" xmlns="http://www.w3.org/2000/svg" xmlns:xlink="http://www.w3.org/1999/xlink" x="0" y="0" viewBox="0 0 489.5 251.6" xml:space="preserve"><path d="M209.3 150.7h11.5l-9.5 46h-11.5l9.5-46zm17.3 0h11.5l-5.7 27.6h-11.5l5.7-27.6zm57.6 0h11.5l-9.5 46h-11.5l9.5-46zm76.7.6c1.1-.2 2.2-.3 3.3-.3 11.1 0 18 10.3 15.4 23-2.6 12.7-13.8 23-24.9 23-11.1 0-18-10.3-15.4-23 2.4-11.5 11.6-21 21.9-22.7h-.3zm-2.5 12.1c-3.1 1.5-6.5 5-7.6 10.6-1.6 7.9 2.9 11.5 6.3 11.5s9.4-3.7 11-11.5c1.6-7.9-2.9-11.5-6.3-11.5-1.1 0-2.2.3-3.2.9h-.2zm-39.7-1c-.9 0-1.7.2-2.5.6l2.5-11.9c.8-.1 1.6-.2 2.4-.2 10.8 0 17.5 10.3 14.9 23s-13.5 23-24.4 23c-10.8 0-17.5-10.3-14.9-23l4.7-23h11.5l-4.8 23c-1.7 8.1 2.9 11.5 5.8 11.5s8.9-3.4 10.5-11.5-2.9-11.5-5.7-11.5m-40.3-11.7l-2.4 11.5h-5.8l-7.1 34.5h-11.5l7.1-34.5h-17.3l2.4-11.5h34.6zm-124.8 47.7c.3 0 .4.1.3.4l.4.1c0-.2.1-.5.1-.7-.2 0-.5-.1-.7-.1 0 .1 0 .2-.1.3m-21.9-4.2l.7.1c0-.1 0-.2.1-.4l-.7-.1c-.1.1-.1.3-.1.4m29.5 3.9l1.5.2c0-.1 0-.2.1-.4.1 0 .4.2.4-.1v-.2l-1.8-.3c-.1.3-.1.6-.2.8m-20.1-3.9l.7.1c0-.1 0-.2.1-.4-.2 0-.5-.1-.7-.1-.1.1-.1.2-.1.4m-2.9-.5c.2 0 .5.1.7.1 0 .1 0 .2-.1.4.2 0 .5.1.7.1 0 .2-.1.5-.1.7l-.4-.1c0 .1 0 .2-.1.4.3 0 .4.1.3.4l.4.1c0-.3.1-.4.4-.3 0-.2.1-.5.1-.7l.4.1c0-.1 0-.2.1-.4-.3 0-.4-.1-.3-.4-.2 0-.5-.1-.7-.1 0-.1 0-.2.1-.4l-1.5-.2v.3m3.5-.6c.3 0 .4.1.3.4l.4.1c0-.2.1-.5.1-.7-.2 0-.5-.1-.7-.1-.1.1-.1.2-.1.3m24.6 3.9l.4.1c0-.3.1-.4.4-.3 0-.1 0-.2.1-.4l-.7-.1c-.1.2-.1.5-.2.7m-20.1-4.7l-.7-.1c-.1.5-.2 1-.2 1.5h.3c.2 0 0-.4.2-.3l.7.1c0-.3.1-.4.4-.3.1-.4.1-.7.2-1.1l-.7-.1c-.1.1 0 .4-.2.3m-2.8-.4l.7.1c0-.1 0-.2.1-.4l-.7-.1c-.1.1-.1.3-.1.4m-15.5-2.5c.1 0 .2 0 .4.1 0-.1 0-.2.1-.4l-.4-.1c-.1.2-.1.3-.1.4m13.7 1.8l.4.1c0-.1 0-.2.1-.4l-.4-.1c-.1.2-.1.3-.1.4m25.1 3.6c.2 0 .5.1.7.1 0-.2.1-.5.1-.7-.2 0-.5-.1-.7-.1l-.1.7m-14.4-2.6l-.7-.1-.1.4c.5.1 1 .2 1.5.2 0-.2.1-.5.1-.7l-.7-.1s0 .3-.1.3m-4-.7l.7.1c0 .1 0 .2-.1.4l.4.1c0-.2.1-.5.1-.7l-.4-.1c0-.1 0-.2.1-.4-.2 0-.5-.1-.7-.1 0 .3 0 .5-.1.7m6.4.3l.4.1c0-.1 0-.2.1-.4-.1 0-.2 0-.4-.1-.1.1-.1.3-.1.4m-11.4-1.8c.3 0 .4.1.3.4l.4.1c.1-.1 0-.4.1-.4h.3l-.1.4.4.1c0-.2.1-.5.1-.7l-1.5-.2v.3m-14.4-2.3l.4.1c0-.1 0-.2.1-.4l-.4-.1c0 .2-.1.3-.1.4m23.3 3l.7.1c0-.1 0-.2.1-.4-.2 0-.5-.1-.7-.1l-.1.4m-13.4-.7c0 .3-.1.4-.4.3 0 .3-.1.5-.2.7h-.3c0-.1 0-.2.1-.4l-.7-.1.1-.4c-.3 0-.4-.1-.3-.4-.4-.1-.7-.1-1.1-.2 0 .3-.1.4-.4.3 0 .2-.1.5-.1.7.1 0 .2 0 .4.1.1-.1 0-.4.1-.4l1.4.2c0 .1 0 .2-.1.4l.7.1c0 .1 0 .2-.1.4.4.1.7.1 1.1.2 0-.5.1-1 .3-1.5h.3c0 .1 0 .2-.1.4l.7.1c0-.2.1-.5.1-.7l.4.1c0-.3.1-.4.4-.3.1-.4.1-.7.2-1.1l-.7-.1c-.1.1 0 .4-.1.4l-.7-.1c0 .3-.1.4-.4.3-.1.4-.1.7-.2 1.1l-.4-.1m-5.4-1.9l.4.1c0-.2.1-.5.1-.7l-.4-.1c0 .2 0 .4-.1.7m33.5 5.3l1.5.2c0 .1 0 .2-.1.4l.7.1c0-.2.1-.5.1-.7-.1 0-.2 0-.4-.1 0-.1 0-.2.1-.4-.3 0-.4-.1-.3-.4-.2 0-.5-.1-.7-.1-.1.1 0 .4-.1.4h-.3c0-.1 0-.2.1-.4l-.4-.1c-.1.3-.1.7-.2 1.1m-33.7-6.5c.1 0 .2 0 .4.1 0-.1 0-.2.1-.4l-.4-.1c0 .1-.1.3-.1.4m-2.9-.5l.4.1.1-.4-.4-.1c-.1.2-.1.3-.1.4m19.8 2.8c-.2 0-.4-.1-.7-.1 0 .1 0 .2-.1.4.3 0 .4.1.3.4.2 0 .5.1.7.1.1-.1 0-.4.1-.4l.7.1.1-.4c-.3 0-.4-.1-.3-.4l-.7-.1c0 .1.1.4-.1.4m-5.4-.9c.2 0 .5.1.7.1 0 .1 0 .2-.1.4l.7.1c0-.2.1-.5.1-.7-.5-.1-1-.2-1.5-.2.1.1.1.2.1.3m-5.2-.4l.7.1c0-.2.1-.5.1-.7l-.7-.1c-.1.2-.1.4-.1.7m-1.5-.2c.2 0 .5.1.7.1 0-.2.1-.5.1-.7l-.7-.1c0 .2-.1.4-.1.7m10.4 1.2c0-.1 0-.2.1-.4-.3 0-.4-.1-.3-.4-.2 0-.5-.1-.7-.1 0 .1 0 .2-.1.4.1.1.4 0 .4.1v.3h-.3v.3h-.1l-.1.7 1.8.3v-.3c0-.2-.4 0-.3-.2v-.3h-.1l.1-.3-.4-.1zm28.5 3.4l.7.1c0-.1 0-.2.1-.4l-.7-.1c-.1.2-.1.3-.1.4m-21.5-2.6c.3 0 .4.1.3.4l.7.1c.1-.5.2-1 .2-1.5-.4-.1-.7-.1-1.1-.2 0 .4 0 .8-.1 1.2m-27.1-5.1c.1 0 .2 0 .4.1 0-.1 0-.2.1-.4l-.4-.1c-.1.2-.1.3-.1.4m43.4 6.9c.1 0 .2 0 .4.1 0 .1 0 .2-.1.4l1.1.2c0-.2.1-.5.1-.7l-.4-.1c0-.1 0-.2.1-.4l-1.1-.2c0 .2 0 .4-.1.7m-7.1-.4c.1.1.4 0 .4.1v.3l-.7-.1c-.1.1 0 .4-.1.4-.2 0-.4-.1-.7-.1 0 .2-.1.5-.1.7l.7.1c0 .1 0 .2-.1.4l1.1.2c.1-.1 0-.4.1-.4h.3c0 .1 0 .2-.1.4.2 0 .5.1.7.1 0-.1 0-.2.1-.4l.4.1c0-.1 0-.2.1-.4-.3 0-.4-.1-.3-.4l-.7-.1c.1-.5.2-1 .2-1.5-.1 0-.2 0-.4-.1 0-.1 0-.2.1-.4-.1 0-.2 0-.4-.1 0-.1 0-.2.1-.4l-.4-.1c-.1.7-.2 1.2-.3 1.7m-3.5-1.7c-.1 0-.2 0-.4-.1-.1.1 0 .4-.1.4-.5-.1-.9-.1-1.4-.2 0 .1 0 .2-.1.4l-.4-.1-.1.4c.2 0 .5.1.7.1.1-.1 0-.4.1-.4l1.8.3.1-.4c.1 0 .2 0 .4.1 0-.1 0-.2.1-.4-.3 0-.4-.1-.3-.4l-.4-.1v.4m-22.4-3.5l.7.1c0-.1 0-.2.1-.4l-.7-.1c-.1.1-.1.2-.1.4m-2.7-.5l-.7-.1c0 .2-.1.5-.1.7.1.1.4 0 .4.1 0 .2-.1.4-.1.7-.1 0-.2 0-.4-.1 0 .1 0 .2-.1.4l.7.1c0 .1 0 .2-.1.4l.4.1c0-.2.1-.5.1-.7l.4.1c.1-.1 0-.4.1-.4l.7.1c0-.2.1-.5.1-.7l-.4-.1c0-.1 0-.2.1-.4l-.7-.1c0-.1 0-.2.1-.4-.1 0-.2 0-.4-.1 0 .2.1.5-.1.4m31.7 5.1c.4.1.7.1 1.1.2 0 .1 0 .2-.1.4.4.1.7.1 1.1.2 0-.2.1-.5.1-.7l-.7-.1c0-.1 0-.2.1-.4-.2 0-.5-.1-.7-.1-.1.1 0 .4-.1.4l-.7-.1c0-.1 0-.2.1-.4l-.4-.1c0 .1 0 .2-.1.4.3-.2.5 0 .3.3m-38.2-6.5l.4.1c0-.1 0-.2.1-.4l-.4-.1c0 .2-.1.3-.1.4m-2.1 1.2c.3 0 .4.1.3.4l1.1.2c0-.2.1-.5.1-.7-.5-.1-1-.2-1.5-.2l.1-.7c.1 0 .2 0 .4.1 0-.1 0-.2.1-.4-.3 0-.4-.1-.3-.4l-.7-.1c0 .1 0 .2-.1.4l-.4-.1c0 .1 0 .2-.1.4-.1 0-.2 0-.4-.1 0 .1 0 .2-.1.4l.7.1c0 .1 0 .2-.1.4l.7.1c.3 0 .3.1.2.2m24.9 2.5l.7.1c0 .1 0 .2-.1.4l1.8.3c.1-.4.1-.7.2-1.1h-.3c-.2 0 0 .4-.2.3l-1-.2c0-.1 0-.2.1-.4-.4-.1-.7-.1-1.1-.2 0 .3 0 .5-.1.8m-9.3-.7c0 .2-.1.4-.1.7.1.1.4 0 .4.1 0 .2-.1.4-.1.7l.7.1c0-.1 0-.2.1-.4.1 0 .2 0 .4.1 0-.1 0-.2.1-.4-.1-.1-.4 0-.4-.1 0-.2.1-.5.1-.7.1 0 .2 0 .4.1.1-.1 0-.4.1-.4.3.1.7.1 1 .2 0-.2.1-.5.1-.7-.2 0-.5-.1-.7-.1 0-.1 0-.2.1-.4l-.4-.1c0 .3-.1.4-.4.3 0 .3-.1.5-.2.7l-.7-.1c-.1.1 0 .4-.1.4h-.4c0-.2 0-.3.1-.4l-1.1-.2c0 .1 0 .2-.1.4.4 0 .8.1 1.1.2m-19.4-3.9l1.1.2c0-.1 0-.2.1-.4-.3 0-.4-.1-.3-.4l-.7-.1-.2.7m8.9 1l.7.1c.1-.1 0-.4.1-.4l1.8.3c0-.2.1-.5.1-.7-.9-.1-1.7-.3-2.6-.4 0 .4 0 .8-.1 1.1m30.7 3.8c-.2 0-.4-.1-.7-.1 0 .1 0 .2-.1.4.3 0 .4.1.3.4l.7.1c.1-.4.1-.7.2-1.1-.1 0-.2 0-.4-.1.1.1.1.4 0 .4m-6.3-.7c.2 0 .5.1.7.1l-.1.4.7.1c0-.2.1-.5.1-.7l-.7-.1c0-.1 0-.2.1-.4l-.7-.1c0 .2 0 .5-.1.7m-18-3.2c.1 0 .2 0 .4.1 0-.1 0-.2.1-.4-.1 0-.2 0-.4-.1 0 .2 0 .3-.1.4m29.5 4.7l.7.1c0-.2.1-.5.1-.7-.2 0-.5-.1-.7-.1 0 .2-.1.4-.1.7m-21.4-3.4l.4.1c0-.3.1-.4.4-.3 0-.1 0-.2.1-.4l-.7-.1c-.1.2-.1.5-.2.7m-33.7-6.1c.1 0 .2 0 .4.1 0-.1 0-.2.1-.4l-.4-.1c-.1.1-.1.3-.1.4m14.8 2c.1 0 .2 0 .4.1 0-.1 0-.2.1-.4l-.4-.1c-.1.1-.1.2-.1.4m56 8.5l.4.1c0-.1 0-.2.1-.4l-.4-.1c-.1.1-.1.2-.1.4m-43.4-6.9l-.4-.1c0 .1 0 .2-.1.4.4.1.7.1 1.1.2 0-.1 0-.2.1-.4.1 0 .2 0 .4.1 0-.1 0-.2.1-.4-.4-.1-.7-.1-1.1-.2-.1.1-.1.3-.1.4M151 184l-.7-.1c0 .1 0 .2-.1.4l.7.1c.1-.1.1-.2.1-.4.2 0 .3 0 .4.1 0-.1 0-.2.1-.4-.1 0-.2 0-.4-.1-.1.2 0 .4-.1.4m-6.6-1c.3 0 .4.1.3.4l1.1.2c0-.1 0-.2.1-.4-.3 0-.4-.1-.3-.4l-1.1-.2c-.1.1-.1.3-.1.4m-1.1-.2l.4.1c0-.1 0-.2.1-.4l-.4-.1c-.1.2-.1.3-.1.4m-15.8-2.9l.4.1c0-.2.1-.5.1-.7l-.4-.1c0 .3 0 .5-.1.7m38.1 5.3l-.4-.1c-.1.4-.1.7-.2 1.1.5.1 1 .2 1.5.2.1-.1 0-.4.1-.4.2 0 .5.1.7.1l.1-.7c-.1 0-.2 0-.4-.1 0-.1 0-.2.1-.4-.5-.1-1-.2-1.5-.2v.5m-23.6-3.7l.4.1c0-.1 0-.2.1-.4l-.4-.1c-.1.1-.1.3-.1.4m30.9 5.2l-.4-.1c0 .1 0 .2-.1.4-.1 0-.4-.2-.4.1v.2c0 .2.4 0 .3.2v.3l-.4-.1c-.1.4-.1.7-.2 1.1l.7.1c.1-.4.1-.7.2-1.1l1.8.3c0-.3.1-.4.4-.3 0-.2.1-.5.1-.7l-.4-.1c0-.1 0-.2.1-.4-.3 0-.5-.1-.7-.2 0-.2.1-.4.1-.7l-1.1-.2c.1.5 0 .9 0 1.2m-15.4-2.8l1.2.2c.3.1.7.2 1.1 0v-.2c-.2-.1-.5-.2-.7-.2 0-.1 0-.2.1-.4-.5-.1-1-.2-1.5-.2-.2.3-.2.6-.2.8m-7-1.5l-.7-.1c-.1.1 0 .4-.1.4h-.3c0-.1 0-.2.1-.4l-.7-.1c0 .1 0 .2-.1.4l-.4-.1c0 .1 0 .2-.1.4.2 0 .5.1.7.1 0 .1 0 .2-.1.4l1.1.2c.1-.1 0-.4.1-.4.3.1.7.1 1 .2.1-.4.1-.7.2-1.1l-.7-.1s.1.3 0 .2m-29.1-4.6c.1.1.4 0 .4.1v.3c-.1 0-.2 0-.4-.1-.1.1 0 .4-.1.4l-1.4-.2c0 .3-.1.4-.4.3l-.1.7 1.1.2c0 .1 0 .2-.1.4.1.1.4 0 .4.1 0 .2-.1.4-.1.7l.7.1c.1-.1 0-.4.1-.4l1.8.3c.1-.1 0-.4.1-.4l1.4.2c0-.1 0-.2.1-.4.1 0 .4.2.4-.1v-.2c0-.2-.4 0-.3-.2.1-.3.1-.7.2-1-.5-.1-1-.2-1.5-.2 0-.1 0-.2.1-.4l-.7-.1c0-.1 0-.2.1-.4-.5-.1-1-.2-1.5-.2-.2.3-.3.4-.3.5m-3.7-.5l.7.1c0-.1 0-.2.1-.4l-.7-.1c0 .1 0 .2-.1.4m66.4 9.7l.4.1c0-.1 0-.2.1-.4-.3 0-.4-.1-.3-.4-.1 0-.2 0-.4-.1 0 .1 0 .2-.1.4.3 0 .4.1.3.4m-15.1-2.7c-.2 0-.4-.1-.7-.1 0 .2-.1.5-.1.7l1.1.2c.1-.1 0-.4.1-.4l1.8.3.1-.4c.1 0 .4.2.4-.1v-.2l-.7-.1c-.1.1 0 .4-.1.4h-.3c0-.1 0-.2.1-.4l-1.5-.2c-.1 0 0 .3-.2.3m-19.8-3.2c.2 0 .5.1.7.1 0-.1 0-.2.1-.4-.2 0-.5-.1-.7-.1 0 .2-.1.3-.1.4m-2.2-.4c-.2 0-.4-.1-.7-.1 0 .1 0 .2-.1.4.1.1.4 0 .4.1l-.3 1.8 1.1.2c0-.2.1-.5.1-.7-.1-.1-.4 0-.4-.1v-.3c.4.1.7.1 1.1.2 0-.2.1-.5.1-.7l-.4-.1.1-.4-.7-.1c0-.1 0-.2.1-.4-.1 0-.2 0-.4-.1 0 .1.1.4 0 .3m-29-4.9l.4.1c0-.1 0-.2.1-.4l-.4-.1c-.1.1-.1.3-.1.4m-3.3-.5c.3 0 .4.1.3.4.5.1 1 .2 1.5.2 0-.1 0-.2.1-.4l-.7-.1c0-.1 0-.2.1-.4-.4-.1-.7-.1-1.1-.2-.2.2-.2.3-.2.5m18.8 2.6c.3 0 .4.1.3.4.1 0 .2 0 .4.1.1-.1 0-.4.1-.4l.7.1c0-.1 0-.2.1-.4l-1.5-.2c-.1.1-.1.2-.1.4m-12.6-1.6c.1.1.4 0 .4.1 0 .2-.1.4-.1.7.2 0 .5.1.7.1 0-.2.1-.5.1-.7l-.4-.1c0-.1 0-.2.1-.4l-.4-.1c0-.1 0-.2.1-.4l-.4-.1c0 .4 0 .6-.1.9m50.2 7.1c.1 0 .2 0 .4.1 0-.1 0-.2.1-.4l-.4-.1c-.1.2-.1.3-.1.4m-30.8-3.3c0-.1 0-.2.1-.4-.3 0-.4-.1-.3-.4l-.4-.1c0-.1 0-.2.1-.4l-.4-.1c-.1.1 0 .4-.1.4l-.7-.1c-.1.1 0 .4-.1.4l-.7-.1c0-.1 0-.2.1-.4l-1.5-.2c0-.1 0-.2.1-.4l-.4-.1c0-.1 0-.2.1-.4l-.4-.1c0-.1 0-.2.1-.4-.1 0-.2 0-.4-.1 0 .2-.1.5-.1.7l.4.1c0 .1 0 .2-.1.4l.4.1c0 .1 0 .2-.1.4.3 0 .4.1.3.4.2 0 .5.1.7.1 0 .1 0 .2-.1.4.3 0 .4.1.3.4l.7.1c0-.2.1-.5.1-.7.2 0 .5.1.7.1 0 .1 0 .2-.1.4l.7.1c0 .1 0 .2-.1.4l.4.1c0 .1 0 .2-.1.4.1 0 .2 0 .4.1 0-.3.1-.4.4-.3 0-.1 0-.2.1-.4h-.1l.1-.3-.1-.1zm23.9 1.9l.4.1c0-.1 0-.2.1-.4l-.4-.1-.1.4m9.2 1.1l.4.1c0-.1 0-.2.1-.4-.1 0-.2 0-.4-.1 0 .1 0 .2-.1.4m-7-1.1c.4.1.7.1 1.1.2 0-.1 0-.2.1-.4l-1.1-.2c0 .1 0 .2-.1.4m9.6 1.8l.7.1c0-.1 0-.2.1-.4l.4.1c0-.1 0-.2.1-.4-.3 0-.4-.1-.3-.4l-.7-.1c-.2.4-.3.8-.3 1.1m-50.7-8.7c.1 0 .2 0 .4.1 0-.1 0-.2.1-.4l-.4-.1c-.1.1-.1.2-.1.4m46.7 7.4l.4.1c0-.2.1-.5.1-.7l-.4-.1c0 .2 0 .4-.1.7m-7-.8l.4.1c0-.3.1-.4.4-.3l.1-.4c-.3 0-.4-.1-.3-.4-.1 0-.2 0-.4-.1-.1.4-.2.8-.2 1.1m-24.9-4.7c.1 0 .2 0 .4.1 0-.1 0-.2.1-.4l-.4-.1c-.1.2-.1.3-.1.4m31.1 3.4c0 .3-.1.4-.4.3-.1.1 0 .4-.1.4h-.3l.1-.4-.4-.1c0 .3-.1.4-.4.3 0 .1 0 .2-.1.4l-.4-.1c0 .1 0 .2-.1.4l.4.1c.1-.1 0-.4.1-.4h.3c0 .1 0 .2-.1.4l1.1.2-.1.4.7.1c0-.1 0-.2.1-.4-.1-.1-.4 0-.4-.1.1-.5.1-.9.2-1.4l.4.1.1-.4-.4-.1c0 .1 0 .2-.1.4l-.2-.1m-31.7-5c.1 0 .2 0 .4.1 0-.1 0-.2.1-.4-.1 0-.2 0-.4-.1 0 .2 0 .3-.1.4m-11.4-1.8l.4.1c0-.1 0-.2.1-.4-.1 0-.2 0-.4-.1 0 .2 0 .3-.1.4m46.1 6.9l-.7-.1c0 .1 0 .2-.1.4-.1 0-.2 0-.4-.1l-.1.4.7.1-.1.4c.4.1.7.1 1.1.2.1-.1 0-.4.1-.4l1 .2c.1-.1 0-.4.1-.4l.7.1c0-.2.1-.5.1-.7l-1.1-.2c-.1.1 0 .4-.1.4l-.7-.1c0-.1 0-.2.1-.4l-.7-.1c.1.1.2.3.1.3m-37.5-5.9l-.4-.1c0 .1 0 .2-.1.4-.1 0-.2 0-.4-.1-.1.1 0 .4-.1.4l-1-.2c0-.1 0-.2.1-.4l-.7-.1c0-.1 0-.2.1-.4l-1.2-.1c-.1.1 0 .4-.1.4l-2.5-.4c0 .1 0 .2-.1.4l-.4-.1c0 .1 0 .2-.1.4l1.8.3c0 .1-.2.4.1.4h.2c.1-.2.1-.5.5-.3.1-.1 0-.4.1-.4l1.8.3-.1.4c.2 0 .5.1.7.1 0 .1 0 .2-.1.4l.7.1c0 .1 0 .2-.1.4.5.1 1 .2 1.5.2 0 .1 0 .2-.1.4l.4.1c0-.2.1-.5.1-.7-.1-.1-.4 0-.4-.1l.3-1.8-.7-.1c.2 0 .2.1.2.2m5.5.5c.3 0 .4.1.3.4l.4.1c0-.3.1-.4.4-.3 0-.1 0-.2.1-.4l-1.1-.2c0 .2 0 .3-.1.4m-13.9-2.2l.7.1c0-.1 0-.2.1-.4l-.7-.1c-.1.1-.1.3-.1.4m-5.1-1.2l.4.1c0-.1 0-.2.1-.4l-.4-.1c-.1.2-.1.3-.1.4m-1.9.1c.3 0 .4.1.3.4l.7.1c0-.2.1-.5.1-.7.1 0 .2 0 .4.1 0-.1 0-.2.1-.4l-1.5-.2c-.1.2-.1.4-.1.7m19.6 2.3c.3 0 .4.1.3.4l.7.1.1-.4c-.3 0-.4-.1-.3-.4l-.4-.1c0-.1 0-.2.1-.4-.1 0-.2 0-.4-.1 0 .4-.1.7-.1.9m-23.6-3.7l.4.1.1-.7-.4-.1c0 .2 0 .4-.1.7m11.2 1l.7.1c0-.1 0-.2.1-.4-.2 0-.5-.1-.7-.1-.1.2-.1.3-.1.4m2.6 0c.1.1.4 0 .4.1 0 .2-.1.4-.1.7.1 0 .2 0 .4.1.1-.4.1-.7.2-1.1l-.7-.1c-.1.1-.2.2-.2.3m-4.8-.7l-.7-.1v.3c.2.1.5.1.3.5l1.8.3c0-.2.1-.5.1-.7-.2 0-.5-.1-.7-.1l.1-.4-.7-.1c-.2 0-.1.3-.2.3m-8.7-1.8l.4.1c0-.1 0-.2.1-.4-.1 0-.2 0-.4-.1-.1.2-.1.3-.1.4m3.5-.9c.1 0 .2 0 .4.1 0-.2.1-.5.1-.7l-.4-.1c0 .2-.1.4-.1.7m7-1.6c.1 0 .2 0 .4.1 0-.1 0-.2.1-.4-.3 0-.4-.1-.3-.4-.1 0-.2 0-.4-.1 0 .1 0 .2-.1.4.4 0 .5.1.3.4m-.1-1.5l.4.1c0-.1 0-.2.1-.4l-.4-.1c-.1.2-.1.3-.1.4m5.8-.6c.2 0 .5.1.7.1 0-.1 0-.2.1-.4-.3 0-.4-.1-.3-.4-.1 0-.2 0-.4-.1-.1.3-.1.6-.1.8m-2-6.3l.7.1c0-.2.1-.5.1-.7l-.4-.1c0-.1 0-.2.1-.4-.1 0-.2 0-.4-.1 0 .4-.1.8-.1 1.2m-6.7-3.4l.4.1c.1-.4.1-.7.2-1.1l-.4-.1c-.1.4-.1.8-.2 1.1m.6-5.9c.1 0 .2 0 .4.1 0-.1 0-.2.1-.4l-.4-.1c-.1.1-.1.3-.1.4m-4.9-5.7c-.2 0-.4-.1-.7-.1 0 .1 0 .2-.1.4.3 0 .4.1.3.4l.7.1c0-.1 0-.2.1-.4.1 0 .2 0 .4.1 0-.2.1-.5.1-.7-.2 0-.5-.1-.7-.1 0 .1.1.3-.1.3m12.8-2.1l-1-.2c0 .1 0 .2-.1.4.3 0 .4.1.3.4l.7.1c0 .1 0 .2-.1.4l.4.1c0-.2.1-.5.1-.7.1 0 .2 0 .4.1l.1-.7-.4-.1c0-.1 0-.2.1-.4l-.4-.1c.1.2 0 .5-.1.7m2.7-2.2c.1 0 .2 0 .4.1 0-.1 0-.2.1-.4-.1 0-.2 0-.4-.1-.1.1-.1.3-.1.4m2-3.1c.2 0 .5.1.7.1 0-.1 0-.2.1-.4-.2 0-.5-.1-.7-.1.1-.4.1-.7.2-1.1-.2 0-.5-.1-.7-.1v.3c0 .2.4 0 .3.2 0 .2-.1.4-.1.7.2 0 .3.1.2.4m-21.1-5.2l.4.1c0-.1 0-.2.1-.4l-.4-.1-.1.4m15.2 2c.1 0 .2 0 .4.1 0-.1 0-.2.1-.4-.1 0-.2 0-.4-.1-.1.1-.1.3-.1.4m.9-1l.4.1c0-.1 0-.2.1-.4l-.4-.1c0 .2-.1.3-.1.4m.6-1c.2 0 .5.1.7.1 0-.1 0-.2.1-.4l-.7-.1c-.1.1-.1.2-.1.4m5.8-1c.1 0 .2 0 .4.1 0-.1 0-.2.1-.4-.1 0-.2 0-.4-.1-.1.1-.1.3-.1.4m-14-4.9l.4.1c0-.1 0-.2.1-.4l-.4-.1c0 .2-.1.3-.1.4m-1.8-.6c.2 0 .5.1.7.1 0-.1 0-.2.1-.4l-.7-.1c0 .1 0 .3-.1.4m14.1-.4l.7.1c0-.1 0-.2.1-.4l-.7-.1c-.1.1-.1.2-.1.4m1.2-1c.1 0 .2 0 .4.1 0-.1 0-.2.1-.4l-.4-.1c0 .2 0 .3-.1.4m-13.8-2.9l.7.1c0-.1 0-.2.1-.4l-.7-.1c-.1.1-.1.3-.1.4m-1.8-.7c.1 0 .2 0 .4.1 0 .1 0 .2-.1.4l.4.1c.1-.4.1-.7.2-1.1-.2 0-.5-.1-.7-.1-.1.1-.2.4-.2.6m16.1 1.1l.4.1c0-.1 0-.2.1-.4l-.4-.1c-.1.1-.1.2-.1.4m1.8-2c0 .3-.1.4-.4.3 0 .3-.1.4-.4.3 0 .2-.1.5-.1.7l1.1.2c.1-.5.2-1 .2-1.5l.4.1c0-.1 0-.2.1-.4-.1 0-.2 0-.4-.1 0 .1 0 .2-.1.4h-.4m.8-2.9l-.4-.1c0 .2-.1.5-.1.7l.7.1c0 .1 0 .2-.1.4l.4.1c0-.2.1-.5.1-.7-.1-.1-.4 0-.4-.1 0-.2.1-.4.1-.7-.1 0-.2 0-.4-.1.2.2.1.3.1.4m-12.5-2l.4.1c0-.1 0-.2.1-.4l-.4-.1c-.1.2-.1.3-.1.4m16.3-.8l.4.1c0-.1 0-.2.1-.4l-.4-.1c0 .2 0 .3-.1.4m-15.8-2.5c.1 0 .2 0 .4.1 0-.1 0-.2.1-.4l-.4-.1c0 .2-.1.3-.1.4m18 .6l.4.1c0-.1 0-.2.1-.4-.1 0-.2 0-.4-.1 0 .1 0 .3-.1.4m.6-1.1c0 .1 0 .2-.1.4l.4.1c0-.3.1-.4.4-.3 0-.1 0-.2.1-.4-.1 0-.2 0-.4-.1 0 .4-.1.5-.4.3m1.4-1.6c.1 0 .2 0 .4.1l.1-.4c-.3 0-.4-.1-.3-.4l-.4-.1c0 .1 0 .2-.1.4.3-.1.4.1.3.4m.5-1.1c.3 0 .4.1.3.4l.7.1c0-.2.1-.5.1-.7-.4-.1-.7-.1-1.1-.2.1.2 0 .3 0 .4m1.4-1.3l.4.1c0-.1 0-.2.1-.4l-.4-.1c-.1.2-.1.3-.1.4m-9.2-1.8l.4.1c0-.1 0-.2.1-.4l-.4-.1c0 .2-.1.3-.1.4m10.2-.3c.3 0 .4.1.3.4l.7.1.1-.4c-.3 0-.4-.1-.3-.4l-.7-.1c0 .2 0 .3-.1.4m-10.1-2.7c.1 0 .2 0 .4.1 0-.2.1-.5.1-.7l-.4-.1c0 .2 0 .5-.1.7m1-1.7l.7.1c0-.2.1-.5.1-.7l-.7-.1c0 .2 0 .4-.1.7m17.7 81.3c-.3-.1-.4 0-.4.3l-1-.2c-.1 0-.1.3-.1.4l-.7-.1c-.1 0-.1.3-.1.4-.2 0-.5-.1-.7-.1v.3c.6.2 1.2.3 1.8.4 0 .1 0 .2-.1.4h.3c.1-.4.2-.7.2-1.1.3.1.4 0 .4-.3.3 0 .5-.1.4-.4l1 .2c.1 0 .1-.3.1-.4.3.1.7.1 1 .2.1 0 .1-.3.1-.4l.4.1-.1.4h.3c.1 0 .1-.2.1-.3 0-.1-.3-.1-.4-.1.1-.4.1-.7.2-1.1l.7.1c.1 0 .1-.3.1-.4l.4.1c0 .1 0 .2-.1.4l.4.1c0 .1 0 .2-.1.4.1 0 .2 0 .4.1 0 .1 0 .2-.1.4h.3c.1 0 .1-.3.1-.4.5.1 1 .2 1.5.2v-.3c-.2-.1-.5-.2-.7-.2 0-.1 0-.2.1-.4l-.7-.1c0-.2.1-.4.1-.7 0-.1-.3-.1-.4-.1 0-.2.1-.5.1-.7.3.1.4 0 .4-.3.1 0 .2 0 .4.1 0 .1 0 .2-.1.4l.7.1c0 .1 0 .2-.1.4l.7.1c.1 0 .1-.3.1-.4l.7.1c.1-.2.2-.5.2-.7.3.1.4 0 .4-.3l1.1.2c0 .1 0 .2-.1.4v-.3c0 .2-.1.4-.1.7.2.1.4.2.7.2.1 0 .1-.3.1-.4l1 .2c.1 0 .1-.3.1-.4l.7.1c.1 0 .1-.3.1-.4l.7.1c0 .1 0 .2-.1.4l1.1.2v-.3c0-.1-.3-.1-.4-.1l.1-.4-1.1-.2.1-.4c-.4-.1-.7-.1-1.1-.2 0-.2.1-.5.1-.7.3.1.4 0 .4-.3.3.1.4 0 .4-.3.4.1.7.1 1.1.2 0 .1 0 .2-.1.4l.7.1c.1 0 .1-.3.1-.4l.7.1c.1 0 .1-.3.1-.4l.7.1c.1 0 .1-.3.1-.4.1 0 .2 0 .4.1 0 .1 0 .2-.1.4l.4.1c-.1.4-.1.7-.2 1.1-.3-.1-.4 0-.4.3-.2 0-.5-.1-.7-.1-.1.2-.2.5-.2.7.2 0 .5.1.7.1 0 .2-.1.5-.1.7h.3c.1 0 .1-.3.1-.4l1.8.3c-.1.3 0 .4.3.4 0 .1 0 .2-.1.4l-.7-.1c0 .2-.1.5-.1.7-.2 0-.4-.1-.7-.1-.1 0-.1.3-.1.4l-.7-.1c0-.1 0-.2.1-.4h-.3c-.1 0-.1.3-.1.4l-.4-.1c0 .2-.1.5-.1.7.2.1.4.2.7.2.1 0 .1-.3.1-.4l.4.1c0 .1 0 .2-.1.4l1.4.2c.1 0 .1-.3.1-.4l.4.1c0-.1 0-.2.1-.4.3.1.4 0 .4-.3.1 0 .2 0 .4.1 0-.1 0-.2.1-.4.1 0 .2 0 .4.1 0-.1 0-.2.1-.4.2 0 .5.1.7.1l-.1.4 1 .2c.1 0 .1-.3.1-.4l1.1.2c0 .2-.1.4-.1.7 0 .1.3.1.4.1 0 .1 0 .2-.1.4.1 0 .2 0 .4.1 0 .2-.1.5-.1.7-.2 0-.5-.1-.7-.1v.3c0 .1.3.1.4.1l-.1.4-1.8-.3c0-.1 0-.2.1-.4-.5-.1-.9-.1-1.4-.2-.1 0-.1.3-.1.4l-.4-.1-.2 1.5-1-.2c-.1 0-.1.3-.1.4-.3-.1-.4 0-.4.3l-.4-.1v.3c0 .1.3.1.4.1 0 .1 0 .2-.1.4l.4.1c0 .1 0 .2-.1.4l1.5.2v-.3c0-.1-.3-.1-.4-.1.1-.5.2-1 .2-1.5l.7.1c.1 0 .1-.3.1-.4l.4.1c0 .1 0 .2-.1.4.1 0 .2 0 .4.1 0 .1 0 .2-.1.4l.4.1-.1.7-.4-.1c0 .1 0 .2-.1.4l-.4-.1v.3c.2.1.5.2.7.2 0 .2-.1.5-.1.7-.2 0-.4-.1-.7-.1-.1 0-.1.3-.1.4l-1-.2c-.1 0-.1.3-.1.4l-.4-.1c0 .1 0 .2-.1.4l-.7-.1c0-.1 0-.2.1-.4l-.7-.1c0-.2.1-.4.1-.7 0-.1-.3-.1-.4-.1 0-.1 0-.2.1-.4l-.7-.1-.2 1c0 .1.3.1.4.1 0 .1 0 .2-.1.4.1 0 .2 0 .4.1 0 .1 0 .2-.1.4.2 0 .5.1.7.1 0 .2-.1.5-.1.7l-.7-.1c-.1 0-.1.3-.1.4l-.7-.1c-.1 0-.1.3-.1.4-.1 0-.2 0-.4-.1 0 .2-.1.5-.1.7-.2 0-.5-.1-.7-.1-.1 0-.1.3-.1.4-.1 0-.2 0-.4-.1 0 .1 0 .2-.1.4-.3-.1-.4 0-.4.3l-.4-.1c0 .1 0 .2-.1.4l-.4-.1v.3c.6.2 1.2.3 1.8.3.1 0 .1-.3.1-.4l.4.1-.1.4 4 .6c-.1.3 0 .4.3.4-.1.4-.1.7-.2 1.1l1.1.2v-.3c0-.1-.3-.1-.4-.1 0-.2.1-.5.1-.7.2 0 .5.1.7.1.1 0 .1-.3.1-.4l.4.1c0 .1 0 .2-.1.4l.7.1c0-.2.1-.5.1-.7.3.1.4 0 .4-.3l.7.1c.1 0 .1-.3.1-.4l.7.1v-.3c-1.6-.4-3.4-.6-5.1-.9-.1 0-.1.3-.1.4l-.4-.1c.1-.4.1-.7.2-1.1.5.1.9.1 1.4.2.1 0 .1-.3.1-.4l.7.1c0 .1 0 .2-.1.4l1 .2c.1 0 .1-.3.1-.4.3.1.4 0 .4-.3.3.1.4 0 .4-.3.1 0 .2 0 .4.1 0-.2.1-.4.1-.7 0-.1-.3-.1-.4-.1.1-.3 0-.4-.3-.4 0-.1 0-.2.1-.4-.2 0-.5-.1-.7-.1 0-.2.1-.5.1-.7.3.1.4 0 .4-.3l1 .2c.1 0 .1-.3.1-.4.2 0 .5.1.7.1l-.1.4 1.4.2c.1 0 .1-.3.1-.4l.4.1c0-.1 0-.2.1-.4l.4.1.1-.4.7.1c0 .1 0 .2-.1.4.2 0 .5.1.7.1 0 .2-.1.5-.1.7h.3c.1 0 .1-.3.1-.4.1 0 .2 0 .4.1 0-.1 0-.2.1-.4l.7.1c0 .1 0 .2-.1.4l.4.1-.1.7-.7-.1c-.1 0-.1.3-.1.4l-.4-.1c0 .2-.1.5-.1.7l-3.3-.5v.3c0 .1.3.1.4.1 0 .1 0 .2-.1.4l1.8.3c-.1.4-.1.7-.2 1.1-.1 0-.2 0-.4-.1 0 .1 0 .2-.1.4-.1 0-.2 0-.4-.1l-.1.4c-.2 0-.4-.1-.7-.1-.1 0-.1.3-.1.4-.2 0-.4-.1-.7-.1-.1.2-.2.5-.2.7.2 0 .5.1.7.1 0 .2-.1.5-.1.7l-1.4-.2c-.1 0-.1.3-.1.4l-.4-.1-.1.4-1.4-.2c-.1 0-.1.3-.1.4-.2 0-.4-.1-.7-.1-.1 0-.1.3-.1.4l-.4-.1v.3c0 .1.3.1.4.1 0 .2-.1.5-.1.7-.3-.1-.4 0-.4.3l-.4-.1c0-.1 0-.2.1-.4-.2 0-.5-.1-.7-.1 0-.1 0-.2.1-.4l-1.1-.2v.3c0 .1.3.1.4.1 0 .1 0 .2-.1.4l.7.1c0 .2-.1.5-.1.7l-1-.2c-.1 0-.1.3-.1.4-.1 0-.2 0-.4-.1 0 .1 0 .2-.1.4-.1 0-.2 0-.4-.1 0 .1 0 .2-.1.4l-1.4-.2c-.1 0-.1.3-.1.4-.2 0-.5-.1-.7-.1 0 .2-.1.5-.1.7l-1.1-.2.1-.4h-.3c-.1 0-.1.3-.1.4l-1.1-.2.1-.4c-.5-.1-1-.2-1.5-.2.1-.4.1-.7.2-1.1l.7.1c0-.2.1-.5.1-.7l.4.1c0 .1 0 .2-.1.4l.7.1c.1 0 .1-.3.1-.4l.7.1c.1 0 .1-.3.1-.4l1.8.3c0 .1 0 .2-.1.4l.7.1c.1 0 .1-.3.1-.4.1 0 .2 0 .4.1v-.3c0-.1-.3-.1-.4-.1.1-.3 0-.4-.3-.4 0-.1 0-.2.1-.4l-.4-.1c0-.2.1-.5.1-.7h-.3c-.1 0-.1.3-.1.4l-.7-.1c-.1 0-.1.3-.1.4l-.4-.1c0 .1 0 .2-.1.4-.2 0-.4-.1-.7-.1-.1 0-.1.3-.1.4l-.4-.1c0-.1 0-.2.1-.4l-1-.2c-.1 0-.1.3-.1.4l-.4-.1c0 .1 0 .2-.1.4l-.7-.1c-.1.2-.2.5-.2.7l-.4-.1c0 .1 0 .2-.1.4l-.4-.1c0 .1 0 .2-.1.4l-1.1-.2c0 .2-.1.5-.1.7l-.7-.1c-.1 0-.1.3-.1.4l-.4-.1v.3c1.2.3 2.7.4 4 .7.1 0 .1-.3.1-.4.1 0 .2 0 .4.1-.1.4-.1.7-.2 1.1l-.4-.1v.3c0 .1.3.1.4.1 0 .2-.1.5-.1.7-.3-.1-.4 0-.4.3l-.4-.1c0-.2.1-.5.1-.7h-.3c-.1.2-.2.5-.2.7-.3-.1-.4 0-.4.3l-.4-.1c0 .1 0 .2-.1.4l-1.5-.2c.1-.3.1-.7.2-1 0-.1-.3-.1-.4-.1.1-.3 0-.4-.3-.4 0-.1 0-.2.1-.4-.1 0-.2 0-.4-.1v.3c0 .1.3.1.4.1 0 .1 0 .2-.1.4-.1 0-.2 0-.4-.1 0 .1 0 .2-.1.4l-.4-.1c0 .2-.1.5-.1.7l-1-.2c-.1 0-.1.3-.1.4-.3-.1-.4 0-.4.3l-.4-.1c0-.1 0-.2.1-.4l-.7-.1-.1.7c0 .1.3.1.4.1-.1.4-.1.7-.2 1.1l-2.5-.4c-.1 0-.1.3-.1.4l-2.1-.3c-.1 0-.1.3-.1.4l-.4-.1c0 .2-.1.4-.1.7 0 .1.3.1.4.1 0 .2-.1.5-.1.7-.3-.1-.4 0-.4.3-.4-.1-.7-.1-1.1-.2 0-.1 0-.2.1-.4h-.3c-.1 0-.1.3-.1.4l-.7-.1c-.1 0-.1.3-.1.4l-.7-.1c-.1 0-.1.3-.1.4l-.4-.1c0 .2-.1.5-.1.7l-2.6-.4c0 .2-.1.5-.1.7l-.7-.1c0-.1 0-.2.1-.4h-.3c-.1 0-.1.3-.1.4l-1-.2c-.1 0-.1.3-.1.4l-.7-.1c-.1 0-.1.3-.1.4l-.7-.1c-.1 0-.1.3-.1.4l-.4-.1c0-.1 0-.2.1-.4-.2 0-.5-.1-.7-.1 0-.1 0-.2.1-.4l-1-.2c-.1 0-.1.3-.1.4l-.4-.1c0 .1 0 .2-.1.4l-1.8-.3c0-.1 0-.2.1-.4l-.7-.1c-.1 0-.1.3-.1.4l-2.5-.4c-.1 0-.1.3-.1.4-.1 0-.2 0-.4-.1 0-.1 0-.2.1-.4l-.4-.1c0-.1 0-.2.1-.4l-1.4-.2c-.1 0-.1.3-.1.4l-1.5-.2c0-.1 0-.2.1-.4-.4-.1-.7-.1-1.1-.2 0-.2.1-.5.1-.7-.2-.1-.4-.2-.7-.2-.1 0-.1.3-.1.4l-1-.2c-.1 0-.1.3-.1.4l-.4-.1c0-.1 0-.2.1-.4-.2 0-.5-.1-.7-.1 0-.1 0-.2.1-.4l-.4-.1c0-.1 0-.2.1-.4l-.7-.1c-.1 0-.1.3-.1.4l-1.1-.2c0-.1 0-.2.1-.4-.5-.1-1-.2-1.5-.2.1-.3 0-.4-.3-.4 0-.1 0-.2.1-.4l-.7-.1c0-.1 0-.2.1-.4l-.7-.1.1-.4c-.1 0-.2 0-.4-.1 0-.1 0-.2.1-.4l-.7-.1c0-.2.1-.4.1-.7-.6-.2-1.2-.3-1.8-.4.1-.3 0-.4-.3-.4 0-.1 0-.2.1-.4l-.7-.1c0-.1 0-.2.1-.4l-.7-.1.3-1.8c-.2-.1-.4-.2-.7-.2-.1 0-.1.3-.1.4l-1.5-.2c0-.2.1-.5.1-.7 0-.1-.3-.1-.4-.1.1-.3 0-.4-.3-.4 0-.1 0-.2.1-.4l-.4-.1c.1-.3 0-.4-.3-.4 0-.2.1-.5.1-.7h-.3c-.1 0-.1.3-.1.4-.4-.1-.7-.1-1.1-.2 0-.2.1-.5.1-.7 0-.1-.3-.1-.4-.1 0-.2.1-.4.1-.7 0-.1-.3-.1-.4-.1 0-.2.1-.5.1-.7l.4.1v-.3c-.2-.1-.4-.2-.7-.2-.1 0-.1.3-.1.4l-.4-.1c0-.1 0-.2.1-.4l-1.1-.2c0-.1 0-.2.1-.4-.1 0-.2 0-.4-.1l.2-1c0-.1-.3-.1-.4-.1.1-.3 0-.4-.3-.4 0-.1 0-.2.1-.4l-.7-.1c.1-.3 0-.4-.3-.4 0-.1 0-.2.1-.4l-.4-.1c0-.2.1-.4.1-.7 0-.1-.3-.1-.4-.1 0-.2.1-.4.1-.7 0-.1-.3-.1-.4-.1.1-.3 0-.4-.3-.4 0-.1 0-.2.1-.4.1 0 .2 0 .4.1 0-.2.1-.5.1-.7l-1.1-.2c.1-.3 0-.4-.3-.4 0-.1 0-.2.1-.4l-.4-.1c.1-.3 0-.4-.3-.4l.3-1.8c0-.1-.3-.1-.4-.1 0-.1 0-.2.1-.4.1 0 .2 0 .4.1 0-.1 0-.2.1-.4l.4.1c0-.1 0-.2.1-.4l.4.1v-.3c-.2-.1-.5-.2-.7-.2.1-.3 0-.4-.3-.4l.1-.4-.7-.1c0-.1 0-.2.1-.4.1 0 .2 0 .4.1 0-.2.1-.5.1-.7l-1.1-.2c.1-.3 0-.4-.3-.4 0-.1 0-.2.1-.4.1 0 .2 0 .4.1v-.3c0-.1-.3-.1-.4-.1 0-.1 0-.2.1-.4l-.7-.1c0-.1 0-.2.1-.4-.1 0-.2 0-.4-.1.1-.5.1-.9.2-1.4 0-.1-.3-.1-.4-.1.1-.3 0-.4-.3-.4l.1-.4-.4-.1.2-1c0-.1-.3-.1-.4-.1 0-.1 0-.2.1-.4l.4.1c.1-.5.1-.9.2-1.4 0-.1-.3-.1-.4-.1 0-.2.1-.4.1-.7 0-.1-.3-.1-.4-.1 0-.1 0-.2.1-.4l.4.1v-.3c0-.1-.3-.1-.4-.1l.3-2.1c0-.1-.3-.1-.4-.1 0-.1 0-.2.1-.4l.4.1c.1-.5.1-.9.2-1.4 0-.1-.3-.1-.4-.1 0-.1 0-.2.1-.4l-.4-.1c.1-.4.1-.7.2-1.1l.4.1c0-.2.1-.4.1-.7 0-.1-.3-.1-.4-.1 0-.2.1-.4.1-.7 0-.1-.3-.1-.4-.1 0-.2.1-.5.1-.7l.4.1.3-1.8c0-.1-.3-.1-.4-.1 0-.1 0-.2.1-.4-.1 0-.2 0-.4-.1l.4-2.5c0-.1-.3-.1-.4-.1 0-.2.1-.5.1-.7l.4.1v-.3c0-.1-.3-.1-.4-.1.2-1 .3-2 .5-2.9l.4.1c.1-.3.1-.7.2-1 0-.1-.3-.1-.4-.1 0-.1 0-.2.1-.4l.4.1c.1-.3.1-.7.2-1 0-.1-.3-.1-.4-.1.1-.3 0-.4-.3-.4.1-.4.1-.7.2-1.1.1 0 .2 0 .4.1.1-.4.1-.7.2-1.1.1 0 .2 0 .4.1.1-.5.1-.9.2-1.4 0-.1-.3-.1-.4-.1.1-.5.2-1 .2-1.5l.4.1c0-.2.1-.5.1-.7.1 0 .2 0 .4.1.1-.7.2-1.5.3-2.2l.4.1c.1-.4.1-.7.2-1.1l.4.1v-.3c0-.1-.3-.1-.4-.1 0-.2.1-.4.1-.7 0-.1-.3-.1-.4-.1.1-.4.1-.7.2-1.1l.4.1c.1-.4.1-.7.2-1.1l.4.1c0-.2.1-.5.1-.7l.4.1c0-.1 0-.2.1-.4.1 0 .2 0 .4.1v-.3c0-.1-.3-.1-.4-.1 0-.2.1-.5.1-.7.1 0 .2 0 .4.1 0-.2.1-.5.1-.7.3.1.4 0 .4-.3l.4.1c.1-.5.2-1 .2-1.5l.4.1c.1-.9.3-1.7.4-2.6.3.1.4 0 .4-.3l.4.1c0-.1 0-.2.1-.4l.4.1c.1-.7.2-1.5.3-2.2.3.1.4 0 .4-.3.1 0 .2 0 .4.1 0-.2.1-.4.1-.7 0-.1-.3-.1-.4-.1 0-.1 0-.2.1-.4l.4.1c0-.1 0-.2.1-.4l.4.1c0-.1 0-.2.1-.4l.7.1c.1 0 .1-.3.1-.4l.4.1v-.3c0-.1-.3-.1-.4-.1.1-.7.2-1.5.3-2.2.1 0 .2 0 .4.1 0-.2.1-.5.1-.7l.4.1c0-.2.1-.5.1-.7l.4.1c0-.2.1-.5.1-.7.1 0 .2 0 .4.1 0-.2.1-.5.1-.7.3.1.4 0 .4-.3.1 0 .2 0 .4.1 0-.1 0-.2.1-.4.1 0 .2 0 .4.1 0-.1 0-.2.1-.4.1 0 .2 0 .4.1.1-.3.1-.7.2-1 0-.1-.3-.1-.4-.1.1-.4.1-.7.2-1.1l.4.1c0-.2.1-.5.1-.7l.4.1c.1-.4.1-.7.2-1.1.3.1.4 0 .4-.3l.4.1c0-.1 0-.2.1-.4.1 0 .2 0 .4.1.1-.4.1-.7.2-1.1.3.1.4 0 .4-.3.3.1.4 0 .4-.3.1 0 .2 0 .4.1v-.3c0-.1-.3-.1-.4-.1 0-.1 0-.2.1-.4l.4.1c.1-.4.1-.7.2-1.1.1 0 .2 0 .4.1.1-.4.1-.7.2-1.1l.4.1c0-.1 0-.2.1-.4l.4.1c0-.2.1-.5.1-.7l.4.1c.1-.4.1-.7.2-1.1.3.1.4 0 .4-.3.1 0 .2 0 .4.1 0-.2.1-.5.1-.7.3.1.4 0 .4-.3l.4.1c0-.2.1-.5.1-.7.3.1.4 0 .4-.3l.4.1c0-.2.1-.5.1-.7l.4.1c0-.2.1-.5.1-.7.3.1.4 0 .4-.3.1 0 .2 0 .4.1 0-.2.1-.5.1-.7l.4.1c.1-.4.1-.7.2-1.1.3.1.4 0 .4-.3.3.1.4 0 .4-.3l.4.1c0-.2.1-.5.1-.7.1 0 .2 0 .4.1 0-.2.1-.5.1-.7.3.1.4 0 .4-.3l.4.1v-.6l.4.1c0-.2.1-.5.1-.7l.4.1c0-.2.1-.5.1-.7l.4.1c0-.2.1-.5.1-.7l.7.1c.1-.4.2-.7.2-1.1.3.1.4 0 .4-.3l.4.1c0-.1 0-.2.1-.4.3.1.4 0 .4-.3l.4.1.1-.7.4.1c0-.2.1-.5.1-.7.1 0 .2 0 .4.1 0-.1 0-.2.1-.4.3.1.4 0 .4-.3.3.1.4 0 .4-.3l.4.1c0-.1 0-.2.1-.4.1 0 .2 0 .4.1l.1-.7c.1 0 .2 0 .4.1 0-.2.1-.5.1-.7L146 87c0-.1 0-.2.1-.4l.3.1c0-.1 0-.2.1-.4l.4.1c0-.1 0-.2.1-.4.3.1.4 0 .4-.3l.4.1c0-.1 0-.2.1-.4.3.1.4 0 .4-.3l.7.1c.1-.2.2-.4.2-.7 0-.1-.3-.1-.4-.1 0-.2.1-.5.1-.7l.4.1c0-.2.1-.5.1-.7l.4.1c0-.1 0-.2.1-.4l.7.1c.1 0 .1-.3.1-.4.1 0 .2 0 .4.1 0-.2.1-.5.1-.7l.4.1c0-.1 0-.2.1-.4.3.1.4 0 .4-.3l.4.1c0-.1 0-.2.1-.4.3.1.4 0 .4-.3.3.1.4 0 .4-.3.1 0 .2 0 .4.1 0-.2.1-.5.1-.7l.4.1c0-.2.1-.5.1-.7.3.1.4 0 .4-.3l.4.1c0-.2.1-.5.1-.7.3.1.4 0 .4-.3.3.1.4 0 .4-.3.3.1.4 0 .4-.3l.4.1c0-.1 0-.2.1-.4l.4.1c0-.1 0-.2.1-.4.3.1.4 0 .4-.3.3.1.4 0 .4-.3.3.1.4 0 .4-.3.3.1.4 0 .4-.3.1 0 .2 0 .4.1l.1-.4c.1 0 .2 0 .4.1 0-.1 0-.2.1-.4l.4.1c0-.2.1-.5.1-.7l.4.1c0-.2.1-.5.1-.7l.4.1c0-.1 0-.2.1-.4l.4.1c0-.1 0-.2.1-.4l.4.1c0-.1 0-.2.1-.4.2 0 .4.1.7.1.1-.2.2-.5.2-.7.3.1.4 0 .4-.3.3.1.4 0 .4-.3l.4.1c0-.1 0-.2.1-.4l.4.1c0-.1 0-.2.1-.4l.7.1c0-.2.1-.5.1-.7l.4.1c0-.1 0-.2.1-.4l.7.1c.1 0 .1-.3.1-.4.3.1.4 0 .4-.3.1 0 .2 0 .4.1 0-.1 0-.2.1-.4.3.1.4 0 .4-.3.1 0 .2 0 .4.1 0-.2.1-.5.1-.7.3.1.4 0 .4-.3.3.1.4 0 .4-.3.3.1.4 0 .4-.3l.4.1c0-.1 0-.2.1-.4.1 0 .2 0 .4.1l.1-.4.7.1c.1 0 .1-.3.1-.4l.4.1c0-.2.1-.5.1-.7.3.1.4 0 .4-.3.3.1.4 0 .4-.3l.4.1c0-.1 0-.2.1-.4.1 0 .2 0 .4.1l.1-.4c.3.1.4 0 .4-.3.3.1.4 0 .4-.3.3.1.4 0 .4-.3l.4.1c0-.1 0-.2.1-.4l.4.1.1-.4.7.1c.1 0 .1-.3.1-.4.1 0 .2 0 .4.1 0-.1 0-.2.1-.4.3.1.4 0 .4-.3l.4.1c0-.1 0-.2.1-.4l.7.1c.1 0 .1-.3.1-.4.1 0 .2 0 .4.1l.1-.4c.3.1.4 0 .4-.3.1 0 .2 0 .4.1 0-.1 0-.2.1-.4l.4.1c0-.1 0-.2.1-.4l.4.1c0-.1 0-.2.1-.4l.7.1c.1-.2.2-.5.2-.7l.7.1c.1 0 .1-.3.1-.4l.4.1c0-.1 0-.2.1-.4l.7.1c.1 0 .1-.3.1-.4l.4.1c0-.1 0-.2.1-.4l.7.1c.1-.2.2-.5.2-.7l.4.1c0-.1 0-.2.1-.4l.7.1c.1 0 .1-.3.1-.4.1 0 .2 0 .4.1 0-.2.1-.5.1-.7l.4.1c0-.1 0-.2.1-.4l1 .2c.1 0 .1-.3.1-.4l.4.1.1-.4c.3.1.4 0 .4-.3l.7.1c.1 0 .1-.3.1-.4.1 0 .2 0 .4.1 0-.1 0-.2.1-.4l.7.1c.1 0 .1-.3.1-.4l.7.1c.1 0 .1-.3.1-.4.1 0 .2 0 .4.1l.1-.4.4.1c0-.1 0-.2.1-.4l1 .2c.1 0 .1-.3.1-.4.2 0 .4.1.7.1.1 0 .1-.3.1-.4.2 0 .4.1.7.1.1 0 .1-.3.1-.4l.4.1c0-.1 0-.2.1-.4l.7.1c.1 0 .1-.3.1-.4l.4.1.1-.4 1 .2c.1 0 .1-.3.1-.4l.4.1c0-.1 0-.2.1-.4l.4.1c0-.1 0-.2.1-.4.3.1.7.1 1 .2.1 0 .1-.3.1-.4l.4.1c0-.1 0-.2.1-.4l1 .2c.1 0 .1-.3.1-.4l.7.1c.1 0 .1-.3.1-.4l.7.1c.1 0 .1-.3.1-.4l1 .2c.1 0 .1-.3.1-.4l.7.1c.1 0 .1-.3.1-.4l1.4.2c.1 0 .1-.3.1-.4l.7.1c.1 0 .1-.3.1-.4l1 .2c.1 0 .1-.3.1-.4l1.4.2c.1 0 .1-.3.1-.4l1 .2c.1 0 .1-.3.1-.4l1 .2c.1 0 .1-.3.1-.4l3.6.6c.1 0 .1-.3.1-.4l1 .2c.1 0 .1-.3.1-.4l3.6.6c.1 0 .1-.3.1-.4l1.4.2c.1 0 .1-.3.1-.4l.7.1-.1.4 1.1.2c0 .1 0 .2-.1.4l.7.1c.1 0 .1-.3.1-.4.3.1.4 0 .4-.3l1.8.3c0 .1 0 .2-.1.4l1.5.2c0 .1 0 .2-.1.4l1.8.3c.1 0 .1-.3.1-.4l.4.1c0 .1 0 .2-.1.4l.7.1c.1 0 .1-.3.1-.4l.4.1-.1.4 1.1.2-.1.4.7.1c.1 0 .1-.3.1-.4l1.1.2-.1.4h.3c.1 0 .1-.3.1-.4l.4.1c0 .1 0 .2-.1.4l2.2.4c0 .1 0 .2-.1.4l.6.2c0 .1 0 .2-.1.4l1.8.3c0 .1 0 .2-.1.4.5.1 1 .2 1.5.2 0 .1 0 .2-.1.4l.7.1c0 .1 0 .2-.1.4l1.1.2c-.1.3 0 .4.3.4 0 .1 0 .2-.1.4l.7.1c-.1.3 0 .4.3.4 0 .1 0 .2-.1.4l.7.1c0 .1 0 .2-.1.4l.7.1c0 .2-.1.4-.1.7.4.1.7.2 1.1.2-.1.3 0 .4.3.4-.1.3 0 .4.3.4 0 .1 0 .2-.1.4l.4.1-.1.4.4.1c-.1.3 0 .4.3.4-.1.3 0 .4.3.4-.1.3 0 .4.3.4-.1.3 0 .4.3.4-.1.3 0 .4.3.4 0 .2-.1.4-.1.7 0 .1.3.1.4.1 0 .1 0 .2-.1.4.1 0 .2 0 .4.1l-.1.7c0 .1.3.1.4.1-.1.4-.1.7-.2 1.1.2 0 .5.1.7.1 0 .2-.1.5-.1.7l-2.5-.4c-.2.5-.3 1-.3 1.5l-.4-.1v.3c0 .1.3.1.4.1l-.1.4-.4-.1c0 .1 0 .2-.1.4-.1 0-.2 0-.4-.1-.1.5-.2 1-.2 1.5l-.7-.1c-.1 0-.1.3-.1.4-.3-.1-.4 0-.4.3l-.4-.1-.3 2.2-.4-.1c-.1.4-.1.7-.2 1.1-.1 0-.2 0-.4-.1 0 .2-.1.5-.1.7l-.4-.1c-.1.4-.1.7-.2 1.1-.3-.1-.4 0-.4.3l-.4-.1c0 .2-.1.5-.1.7l-1.1-.2c.1-.4.1-.7.2-1.1h-.3c-.1.2-.2.5-.2.7-.3-.1-.4 0-.4.3l-.4-.1c0-.1 0-.2.1-.4h-.3c-.1 0-.1.3-.1.4l-1.5-.2c.1-.3 0-.4-.3-.4 0-.1 0-.2.1-.4-.2 0-.4-.1-.7-.1-.1 0-.1.3-.1.4-.3-.1-.4 0-.4.3l-.4-.1c0-.1 0-.2.1-.4l-.4-.1c0-.1 0-.2.1-.4l-.4-.1.1-.7c-.6-.2-1.2-.3-1.8-.4 0-.1 0-.2.1-.4l-1.5-.2c0-.1 0-.2.1-.4l-1.1-.2.1-.4-1.1-.2c.1-.3 0-.4-.3-.4 0-.1 0-.2.1-.4l-1-.2c-.1 0-.1.3-.1.4l-1.1-.2.1-.7c-.6-.2-1.2-.3-1.8-.3-.1 0-.1.3-.1.4-.1 0-.2 0-.4-.1 0-.2.1-.4.1-.7-.5-.2-1-.3-1.5-.3 0-.1 0-.2.1-.4l-.7-.1-.1.7-.7-.1c-.1 0-.1.3-.1.4l-2.1-.3c-.1 0-.1.3-.1.4l-1.1-.2c0-.1 0-.2.1-.4h-.3c-.1 0-.1.3-.1.4l-2.1-.3c-.1 0-.1.3-.1.4-.3-.1-.4 0-.4.3l-1-.2c-.1 0-.1.3-.1.4l-1.8-.3c-.1 0-.1.3-.1.4-.1 0-.2 0-.4-.1 0-.1 0-.2.1-.4h-.3c-.1 0-.1.3-.1.4l-1-.2c-.1 0-.1.3-.1.4-.2 0-.4-.1-.7-.1-.1 0-.1.3-.1.4l-.7-.1c-.1 0-.1.3-.1.4l-1.8-.3c-.1 0-.1.3-.1.4-.3-.1-.4 0-.4.3l-1-.2c-.1 0-.1.3-.1.4l-1.1-.2c0 .2-.1.5-.1.7l-.4-.1c0 .1 0 .2-.1.4-.2 0-.5-.1-.7-.1l-.1.7-.7-.1c-.1 0-.1.3-.1.4-.1 0-.2 0-.4-.1l-.1.4c-.3-.1-.4 0-.4.3l-.7-.1c-.1 0-.1.3-.1.4l-1-.2c-.1 0-.1.3-.1.4-.3-.1-.4 0-.4.3l-.4-.1c0 .1 0 .2-.1.4-.1 0-.2 0-.4-.1 0 .1 0 .2-.1.4l-.4-.1-.1.4-.4-.1c0 .1 0 .2-.1.4-.3-.1-.4 0-.4.3l-.7-.1c-.1 0-.1.3-.1.4l-.7-.1c-.1.2-.2.5-.2.7l-.4-.1c0 .1 0 .2-.1.4l-.4-.1c0 .1 0 .2-.1.4l-1-.2c-.1 0-.1.3-.1.4-.3-.1-.4 0-.4.3-.3-.1-.4 0-.4.3l-.4-.1c0 .2-.1.5-.1.7l-.7-.1c-.1 0-.1.3-.1.4l-.4-.1c0 .1 0 .2-.1.4l-.4-.1c0 .1 0 .2-.1.4l-.4-.1c0 .1 0 .2-.1.4l-.7-.1c-.1 0-.1.3-.1.4-.2 0-.5-.1-.7-.1 0 .2-.1.5-.1.7l-.4-.1-.1.7-.7-.1c-.1 0-.1.3-.1.4l-.4-.1c0 .1 0 .2-.1.4l-.4-.1c0 .1 0 .2-.1.4l-.7-.1c0 .2-.1.5-.1.7-.3-.1-.4 0-.4.3-.1 0-.2 0-.4-.1 0 .1 0 .2-.1.4l-.4-.1c0 .1 0 .2-.1.4-.3-.1-.4 0-.4.3-.3-.1-.4 0-.4.3l-.4-.1c0 .1 0 .2-.1.4-.3-.1-.4 0-.4.3-.1 0-.2 0-.4-.1l-.1.4c-.3-.1-.4 0-.4.3-.1 0-.2 0-.4-.1 0 .1 0 .2-.1.4-.3-.1-.4 0-.4.3-.3-.1-.4 0-.4.3l-.4-.1c0 .1 0 .2-.1.4-.2 0-.4-.1-.7-.1-.1 0-.1.3-.1.4-.1 0-.2 0-.4-.1 0 .1 0 .2-.1.4-.1 0-.2 0-.4-.1 0 .2-.1.5-.1.7-.3-.1-.4 0-.4.3l-.7-.1c-.1.2-.2.5-.2.7l-.4-.1c0 .1 0 .2-.1.4-.3-.1-.4 0-.4.3l-.7-.1c-.1 0-.1.3-.1.4l-.7-.1-.1.7-.4-.1c0 .2-.1.5-.1.7-.3-.1-.4 0-.4.3-.1 0-.2 0-.4-.1l-.1.7c-.3-.1-.4 0-.4.3-.1 0-.2 0-.4-.1 0 .1 0 .2-.1.4-.3-.1-.4 0-.4.3l-.4-.1c0 .2-.1.5-.1.7l-1-.2c-.2.5-.3 1-.3 1.5-.3-.1-.4 0-.4.3-.3-.1-.4 0-.4.3-.3-.1-.4 0-.4.3l-.4-.1c-.1.5-.2 1-.2 1.5l-.7-.1c-.1 0-.1.3-.1.4l-.4-.1c0 .1 0 .2-.1.4l-.7-.1c-.1.4-.2.7-.2 1.1-.3-.1-.4 0-.4.3l-.4-.1-.1.7c-.1 0-.2 0-.4-.1 0 .2-.1.5-.1.7-.1 0-.2 0-.4-.1 0 .1 0 .2-.1.4l-.4-.1-.1.4c-.3-.1-.4 0-.4.3-.3-.1-.4 0-.4.3l-1-.2c-.2.5-.3 1-.3 1.5-.3-.1-.4 0-.4.3l-.4-.1v.3c0 .1.3.1.4.1 0 .1 0 .2-.1.4l-.4-.1c0 .2-.1.5-.1.7l-.4-.1c0 .1 0 .2-.1.4-.3-.1-.4 0-.4.3-.1 0-.2 0-.4-.1 0 .2-.1.5-.1.7l-.4-.1c-.1.4-.1.7-.2 1.1-.3-.1-.4 0-.4.3l-.7-.1c-.1 0-.1.3-.1.4-.3-.1-.4 0-.4.3l-.4-.1c-.1.5-.2 1-.2 1.5l-.4-.1c-.1.4-.1.7-.2 1.1-.3-.1-.4 0-.4.3-.1 0-.2 0-.4-.1 0 .1 0 .2-.1.4-.3-.1-.4 0-.4.3-.3-.1-.4 0-.4.3l-.4-.1c-.1.4-.1.7-.2 1.1l-.4-.1c-.1.4-.1.7-.2 1.1l-1.1-.2v.3c0 .1.3.1.4.1 0 .2-.1.5-.1.7l-1-.2c-.1 0-.1.3-.1.4l-.4-.1v.3c0 .1.3.1.4.1l-.3 1.8c-.1 0-.2 0-.4-.1 0 .2-.1.5-.1.7-.1 0-.2 0-.4-.1 0 .2-.1.5-.1.7-.1 0-.2 0-.4-.1-.1.4-.1.7-.2 1.1l-.4-.1c0 .1 0 .2-.1.4l-1-.2c-.1.2-.2.4-.2.7 0 .1.3.1.4.1-.1.4-.1.7-.2 1.1l-.7-.1c-.1 0-.1.3-.1.4-.1 0-.2 0-.4-.1 0 .2-.1.5-.1.7l-.4-.1c0-.1 0-.2.1-.4l-.6-.2v.3c0 .1.3.1.4.1l-.1.4c-.1 0-.2 0-.4-.1l-.1.7-.4-.1v.3c.2.1.5.2.7.2 0 .1 0 .2-.1.4-.1 0-.2 0-.4-.1l-.5 3.3c-.3-.1-.4 0-.4.3-.1 0-.2 0-.4-.1 0 .1 0 .2-.1.4l-1.1-.2v.3c.2.1.5.2.7.2-.1.4-.1.7-.2 1.1-.2 0-.4-.1-.7-.1-.1 0-.1.3-.1.4-.1 0-.2 0-.4-.1 0 .2-.1.5-.1.7l-.4-.1c-.1.4-.1.7-.2 1.1l-.4-.1c0 .2-.1.5-.1.7l-.4-.1c0 .1 0 .2-.1.4l-.7-.1c-.1.2-.2.4-.2.7 0 .1.3.1.4.1 0 .1 0 .2-.1.4l.4.1c0 .2-.1.5-.1.7l-.4-.1c-.1.4-.1.7-.2 1.1-.1 0-.2 0-.4-.1 0 .2-.1.5-.1.7-.1 0-.2 0-.4-.1 0 .2-.1.5-.1.7l-.4-.1c0 .1 0 .2-.1.4-.3-.1-.4 0-.4.3-.5-.1-1-.2-1.5-.2v.3c0 .1.3.1.4.1-.1.3 0 .4.3.4 0 .1 0 .2-.1.4-.1 0-.2 0-.4-.1 0 .2-.1.4-.1.7 0 .1.3.1.4.1-.1.4-.1.7-.2 1.1-.3-.1-.4 0-.4.3-.3-.1-.4 0-.4.3l-.4-.1c-.2 1.2-.4 2.5-.6 3.7l-.4-.1-.1.7c-.3-.1-.4 0-.4.3l-.4-.1c0 .2-.1.4-.1.7 0 .1.3.1.4.1-.1.3 0 .4.3.4-.1.3 0 .4.3.4 0 .1 0 .2-.1.4-.1 0-.2 0-.4-.1 0 .2-.1.5-.1.7 0 .1.3.1.4.1-.1.3 0 .4.3.4 0 .1 0 .2-.1.4l-.4-.1v.3c0 .1.3.1.4.1-.1.3-.1.7-.2 1 0 .1.3.1.4.1-.1.4-.1.7-.2 1.1l-1-.2c-.1.2-.2.4-.2.7 0 .1.3.1.4.1 0 .2-.1.4-.1.7 0 .1.3.1.4.1-.2 1.2-.4 2.5-.6 3.7l.7.1c0 .2-.1.5-.1.7 0 .1.3.1.4.1-.1.5-.1.9-.2 1.4 0 .1.3.1.4.1 0 .2-.1.5-.1.7l-.4-.1c0 .2-.1.5-.1.7l-.4-.1v.3c.2.1.5.2.7.2 0 .1 0 .2-.1.4l.7.1c0 .2-.1.5-.1.7-.3-.1-.4 0-.4.3l-.4-.1.1-.4-.7-.1v.3c0 .1.3.1.4.1 0 .1 0 .2-.1.4l.7.1c-.1.5-.1.9-.2 1.4 0 .1.3.1.4.1 0 .1 0 .2-.1.4l.7.1c-.1.3 0 .4.3.4-.1.3 0 .4.3.4 0 .1 0 .2-.1.4.1 0 .2 0 .4.1-.1.3 0 .4.3.4 0 .1 0 .2-.1.4-.1 0-.2 0-.4-.1 0 .1 0 .2-.1.4-.1 0-.2 0-.4-.1 0 .2-.1.5-.1.7-.3-.1-.7-.1-1-.2-.1 0-.1.3-.1.4l-.7-.1c0-.1 0-.2.1-.4h-.3c-.1.2-.2.4-.2.7 0 .1.3.1.4.1 0 .2-.1.5-.1.7h.3c.1-.2.2-.5.2-.7l.7.1c.1 0 .1-.3.1-.4l2.9.5-.1.7-1-.2c-.1 0-.1.3-.1.4l-.4-.1c0 .2-.1.5-.1.7h.3c.1 0 .1-.3.1-.4.5.1 1 .2 1.5.2 0 .2-.1.5-.1.7l-1-.2c-.1.2-.2.5-.2.7l1 .2c.1 0 .1-.3.1-.4l.4.1c0-.1 0-.2.1-.4l.7.1c0 .2-.1.4-.1.7 0 .1.3.1.4.1 0 .1 0 .2-.1.4l1.1.2c-.1.3 0 .4.3.4-.1.3 0 .4.3.4 0 .1 0 .2-.1.4l1.5.2c0 .1 0 .2-.1.4.1 0 .2 0 .4.1-.1.3 0 .4.3.4 0 .1 0 .2-.1.4.2 0 .5.1.7.1-.1.5-.2 1-.2 1.5l-.4-.1c0 .2-.1.5-.1.7l.7.1c.1 0 .1-.3.1-.4l.4.1c0-.1 0-.2.1-.4.4.1.7.1 1.1.2-.1.5-.1.9-.2 1.4 0 .1.3.1.4.1 0 .2-.1.5-.1.7l-.7-.1c.1-.3 0-.4-.3-.4 0-.1 0-.2.1-.4h-.3c-.1.4-.2.7-.2 1.1-.1 0-.2 0-.4-.1v.3c.8.2 1.7.4 2.6.5.1-.5.1-.9.2-1.4 0-.1-.3-.1-.4-.1 0-.2.1-.5.1-.7l.7.1c0 .1 0 .2-.1.4l1.1.2c-.1.3 0 .4.3.4-.1.4-.1.7-.2 1.1l1.5.2-.1.4h.3c.1-.2.1-.5.5-.3v-.3c0-.1-.3-.1-.4-.1l.1-.4-1.5-.2c.1-.4.1-.7.2-1.1.2 0 .5.1.7.1 0 .1 0 .2-.1.4l.7.1-.1.4c.2 0 .5.1.7.1l-.1.7c.6.2 1.2.3 1.8.3.1 0 .1-.3.1-.4l1.1.2-.1.7c.2.1.5.2.7.2-.1.5-.2 1-.2 1.5l-1.8-.3c-.1.2-.2.5-.2.7l.7.1c0 .1 0 .2-.1.4.1 0 .2 0 .4.1 0 .2-.1.5-.1.7.2.1.4.2.7.2.1 0 .1-.3.1-.4l.7.1v-.3c0-.1-.3-.1-.4-.1 0-.2.1-.5.1-.7l.7.1c.1 0 .1-.3.1-.4l.7.1c.1 0 .1-.3.1-.4.1 0 .2 0 .4.1v-.3c-.4-.1-.7-.2-1.1-.2.1-.3 0-.4-.3-.4 0-.1 0-.2.1-.4l.4.1c0-.2.1-.5.1-.7l1.1.2c-.1.3 0 .4.3.4-.1.3-.1.7-.2 1 .2.1.5.2.7.2.1-.3.1-.7.2-1 0-.1-.3-.1-.4-.1 0-.2.1-.5.1-.7l1.4.2c.1 0 .1-.3.1-.4l.4.1c0-.1 0-.2.1-.4l.4.1.1-.4 1.4.2c.1 0 .1-.3.1-.4l.7.1c0 .2-.1.5-.1.7l-.4-.1c.2 3 .2 3.1.1 3.2" fill-rule="evenodd" clip-rule="evenodd" fill="#fff"/></svg>