<svg version="1.1" id="logo" xmlns="http://www.w3.org/2000/svg" xmlns:xlink="http://www.w3.org/1999/xlink" x="0" y="0" viewBox="0 0 489.5 251.6" xml:space="preserve"><path d="M271.3 160.2l-6.9 5.1c-3.6 2.7-7 5.5-10.7 8-6.3 4.2-12.9 3.1-17.8-2.8-1.6-1.9-2.9-4.2-4.1-6.5-1.1-2.2-1.9-4.5-2.9-7.1-.6.8-1.1 1.4-1.6 2-3.3 4-6.4 8.3-10.1 11.9-2.1 2.1-5.2 3.5-8.1 4.3-5.9 1.7-9.6-.7-13.1-8-3 5.5-7.1 9-13.6 8.6-6.7-.4-9.8-4.8-11.5-10.1-5.6 3.5-10.9 7.4-16.7 10.4-8.1 4.3-16.9 5.7-25.9 4.8-8.4-.9-14.7-5.5-19.2-12.5-5.9-9.2-6.6-19.6-5.4-30 3.1-26.3 16.3-46.4 38.5-60.7 5.7-3.7 11.9-6.1 18.6-7.1 10.3-1.4 19 5.4 20.1 15.8.2 2.1.3 4.3-2.3 4.9s-3.3-1.3-4-3.4c-2.7-8.4-7.2-10.7-15.6-7.8-12.7 4.4-22.2 13.2-30 23.7-9.6 12.9-15.1 27.4-14.4 43.8.1 2 .3 4 .7 5.9 2.6 13 11.6 19.1 24.7 16.5 12.8-2.6 22.9-10 32.1-18.9 1.8-1.8 3.5-3.8 5.5-5.3 2.2-1.6 4.7-3.2 7.3-3.9 8.1-2.4 13.8.9 16 9 1.1 4 1.8 8 2.8 12 1.1 4.2 4.1 5.4 7.5 2.7 6.7-5.3 10.7-12.7 14.9-19.9.4-.7 0-1.9-.1-2.9-1.6-17.9-1.4-35.8 2.5-53.5.8-3.6 2.3-7.3 4.2-10.4 3.5-5.7 10-5.6 13 .4 1.9 4 3.1 8.6 3.4 13.1 1.1 17.4-4.2 33.3-11.5 48.8-.7 1.6-1.2 3.7-.8 5.3 1.3 5 2.6 10.1 4.7 14.9 2 4.7 4.8 5.2 9 2.1 3.8-2.7 7.4-5.8 11.2-8.4 2.2-1.5 4.7-2.7 7.2-3.3 5.3-1.4 8.7 1 12 8.1 1.9-2.5 3.7-5.1 5.8-7.3 2.1-2.3 4.3-4.6 6.8-6.3 7.3-5.1 15.4-3.3 19.9 4.5 1.1 2 1.9 4.1 2.9 6.2 2.2-2.7 4.1-5.7 6.5-8.1 8.1-8.1 18.2-6.6 23.8 3.4 1 1.8 2 3.8 2.7 5.7 4.3 11.3 14.3 13.6 24.4 10.9 3.1-.8 6-2.3 9.1-3.3.9-.3 2.1.2 3.2.4-.4.9-.4 2.3-1.1 2.8-7.6 5.4-16 9-25.5 8.1-10.1-.9-15.8-7.3-19.1-16.4-.5-1.4-.8-2.8-1.4-4.1-2.1-4.8-5.5-5.5-9-1.8-1.8 1.9-3.2 4.3-4.4 6.6-1.5 3-2.6 6.1-4.1 9.1-2.2 4.6-4.5 6.1-7.8 5.4-3.1-.6-4.8-3.2-5.3-8-.2-1.9-.1-3.8-.2-5.7-.1-1.7-.2-3.3-.6-5-1.4-6.3-6-8.3-10.7-3.9-4.2 4-7.5 9-11 13.6-1.5 1.9-2.4 4.3-3.6 6.4-1.3 2.2-3.4 3.4-5.6 2.2-1.4-.8-2.4-3-2.7-4.7-.7-3.4-.9-6.8-1.2-10.3-.4.2-.9.1-1.4 0zm-94.3 1.6c1.4 1.9 2.4 4.5 4.3 5.7 2.6 1.6 5.5.2 7-2.2 1.8-2.8 3.2-6 4.2-9.2.4-1.5-.1-4.1-1.1-4.9-1.3-1-3.7-1.4-5.4-.9-4.8 1.1-8.3 6.1-9 11.5zm62.5-76.2c-4.7 13.7-4.3 28-4.2 42.1 6-13.6 8.4-27.5 4.2-42.1z" fill="#fff"/></svg>