<svg version="1.1" id="logo" xmlns="http://www.w3.org/2000/svg" xmlns:xlink="http://www.w3.org/1999/xlink" x="0" y="0" viewBox="0 0 489.5 251.6" xml:space="preserve"><path d="M208.5 89.8h17.1c2.4 0 4.7.2 7.1.8 2.2.6 4.2 1.5 5.7 3.2 1.3 1.5 2 3.2 2.5 5.1.5 2 .8 4 1 6 .3 3.8.3 7.7.3 11.5v22.7c0 2.7-.1 5.5-.5 8.2-.3 2.5-.9 5-2 7.4-1.6 3.3-4.3 5.2-7.7 6.2-2.2.6-4.4.9-6.6 1-5.5.1-11.1 0-16.6 0h-.3V89.8zm9.7 63.6h6c.5 0 1.1-.1 1.6-.2 2.3-.4 3.9-1.6 4.7-3.8.3-.8.5-1.6.7-2.4.5-2.3.6-4.7.6-7v-28.7c0-1.7-.1-3.3-.2-5-.1-1.4-.3-2.7-.8-4.1-.7-1.8-1.9-3-3.7-3.5-.7-.2-1.5-.4-2.2-.4-2.1-.1-4.2-.1-6.3-.1-.1 0-.2.1-.3.1-.1 18.3-.1 36.7-.1 55.1zm166.9-22.7v31.1h-9.6v-72c.2 0 .4-.1.6-.1 5.9 0 11.8 0 17.7.1 2.1 0 4.2.3 6.3.9 3 .9 4.8 2.8 5.6 5.7.5 1.7.7 3.5.8 5.3.2 3.7.2 7.3.1 11-.1 2-.3 4-.8 6-.8 2.9-2.6 5-5.2 6.3-.7.3-1.3.6-2 .9-.2.1-.4.2-.8.3.7.1 1.3.2 1.8.4 1.9.4 3.6 1.2 4.8 2.7 1.1 1.2 1.6 2.7 1.9 4.3.2 1 .3 2 .3 3v17.7c0 2.3.1 4.7.5 7v.5h-9.7c-.6-1-.7-2.1-.7-3.2 0-1 .1-1.9.1-2.9v-17.1c0-1.1-.1-2.3-.3-3.4-.4-2.6-1.8-4-4.4-4.3-1.1-.1-2.2-.2-3.4-.2-1.1-.1-2.3 0-3.6 0zm.1-32.4v23.2c.1 0 .1.1.2.1 2.3 0 4.6.1 6.9-.2 2.6-.3 3.9-1.5 4.5-4.1.4-1.7.4-3.4.5-5.1.1-2.8.1-5.7-.2-8.5-.1-.9-.3-1.8-.5-2.6-.4-1.4-1.4-2.2-2.8-2.5-.5-.1-1.1-.2-1.6-.2-2.2 0-4.3-.1-6.5-.1-.3-.1-.4 0-.5 0zM354 129.4v23.8h17.4v8.5h-27.2v-72h27.2v8.5H354v22.6h16.1c.2.6.2 7.7 0 8.5-5.4.1-10.7.1-16.1.1zm-80.7 23.8v8.5c-.5.2-25.4.2-27.1.1-.1-.5-.2-70.5-.1-71.9.5-.1 26.1-.2 27.1-.1.1.5.2 7.3 0 8.5h-17.5v22.6c1.8.1 3.6 0 5.3 0h10.7c.2.6.2 7.7 0 8.4h-16.1v23.8c6.1.1 11.9.1 17.7.1zm13.8-32.3h16.1v8.4h-16.1c-.2.6-.2 23 0 23.9h17.4v8.5h-27.1c-.1-.5-.2-70.9-.1-71.9.5-.1 26.3-.2 27.2 0v8.5h-17.4v22.6zm21.4-22.7v-8.4h31.8v7.9c0 .4-.1.7-.2 1.1-7.1 17.7-14.1 35.4-21.2 53.1-.2.5-.4.9-.6 1.5h21.9c.2.6.2 7.6 0 8.4h-31.7c0-.2-.1-.4-.1-.5v-7.4c0-.3.1-.7.2-1 4.3-10.6 8.6-21.3 13-31.9 3-7.3 6-14.6 8.9-22 .1-.2.2-.5.3-.8h-22.3zm-154 46.8v-6.4c.5-.2 20-.2 21.5-.1v6.5h-21.5zm-24-33.8v-6.4c.6-.1 20.8-.2 21.5 0v6.4c-.6.1-20.1.1-21.5 0zm0 33.8v-6.5h21.4c.1.5.2 5.5 0 6.5h-21.4zm21.4-25.3h-21.4v-6.5h21.4c.1.5.1 5.7 0 6.5zM103.8 145H82.4v-6.5c.5-.1 20.1-.2 21.4-.1v6.6zm0-16.9H82.5c-.1-.5-.2-5.5 0-6.5h21.4c-.1 2.2-.1 4.3-.1 6.5zm26.7 0v-6.4c.6-.1 20.8-.2 21.5 0v6.4c-.6.1-20.1.1-21.5 0zm24 0v-6.4c.5-.1 20.3-.2 21.4-.1.1.5.2 5.7 0 6.5h-21.4zm-50.7 1.9v6.5H82.4c-.2-.5-.2-5.6 0-6.5h21.4zm0 16.9v6.5H82.4c-.2-.5-.2-5.6 0-6.5h21.4zm26.7 6.6V147h21.4c.1.5.2 5.5.1 6.5h-21.5zm21.5-16.9h-21.5v-6.5H152v6.5zm24-6.5v6.5h-21.4v-6.5c.5-.2 20.6-.2 21.4 0zm-21.5 23.3V147c.5-.1 20.6-.2 21.5 0v6.5c-7.2-.1-14.3-.1-21.5-.1zm-26.7-8.4h-21.3c-.2-.5-.2-5.5-.1-6.5h21.3c.1 2.1.1 4.3.1 6.5zm50.8-33.8v-6.5H200v6.5h-21.4zM200 96.3v6.5h-21.3c-.1-.5-.2-5.5 0-6.5H200zm0 42.2v6.5h-21.4v-6.5H200zm-21.4-2v-6.4c.5-.2 20.4-.2 21.4 0v6.4c-.5.1-20.3.2-21.4 0zm21.4-14.9v6.5h-21.4v-6.5H200zm-21.4-1.9v-6.5H200v6.5h-21.4zm21.4 33.8h-21.3c-.2-.5-.2-5.6-.1-6.5h21.3c.1 2.1.1 4.2.1 6.5zm-96.2 8.3H82.4v-6.4c.5-.1 20.3-.2 21.4-.1v6.5zm26.7-6.4h21.4c.2.5.2 5.5 0 6.5h-21.4v-6.5zm45.5 0v6.4h-21.5v-6.4H176zm-69.6-2V147c.5-.2 20.4-.2 21.4 0v6.4h-21.4zm21.4 2v6.4c-.5.1-20.4.2-21.4 0v-6.4h21.4zm72.2 0v6.4c-.5.1-20.3.2-21.4.1v-6.4c7.1-.1 14.2-.1 21.4-.1z" fill="#fff"/></svg>