<svg version="1.1" id="logo" xmlns="http://www.w3.org/2000/svg" xmlns:xlink="http://www.w3.org/1999/xlink" x="0" y="0" viewBox="0 0 489.5 251.6" xml:space="preserve"><path d="M123.1 153.6c-.8-1.5-1.3-3.3-1.5-5.5h38c0-21.2-9.9-31.8-29.6-31.8-8.1 0-14.7 2.6-19.8 7.9-5.1 5.3-7.7 11.8-7.7 19.6 0 3.6.5 6.9 1.5 9.8h19.1zm8.7-24.6c2.5 0 4.6.8 6.3 2.5 1.6 1.7 2.5 3.7 2.5 6.2h-19c.9-5.8 4.3-8.7 10.2-8.7zm121.5 24.6c-.8-1.5-1.3-3.3-1.5-5.5h38c0-21.2-9.9-31.8-29.6-31.8-8.1 0-14.7 2.6-19.8 7.9-5.1 5.3-7.7 11.8-7.7 19.6 0 3.6.5 6.9 1.5 9.8h19.1zM262 129c2.5 0 4.6.8 6.3 2.5 1.6 1.7 2.5 3.7 2.5 6.2h-19c.9-5.8 4.3-8.7 10.2-8.7zm-94.8 24.6h19.9v-23.8h15.2v23.8h19.9v-23.8h10v-12.2h-10.4c-.1-2.4.2-4 1.2-4.9.9-.9 2.6-1.3 5-1.3-.5 0 1.1.2 4.8.7V98.4c-.7 0-2.1-.1-4.4-.2-1.9-.1-3.4-.2-4.5-.2-4.1 0-7.2.2-9.2.7-3.3.7-6 2.1-8.1 4.2-3 3-4.4 7.9-4.1 14.7h-15.6c-.1-2.4.2-4 1.2-4.9.9-.9 2.6-1.3 5-1.3-.5 0 1.1.2 4.8.7V98.4c-.7 0-2.1-.1-4.4-.2-1.9-.1-3.4-.2-4.5-.2-4.1 0-7.2.2-9.2.7-3.3.7-6 2.1-8.1 4.2-3 3-4.4 7.9-4.1 14.7h-8.1v12.2h8.1v23.8h-.4zm148 0c-1.6-2.1-2.4-5.4-2.4-9.9 0-8.6 2.9-12.9 8.7-12.9 4.4 0 6.8 2.2 7.2 6.6h18.9c-.6-6.9-3.4-12.2-8.5-16-4.8-3.4-10.7-5.1-18-5.1-8 0-14.7 2.5-20.1 7.6-5.4 5.1-8.1 11.7-8.1 19.8 0 3.6.6 6.9 1.7 9.9h20.6zm41.2 0h21.5c-.1-.1-.3-.2-.4-.4-.8-.9-1.2-2.7-1.2-5.2v-18.2h10.6v-12.2h-10.6v-15.9h-19.9v15.9h-8.8v12.2h8.8v23.8z" fill="#fff"/></svg>