<svg version="1.1" id="logo" xmlns="http://www.w3.org/2000/svg" xmlns:xlink="http://www.w3.org/1999/xlink" x="0" y="0" viewBox="0 0 489.5 251.6" xml:space="preserve"><style>.st0{fill:#fff}</style><path class="st0" d="M138 194.3c0 2.7-.7 4.9-2.2 6.7-1.5 1.7-3.3 2.6-5.6 2.6s-4.1-.9-5.6-2.6c-1.5-1.7-2.2-4-2.2-6.7v-37c0-2.7.7-4.9 2.2-6.7 1.5-1.7 3.3-2.6 5.6-2.6s4.1.9 5.6 2.6c1.5 1.7 2.2 4 2.2 6.7v11.1h-6.2v-11.6c0-1.3-.6-2-1.7-2s-1.7.7-1.7 2v37.9c0 1.3.6 2 1.7 2s1.7-.7 1.7-2v-11.6h6.2v11.2zm19.3 8.6h-13.1v-54.2h6.4v47.7h6.8v6.5zm18.6 0h-13.1v-54.2h13.1v6.5H169v16.5h4.6v6.5H169v18.2h6.8v6.5zm21.6 0H191l-.4-9.8h-3.7l-.6 9.8h-5.6l4.4-54.2h8l4.4 54.2zm-7.3-16.7l-1.2-21.6-1.6 21.6h2.8zm29.8 16.7h-5.3l-6.5-29.6v29.6h-5.3v-54.2h6.4l5.4 30.1v-30.1h5.2v54.2zm42.9 0h-6.3V165l-4.7 37.9h-4.4l-4.3-38v38h-5.6v-54.2h9.3l3.5 30.6 4.5-30.6h8.1v54.2zm22.2 0h-6.5l-.4-9.8h-3.7l-.6 9.8h-5.6l4.4-54.2h8l4.4 54.2zm-7.3-16.7l-1.2-21.6-1.6 21.6h2.8zm28.3 7c0 3.8-1 6.6-2.9 8.4-1.4 1.4-3.2 2-5.4 2-2.5 0-4.5-.9-6-2.8s-2.2-4.3-2.2-7.1v-6.6h5.8v7.5c0 .7.2 1.4.6 2 .4.6 1 .9 1.6.9 1.4 0 2-.9 2-2.8 0-4.6-1.3-10-4-16.1-3.9-9-5.9-15.6-5.9-19.6 0-3.3.7-5.9 2-7.7 1.5-2 3.6-3 6.4-3 2.2 0 4 1 5.5 2.9s2.2 4.3 2.2 7v7.2H300V157c0-1.6-.6-2.4-1.9-2.4-1.3 0-2 .8-2 2.4 0 3.3.3 6 .9 8.3.4 1.2 1.4 4 3.3 8.3 3.9 9 5.8 15.5 5.8 19.6zm20.2-37.3h-4.2V203h-6.3v-47.1h-4.5v-7.1h15v7.1zm18.7 47h-13.1v-54.2H345v6.5h-6.8v16.5h4.6v6.5h-4.6v18.2h6.8v6.5zm22 0h-6.3c-.5-2.7-.8-5.5-.8-8.4v-12.7c0-1.4-.5-2.2-1.4-2.2H357v23.3h-6.4v-54.2h8.2c4.8 0 7.2 2.8 7.2 8.5V171c0 2.1-1 4-2.9 5.6 2 1.7 3 3.6 3 5.6v11.5c.1 2.4.3 5.4.9 9.2zm-7.2-31.6v-13.9c0-1.4-.4-2.2-1.2-2.2H357v18.2h1.6c.8.1 1.2-.6 1.2-2.1zm-76.3-51.4c-2 1.4-2 1.4-3.5-.7-.7-1-1.5-2.1-2.5-3l.6 3c.4 1.7 0 2-1.5 2.8-4.8 2.5-10.1 1-14.9 1.8-2.4-3.7-2.5-7.8-3.2-11.8h-.5v11.4c-.6 0-1.1.1-1.6.1H217c-1.1 0-1.4-.3-1.5-1.3-.2-1.6-.7-3.2-1.3-4.9-.4 2.1-.8 4.1-1.2 6.2h-1.9c.4-3.7.8-7.3 1.3-10.9.8-5.2 1.8-10.3 3.9-15.1 1.8-4.3 4.4-8.3 7.3-12 1.6-2 3.7-3 6.3-3h43.7c2.5 0 3.9 1.9 3.3 4.4-.4 1.5-1 3.1-1.1 4.6-.2 2.9-.5 5.8-.2 8.7.4 4.8 1.5 9.5 4 13.7 1.1 2.1 2.5 4 3.9 6z"/><path class="st0" d="M278.2 85.7c-.1-.7-.1-.9-.1-1.1-.3-2.1-1.4-3.1-3.5-3.1h-47.5c2.7-3.5 5.2-6.9 7.9-10.1.7-.8 2.3-1.2 3.5-1.2 3.1-.2 6.2 0 9.3-.1 1.1 0 2.1-.1 3.2-.3 1.9-.3 3.2-1.1 4-3 1.8-4.4 3.8-8.7 5.7-13.1.8-1.8 1.7-3.3 3.4-4.4 3-2 5.4-1.4 7.7.3 1.9 1.5 2.2 4.9.8 7.4-1.7 3-3.6 6-5.4 9-.7 1.2-1.4 2.4-2.3 3.8 1 .1 1.7.3 2.4.3h11.2c2.5 0 4.3 1.3 4.7 3.5.1.4 0 .9-.1 1.3-1.2 3.1-2.5 6.1-3.8 9.2-.2.5-.6.9-1.1 1.6z"/></svg>