<svg version="1.1" id="logo" xmlns="http://www.w3.org/2000/svg" xmlns:xlink="http://www.w3.org/1999/xlink" x="0" y="0" viewBox="0 0 489.5 251.6" xml:space="preserve"><path d="M154.1 99.8v10.4h-8v41.7h-13.6v-41.7h-8V99.8h29.6zm3.1 0h9.6c6.4 0 10.7.2 13 .7 2.3.5 4.1 1.8 5.5 3.8 1.4 2 2.1 5.3 2.1 9.7 0 4.1-.5 6.8-1.5 8.2-1 1.4-3 2.2-6 2.5 2.7.7 4.5 1.6 5.4 2.7.9 1.1 1.5 2.1 1.7 3.1.2.9.3 3.5.3 7.7v13.7h-12.6v-17.3c0-2.8-.2-4.5-.7-5.2-.4-.7-1.6-1-3.5-1v23.5h-13.6V99.8zm13.6 8.9v11.6c1.5 0 2.6-.2 3.2-.6.6-.4.9-1.8.9-4.1v-2.9c0-1.7-.3-2.7-.9-3.3-.6-.5-1.7-.7-3.2-.7zm45.4-8.9l7.8 52.1h-14l-.7-9.4h-4.8l-.8 9.4h-14l6.9-52.1h19.6zm-7.2 33.5c-.7-5.9-1.4-13.2-2.1-21.9-1.4 10-2.2 17.3-2.6 21.9h4.7zm47.5-33.5v52.1h-11.9l-7.1-23.7v23.7h-11.3V99.8h11.3l7.6 23.5V99.8h11.4zm28.1 0v10.4l-10.1 31.3h10.1v10.4h-25v-7.6l10.4-34.1h-9.2V99.8h23.8zm17 0v52.1H288V99.8h13.6zm19 0v41.7h8.2v10.4H307V99.8h13.6zm36.6 0l7.8 52.1h-13.9l-.7-9.4h-4.8l-.8 9.4h-14l6.9-52.1h19.5zm-7.2 33.5c-.7-5.9-1.4-13.2-2.1-21.9-1.4 10-2.2 17.3-2.6 21.9h4.7z" fill="#fff"/></svg>