<svg version="1.1" id="logo" xmlns="http://www.w3.org/2000/svg" xmlns:xlink="http://www.w3.org/1999/xlink" x="0" y="0" viewBox="0 0 489.5 251.6" xml:space="preserve"><path d="M124.8 162.9V88.7h22.8v74.1h-22.8zm38.9 0v-41.2h-8.4V109h8.4c-.3-7 1.1-12 4.3-15.2 2.2-2.2 5-3.7 8.4-4.4 2.1-.5 5.3-.7 9.6-.7 1.2 0 2.7.1 4.7.2 2.4.1 3.9.2 4.6.2v14.1c-3.9-.5-5.5-.7-5-.7-2.5 0-4.2.5-5.1 1.4-.9.9-1.3 2.6-1.2 5.1h10.8v12.7h-10.4v41.2h-20.7zm69.7-24.9h22.8c0 1.8.3 3.4.8 4.9 1.3 3.6 4.9 5.4 10.9 5.4 6.3 0 9.4-2.2 9.4-6.7 0-1.8-1.1-3.3-3.2-4.4-1.7-.8-5.9-2.2-12.8-4.2-8.4-2.4-14-4.5-16.9-6.4-5.5-3.5-8.2-8.5-8.2-15.1 0-8 3.1-14.3 9.2-18.7 5.4-3.9 12.3-5.8 20.7-5.8 8.9 0 16 1.8 21.3 5.3 6.2 4.2 9.4 10.5 9.7 18.9h-21.6c.3-2.5-.6-4.5-2.7-5.9-1.9-1.2-4.1-1.9-6.8-1.9-5.6 0-8.3 1.7-8.2 5 .1 2.3 2.4 4.2 6.9 5.6 4.9 1.2 9.8 2.5 14.6 3.7 6.4 1.8 11.1 4 14.3 6.6 4.4 3.7 6.5 8.6 6.5 14.7 0 8.9-3.6 15.5-10.9 20-6.1 3.7-13.9 5.5-23.4 5.5-7.3 0-13.7-1.5-19.4-4.5-8.5-4.4-12.9-11.8-13-22zm131.2-2.1c0 8-2.4 14.6-7.1 19.7-5.3 5.7-12.8 8.6-22.3 8.6-9.6 0-17-2.9-22.3-8.6-4.7-5.1-7.1-11.7-7.1-19.7s2.4-14.6 7.1-19.7c5.3-5.7 12.7-8.5 22.3-8.5s17.1 2.8 22.3 8.5c4.8 5.1 7.1 11.7 7.1 19.7zm-20.5 0c0-8.9-2.9-13.3-8.8-13.3s-8.8 4.4-8.8 13.3 2.9 13.4 8.8 13.4 8.8-4.5 8.8-13.4zm-113.7-8.1l-26.2-18.9v37.8z" fill="#fff"/></svg>