<svg version="1.1" id="logo" xmlns="http://www.w3.org/2000/svg" xmlns:xlink="http://www.w3.org/1999/xlink" x="0" y="0" viewBox="0 0 489.5 251.6" xml:space="preserve"><path d="M115.7 138.7H93.1L88 152.8h-7.3l20.6-53.9h6.2l20.6 53.9h-7.3l-5.1-14.1zm-20.4-5.8h18.3l-9.2-25.2-9.1 25.2zm65.5-1.9h-12.7v21.8H141V98.9h17.8c6.1 0 10.7 1.4 14 4.1 3.3 2.8 4.9 6.8 4.9 12.1 0 3.4-.9 6.3-2.7 8.8-1.8 2.5-4.3 4.4-7.6 5.6l12.7 22.9v.4h-7.6L160.8 131zm-12.7-5.8H159c3.5 0 6.3-.9 8.4-2.7 2.1-1.8 3.1-4.3 3.1-7.3 0-3.3-1-5.9-3-7.7-2-1.8-4.9-2.7-8.6-2.7H148v20.4zm94.1 21.8h25.6v5.8h-32.7V98.9h7.1V147zm46.9 5.8H282V98.9h7.1v53.9zm60.1 0H342l-27.1-41.5v41.5h-7.1V98.9h7.1l27.2 41.7V98.9h7.1v53.9zm31.9-25.1l-6.6 6.9v18.2h-7.1V98.9h7.1v26.7l24-26.7h8.6l-21.2 23.8 22.9 30.1h-8.5l-19.2-25.1zM219.5 99l-31.5-.1v6.7h24.5v47.2h7v-48.3z" fill="#fff"/></svg>