<svg version="1.1" id="logo" xmlns="http://www.w3.org/2000/svg" xmlns:xlink="http://www.w3.org/1999/xlink" x="0" y="0" viewBox="0 0 489.5 251.6" xml:space="preserve"><style>.st0{fill:#fff}</style><path class="st0" d="M91.2 80.5c.5-2.4.9-4.9 1.7-7.2 4.2-12.5 13.1-20.5 25.2-25.1 5.1-1.9 10.5-2.8 15.9-2.8 74.1 0 148.2-.1 222.4.1 15.2 0 27.7 6.4 36.2 19.4 9.2 14 7.1 32.4-4.7 44.4-8.8 8.9-19.6 13.3-32.1 13.3-27.5.1-55.1 0-82.6 0h-1.9v47.6c-.1 0-.2.1-.3.1-.3-.3-.6-.6-.9-1-13-15.3-25.9-30.7-38.8-46-.6-.7-1.2-.7-2-.7-32 0-64 .2-95.9-.1-15-.1-27.3-6.2-36-18.7-3.3-4.7-5.2-10-5.9-15.7 0-.2-.1-.4-.2-.6-.1-2.2-.1-4.6-.1-7zm109.5-5.7c-.1.3-.2.5-.2.7-2.1 5.1-2.2 10.2-.7 15.4 1.8 6 6.6 9.3 12.9 9.3 6.2 0 10.9-3.5 12.7-9.4 1.3-4.4 1.3-8.8.1-13.1-1.8-6.3-6.6-9.9-13.1-9.7-4.3.1-8.5.5-12.8.9-2.4.2-2.4.3-2.4 2.7 0 3.1 0 3.1 3 3.2h.5zm-28.9 6.6c-.3-3.2-.4-5.9-.8-8.6-.4-2.2-1.8-3.9-4.1-4.5-3.1-.8-6.2-.4-9.2.6-.8.3-1 .7-.7 1.5.4 1.3.7 2.5 1 3.8.2 1.2.7 1.4 1.8 1 2.2-.7 3.1-.1 3.1 2.2 0 2.8.1 5.6 0 8.5 0 1.5-.2 3-.6 4.4-.6 2.5-2.2 3.7-4.4 3.7-2.3 0-3.9-1.2-4.5-3.7-.4-1.8-.6-3.6-.7-5.4-.2-3.3-.1-6.7-.4-10-.2-2-1-3.9-1.7-5.8-.4-1-1.1-1.4-2.3-1-1.4.5-2.9.9-4.4 1.4-.9.3-1.2.7-.9 1.7.4 1.5.8 3 .9 4.5.2 3.2.1 6.3.2 9.5.2 4.4 1.2 8.6 4.6 11.7 7.3 6.7 19.3 3.2 22-6.5.8-3 .8-6.2 1.1-9zm13.9 11.4h-9.9c-.9 0-1.3.3-1.3 1.2.1 1.4 0 2.7 0 4.1 0 .8.2 1.2 1.1 1.1h14.2c.4 0 1.2-.3 1.3-.6 1-2.7 3.1-5.1 2-8.3-.2-.5-.1-1.2-.1-1.8-.1-3.7 0-7.3-.3-11-.2-3.2-1-6.4-4.1-8.1-4.1-2.2-8.4-1.8-12.7-.5-.7.2-.9.7-.7 1.4.3.9.6 1.9.8 2.8.7 2.2.7 2.2 2.9 1.6 3.8-1 5.5.2 5.8 4.1v.4c.3 4.5-.3 9 1 13.6zm48-18.9v10.2c0 1.2.4 1.7 1.7 1.6 1.7-.1 3.3 0 5 0 2.9 0 2.8 0 2.7-2.8 0-.8-.3-1.1-1.1-1.1h-3.3v-8.4c.5-.1 1-.2 1.4-.2 1.6-.1 3.2-.2 4.7-.2 2.6 0 4.1 1 4.8 3.5.5 1.7.8 3.4.8 5.2.1 6.8.1 13.7.1 20.5 0 2.8.3 5.5 1.8 7.9.9 1.5 1.2 1.6 2.7.8.5-.3 1-.6 1.6-.8 1-.4 1.1-1 .6-1.9-1.2-1.8-1.4-3.9-1.4-6V84.8c0-3.3-.4-6.5-1.8-9.5-1.6-3.5-4.4-5.9-8.3-5.9-4.6 0-9.1.4-13.7.7-.3 0-.8.4-.8.7-.6 2.2-.1 2.9 2.5 3.1zm-94.2 13.4c-.1-3.5 0-7-.1-10.5-.1-4.5-2.6-7.3-7-8.4-3.8-.9-7.6-.4-11.3.2-1.8.3-3.6.8-5.3 1.3-1.1.3-1.5.9-1 2.1.4.8.6 1.7.9 2.5.3 1.3.9 1.6 2.2 1.3 2.9-.7 5.8-1.4 8.7-1.6 3.8-.3 5.2 1.2 5.2 5v18.4c0 1.1.3 1.6 1.5 1.6 1.4-.1 2.8 0 4.2 0 2.1 0 2.1 0 2.1-2.1-.1-3.2-.1-6.5-.1-9.8zm137.6 7.5c-.5 1.1-1 2.1-1.4 3.1-.6 1.3-.5 1.5 1 1.9.3.1.6.1.9.1 3.4.3 5.5-1.6 7.1-4.3.4-.6.6-1.2.9-1.9.5 1.6.9 3.1 1.5 4.5.8 1.9 1 2 2.8.9.4-.2.7-.5 1.1-.6 1-.5 1.1-1.1.5-2-1.1-1.7-1.4-3.6-1.4-5.6v-6.3c-.1-2.9 0-5.8-.3-8.7-.3-3.7-2.3-5.9-5.5-6.7-2.2-.5-4.4-.5-6.6.2-2.3.7-2.5 1.2-1.5 3.4.8 1.8.8 1.8 2.5.9 3.5-1.8 6.2-.4 6.4 3.5.2 4.3.1 8.6.1 12.9 0 .3-.1.7-.3.9-.9 1-1.8 2-2.7 2.9-1.4 1.5-3 2.1-5.1.9zm28.7.4h-6.6c-3.2 0-2.7-.6-2.8 2.9 0 .9.3 1.2 1.2 1.2h11.3c.4 0 1-.1 1-.3.5-1.3 1.1-2.6 1.1-3.9 0-2.4-.5-4.7-.6-7.1-.1-4.3 0-8.7-.1-13.1-.1-3.5-1.8-5.4-5.3-5.7-1.9-.2-3.8 0-5.7.5-2.9.7-3 1.2-1.8 3.9.4.9.9 1.1 1.8.7.7-.3 1.4-.6 2.2-.8 2.9-.8 4.1.1 4.1 3V88c-.1 2.4 0 4.7.2 7.2zm58.3-21.5c-.3 1.8-.8 3.4-.8 5-.1 5.7-.1 11.4-.1 17.2 0 3.9-.5 3.2 3.3 3.3 1.3 0 1.6-.4 1.6-1.6 0-6.1-.1-12.3 0-18.4 0-1.4.5-2.9.9-4.3.2-.9.9-1.2 1.8-1.2.5 0 1.4-.1 1.6-.5.5-.9.8-2 1.2-3.2-.8 0-1.3-.1-1.8-.1h-19.5c-2.7 0-2.4-.4-2.5 2.5 0 1 .3 1.4 1.4 1.4 3.9-.1 7.8 0 11.7 0 .4-.1.9-.1 1.2-.1zm-42.8 0c-.4 2.3-.9 4.4-1.1 6.6-.2 2.2 0 4.3 0 6.5v9.1c0 3.9-.5 3.2 3.4 3.4 1.1 0 1.5-.4 1.5-1.5V81.3c0-2.4.1-4.8 1.6-6.8.3-.3.8-.7 1.2-.7 2-.1 2-.1 2-2.1v-.3c.2-1.1-.2-1.6-1.4-1.5-4.1.1-8.3 0-12.4 0-.4 0-.8.1-1.2.1v3.7h6.4zm-56.9 0v22c0 4.1-.6 3.4 3.5 3.5 1 0 1.4-.3 1.4-1.3V71.2c0-1-.4-1.3-1.4-1.3h-6.7c-2.8 0-2.5-.4-2.5 2.7 0 .9.3 1.2 1.2 1.2 1.5-.1 2.9-.1 4.5-.1zm76 0c0 .4.1.7.1 1v9.7c0 1 .3 1.4 1.3 1 .8-.3 1.6-.4 2.4-.6.9-.1 1.3-.6 1.3-1.6v-12c0-1-.3-1.5-1.4-1.4h-6.7c-2.8 0-2.5-.5-2.5 2.6 0 .9.3 1.2 1.2 1.2 1.3.1 2.8.1 4.3.1zm-47.3 119c.3 6.8-5.1 13.4-13.6 13.5-8 .1-13.9-6-13.9-13.2 0-7.3 5.9-13.2 13-13.5 8.7-.3 14.8 6.7 14.5 13.2z"/><path class="st0" d="M218 84.2c-.4 2.3-.5 4.5-1.1 6.6-.6 2.2-2.2 3.3-4.3 3.3-2.1 0-3.7-1.1-4.3-3.3-1.2-4.4-1.2-8.9 0-13.4.6-2.3 2.2-3.3 4.3-3.3 2.1 0 3.7 1 4.3 3.3.5 2.3.7 4.6 1.1 6.8z"/></svg>