<svg version="1.1" id="logo" xmlns="http://www.w3.org/2000/svg" xmlns:xlink="http://www.w3.org/1999/xlink" x="0" y="0" viewBox="0 0 489.5 251.6" xml:space="preserve"><style>.st0{fill:#fff}</style><path class="st0" d="M157.4 94.5v5.7c0 .2-.3.5-.4.7-7.5 8.6-12.5 18.5-14.4 29.8-1.6 9.5-.7 18.7 4 27.2 3.5 6.5 8.8 11.3 15 15 7 4.2 14.6 6.7 22.6 8.4 13.9 3 28.1 3.6 42.3 2.8 6.7-.3 13.4-.9 20-1.7 10-1.2 19.9-3.4 29.6-6.1 12.3-3.4 24.4-7.6 35.8-13.4 2.2-1.1 4.3-2.3 6.6-3.5v15.8c0 .7-.2 1.1-.8 1.4-9.3 5-19.1 8.7-29.2 11.9-11 3.4-22.3 6-33.7 7.9-14.3 2.3-28.6 3.2-43 2.6-12.1-.5-24.1-2.1-35.7-5.8-9.5-3-18.3-7.2-26-13.6-8.9-7.5-14.4-16.9-16.3-28.5-2.5-14.9.8-28.4 9.2-40.9 3.9-5.9 8.7-11 14-15.7 0 .2.1.2.4 0zm165.4 56.2v-10.9c0-.9.3-1.4 1.1-1.9 7.6-4.8 13.6-11 17.5-19.1 7.2-15.2 3.5-31.9-9.3-42.8-5.6-4.8-12-8-18.9-10.4-7.3-2.5-14.9-4-22.6-4.8-8.8-.9-17.6-1-26.5-.5-8.9.6-17.8 1.7-26.5 3.5-16.4 3.2-32.2 8.2-47.4 15.1-2.8 1.3-5.5 2.6-8.4 4v-4c0-.2.4-.5.7-.7 6.4-3.9 13.1-7.3 20-10.3 12.8-5.5 26.1-9.6 39.7-12.2 13-2.5 26.1-3.8 39.4-3.5 10.5.2 20.8 1.4 31 4.1 8.9 2.4 17.4 5.8 25 11.2 7.9 5.7 13.9 12.9 16.8 22.3 3.8 12.6 2.5 24.8-3.8 36.3-5.8 10.8-14.4 18.7-25.7 23.6-.7.4-1.3.7-2.1 1z"/><path class="st0" d="M296.6 131.6h-28.9c-.3 3.9 1.8 8.6 6.8 9.8 4.9 1.1 9.5.3 13.2-3.4l.5-.5c2.3 2.2 4.7 4.5 7.1 6.7-2.8 2.9-6 5.1-9.9 6.2-5.2 1.4-10.4 1.5-15.5-.1-5.4-1.6-9.4-5-11.5-10.2-3.2-8-3.4-16.1.1-24 3-6.7 8.4-10.4 15.7-11.3 5.2-.7 10.1.2 14.4 3.4 2.1 1.6 3.7 3.5 4.9 5.8 3.1 5.7 3.5 11.7 3.1 17.6zm-11.4-7.9c0-6.1-3.6-10-9.1-9.6-5.8.4-8.5 4.8-8.3 9.6h17.4zm-97.8-18.3h23.4c2.2 0 4.4.3 6.4 1.2 4.2 1.8 6.3 5.2 7 9.5.2 1 .2 2.1.2 3.1v31.5h-11.5V119c0-2.5-1.2-4.1-3.7-4.2-3.5-.2-6.9 0-10.5 0v36h-11.4c.1-15.2.1-30.3.1-45.4zm45.7-12.3h11.5v12.3h8.6v9.2h-8.5v22.8c.2 2.5 1.4 3.6 3.9 3.7h4c.4 0 .7 0 .7.5v8.9c-.1.1-.1.1-.2.1-3.6 0-7.2.4-10.8-.5-5-1.3-8.5-5.3-9-10.4-.1-1-.2-2-.2-3V93.1zm70.3-6.5h11.5v63.5c-5.5.3-10.6-4-11.3-9.6-.1-.9-.2-1.8-.2-2.7V86.6zm-126.3 64.5c-5.2.4-10.4-3.8-11.2-9-.2-1.1-.3-2.3-.3-3.5v-33.1h11.5v45.6zm-11.5-62.9H177v10.9h-11.4V88.2zm161.9 7.6c-2.6 0-4.7-2.1-4.7-4.7s2.1-4.7 4.7-4.7 4.7 2.1 4.7 4.7c.1 2.6-2.1 4.7-4.7 4.7zm0-8.6c-2.1 0-3.9 1.7-3.9 3.9s1.7 3.9 3.9 3.9c2.1 0 3.9-1.7 3.9-3.9s-1.8-3.9-3.9-3.9z"/><path class="st0" d="M325.5 93.2v-4.5h2.3c.5 0 .9.1 1.2.3.3.2.4.5.4.9 0 .6-.3 1-.8 1.1.5.1.7.4.7 1s.1 1 .3 1.2h-.9c-.1-.1-.1-.4-.1-.7 0-.4-.1-.7-.2-.9-.1-.2-.4-.3-.8-.3h-1.2v1.9h-.9zm.9-3.9v1.4h1.4c.5 0 .8-.2.8-.7 0-.5-.3-.7-.8-.7h-1.4z"/></svg>