<svg version="1.1" id="logo" xmlns="http://www.w3.org/2000/svg" xmlns:xlink="http://www.w3.org/1999/xlink" x="0" y="0" viewBox="0 0 489.5 251.6" xml:space="preserve"><style>.st1{fill:#fff}</style><path class="st1" d="M177.8 153.1l-1.4 7.6h-36l1.4-7.6 27.7-20.7h-24l1.4-7.6h36l-1.4 7.6-27.8 20.7h24.1z"/><path class="st1" d="M178.4 146.9l1.4-7.6h25.1l-1.4 7.6h-25.1zm69.9-22.1l-1.4 7.6h-26.2c-.6 0-1.2.2-1.7.7-.5.4-.8.9-.9 1.5l-2.9 16.4c-.1.6 0 1.1.4 1.5.3.4.8.7 1.4.7h26.2l-1.4 7.6h-31.6c-1.2 0-2.2-.4-2.9-1.3-.7-.9-1-1.9-.7-3.1l4.9-27.3c.2-1.2.8-2.2 1.8-3.1 1-.9 2.1-1.3 3.3-1.3h31.7zm33.4 35.9h-7.6l1.6-8.7c.1-.6-.1-1.1-.4-1.5-.3-.4-.8-.7-1.4-.7h-16.3c-.6 0-1.2.2-1.7.7-.5.4-.8.9-.9 1.5l-1.6 8.7h-7.6l5.7-31.6c.2-1.2.8-2.2 1.8-3.1 1-.9 2.1-1.3 3.3-1.3h27.3c1.2 0 2.2.4 2.9 1.3.7.9.9 1.9.7 3.1l-2.2 12.5c-.2 1.2-.8 2.2-1.8 3.1-1 .9-2.1 1.3-3.4 1.3 1.3 0 2.4.5 3.1 1.5.2.3.3.7.4 1.3.1 1 .2 1.5.2 1.5l-2.1 10.4zm-3.9-20.7l1-5.5c.1-.6 0-1.1-.4-1.5-.3-.4-.8-.7-1.4-.7h-16.3c-.6 0-1.2.2-1.7.7-.5.4-.8.9-.9 1.5l-1 5.5c-.1.6 0 1.1.4 1.5.3.4.8.7 1.4.7h16.3c.6 0 1.1-.2 1.6-.7.6-.4.9-.9 1-1.5zm42.8-1.1l-1.4 7.6h-22.9l-.8 4.4c-.1.6 0 1.1.4 1.5.3.4.8.7 1.4.7h26.2l-1.4 7.6h-31.6c-1.2 0-2.2-.4-2.9-1.3-.7-.9-1-1.9-.7-3.1l4.9-27.3c.2-1.2.8-2.2 1.8-3.1 1-.9 2.1-1.3 3.3-1.3h31.6l-1.4 7.6h-26.2c-.6 0-1.2.2-1.7.7-.5.4-.8.9-.9 1.5l-.8 4.4h23.1zm11.7-14.1h31.6c1.2 0 2.2.4 2.9 1.3.7.9.9 1.9.7 3.1l-4.9 27.3c-.2 1.2-.8 2.2-1.8 3.1-1 .9-2.1 1.3-3.3 1.3h-31.6l6.4-36.1zm2.6 28.3h18.5c.6 0 1.2-.2 1.7-.7.5-.4.8-.9.9-1.5l2.9-16.4c.1-.6 0-1.1-.4-1.5-.3-.4-.8-.7-1.4-.7h-18.5l-3.7 20.8zm37.9-28.3h7.6l-6.4 36h-7.6l6.4-36zm27.4 35.9h-7.6l4.7-26.2c.1-.6 0-1.1-.4-1.5-.3-.4-.8-.7-1.4-.7h-12l1.4-7.6h36l-1.4 7.6h-12c-.6 0-1.2.2-1.7.7-.5.4-.8.9-.9 1.5l-4.7 26.2zm-251.3 16h-2.5v-4.9c0-.4-.1-.6-.2-.8-.1-.2-.3-.2-.7-.2h-1.6v4.2c0 .2-.1.4-.1.6-.1.2-.1.3-.2.4l-.3.3c-.2.2-.5.4-.8.5-.3.1-.7.1-1.1.1-.2 0-.4 0-.6-.1-.2-.1-.4-.2-.5-.3v-1.7c.2.1.4.2.6.2.2 0 .4-.1.5-.2.1-.1.2-.3.2-.6v-5.6h4.9c.9 0 1.5.2 1.9.7.4.4.6 1.1.6 2.1v5.3zm7 0h-2.5v-8h2.5v8zm12.3 0h-2.6L163 173l-.8 3.7H160v-.2l1.4-5.4-1.5-2.2v-.2h2.7l2.2 3.2.7-3.2h2.3v.3l-1.5 4.8 1.9 2.8v.1zm11.6 0h-2.5v-5c0-.4-.1-.6-.2-.8-.1-.2-.3-.2-.7-.2h-1.7v6h-2.5v-8h5.1c.9 0 1.5.2 1.9.7.4.5.6 1.2.6 2.1v5.2zm12.5 0h-4.4v-2h2v-2.8c0-.3 0-.5-.1-.7-.1-.2-.2-.3-.3-.4-.1-.1-.2-.2-.4-.2s-.3-.1-.5-.1c-.1 0-.2 0-.4.1-.1 0-.3.1-.4.2-.1.1-.3.2-.4.3l-.3.3-.5 5.4h-2.4l.4-3.8c0-.3.1-.6.1-.9v-.8c0-.2-.1-.5-.1-.7-.1-.2-.2-.4-.3-.7l-.3-.8v-.3h2.1l.4.6c.4-.2.9-.4 1.3-.6.4-.1.9-.2 1.4-.2 1.1 0 1.9.2 2.4.7.5.5.7 1.3.7 2.4v5zm11.9 0h-2.5v-4.9c0-.4-.1-.6-.2-.8-.1-.2-.4-.3-.7-.3h-4.1v-2h4.9c.9 0 1.5.2 2 .6.4.4.6 1.1.6 2.1v5.3zm-4.9 0h-2.5V172h2.5v4.7zm23.9 0h-2.5v-4.9c0-.4-.1-.6-.2-.8-.1-.2-.3-.2-.7-.2h-1.6v4.2c0 .2-.1.4-.1.6-.1.2-.1.3-.2.4l-.3.3c-.2.2-.5.4-.8.5-.3.1-.7.1-1.1.1-.2 0-.4 0-.6-.1-.2-.1-.4-.2-.5-.3v-1.7c.2.1.4.2.6.2.2 0 .4-.1.5-.2.1-.1.2-.3.2-.6v-5.6h4.9c.9 0 1.5.2 1.9.7.4.4.6 1.1.6 2.1v5.3zm12.1 0h-2.5v-5c0-.4-.1-.6-.2-.8-.1-.2-.3-.2-.7-.2h-1.7v6h-2.5v-8h5.1c.9 0 1.5.2 1.9.7.4.5.6 1.2.6 2.1v5.2zm12.5-7.1l-.2 4.3c0 .6-.2 1.1-.4 1.5-.2.4-.6.8-1.1 1-.2.1-.4.2-.7.2s-.5.1-.7.1c-.3 0-.5 0-.7.1h-1.5c-.3 0-.6 0-.9-.1-.3 0-.6-.1-.9-.1-.3 0-.5-.1-.7-.1l-.3-7.8h2.5l.2 6.1h1.4c.6 0 1-.1 1.2-.3.2-.2.3-.5.4-.9v-3.1h-1.7v-2h4.3v1.1zm11.4 7.1H252v-2h3.9v-2.8c0-.4-.1-.6-.2-.8-.1-.2-.4-.3-.7-.3h-3v-2h3.8c.9 0 1.5.2 2 .6.4.4.6 1.1.6 2.1v3.3h.7v1.9zm11.7 0h-2.5v-4.9c0-.4-.1-.6-.2-.8-.1-.2-.4-.3-.7-.3h-4.1v-2h4.9c.9 0 1.5.2 2 .6.4.4.6 1.1.6 2.1v5.3zm-5 0h-2.5V172h2.5v4.7zm11.9 0h-2.5v-8h2.5v8zm13.3-3.1h-2.5v-4.9h2.5v4.9zm12.2 3.1h-2.6l-2.5-3.7-.8 3.7h-2.3v-.2l1.4-5.4-1.5-2.2v-.2h2.7l2.2 3.2.7-3.2h2.3v.3l-1.5 4.8 1.9 2.8v.1zm9.9 0h-2.5v-4.8c0-.4-.1-.7-.2-.9-.1-.2-.4-.3-.8-.3H307v-2h3.6c.9 0 1.5.3 2 .8.4.5.7 1.2.7 2.2v5zm14.5-8l-.2 4c0 .4-.1.8-.1 1.2-.1.4-.2.7-.3 1-.2.4-.4.7-.6.9-.3.3-.6.5-1 .6-.4.2-.9.3-1.4.3s-1.2.1-2 .1c-.9 0-1.6 0-2.3-.1-.7-.1-1.2-.2-1.7-.3l-.6-7.8h2.5l.3 4h.4c.1 0 .2-.1.3-.1s.2-.2.2-.3c0-.1.1-.3.1-.6l.1-3h2.4l-.1 3c0 .4-.1.8-.2 1.1-.1.3-.3.5-.5.7s-.5.3-.7.3c-.3.1-.6.1-1 .1h-1l.1 1c.1 0 .2 0 .3.1h1.3c.7 0 1.3 0 1.7-.1.4-.1.7-.3.9-.7.2-.4.3-.9.3-1.6l.2-3.9h2.6zm12.2 8h-2.6l-2.5-3.7-.8 3.7h-2.3v-.2l1.4-5.4-1.5-2.2v-.2h2.7l2.2 3.2.7-3.2h2.3v.3l-1.5 4.8 1.9 2.8v.1zm18.5 0h-2.5v-4.9c0-.4-.1-.6-.2-.8-.1-.2-.3-.2-.7-.2h-1.6v4.2c0 .2-.1.4-.1.6-.1.2-.1.3-.2.4l-.3.3c-.2.2-.5.4-.8.5-.3.1-.7.1-1.1.1-.2 0-.4 0-.6-.1-.2-.1-.4-.2-.5-.3v-1.7c.2.1.4.2.6.2.2 0 .4-.1.5-.2.1-.1.2-.3.2-.6v-5.6h4.9c.9 0 1.5.2 1.9.7.4.4.6 1.1.6 2.1v5.3zm12.4-5.4c0 .4-.1.7-.2 1.2-.1.4-.3.8-.4 1.1l-1.6 3.1h-2.5v-.2l1.7-3.2c.2-.3.3-.6.4-.9.1-.3.1-.5.1-.7 0-.1 0-.2-.1-.4 0-.1-.1-.2-.2-.3-.1-.1-.2-.2-.3-.2-.1-.1-.3-.1-.4-.1h-4.4v-2h4.9c.7 0 1.3.1 1.7.4.4.3.8.6.9 1 .1.2.1.3.2.6.2.2.2.4.2.6zm-5.3 7.9H363v-7.3h2.5v7.3zm12-5.6H375v-4.9h2.5v4.9zm10.7-3.8l-.2 3.2c-.1.7-.2 1.3-.3 1.7-.2.5-.4.9-.7 1.2-.3.3-.7.5-1.2.7-.5.1-1.1.2-1.8.2h-.4c-.2 0-.3 0-.5-.1v-1.9h.7c.3 0 .5 0 .7-.1.2 0 .4-.1.5-.3.1-.1.3-.3.3-.5.1-.2.1-.5.2-.9l.2-2.3h-4.1v-4h2.5v2h4.1v1.1zm12.6 2.8c0 .6-.1 1.2-.3 1.7-.2.5-.5 1-.9 1.3-.4.4-.8.7-1.3.9-.5.2-1.1.3-1.7.3-.6 0-1.2-.1-1.7-.2s-1-.4-1.3-.7c-.4-.3-.7-.8-.9-1.3-.2-.5-.3-1.2-.3-2 0-.6.1-1.2.3-1.7.2-.5.4-.9.8-1.3.3-.4.8-.6 1.3-.8.5-.2 1.1-.3 1.8-.3 1.4 0 2.5.3 3.2 1 .6.7 1 1.7 1 3.1zm-2.6.1c0-.3 0-.6-.1-.9-.1-.3-.2-.5-.3-.8-.1-.2-.3-.4-.5-.6-.2-.1-.5-.2-.8-.2-.3 0-.5.1-.7.2-.2.1-.4.3-.5.5-.1.2-.2.5-.3.8-.1.3-.1.6-.1.9 0 .7.1 1.3.4 1.8.3.4.7.7 1.2.7.3 0 .5-.1.7-.2.2-.1.4-.3.5-.5.1-.2.2-.5.3-.8.1-.3.2-.6.2-.9zM145.9 96.5c0-4.2 1.3-13.7 1.3-13.7s-16.9 8.5-31.1 27.6c-7.7 10.5-14.8 26.5-14.8 26.5l-11.1-20.6-11.9 6.9-4.9-20.2 51.5-24.3-1.7 16.8 3.8-3.3 2.5-19.9L69 100.8l5.8 24.4-6.1 3.5s3.7 2.2 8.3 5.4l10.7 45.2H116l4.7-36.6-5.1 4.6-3 28.1h-22l-9-37.8c2.5 1.9 5 4 7.2 6.1 7.8 7.7 13.4 14.4 13.4 14.4s10.8-17.9 24.4-30.4 21.2-16.9 21.2-16.9-1.9-10.1-1.9-14.3z"/></svg>