<svg version="1.1" id="logo" xmlns="http://www.w3.org/2000/svg" xmlns:xlink="http://www.w3.org/1999/xlink" x="0" y="0" viewBox="0 0 489.5 251.6" xml:space="preserve"><style>.st0{fill:#fff}</style><path transform="rotate(-45.001 252.735 108.692)" class="st0" d="M244.2 93h17.1v31.3h-17.1z"/><path transform="rotate(-45.001 286.99 142.948)" class="st0" d="M278.4 127.3h17.1v31.3h-17.1z"/><path transform="rotate(-45.001 252.735 142.948)" class="st0" d="M237.1 134.4h31.3v17.1h-31.3z"/><path transform="rotate(-45.001 286.99 108.692)" class="st0" d="M271.3 100.1h31.3v17.1h-31.3z"/><path transform="rotate(45.001 384.763 125.813)" class="st0" d="M376.2 117.2h17.1v17.1h-17.1z"/><path class="st0" d="M235.2 119.8c-.3-1.8-.8-3.5-1.3-5.1-4.6-13.5-17.5-23.3-32.6-23.3-15.1 0-27.9 9.7-32.6 23.3-.6 1.7-1 3.4-1.3 5.1-.4 1.9-.5 4-.5 6s.2 4.1.5 6c.3 1.8.8 3.5 1.3 5.1 4.6 13.5 17.5 23.3 32.6 23.3 15.1 0 27.9-9.7 32.6-23.3h-19.4c-3.2 3.7-7.9 6.1-13.2 6.1-5.3 0-10-2.4-13.2-6.1-1.3-1.5-2.3-3.2-3-5.1 0 0-.4-1.2-.4-1.3h50.7c0-.3.1-.5.1-.8.1-.6.1-1.3.2-1.9v-4.3c-.1-1.1-.3-2.4-.5-3.7zm-50.1 0c.7-1.9 1.7-3.6 3-5.1 3.2-3.7 7.9-6.1 13.2-6.1 5.3 0 10 2.4 13.2 6.1 1.3 1.5 2.3 3.2 3 5.1h-32.4zm-41-23.7c-5-2.9-10.8-4.6-17.1-4.6h-.2c-6.2 0-12 1.7-17.1 4.6-10.2 6-17.1 17.1-17.1 29.8v34.4h17.1v-34.4c0-9.5 7.7-17.2 17.2-17.3 9.5.1 17.2 7.8 17.2 17.3v34.4h17.1v-34.4c0-12.8-6.9-23.9-17.1-29.8zM351.6 137H371c-4.6 13.5-17.5 23.3-32.6 23.3-19 0-34.4-15.4-34.4-34.4s15.4-34.4 34.4-34.4c15.1 0 27.9 9.7 32.6 23.3h-19.4c-3.2-3.7-7.9-6.1-13.2-6.1-9.5 0-17.3 7.7-17.3 17.3 0 9.5 7.7 17.3 17.3 17.3 5.3-.2 10-2.6 13.2-6.3z"/></svg>