<svg version="1.1" id="logo" xmlns="http://www.w3.org/2000/svg" xmlns:xlink="http://www.w3.org/1999/xlink" x="0" y="0" viewBox="0 0 489.5 251.6" xml:space="preserve"><path d="M165 159.6c12.3 0 22.2-4 29.7-11.9 5.3-5.5 8.7-12.2 10.3-19.9l8.1 29.8h24.4l8.5-49.4h.2l8.7 49.4h24.3l13.2-47.3v47.3H316v-44.3l25 44.3h24.4v-81h-23.6V120l-23.7-43.4h-40.8l-10.1 50.7h-.2l-9.5-50.7h-22l-9.8 50h-.2l-9.9-50h-24.5l2.4 8.7c-7.4-7.1-16.9-10.6-28.5-10.6-12.3 0-22.2 4-29.7 11.9-7.6 7.9-11.3 18.1-11.3 30.6s3.8 22.7 11.3 30.6c7.5 7.9 17.4 11.8 29.7 11.8zm-10.4-60.3c2.9-2.9 6.4-4.3 10.4-4.3 4.1 0 7.6 1.4 10.4 4.3 3.8 3.9 5.7 9.8 5.7 17.9 0 8.1-1.9 14.1-5.7 17.9-2.9 2.9-6.4 4.3-10.4 4.3-4.1 0-7.6-1.4-10.4-4.3-3.8-3.9-5.7-9.8-5.7-17.9 0-8.1 1.9-14.1 5.7-17.9zM123.9 168h241.7v8.9H123.9z" fill="#fff"/></svg>