<svg xmlns="http://www.w3.org/2000/svg" width="62" height="62" viewBox="0 0 62 62"><g><g><path fill="#fff" d="M31 5.833C45.451 5.833 57.167 17.55 57.167 32c0 14.451-11.716 26.167-26.167 26.167C16.549 58.167 4.833 46.45 4.833 32 4.833 17.549 16.55 5.833 31 5.833z"/></g><g><path fill="#09e35c" d="M61.496 31.249c0 16.982-13.767 30.749-30.749 30.749-9.412 0-16.946-5.087-16.946-5.087L2.239 60.683 5.991 49.49S-.002 41.194-.002 31.249c0-16.983 13.767-30.75 30.75-30.75 16.981 0 30.748 13.767 30.748 30.75zM49.512 39.93c-.041-.815-.773-.94-.773-.94s-5.997-2.905-7.23-3.47c-1.233-.564-1.86.356-1.86.356s-1.818 2.299-2.403 3.05c-.585.753-.92 1.422-2.445.92-1.526-.501-4.586-2.149-7.085-4.388-2.498-2.24-4.41-5.204-4.953-6.102-.543-.9.084-1.463.084-1.463s1.583-1.824 2.34-2.8c.758-.977.286-2.068.105-2.508-.181-.441-2.612-6.154-2.968-6.96-.355-.805-1.128-.94-1.128-.94h-2.884c-.515 0-1.504.627-1.504.627-2.963 1.898-3.466 6.326-3.552 7.281-.087.956-.174 2.983 1.39 6.4 1.563 3.416 5.385 8.05 10.105 12.451 4.72 4.401 11.957 6.295 14.146 6.907 2.189.612 6.812-.474 8.986-2.82 2.173-2.347 1.671-4.786 1.63-5.601z"/></g></g></svg>