<?xml version="1.0" encoding="utf-8"?><svg xmlns="http://www.w3.org/2000/svg" width="586" height="119" viewBox="0 0 586 119"><path d="M76.83 28.238h21.452c8.128 0 15.086 2.823 20.874 8.468 5.787 5.645 8.681 12.542 8.681 20.687 0 8.147-2.894 15.041-8.68 20.687-5.789 5.645-12.747 8.468-20.875 8.468H76.83zm15.125 45.473h3.395c4.835 0 8.836-1.366 12-4.1 3.163-2.731 4.745-6.805 4.745-12.218 0-5.104-1.518-9.099-4.553-11.987-3.036-2.887-7.048-4.33-12.037-4.33h-3.55zm53.785-32.635v9.744h17.054v12.837H145.74v10.054h17.98v12.837h-33.105v-58.31h33.105v12.838zm55.018 2.165a18.117 18.117 0 00-4.745-2.823 14.013 14.013 0 00-5.287-1.044 8.229 8.229 0 00-4.437 1.276c-1.363.85-2.044 2.05-2.044 3.597 0 1.495.617 2.628 1.852 3.402 1.234.773 2.855 1.496 4.862 2.165l3.858 1.16c4.578 1.341 8.114 3.223 10.61 5.646 2.494 2.424 3.743 5.852 3.743 10.285 0 3.248-.451 6.213-1.35 8.894-.902 2.68-2.445 4.949-4.63 6.805-2.188 1.856-4.72 3.236-7.602 4.137a29.825 29.825 0 01-8.951 1.354c-3.704 0-7.254-.555-10.649-1.663-3.395-1.108-6.663-2.77-9.8-4.988l6.482-12.22c2.109 1.857 4.27 3.327 6.482 4.41a15.606 15.606 0 006.945 1.623c2.006 0 3.73-.502 5.17-1.508 1.44-1.005 2.16-2.461 2.16-4.37 0-1.856-.823-3.22-2.468-4.098-1.648-.876-4.592-1.92-8.836-3.132-4.244-1.211-7.576-2.861-9.993-4.95-2.419-2.087-3.627-5.734-3.627-10.942 0-5.877 1.864-10.607 5.594-14.191 3.73-3.582 8.552-5.374 14.469-5.374 3.035 0 6.147.413 9.338 1.236 3.188.826 6.146 2.012 8.874 3.558zm26.469 43.307h-15.125v-58.31h15.125zm63.66-32.558c0 4.95-.385 9.178-1.157 12.683-.771 3.506-2.444 7.064-5.015 10.672-2.574 3.61-5.93 6.368-10.07 8.275-4.142 1.907-8.709 2.861-13.698 2.861-9.157 0-16.617-2.838-22.378-8.517-5.762-5.678-8.643-13.112-8.643-22.3 0-9.446 2.894-17.046 8.682-22.803 5.787-5.755 13.413-8.634 22.88-8.634 6.12 0 11.393 1.359 15.818 4.075 4.425 2.717 7.897 6.816 10.418 12.3l-14.353 6.052c-1.08-2.91-2.7-5.198-4.862-6.862-2.16-1.662-4.733-2.495-7.716-2.495-4.63 0-8.309 1.86-11.035 5.58-2.727 3.72-4.09 8.008-4.09 12.864 0 4.908 1.376 9.185 4.129 12.826 2.751 3.642 6.494 5.463 11.228 5.463 3.395 0 6.198-.862 8.41-2.59 2.212-1.727 3.473-4.24 3.782-7.54H260.87V53.99zm2.702-25.752h15.125l27.702 35.651.154-35.65h15.126v58.309H336.57L308.868 50.82l-.154 35.728h-15.125zm102.532 0h23.15c6.533 0 11.691 1.573 15.472 4.717 3.782 3.145 5.672 7.966 5.672 14.462 0 6.754-1.736 11.742-5.21 14.964-3.471 3.223-8.602 4.833-15.393 4.833h-8.566v19.334h-15.125zm15.125 26.758h2.547c3.703 0 6.443-.387 8.218-1.16 1.775-.774 2.662-2.758 2.662-5.955 0-3.248-.887-5.298-2.662-6.148-1.775-.85-4.515-1.276-8.218-1.276h-2.547zm80.021 31.552h-18.829l-14.275-22.427-.154 22.427h-15.126v-58.31h22.61c6.122 0 11.022 1.483 14.7 4.447 3.679 2.965 5.518 7.462 5.518 13.495 0 4.175-1.119 7.785-3.356 10.826-2.238 3.043-5.364 4.924-9.376 5.646zm-33.258-32.17h1.466c3.087 0 5.606-.49 7.562-1.47 1.955-.98 2.933-2.912 2.933-5.8 0-2.835-.965-4.757-2.894-5.762-1.93-1.005-4.464-1.508-7.601-1.508h-1.466zm94.528 1.892c0 9.447-3.023 17.177-9.067 23.191-6.045 6.014-13.75 9.02-23.112 9.02-9.363 0-17.066-3.006-23.111-9.02-6.045-6.014-9.066-13.744-9.066-23.19 0-8.569 3.214-15.719 9.645-21.449 6.43-5.73 13.941-8.595 22.532-8.595 8.644 0 16.167 2.853 22.573 8.557 6.404 5.704 9.606 12.866 9.606 21.486zm-48.615.077c0 5.013 1.594 9.173 4.784 12.48 3.19 3.308 7.074 4.961 11.652 4.961 4.579 0 8.463-1.653 11.653-4.96 3.188-3.308 4.785-7.468 4.785-12.481 0-4.082-1.62-7.675-4.862-10.776-3.241-3.1-7.1-4.65-11.576-4.65-4.475 0-8.333 1.55-11.574 4.65-3.241 3.101-4.862 6.694-4.862 10.776zM7.346 113.179l3.605-7.83 2.667-.01-6.276 12.894-6.25-12.893 2.666.01zm21.297-13.543c0 .445-.16.827-.478 1.146-.32.32-.71.48-1.17.48a1.63 1.63 0 01-1.17-.453c-.32-.302-.48-.693-.48-1.173 0-.461.156-.857.466-1.186.31-.329.705-.493 1.184-.493.46 0 .85.16 1.17.48.319.32.478.72.478 1.2zm-.451 18.177h-2.394V105.34h2.394zm19.174-9.622a1.872 1.872 0 00-.652-.786 1.618 1.618 0 00-.944-.306 1.34 1.34 0 00-.904.346 1.114 1.114 0 00-.4.88c0 .48.2.844.6 1.092.398.25 1.107.605 2.127 1.067 1.019.462 1.782.955 2.287 1.478.506.525.758 1.24.758 2.146 0 1.173-.421 2.155-1.263 2.945-.843.79-1.848 1.186-3.019 1.186-.94 0-1.808-.249-2.606-.746a4.107 4.107 0 01-1.702-2.052l2.048-.933c.283.533.598.933.944 1.2.345.266.785.4 1.316.4.532 0 .98-.165 1.343-.494.363-.329.545-.75.545-1.266 0-.267-.044-.493-.133-.679-.088-.187-.337-.414-.744-.68l-2.34-1.253c-.816-.444-1.419-.883-1.809-1.32-.39-.434-.585-1.043-.585-1.825 0-1.013.36-1.87 1.077-2.572a3.58 3.58 0 012.593-1.052c.745 0 1.414.19 2.008.573.594.382 1.059.919 1.396 1.612zM66.3 99.636c0 .445-.16.827-.478 1.146-.32.32-.71.48-1.17.48a1.63 1.63 0 01-1.17-.453c-.32-.302-.48-.693-.48-1.173 0-.461.156-.857.466-1.186.31-.329.705-.493 1.184-.493.46 0 .85.16 1.17.48.319.32.478.72.478 1.2zm-.452 18.177h-2.393V105.34h2.393zm26.355-6.21c0 1.884-.643 3.46-1.928 4.73-1.285 1.271-2.86 1.906-4.72 1.906-1.862 0-3.436-.635-4.72-1.905-1.287-1.27-1.929-2.847-1.929-4.731 0-1.883.642-3.46 1.928-4.73 1.285-1.271 2.86-1.906 4.721-1.906 1.86 0 3.435.635 4.72 1.905 1.285 1.27 1.928 2.848 1.928 4.73zm-10.904 0c0 1.173.413 2.19 1.237 3.052.824.862 1.83 1.292 3.019 1.292 1.17 0 2.171-.426 3.005-1.279.833-.853 1.25-1.875 1.25-3.065 0-1.208-.413-2.234-1.237-3.079-.824-.843-1.83-1.265-3.018-1.265-1.17 0-2.172.426-3.006 1.279-.833.852-1.25 1.875-1.25 3.065zm25.823-4.584a3.959 3.959 0 011.609-1.52 4.68 4.68 0 012.194-.532c1.63 0 2.774.48 3.43 1.44.656.959.984 2.282.984 3.97v7.436h-2.393v-7.143c0-1.226-.173-2.127-.519-2.705-.345-.577-1.086-.866-2.22-.866-1.366 0-2.22.436-2.567 1.305-.345.871-.518 2.098-.518 3.68v5.729h-2.394V105.34h2.394zm51.817 8.065a9.905 9.905 0 01-2.755 2.286c-1.038.58-2.125.87-3.26.87-1.722 0-3.177-.555-4.367-1.665-1.189-1.108-1.783-2.524-1.783-4.245 0-1.153.301-2.12.904-2.901.602-.78 1.472-1.588 2.606-2.423l1.25-.904c-.692-.71-1.232-1.42-1.622-2.13a4.626 4.626 0 01-.585-2.262c0-1.349.434-2.418 1.303-3.208.868-.79 1.977-1.185 3.324-1.185 1.277 0 2.367.377 3.27 1.13.905.753 1.357 1.767 1.357 3.043 0 .992-.332 1.869-.996 2.63-.666.763-1.548 1.551-2.647 2.366l4.169 5.06 2.344-2.717 1.596 1.655-2.43 2.867 3.575 4.462-3.089.004zm-6.18-7.027c-1.207.835-2.116 1.542-2.727 2.12a2.802 2.802 0 00-.918 2.118c0 .943.381 1.796 1.143 2.56.763.763 1.623 1.146 2.581 1.146.638 0 1.299-.178 1.982-.534.682-.356 1.556-1.067 2.62-2.133l-4.442-5.437zm1.089-3.49c.94-.746 1.573-1.288 1.902-1.626.327-.337.492-.827.492-1.466 0-.693-.218-1.23-.652-1.612-.435-.382-.998-.573-1.689-.573-.621 0-1.148.2-1.583.6-.434.4-.65.91-.65 1.532 0 .55.11.991.331 1.319.222.33.51.724.865 1.186l.665.853zm49.092 4.317c-.975-1.118-2.164-1.679-3.564-1.679-1.17 0-2.154.431-2.952 1.293-.798.862-1.197 1.888-1.197 3.079 0 1.297.403 2.358 1.21 3.184.807.826 1.84 1.24 3.099 1.24.69 0 1.307-.131 1.848-.394.54-.262 1.06-.673 1.556-1.232v3.065c-1.029.533-2.173.8-3.431.8-1.862 0-3.44-.631-4.734-1.893-1.294-1.261-1.941-2.816-1.941-4.664 0-1.92.656-3.518 1.968-4.797 1.312-1.28 2.925-1.92 4.84-1.92.602 0 1.179.063 1.729.187a5.25 5.25 0 011.569.64zm15.477-1.518c.354-.765.825-1.356 1.41-1.773.585-.417 1.276-.626 2.074-.626.337 0 .673.053 1.01.16.337.106.656.257.958.452l-1.09 2.187c-.39-.339-.878-.507-1.463-.507-1.153 0-1.924.408-2.314 1.226-.39.817-.585 1.883-.585 3.198v6.13h-2.393V105.34h2.393zm18.563 4.61c0 1.102.35 2.066 1.05 2.892.7.826 1.6 1.24 2.7 1.24.868 0 1.582-.196 2.14-.587.559-.39 1.087-1.004 1.583-1.839l2.021 1.146a6.367 6.367 0 01-2.407 2.492 6.495 6.495 0 01-3.364.92c-1.861 0-3.346-.618-4.454-1.853-1.109-1.235-1.663-2.803-1.663-4.704 0-2.008.523-3.63 1.57-4.864 1.046-1.235 2.543-1.852 4.494-1.852 1.897 0 3.342.617 4.335 1.852.992 1.235 1.49 2.83 1.49 4.784v.373zm7.1-1.813c-.16-.976-.532-1.74-1.117-2.291-.584-.55-1.356-.827-2.313-.827-.922 0-1.702.29-2.34.866-.639.578-1.037 1.33-1.197 2.252zm26.462 7.65h-2.394v-1.946a6.243 6.243 0 01-1.888 1.733 4.647 4.647 0 01-2.393.64c-1.845 0-3.298-.653-4.362-1.96-1.064-1.306-1.596-2.9-1.596-4.784 0-1.776.54-3.309 1.623-4.597 1.08-1.288 2.5-1.932 4.255-1.932.886 0 1.697.217 2.433.652a5.854 5.854 0 011.875 1.8l.053-2.08h2.394zm-2.26-6.236c0-1.28-.36-2.346-1.078-3.199-.718-.853-1.707-1.28-2.965-1.28-1.188 0-2.141.44-2.86 1.32-.717.88-1.076 1.933-1.076 3.159 0 1.243.354 2.31 1.063 3.198.71.889 1.667 1.332 2.873 1.332 1.258 0 2.247-.43 2.965-1.293.718-.861 1.077-1.94 1.077-3.237zm18.455 6.236h-2.393v-10.235h-1.304v-2.238h1.304v-4.77h2.393v4.77h2.34v2.238h-2.34zm17.366-18.177c0 .445-.16.827-.479 1.146-.318.32-.71.48-1.17.48-.461 0-.851-.15-1.17-.453-.319-.302-.479-.693-.479-1.173 0-.461.155-.857.466-1.186.31-.329.704-.493 1.183-.493.46 0 .852.16 1.17.48.32.32.479.72.479 1.2zm-.452 18.177h-2.394V105.34h2.394zm18.433-4.634l3.604-7.83 2.668-.01-6.276 12.894-6.25-12.893 2.665.01zm19.356-1.203c0 1.102.35 2.066 1.051 2.892.701.826 1.6 1.24 2.7 1.24.868 0 1.582-.196 2.14-.587.559-.39 1.086-1.004 1.583-1.839l2.021 1.146a6.37 6.37 0 01-2.406 2.492 6.498 6.498 0 01-3.365.92c-1.861 0-3.347-.618-4.455-1.853-1.108-1.235-1.662-2.803-1.662-4.704 0-2.008.523-3.63 1.57-4.864 1.046-1.235 2.544-1.852 4.495-1.852 1.896 0 3.34.617 4.334 1.852.992 1.235 1.49 2.83 1.49 4.784v.373zm7.102-1.813c-.16-.976-.532-1.74-1.118-2.291-.585-.55-1.355-.827-2.312-.827-.924 0-1.704.29-2.341.866-.638.578-1.038 1.33-1.197 2.252zM28.948 41.076H6.108V28.238h48.151L38.445 53.67l-22.227 7.612zM25.621 73.71h24.385v12.837H.156L11.548 68.55l22.269-7.627zm43.297-14.486c0 6.02-4.87 10.902-10.878 10.902s-10.878-4.881-10.878-10.902c0-6.021 4.87-10.902 10.878-10.902s10.878 4.881 10.878 10.902z"/><path fill="#0d52ff" d="M383.131 99.173c0 4.16.867 7.454 2.598 9.88 1.731 2.424 4.823 4.206 9.275 5.35v.421c-5.935 0-10.484-.696-13.647-2.087-3.162-1.39-5.33-3.508-6.502-6.353-1.171-2.845-1.757-6.747-1.757-11.705V72.561c0-3.016-.318-5.463-.952-7.339-.636-1.876-1.824-3.4-3.565-4.574-1.743-1.176-4.25-2.064-7.518-2.668v-.259c3.311-.863 5.828-1.935 7.55-3.217 1.72-1.283 2.897-2.872 3.533-4.77.634-1.896.952-4.354.952-7.372V20.245c0-4.957.586-8.858 1.757-11.704 1.172-2.847 3.34-4.963 6.502-6.355C384.52.798 389.07.102 395.004.102v.42c-4.582 1.1-7.705 2.803-9.371 5.108-1.667 2.307-2.502 5.68-2.502 10.122V40.65c0 5-.898 8.832-2.694 11.494-1.797 2.663-5.306 4.521-10.534 5.578v.259c5.357.863 8.9 2.753 10.631 5.674 1.731 2.921 2.597 7.13 2.597 12.627zm180.7-22.892c0-5.497.866-9.706 2.597-12.627 1.732-2.92 5.275-4.811 10.631-5.674v-.259c-5.227-1.057-8.737-2.915-10.534-5.578-1.796-2.662-2.694-6.493-2.694-11.494V15.752c0-4.441-.835-7.815-2.501-10.122-1.667-2.305-4.79-4.009-9.371-5.108v-.42c5.934 0 10.484.696 13.646 2.084 3.162 1.392 5.33 3.508 6.502 6.355 1.172 2.846 1.757 6.747 1.757 11.704v22.117c0 3.018.318 5.476.952 7.372.636 1.898 1.814 3.487 3.533 4.77 1.723 1.282 4.24 2.354 7.55 3.217v.259c-3.268.604-5.774 1.493-7.518 2.668-1.74 1.174-2.929 2.698-3.565 4.574-.634 1.876-.952 4.323-.952 7.34v22.117c0 4.958-.585 8.86-1.757 11.705-1.172 2.845-3.34 4.964-6.502 6.353-3.162 1.391-7.712 2.087-13.646 2.087v-.421c4.45-1.144 7.543-2.926 9.274-5.35 1.731-2.426 2.598-5.72 2.598-9.88z"/></svg>