<svg xmlns="http://www.w3.org/2000/svg" width="428" height="62" viewBox="0 0 428 62"><path fill="#a1a1a1" d="M363.885 49.837c-1.286.93-2.58 1.851-3.857 2.796-1.983 1.468-3.885 3.057-5.946 4.408-3.515 2.305-7.181 1.726-9.906-1.523-.899-1.072-1.61-2.323-2.26-3.567-.62-1.191-1.047-2.48-1.633-3.908-.338.419-.613.772-.9 1.115-1.853 2.215-3.55 4.588-5.622 6.578-1.18 1.132-2.893 1.914-4.505 2.365-3.304.926-5.326-.38-7.261-4.388-1.645 3.05-3.957 4.966-7.542 4.744-3.706-.23-5.472-2.639-6.37-5.593-3.1 1.948-6.06 4.073-9.258 5.753-4.476 2.353-9.392 3.157-14.42 2.65-4.681-.471-8.17-3.054-10.659-6.91-3.279-5.083-3.647-10.81-2.976-16.538 1.699-14.509 9.078-25.583 21.4-33.466 3.15-2.014 6.588-3.39 10.336-3.9 5.753-.78 10.588 3.003 11.176 8.737.118 1.154.148 2.35-1.274 2.677-1.444.333-1.857-.725-2.225-1.872-1.481-4.613-4.007-5.905-8.665-4.286-7.048 2.45-12.322 7.276-16.655 13.066-5.335 7.127-8.367 15.132-8.024 24.166a20.71 20.71 0 00.401 3.281c1.445 7.176 6.458 10.533 13.744 9.083 7.137-1.42 12.732-5.513 17.816-10.423 1.02-.985 1.933-2.112 3.074-2.93 1.234-.885 2.6-1.74 4.043-2.159 4.53-1.318 7.649.472 8.905 4.988.608 2.185.98 4.433 1.55 6.63.601 2.318 2.27 2.96 4.177 1.464 3.722-2.92 5.944-7.014 8.292-10.978.231-.39-.013-1.067-.06-1.609-.866-9.892-.793-19.753 1.374-29.493a18.934 18.934 0 012.34-5.752c1.95-3.15 5.577-3.081 7.207.244 1.077 2.197 1.718 4.767 1.877 7.213.62 9.577-2.319 18.387-6.377 26.922-.41.863-.647 2.033-.421 2.926.703 2.781 1.462 5.583 2.588 8.214 1.115 2.604 2.682 2.85 5.012 1.168 2.101-1.517 4.09-3.193 6.243-4.63 1.212-.808 2.6-1.489 4.007-1.846 2.973-.755 4.835.567 6.677 4.442 1.077-1.373 2.054-2.795 3.214-4.05 1.163-1.261 2.397-2.513 3.795-3.495 4.03-2.833 8.564-1.795 11.074 2.456.638 1.08 1.08 2.274 1.611 3.416 1.209-1.512 2.26-3.118 3.594-4.444 4.498-4.477 10.131-3.652 13.207 1.86.567 1.017 1.09 2.07 1.507 3.155 2.395 6.25 7.957 7.513 13.55 5.999 1.723-.467 3.345-1.291 5.056-1.816.524-.16 1.19.132 1.791.217-.197.52-.237 1.257-.616 1.525-4.237 3.003-8.9 4.946-14.2 4.466-5.591-.506-8.793-4.038-10.629-9.02-.275-.748-.462-1.532-.785-2.257-1.17-2.623-3.061-3.05-5.028-.99-.998 1.045-1.755 2.362-2.43 3.653-.85 1.629-1.446 3.386-2.256 5.037-1.233 2.513-2.506 3.348-4.321 3.001-1.712-.327-2.693-1.762-2.933-4.4-.094-1.037-.046-2.087-.116-3.128-.062-.916-.12-1.843-.315-2.737-.758-3.475-3.328-4.56-5.937-2.131-2.35 2.188-4.18 4.943-6.131 7.529-.807 1.068-1.316 2.354-1.99 3.524-.704 1.221-1.902 1.895-3.098 1.219-.767-.434-1.313-1.639-1.514-2.59-.393-1.856-.475-3.777-.686-5.67l-.837-.188zm-52.449.895c.775 1.073 1.334 2.487 2.377 3.137 1.423.888 3.04.09 3.877-1.189 1.016-1.553 1.788-3.322 2.32-5.1.243-.814-.036-2.24-.629-2.72-.703-.571-2.08-.752-3.023-.523-2.605.631-4.5 3.402-4.922 6.395zM346.192 8.68c-2.612 7.583-2.376 15.425-2.327 23.25 3.303-7.499 4.647-15.196 2.327-23.25zM20.048 44.397h-12.5L4.743 52.21H.685l11.392-29.853h3.443L26.932 52.21h-4.036zm-11.31-3.219H18.88l-5.082-13.962zm36.257-1.045h-7.007v12.076h-3.955V22.356h9.876c3.36 0 5.946.766 7.756 2.296 1.81 1.531 2.715 3.76 2.715 6.684 0 1.86-.502 3.48-1.506 4.86-1.004 1.38-2.401 2.413-4.19 3.096l7.007 12.671v.246h-4.22zm-7.007-3.22h6.044c1.954 0 3.507-.506 4.662-1.52 1.154-1.013 1.731-2.368 1.731-4.067 0-1.848-.55-3.265-1.65-4.251-1.1-.986-2.687-1.486-4.763-1.5h-6.024zM90.049 48.99h14.139v3.22H86.095V22.355h3.954zm25.952 3.22h-3.934V22.355h3.934zm33.226 0h-3.955l-15.02-23.006V52.21h-3.954V22.356h3.955l15.06 23.108V22.356h3.914zM166.9 38.327l-3.647 3.793v10.09h-3.934V22.356h3.934V37.12l13.257-14.763h4.754l-11.74 13.184 12.662 16.67h-4.713zm-89.408-12.86v26.741h-3.915V26.07H60.055v-3.713l17.437.059z"/></svg>