<svg xmlns="http://www.w3.org/2000/svg" width="427" height="40" viewBox="0 0 427 40"><path fill="#a1a1a1" d="M316.387.077c.115-.007.204-.018.293-.018 3.075.005 6.15.002 9.225.02 1.317.008 2.63.1 3.914.422 1.21.303 2.31.809 3.151 1.758.713.804 1.122 1.763 1.402 2.783.297 1.09.443 2.203.541 3.323.187 2.114.19 4.235.194 6.354.009 4.162.002 8.324-.01 12.486-.003 1.512-.063 3.023-.265 4.525-.187 1.401-.477 2.774-1.107 4.057-.886 1.804-2.365 2.874-4.274 3.417a13.95 13.95 0 01-3.664.53c-3.075.036-6.15.022-9.225.027-.05 0-.1-.011-.175-.02V.078zm5.39 35.017c.098.013.149.025.2.025 1.042-.002 2.084 0 3.126-.015.298-.004.598-.043.892-.094 1.256-.218 2.145-.899 2.593-2.094a8.69 8.69 0 00.375-1.3c.26-1.272.327-2.563.329-3.856.01-5.273.015-10.546.01-15.82a42.86 42.86 0 00-.108-2.748c-.05-.762-.186-1.512-.461-2.232-.377-.982-1.065-1.645-2.079-1.947-.397-.118-.811-.222-1.222-.24-1.17-.051-2.342-.056-3.514-.076-.047 0-.095.028-.14.043v30.354zm92.665-12.507v17.132h-5.338c-.004-.003-.015-.011-.024-.02-.008-.01-.02-.02-.02-.03-.008-13.082-.014-26.164-.02-39.246 0-.102.009-.204.015-.333.109-.011.209-.03.308-.03 3.271.012 6.542.016 9.813.045 1.175.01 2.338.149 3.473.479 1.64.476 2.67 1.539 3.133 3.162.272.95.392 1.925.456 2.905.131 2.014.132 4.031.07 6.048-.033 1.11-.14 2.216-.444 3.296-.446 1.59-1.415 2.74-2.91 3.454-.363.173-.742.314-1.114.468-.117.048-.235.093-.438.173.401.075.715.123 1.024.193 1.038.234 1.977.65 2.688 1.472.595.688.904 1.507 1.051 2.385.092.546.158 1.103.16 1.656.018 3.258.01 6.515.018 9.773.003 1.293.07 2.583.295 3.86.015.088.01.178.015.293h-5.369c-.343-.533-.384-1.14-.392-1.747-.007-.53.036-1.06.037-1.589.003-3.141.01-6.282-.005-9.424a13.425 13.425 0 00-.145-1.89c-.215-1.459-.983-2.2-2.456-2.378-.62-.074-1.247-.087-1.871-.103-.65-.017-1.3-.004-2.01-.004zm.015-17.828v12.778c.047.02.07.037.093.037 1.276.003 2.554.065 3.825-.094 1.454-.182 2.173-.842 2.49-2.271.204-.927.235-1.87.26-2.812.042-1.564.041-3.128-.12-4.686a8.065 8.065 0 00-.302-1.436c-.223-.758-.755-1.222-1.533-1.389a4.761 4.761 0 00-.887-.124c-1.198-.024-2.397-.028-3.595-.037-.075 0-.15.021-.23.034zm-17.304 17.133v13.136h9.68v4.7h-15.097V.087h15.101v4.685h-9.678v12.455h8.918c.088.316.101 4.22.017 4.665h-8.941zm-44.76 13.127v4.666c-.28.091-14.124.135-15.067.048-.08-.269-.12-38.812-.04-39.609.27-.08 14.497-.11 15.065-.031.078.271.104 4.047.024 4.682h-9.681v12.44c.994.043 1.979.014 2.963.019 1.003.005 2.007.001 3.01.001h2.958c.093.312.107 4.224.016 4.654h-8.946v13.13h9.699zm7.63-17.787h8.96v4.65h-8.912c-.086.308-.106 12.645-.022 13.153h9.649v4.697h-15.045c-.08-.265-.113-39.052-.034-39.608.272-.082 14.62-.103 15.08-.017v4.668h-9.676v12.457zm11.89-12.522V.068h17.623c.01.124.025.236.025.348.002 1.331.007 2.663-.004 3.994-.002.2-.05.41-.126.597-3.923 9.754-7.852 19.505-11.78 29.257-.104.26-.203.521-.322.829h12.162c.087.305.104 4.18.025 4.64H371.92c-.01-.105-.029-.204-.029-.302-.001-1.358-.005-2.715.005-4.072a1.55 1.55 0 01.123-.559c2.393-5.853 4.792-11.705 7.19-17.557l4.957-12.098c.052-.128.095-.261.158-.435h-12.412zm-85.488 25.773v-3.552c.27-.088 11.097-.129 11.938-.04.02 1.186.006 2.377.01 3.592h-11.948zM273.08 11.862V8.33c.309-.081 11.54-.09 11.923-.007v3.502c-.298.078-11.096.111-11.923.036zm0 18.618v-3.594h11.881c.078.255.103 3.057.026 3.594H273.08zm11.893-13.961H273.09v-3.572h11.869c.084.294.097 3.159.015 3.572zm-26.671 13.967H246.42v-3.56c.265-.08 11.181-.117 11.882-.033v3.593zm.003-9.31h-11.848c-.08-.274-.102-3.056-.026-3.571h11.874v3.572zm14.775-.006v-3.53c.31-.081 11.542-.09 11.923-.007v3.503c-.297.077-11.106.11-11.923.034zm13.369.002v-3.53c.274-.079 11.25-.11 11.861-.034.078.278.093 3.12.015 3.564H286.45zm-28.14 1.058v3.597h-11.85c-.084-.262-.106-3.088-.024-3.597h11.875zm0 9.31v3.596h-11.85c-.084-.262-.106-3.09-.024-3.597h11.875zm14.772 3.594v-3.593h11.88c.078.25.105 3.022.028 3.593h-11.908zm11.943-9.307h-11.94v-3.595h11.935c.013 1.186.003 2.368.005 3.595zm13.326-3.567v3.565h-11.898V22.27c.284-.082 11.487-.096 11.898-.01zm-11.928 12.872v-3.55c.283-.082 11.46-.102 11.927-.02v3.57h-11.927zm-14.797-4.646h-11.813c-.09-.268-.117-3.041-.032-3.601h11.845v3.6zm28.176-18.62V8.29h11.865v3.575h-11.865zm11.875-8.226v3.568h-11.833c-.076-.278-.098-3.054-.025-3.568h11.858zm-.005 23.247v3.598h-11.869v-3.598h11.869zm-11.875-1.074v-3.54c.265-.083 11.3-.11 11.874-.026v3.544c-.282.075-11.27.1-11.874.022zm11.875-8.234v3.595h-11.867V17.58h11.867zm-11.873-1.062V12.95h11.893c.005 1.183.002 2.363.002 3.568H299.8zm11.87 18.624h-11.816c-.088-.275-.112-3.07-.03-3.603h11.846v3.603zm-53.366 4.607H246.42V36.23c.28-.073 11.283-.101 11.883-.027v3.545zm14.786-3.564h11.868c.085.265.107 3.041.025 3.557H273.09v-3.557zm25.261.013v3.545h-11.914v-3.545h11.914zm-38.594-1.104v-3.508c.266-.086 11.322-.114 11.874-.026v3.534h-11.874zm11.88 1.102v3.503c-.273.08-11.334.105-11.874.024v-3.527h11.875zm40.041 0v3.501c-.265.083-11.269.112-11.871.029v-3.53h11.871zM1.48 35.722c-.557-1.65-.852-3.473-.852-5.489 0-4.33 1.418-7.971 4.255-10.92 2.836-2.95 6.497-4.426 10.984-4.426 10.937 0 16.407 5.92 16.407 17.755h-21.08c.11 1.236.4 2.25.84 3.08zm9.715-8.849h10.511c0-1.381-.454-2.54-1.362-3.472-.91-.934-2.068-1.4-3.476-1.4-3.263 0-5.154 1.624-5.673 4.872zm62.438 8.85c-.556-1.652-.851-3.474-.851-5.49 0-4.33 1.417-7.971 4.255-10.92 2.836-2.95 6.497-4.426 10.983-4.426 10.937 0 16.408 5.92 16.408 17.755h-21.08c.11 1.236.4 2.25.839 3.08zm9.715-8.85H93.86c0-1.381-.455-2.54-1.363-3.472-.909-.934-2.067-1.4-3.475-1.4-3.264 0-5.154 1.624-5.674 4.872zM36.476 22.45h-4.505v-6.833h4.505c-.15-3.77.612-6.498 2.28-8.177 1.186-1.195 2.688-1.98 4.505-2.352 1.149-.261 2.855-.393 5.117-.393.63 0 1.464.038 2.503.112 1.26.075 2.076.113 2.446.113v7.616c-2.076-.26-2.966-.392-2.67-.392-1.333 0-2.251.243-2.752.728-.5.486-.714 1.4-.64 2.745h8.596c-.149-3.77.612-6.498 2.28-8.177 1.186-1.195 2.688-1.98 4.505-2.352 1.149-.261 2.855-.393 5.117-.393.63 0 1.464.038 2.503.112 1.26.075 2.076.113 2.446.113v7.616c-2.076-.26-2.966-.392-2.67-.392-1.333 0-2.251.243-2.752.728-.5.486-.714 1.4-.64 2.745h5.784v6.833h-5.561v13.273H55.86V22.45h-8.373v13.273H36.476zm70.544 13.273c-.6-1.68-.918-3.522-.918-5.544 0-4.518 1.5-8.196 4.504-11.033 3.004-2.838 6.711-4.258 11.123-4.258 4.005 0 7.323.953 9.956 2.857 2.817 2.092 4.394 5.06 4.727 8.905h-10.455c-.223-2.464-1.557-3.696-4.005-3.696-3.226 0-4.839 2.408-4.839 7.225 0 2.517.46 4.353 1.355 5.544zm34.317-13.273h-4.894v-6.833h4.894v-8.85h11.012v8.85h5.895v6.833h-5.895v10.137c0 1.42.222 2.39.667 2.912.065.086.157.15.238.224h-11.917z"/></svg>