<svg xmlns="http://www.w3.org/2000/svg" width="436" height="125" viewBox="0 0 436 125"><path fill="#a1a1a1" d="M.49 69.697c.336-.06.672-.174 1.008-.174 60.655-.008 121.311-.008 181.967-.008h.861l.054 1.138h-1.208c-60.497 0-120.993 0-181.489-.008-.397 0-.795-.12-1.193-.184v-.764zm36.154 23.685V82.253h2.499v6.503c1.528.13 2.768-.653 3.429-2.073.983-2.112.53-4.722-1.068-6.162-1.615-1.455-4.364-1.653-6.344-.455-1.992 1.204-2.72 3.7-1.852 6.346.11.335.225.668.338 1.002l-.25.124c-.134-.179-.298-.342-.4-.537-1.31-2.51-.823-5.885 1.116-7.797 2.02-1.991 5.355-2.425 7.985-1.04 2.562 1.35 3.885 4.087 3.37 6.971-.449 2.506-2.352 4.161-4.907 4.258-.412.015-.825.002-1.43.002v3.987h-2.486zM99.96.362c.848.733.866.912.149 1.519-1.909 1.615-1.926 2.894.018 4.716l2.001-2.231.177.102-2.93 8.228c-.58-.87-.6-1.624-.254-2.387.196-.432.454-.84.714-1.238.542-.834.446-1.63-.124-2.392-.305-.407-.674-.766-.978-1.173-1.048-1.4-.751-2.802.757-3.698.278-.166.534-.368.861-.594-1.374-.698-3.024.31-3.016 1.752a4.58 4.58 0 00.426 1.836c.791 1.709.78 3.405.34 5.21-.224.922-.039 1.943-.039 2.975l-1.893-1.51c-.037.663-.194 1.222-.044 1.683.078.243.69.312 1.341.572-.479.107-.938.356-1.124.223-.467-.332-1.047-.788-1.15-1.283-.195-.933-.325-2.008-.039-2.879.32-.975.47-1.79.036-2.756l.919 1.163c.179-.729.365-1.245.416-1.775.035-.364-.09-.754-.19-1.12-.762-2.788-.487-3.511 1.904-4.943h1.722zM97.471 6.8l-1.798 3.721.223.102c.764-1.093 1.99-1.975 1.575-3.823zm5.853 35.114l-2.662-1.646-.275.173c.224.508.415 1.034.683 1.517.213.384.698.693.747 1.075.073.584.021 1.279-.245 1.787-.39.744-1.185.703-2.118.514l1.1-.58c-1.407-.892-3.073-1.482-2.887-3.605l-.714.49c0-.114-.023-.209.004-.286.273-.781.624-1.544.8-2.345.073-.329-.132-.826-.377-1.094-.396-.43-.93-.735-1.494-1.159l-.33 6.668-2.06-2.683c-.95 2.427-2.878 2.76-5.029 2.594.576-.905 1.468-1.734 1.593-2.665.125-.926-.521-1.955-.862-3.046l-1.469.764-.071-.095c.197-.23.45-.434.578-.698.206-.423.478-.893.459-1.331-.06-1.306.602-2.14 1.55-2.89 1.09-.865 1.106-1.267.138-2.499l-5.703 9.124-.173-.054.638-4.527c-1.736.22-2.418.85-2.894 2.436-.197.657-.463 1.349-.888 1.87-.789.97-2.273.626-2.69-.544-.295-.83.04-1.265 1.438-1.786-.09-.221-.158-.452-.27-.66-.766-1.42-.342-2.684 1.182-3.31.734-.302 1.53-.448 2.271-.734.454-.174.857-.479 1.283-.725l-.082-.247c-.353.04-.705.087-1.058.12-.333.031-.668.049-1.035-.108.541-.149 1.075-.373 1.626-.43 1.081-.111 1.457-.757 1.509-1.726.018-.346.051-.69.095-1.265l-7.103 3.9-.146-.12 1.786-2.956c-.063-.034-.136-.093-.154-.08-1.74 1.317-3.383 1.19-5.01-.246-.43-.381-1.028-.575-1.563-.863.312-1.013.844-1.45 1.855-1.059 1.811.7 2.7-.442 3.797-1.575l-4.006-2.157c3.895-.248 7.78-.168 11.724-.246-.166-1.007-.715-.987-1.21-.929-1.076.126-2.145.308-3.217.466-1.146.169-2.187-.02-3.19-.675-.37-.242-.974-.128-1.454-.175l.666-.486c-1.302-1.623-1.945-1.73-4.45-.762-.5-1.015-.252-2.085.686-2.96 1.07-1 2.533-1.249 3.697-.553.57.341 1.06.812 1.59 1.217.525.399 1.072.686 1.847.234L78.72 14.69l.1-.115c1.634.8 3.268 1.6 5.069 2.48-.353-1.253-.44-2.451-2-2.51h1.203c-.213-.91-.819-1.331-1.527-1.635-.584-.251-1.21-.412-1.78-.691-1.808-.89-2.018-3.543-.346-4.572.414-.255.968-.283 1.543-.438-.385 2.809.606 3.933 2.942 3.452l-.682-2.294 6.749 6.531c-.907.707-1.873.75-2.681-.121-.61-.658-1.057-1.497-1.45-2.316-.533-1.11-.837-1.315-1.988-.977-.48.141-.956.294-1.645.506 1.59.431 1.788 1.612 2.033 2.83.153.76.383 1.615.872 2.17.508.576 1.37.842 2.09 1.251-.948.631-2.576-.326-3.454.838l3.216 1.746-.76-1.597c1.084-.156 2.338-.234 2.543-1.775 1.147.567 1.022 1.214-.448 2.465.036.269.056.54.11.805.056.272.146.538.26.946l.366-.592 1.509 1.155-.332-1.902c-.141.059-.338.14-.534.223l-.17-.147.792-1.152 2.007.747c-.056.064-.087.136-.134.147-.487.114-1.198.145-.957.858.245.725.952.509 1.48.283.884-.378 1.387-1.093 1.53-2.045.055-.37.074-.745.11-1.117.762.064 1.099.79.929 1.78-.102.594-.604 1.373.58 1.527l-1.445.439.054.421 2.384.155c.01.07.018.141.027.212l-2.538.142c.23.735 1.11 1.4 1.688 1.242 1.64-.447 1.943-.732 1.74-1.632.682.235.798.488.336.897-.35.31-.848.451-1.202.756-.32.275-.754.681-.738 1.011.017.366.462.977.764 1.004.478.043 1.18-.166 1.457-.523.879-1.137 1.148-2.37.412-3.8-.772-1.501-.664-1.567 1.184-1.899-.867 1.008-.253 1.3.71 1.422-.268.291-.473.483-.64.702-.536.702-.404 1.203.417 1.5 1.236.448 2.1 1.305 2.713 2.43.41.753.709 1.574 1.165 2.297.514.814 1.148 1.552 1.683 2.26-1.268.239-2.664-.887-4.12-3.506-.284 1.734 1.51 4.091 3.352 4.333.786.103 1.59.1 2.385.092 1.057-.013 1.75.477 2.165 1.417.243.554.448 1.127.734 1.657.498.923 1.97 1.673 2.922 1.433.39-.098.713-.46 1.224-.808-.745-.065-1.373-.02-1.926-.202-.376-.125-.758-.512-.94-.879-.395-.792-.695-1.637-.975-2.48-.365-1.099-1.055-1.798-2.216-1.983-1.737-.278-2.886-1.289-3.8-2.757-.995-1.597-2.16-3.089-3.256-4.634.749-.188 1.59.046 2.258.663.768.709 1.438 1.524 2.138 2.303.277.308.514.65.778.968 2.052 2.463 3.42 2.65 6.19 1.076.82-.467 1.83-.733 2.778-.817 1.295-.116 1.755.464 1.755 1.788 0 .144-.012.287-.028.65.665-1.576.161-2.843-1.216-3.036-.9-.126-1.916 0-2.78.3-2.18.76-3.47.466-4.839-1.375-.38-.511-.726-1.047-1.086-1.572-.695-1.013-1.481-1.916-2.753-2.242l.031-.262c.493 0 1.029-.124 1.469.029.651.227 1.225.668 1.85.984 1.093.552 1.794.343 2.382-.737.318-.585.53-1.228.839-1.818.396-.756.861-.846 1.545-.331.253.19.489.412.697.65.788.906 1.723 1.15 2.942.602l-.145.713c1.31-.452 1.749-2.419 1.018-3.571-.316.69-.569 1.573-1.095 2.242-.222.284-1.016.121-1.55.161l-.048-.282.815-.313c-.931-.434-1.914-.87-2.877-1.347-.976-.483-2.027-.109-2.75 1.023-.915 1.432-.912 1.424-2.578.953-.38-.108-.782-.137-1.174-.203l-.063-.277c.476-.105.957-.19 1.426-.32.579-.162 1.271-.215 1.695-.574 1.029-.87 1.973-1.717 3.484-1.234.23.073.594-.268.986-.462-.113.29-.213.548-.311.805 1.996 1.604 2.943 1.26 3.331-1.21 1.422.688 1.898 2.215 1.177 3.775-.672 1.455-2.058 1.971-3.491 1.294-.201-.095-.388-.22-.581-.33-.95-.546-1.052-.53-1.94.342.235.12.445.232.66.336.192.094.39.18.564.398-.222-.02-.45-.013-.667-.062-.644-.146-1.164-.022-1.784.31-.75.403-1.689.457-2.603.675h8.512l.07.311c-1.761.79-3.523 1.578-5.284 2.367l.074.244c.578-.155 1.148-.36 1.736-.452.9-.141 1.843-.397 2.713-.26 1.934.305 2.927 2.352 2.05 3.993-.16.3-.471.522-.845.922-.416-1.248.475-3.327-1.922-2.737-.551.135-1.183.534-1.462 1-.231.387.001 1.051.028 1.59a335 335 0 00-.858-.945c-.287.142-.56.293-.844.413-.288.12-.588.21-1.046.371l3.606 2.138v.168h-2.44c-.214 1.911.389 2.338 3.78 2.786-.244.818-.784 1.404-1.556 1.487-.954.102-1.936-.056-2.906-.109-.234-.012-.467-.05-.899-.098-.595-1.118-1.11-2.649-2.648-3.283-.667-.275-1.437-.3-2.16-.438l-.216.376 5.478 5.1-.17.207h-.886c-.397 2.47-1.566 4.132-3.14 4.385.262-.476.53-.895.734-1.343.59-1.292.398-2.401-.858-3.038-2.179-1.104-3.015-3.062-3.632-5.265.464.52.928 1.04 1.39 1.562.715.807 1.348 1.71 2.16 2.405 2.006 1.717 2.131 1.948 1.512 4.47 1.433-1.438 1.504-3.466-.039-4.636-2.866-2.174-4.884-5.087-7.13-7.804-.398-.48-.655-1.075-1.071-1.778-.018.372-.099.643-.028.866.22.692.396 1.427.77 2.033.894 1.445 1.639 2.916 2.003 4.603.311 1.437 1.021 2.724 2.319 3.727-1.008.236-1.628-.233-2.002-.892-.735-1.295-1.356-2.655-2.011-3.995-.163-.332-.28-.687-.418-1.032l-.329.11 3.154 9.567zM88.106 30.256c-.249-2.291.205-4.307 1.244-6.214-1.246.71-1.99 1.746-2.224 3.096-.163.938-.216 1.894-.32 2.842-.237 2.136-1.39 3.382-3.52 3.815-.622.126-1.266.203-1.86.414-1.17.413-1.415 1.259-.744 2.299.236.364.442.748.68 1.155l.72-1.382-.998-.836c2.782-.633 5.263-1.508 7.157-3.502 1.952-2.055 2.267-4.744 2.963-7.529-1.88 1.624-1.898 3.972-3.098 5.842zm12.728 13.438l.17-.079c-.326-.666-.641-1.338-.983-1.996-.414-.797-.702-1.61-.097-2.42.992-1.328.884-2.606.036-3.97-1.112-1.791-1.848-3.67-1.255-5.875.135-.503-.252-1.146-.418-1.798-.25.992-.369 1.804-.66 2.55-.825 2.11-.591 4.005.802 5.83.406.532.792 1.441.615 1.995-.74 2.316-.16 4.131 1.64 5.652.048.04.1.074.15.111zm-8.738-16.119c-.236.999-.031 1.947.415 2.887.511 1.077.387 1.646-.453 2.484-.27.27-.563.518-.825.795-1.073 1.134-1.357 2.479-.737 3.88.716 1.62 1.227 3.172-.135 4.837 1.628-.518 2.208-1.626 1.666-3.425-.65-2.158-.452-4.03 1.088-5.774.975-1.104.898-2.376.11-3.624-.414-.655-.75-1.36-1.129-2.06zm2.463.42c.963 2.152.488 4.083-.78 5.931-1.134 1.653-1.1 3.42-.284 5.274.338-.58.672-1.191.73-1.827.121-1.351.396-2.603 1.157-3.769 1.185-1.815.837-4.097-.823-5.609zM75 17.88l.12.251c.176.015.357.062.53.04.923-.119 1.647.179 2.293.87 1.562 1.668 3.48 2.475 5.782 2.23-1.988-.597-3.557-1.806-4.959-3.277-.549-.576-2.325-.955-3.058-.632-.261.116-.473.342-.708.518zm12.391 6.018l-.187-.385c-1.358.876-2.787.948-4.284.485a4.677 4.677 0 00-1.312-.186c-.821-.01-1.31.465-1.556.996 1.07.232 2.09.468 3.117.67.643.126 1.295.202 2.148.331l-.313-.76 2.387-1.151zm-.96 1.798c-1.04 1.202-2.307 1.132-3.673.833-.63-.138-1.328-.104-1.972-.002-.752.12-1.08.521-1.22 1.016 1.013.124 2.059.25 3.104.38 1.735.217 3.033-.516 3.761-2.227zM78.36 28.02l-3.765-.542-.041.294c.725.429 1.427.908 2.186 1.263.315.147.866.177 1.108-.006.296-.224.381-.726.512-1.01zm15.143-2.513l-.046.343c.49.06 1.022.259 1.452.125.261-.081.59-.777.482-1.016-.152-.34-.652-.57-1.049-.741-.416-.18-.886-.235-1.332-.344l-.068.169.97.622a77.29 77.29 0 00-.617.266l.9.456-.692.12zM81.587 11.386c-.52-.422-1.258-.75-1.512-1.3-.264-.572-.059-1.359-.059-2-.714.25-1.077.936-.844 1.849.273 1.065 1.2 1.593 2.415 1.45zm-1.516 27.467l-.384-.79c-.604.274-.885.726-.495 1.2.23.283.865.49 1.2.379.734-.244.682-.877.374-1.522l-.695.733zm17.48-11.99l-.001-.199h-3.398l.005.2h3.395zm13.405-5.578c1.268-.993 1.627-1.675 1.244-2.592l-1.244 2.592zm72.587 24.946v.961c-.062.046-.109.113-.161.117-1.51.13-1.51.13-1.51 1.636v12.892c.027 2.47.042 2.488 2.398 2.849v1.063h-8.937v-1.057c1.545-.266 1.545-.266 1.545-1.844v-6.853H170.4c0 2.525-.021 5.028.013 7.53.01.728.393 1.185 1.234 1.066.34-.048.69-.008 1.126-.008l.063 1.15h-9.13v-1.009c.05-.037.098-.101.151-.107 1.422-.137 1.422-.135 1.422-1.598V49.936c0-.254.006-.51-.002-.764-.052-1.7-.143-1.786-1.864-1.832-.125-.004-.25-.024-.474-.046l-.048-1.061h9.134v.961c-.045.036-.09.104-.143.11-1.585.158-1.585.157-1.585 1.829v5.323h6.546c0-2.036.016-4.035-.008-6.034-.009-.761-.405-1.173-1.225-1.085-.312.033-.63.005-1.044.005l-.057-1.111h9.034zm-94.344 9.857c1.842 2.627 3.544 5.114 5.324 7.542.364.497 1.024.778 1.705 1.274v.817c-1.934 0-3.864.052-5.787-.043-.395-.02-.9-.517-1.12-.92-1.215-2.23-2.44-4.462-3.484-6.774-.433-.958-.944-1.122-1.763-.94 0 2.271-.018 4.51.013 6.748.007.55.363.845.964.797.406-.033.817-.006 1.317-.006l.052 1.152h-9.127v-1.011c.075-.045.127-.1.182-.106 1.428-.126 1.428-.125 1.428-1.586V49.858c0-.318.003-.636-.013-.954-.071-1.389-.24-1.544-1.656-1.563-.19-.003-.38-.017-.686-.032-.02-.332-.04-.658-.062-1.053.3-.035.543-.086.785-.086 3.155-.005 6.312-.07 9.464.031 1.18.038 2.41.316 3.511.753 2.113.837 3.254 2.81 3.183 5.083-.05 1.619-1.238 3.152-2.869 3.687-.331.108-.674.182-1.361.364zm-5.3-.41c1.765.078 3.235-.154 4.08-1.743 1.04-1.956.2-4.866-1.747-5.929-.508-.277-1.139-.37-1.726-.439-.18-.02-.577.32-.58.5-.039 2.504-.026 5.009-.026 7.611zm-43.286 10.07v-1.107l1.528-.133c.015-.348.04-.656.04-.963.003-4.773.003-9.546.002-14.319 0-.222-.002-.445-.014-.667-.046-.82-.37-1.33-1.306-1.224-.305.034-.62-.02-.991-.036l-.05-1.068c.321-.024.594-.062.867-.062 3.155-.004 6.312-.07 9.463.032a10.97 10.97 0 013.603.753c1.795.711 2.785 2.187 2.967 4.116.189 2.003-.722 3.52-2.34 4.605-1.873 1.254-3.982 1.413-6.155 1.127-.308-.041-.614-.107-.93-.163 0 2.273-.008 4.459.003 6.645.005.98.46 1.47 1.498 1.307.273-.043.561.017.893.031v1.126h-9.078zm6.583-14.282c0 1.082.027 2.165-.012 3.246-.02.543.23.716.704.8 1.611.285 3.22-.631 3.664-2.213.525-1.87.097-3.578-1.363-4.862-.551-.485-1.405-.665-2.151-.881-.56-.163-.881.096-.854.76.043 1.049.011 2.1.012 3.15zm57.987-4.16v-.99c.073-.047.125-.11.178-.11 3.728 0 7.458-.052 11.185.034 1.59.037 3.053.64 4.19 1.837 2.277 2.4 1.657 6.097-1.322 7.805-1.822 1.045-3.802 1.193-5.84.923-.307-.04-.611-.103-.944-.16 0 2.279-.024 4.5.012 6.72.014.84.412 1.383 1.391 1.226.304-.05.623-.008.989-.008v1.168h-9.083v-1.032c.089-.049.142-.101.199-.106 1.41-.11 1.41-.109 1.41-1.506v-13.37c0-.318.01-.637-.015-.954-.098-1.28-.263-1.425-1.576-1.442-.221-.003-.442-.02-.774-.036zm7.374 4.136c0 1.081.024 2.163-.01 3.243-.016.512.165.734.666.825 1.435.26 2.96-.506 3.557-1.827.8-1.772.133-4.411-1.5-5.473-.58-.378-1.346-.496-2.045-.661-.47-.112-.684.153-.674.65.023 1.08.007 2.162.006 3.243zm-80.416-4.16v-1.031h5.746l.05.885c-.093.082-.137.152-.189.159-1.552.182-1.553.18-1.553 1.753 0 2.864-.079 5.73.016 8.59.237 7.172-4.572 8.879-9.425 8.714-1.218-.041-2.48-.316-3.623-.746-2.495-.937-3.758-2.837-3.765-5.52-.01-3.245-.003-6.49-.003-9.735 0-.35.003-.7 0-1.05-.021-1.815-.129-1.922-1.933-1.961-.126-.003-.251-.019-.482-.037l-.06-1.066h9.07v.973c-.045.03-.094.09-.147.094-1.45.123-1.45.122-1.45 1.585 0 3.31-.03 6.619.02 9.927.014 1.006.144 2.038.41 3.006.443 1.619 1.582 2.6 3.26 2.822 2.943.387 6.323-.656 6.475-5.16.115-3.4.048-6.807.035-10.212-.006-1.7-.212-1.88-1.904-1.932-.154-.005-.307-.031-.548-.057zm26.058.06v-1.113h15.746c-.106.993-.177 1.936-.326 2.868-.033.212-.324.511-.519.529-.174.016-.51-.275-.547-.474-.127-.67-.535-1.043-1.145-1.113-1.765-.2-3.536-.356-5.309-.473-.17-.012-.524.368-.528.571-.04 2.093-.024 4.186-.024 6.469 1.51-.098 2.93-.165 4.344-.294.624-.057.938-.482.938-1.122 0-.283.028-.566.047-.919l.922-.067v5.445l-.85.04c-.328-1.726-.412-1.814-2.18-1.876-1.04-.036-2.084-.007-3.046-.007 0 2.675-.012 5.241.01 7.806.004.506.299.82.87.78 1.492-.104 2.995-.12 4.474-.318 1.205-.162 2.367-.543 3.045-1.733.086-.15.48-.272.63-.2.156.077.299.43.256.62a29.316 29.316 0 01-.735 2.663c-.056.172-.364.374-.556.374-4.875.005-9.75-.015-14.625-.033-.025 0-.05-.036-.136-.104v-.93c.08-.05.13-.109.185-.114 1.396-.119 1.396-.118 1.396-1.511V49.452c0-.287 0-.573-.015-.86-.043-.866-.399-1.389-1.375-1.256-.278.038-.567.006-.947.006zm64.775 0v-1.106h9.078v.955c-.061.046-.109.11-.162.115-1.479.133-1.479.132-1.479 1.668 0 3.247-.03 6.494.018 9.74.015 1.008.133 2.042.394 3.013.467 1.736 1.68 2.718 3.48 2.955 3.466.455 6.026-1.357 6.242-4.818.23-3.677.117-7.378.07-11.068-.018-1.309-.213-1.36-2.376-1.502l-.067-1.053h5.745l.044.928c-.107.074-.156.136-.21.14-1.524.125-1.524.124-1.524 1.667 0 3.056.002 6.112 0 9.167-.004 4.967-2.494 7.685-7.433 8.164-1.87.181-3.694.046-5.456-.622-2.558-.97-3.902-2.895-3.915-5.633-.017-3.437-.004-6.875-.005-10.312 0-.35.003-.701-.019-1.05-.074-1.161-.271-1.34-1.46-1.348-.284-.002-.568 0-.965 0zm-109.667.666c.003.063.02.13.007.19-.093.428-.082 1.14-.313 1.23-.723.282-.641-.535-.927-.89-.35-.434-.748-.906-1.233-1.138-1.436-.688-2.91-.625-4.31.153-.954.53-1.504 1.328-1.49 2.477.013 1.148.662 1.832 1.618 2.26.84.376 1.73.64 2.585.983.855.343 1.721.672 2.538 1.094 2.182 1.129 3.292 2.968 3.27 5.406-.024 2.47-1.236 4.313-3.376 5.492-2.407 1.326-5.024 1.376-7.63.855-3.471-.694-2.545-.207-3.298-3.4-.068-.289.193-.655.302-.985.3.205.74.341.881.625 1.322 2.642 5.631 3.511 7.852 1.55 1.819-1.607 1.555-4.185-.587-5.316-.782-.413-1.648-.665-2.473-1-.884-.357-1.8-.657-2.638-1.102-1.889-1-2.967-2.57-2.992-4.75-.026-2.2.97-3.862 2.87-4.936 2.253-1.275 4.693-1.52 7.22-1.123.032.005.063.011.094.018 2.223.465 1.838.093 2.03 2.307zm138.295 18.409c-.85-.159-2.378-.447-3.908-.728-.56-.102-.89-.371-.97-.984-.09-.691-.338-1.364-.4-2.055-.025-.299.247-.624.383-.937.262.177.636.294.769.54 1.31 2.44 4.738 3.488 7.17 2.153 1.255-.689 1.903-1.761 1.908-3.185.005-1.39-.82-2.248-2.008-2.755-1.344-.574-2.745-1.015-4.093-1.582-1.78-.748-3.17-1.914-3.621-3.894-.61-2.675.46-5.012 2.945-6.312 2.708-1.417 5.565-1.444 8.457-.66.223.06.484.4.523.642.116.72.163 1.456.162 2.185 0 .216-.223.578-.392.61-.188.034-.528-.181-.636-.378-1.17-2.147-3.691-2.808-5.844-1.494-.936.572-1.47 1.376-1.427 2.519.04 1.1.68 1.764 1.6 2.177.838.378 1.728.641 2.583.988.912.37 1.855.698 2.705 1.184 3.913 2.236 4.234 7.485.653 10.239-1.727 1.327-3.75 1.661-6.56 1.727zm-44.725 16.895c0-1.75.008-3.5-.006-5.25-.003-.447.01-.854.574-.909 1.574-.154 3.17-.527 4.722-.394 3.102.264 5.14 2.521 5.468 5.668.376 3.603-1.531 6.723-4.76 7.205-1.782.267-3.664-.1-5.494-.254-.19-.016-.474-.528-.481-.816-.045-1.749-.023-3.5-.023-5.25zm2.78-.052c0 1.303.032 2.606-.014 3.906-.024.668.254.892.871.949 1.276.116 2.308-.304 3.117-1.285 1.508-1.829 1.56-5.177.096-7.037-.849-1.079-1.946-1.593-3.34-1.406-.529.07-.758.304-.742.873.037 1.333.011 2.667.011 4zm35.314 8.46c.443-.822 1.076-.996 1.874-.736.06.02.116.053.176.073 1.717.554 2.333.064 2.154-1.803-.991.62-1.994.587-2.96.03-1.038-.598-1.543-1.574-1.751-2.713-.275-1.502-.233-2.983.539-4.35.999-1.771 3.009-2.164 4.531-.998l2.28-.846v4.894c0 1.335.002 2.669-.001 4.003-.004 1.842-.788 3.164-2.175 3.675-1.511.558-3.483.056-4.667-1.229zm4.228-6.607c-.037-.557.009-1.245-.16-1.875-.094-.353-.523-.82-.84-.852-.296-.03-.906.425-.927.7a28.057 28.057 0 00-.02 4.13c.021.296.672.796.974.757.328-.042.73-.565.842-.953.163-.564.095-1.195.13-1.907zm-89.751 3.773c-.665.75-1.643.063-2.546.418V75.35h2.437v5.323c1.008-.174 1.937-.414 2.875-.463.506-.026 1.071.194 1.536.441 1.635.87 2.304 3.018 1.745 5.411-.461 1.977-1.915 3.305-3.792 3.303-.721 0-1.443-.297-2.255-.479zm3.699-4.253l-.092-.027c-.043-.474-.071-.95-.133-1.421a5.607 5.607 0 00-.2-.93c-.344-1.109-.96-1.653-1.758-1.577-.869.082-1.53.879-1.558 1.993a119.185 119.185 0 00-.005 4.388c.012.892.43 1.554 1.332 1.736.946.191 1.561-.37 1.808-1.192.29-.964.411-1.978.606-2.97zm76.079-4.056c2.568.002 4.283 1.826 4.29 4.562.006 2.649-1.835 4.609-4.312 4.589-2.478-.02-4.24-1.913-4.234-4.546.007-2.74 1.734-4.608 4.256-4.605zm-1.669 4.597c.092.529.138 1.07.286 1.58.193.666.638 1.082 1.384 1.084.741.001 1.31-.4 1.383-1.064.117-1.08.11-2.193-.02-3.27-.08-.661-.647-1.07-1.392-1.05-.745.018-1.174.454-1.356 1.12-.141.514-.191 1.053-.285 1.6zm-9.898 3.51c-1.388 1.183-3.085 1.37-4.287.529-.82-.575-1.146-1.76-.781-2.84.43-1.277 2.255-2.214 4.096-2.07.12.66-.084 1.16-.694 1.495-.222.122-.556.22-.625.408-.162.443-.327.964-.228 1.392.052.221.715.495 1.013.415.374-.1.91-.518.937-.836.109-1.295.079-2.605.04-3.908-.02-.668-.528-.924-1.128-.904-.372.013-.75.133-1.107.257-1.1.382-1.371.315-2.127-.603 1.24-1.402 3.895-1.913 5.528-1.055.961.506 1.432 1.34 1.492 2.394.088 1.543-.14 3.096.441 4.617.287.749-.39 1.166-1.004 1.52-.928.536-1.097-.372-1.566-.81zm-77.498-8.262c-.338 1.965-.652 3.778-.958 5.592-.042.25-.072.507-.063.76.047 1.215.555 1.851 1.47 1.867 1.053.018 1.88-.818 1.892-1.969.018-1.845.004-3.691.007-5.537 0-.189.022-.378.038-.64h2.424v8.656h-2.408l-.11-.936c-1.002.984-2.122 1.313-3.385 1.146-1.508-.198-2.584-1.289-2.434-2.792.191-1.923.61-3.825.967-5.73.032-.165.333-.384.522-.398.662-.049 1.33-.019 2.038-.019zm37.887 7.82c.234.111.459.293.702.324.801.101 1.635.305 2.407.177.96-.158 1.393-1.106.966-1.991-.352-.731-.87-1.395-1.388-2.029-.704-.86-1.522-1.628-2.211-2.499-.845-1.066-1.38-2.262-.674-3.613.713-1.363 2.011-1.705 3.406-1.634.758.04 1.503.328 2.254.505l-.13.44c-.29-.105-.575-.234-.873-.31-.814-.205-1.673-.42-2.28.39-.594.794-.302 1.608.25 2.276.828 1.004 1.754 1.927 2.61 2.909.786.9 1.511 1.892 1.321 3.15-.102.679-.409 1.429-.862 1.933-1.114 1.238-3.712 1.514-5.163.677-.193-.112-.345-.292-.516-.44.06-.09.12-.178.181-.266zM69.491 75.344v13.808h-2.442V75.345h2.442zm61.725 1.463c1.555-.129 2.57.534 2.587 1.754.05 3.678.018 7.358.018 11.023-1.547.322-2.557-.474-2.59-2.079-.045-2.159-.014-4.32-.015-6.479v-4.219zM90.788 14.241c-.345-1.143-1.256-1.693-2.16-2.311-.607-.415-1.229-.984-1.526-1.629-.402-.873-.783-1.63-1.766-1.99l1.296.192c.333-1.158.734-2.294.974-3.462.247-1.2-.216-1.578-1.42-1.364-.463.082-1.156.453-1.262-.277-.062-.418.344-1.109.739-1.35 1.206-.736 2.547-.79 3.847-.197 1.048.478 1.448 1.383 1.41 2.497-.035 1.017-.124 2.034-.116 3.05.005.69.223 1.316 1.127 1.534l1.178-4.725.188-.019 1.217 6.76c-.873-.396-1.67-.753-2.464-1.117-1.26-.578-1.776-1.399-1.711-2.797.038-.826.176-1.648.19-2.474.031-1.79-.806-2.595-2.769-2.599.256.181.412.309.584.41.872.515 1.14 1.286.828 2.206-.285.84-.68 1.644-1.029 2.463-.938 2.206-.63 3.252 1.348 4.618.895.618 1.555 1.363 1.297 2.58zM85.299 3.204h2.25c-.84-.763-1.407-.78-2.25 0zm27.915 6.63l-1.255.487c.534-1.157 1.152-1.286 2.62-.565-.365-.679-.92-1.027-1.605-.926-.962.142-1.653.7-1.963 1.607-.203.593-.257 1.24-.351 1.868-.324 2.155-1.152 2.699-3.194 1.982-1.018-.357-1.613.145-2.233.81-.372.398-.847.7-1.377.913.926-1.51 1.706-3.087 3.764-3.375 1.585-.221 1.97-1.628 2.189-2.742.442-.26.754-.38.984-.589 1.36-1.235 3.033-1.262 4.15-.01.256.286.405.669.538.897-.942.33-2.15.386-2.507.965-.59.955-.63 2.248-.939 3.55h2.382l.048.222-8.12 3.612-.157-.206c.34-.291.639-.669 1.03-.853.657-.31 1.365-.519 2.064-.73 1.516-.459 2.345-1.45 2.461-3.035.046-.633-.013-1.313.207-1.883.257-.667.767-1.239 1.264-2zm-5.556 3.834c.283.106.62.276.975.35.22.045.626.017.681-.102.31-.666.539-1.37.783-2.027l-2.44 1.779zm-25.762 67.37c-.216-.045-.436-.072-.645-.137-1.574-.49-2.648-.009-2.894 1.616-.214 1.414-.23 2.918.005 4.326.303 1.816 1.541 2.336 3.27 1.665.162-.063.338-.09.563-.148-.571 1.182-3.176 1.402-4.822.483-2.084-1.164-2.74-4.62-1.3-6.843 1.22-1.885 4.148-2.475 5.823-.962zm4.209-.535v8.619h-2.497v-8.619h2.497zm-14.704-.05h2.422v8.685h-2.422v-8.685zm50.177 9.24c-1.851-.07-2.537-.655-2.591-2.263a96.5 96.5 0 01-.007-5.326c.023-1.118.473-1.567 1.373-1.541.841.025 1.213.473 1.22 1.579.016 2.5.005 4.999.005 7.55zM107.682 8.41l1.798-.908c-1.878 2.519-3.546 5.2-5.897 7.345.947-.935 1.212-2.136 1.431-3.438.131-.778.753-1.52 1.283-2.174.86-1.063 1.352-2.226 1.313-3.586-.032-1.123-.617-1.795-1.878-2.173.177.267.314.46.436.66.657 1.075.5 1.908-.56 2.617a7.387 7.387 0 01-1.611.82c-1.009.36-1.56 1.057-1.761 2.07-.075.375-.17.751-.187 1.13-.078 1.787-1.254 2.574-2.883 2.974.26-.268.487-.583.786-.798.977-.703 1.472-1.627 1.5-2.833.022-.954.33-1.765 1.103-2.436.299-.26.286-.877.439-1.412l.461 1.056c.48-.2.96-.35 1.392-.587 1.155-.633 1.293-1.37.49-2.395-.097-.126-.244-.228-.299-.368-.095-.243-.268-.613-.168-.736.137-.17.503-.234.76-.213.988.08 2.055 1.009 2.167 2.121.107 1.07-.065 2.167-.115 3.264zm-4.1 6.437a4.097 4.097 0 01-.307.273 20 20 0 00.308-.273zm-1.337 68.293a1.772 1.772 0 01-1.767 1.754 1.759 1.759 0 01-1.74-1.776 1.756 1.756 0 011.763-1.75c.964.006 1.75.803 1.744 1.772zm-16.029-5.39c.005.816-.553 1.36-1.388 1.352-.795-.007-1.326-.515-1.35-1.292-.025-.81.531-1.4 1.337-1.415.806-.015 1.397.556 1.401 1.355zm-12.22-.02c.014.825-.527 1.37-1.362 1.372-.791.001-1.337-.505-1.372-1.272-.037-.804.517-1.406 1.318-1.434.814-.028 1.402.526 1.416 1.333zm47.638.415c.007.8-.583 1.373-1.397 1.355-.757-.016-1.328-.588-1.334-1.332a1.376 1.376 0 011.407-1.373c.745.02 1.318.605 1.324 1.35zM98.002 19.649c-.25-.82-.384-1.606.386-2.104 1.065-.69 1.817.225 2.671.633-.554.81-1.08 1.063-3.057 1.47zm-13.143-7.305c.248.277.597.568.813.936.203.346.275.77.387 1.165.424 1.498.754 1.769 2.306 1.868l.11.263c-.471.166-1.002.551-1.402.445a2.976 2.976 0 01-1.536-1.05c-.278-.38-.172-1.031-.265-1.557-.118-.671-.265-1.337-.413-2.07zm5.63 5.88c.817-.379 1.532-1.285 2.577-.615.75.481.61 1.239.384 2.19l-3.046-1.214.084-.362zm11.58-3.61c.247-.698.73-1.437.725-2.173-.01-1.908.568-3.347 2.411-4.132.312-.132.567-.395.978-.49-.259.27-.48.59-.781.797-1.214.835-1.856 1.926-1.886 3.434-.018.936-.077 1.95-1.114 2.463-.163.08-.352.107-.333.102zm-7.958-1.538c-.645-.457-1.261-1.004-1.972-1.37-.785-.404-1.689-.577-2.482-.97-.977-.485-1.141-1.161-.647-2.324.112 1.386 1.035 1.894 2.108 2.265.69.24 1.397.455 2.049.777.736.363 1.113.97.944 1.622zm-1.538 2.142l-1.196 1.142H95.6c-.308.86-.829.941-1.351.684-1.04-.51-1.99-.408-2.98.13-.63.341-1.164.207-1.326-.41l2.542-1.679.088.133zm9.375 1.616c-.399.084-.905.366-1.178.218-.976-.53-1.853-.369-2.833-.035-.351.119-1.042-.124-1.274-.43-.385-.512-.165-1.083.305-1.338.198.465.278 1.072.619 1.316.253.182.876-.03 1.279-.199.675-.282 1.296-.473 1.998-.066.275.159.64.16.965.233l.12.3zm9.15-2.394c-1.301 1.86-3.787 1.158-5.454 2.581.55-1.127 1.18-1.409 2.87-1.77.828-.178 1.597-.64 2.393-.971.022-.01.056-.018.071-.008.024.017.038.05.12.168zm-6.942 5.566l-2.476.123m163.447 34.415c.302-1.336.49-2.71.926-4 2.35-6.96 7.23-11.42 13.962-13.971 2.837-1.076 5.794-1.54 8.826-1.54 41.039 0 82.078-.061 123.117.05 8.412.024 15.333 3.585 20.023 10.78 5.093 7.813 3.923 18.046-2.616 24.695-4.892 4.975-10.874 7.4-17.777 7.425-15.242.055-30.484.017-45.725.017h-1.048v26.486l-.146.076c-.16-.18-.322-.358-.477-.543-7.173-8.532-14.348-17.062-21.508-25.606-.33-.395-.69-.417-1.124-.416-17.703.003-35.407.093-53.109-.037-8.306-.06-15.116-3.453-19.959-10.394-1.82-2.609-2.871-5.544-3.242-8.716-.013-.108-.08-.21-.123-.314v-3.992zm60.645-3.163c-.06.169-.092.277-.136.38-1.19 2.81-1.233 5.691-.379 8.572.987 3.328 3.63 5.2 7.13 5.19 3.433-.01 6.022-1.923 7.019-5.243.727-2.423.74-4.876.044-7.307-.998-3.483-3.647-5.49-7.257-5.396-2.36.061-4.716.285-7.07.491-1.334.118-1.33.168-1.33 1.494 0 1.723 0 1.723 1.674 1.778.07.002.14.018.305.041zm-16.025 3.671c-.164-1.761-.221-3.283-.47-4.773-.208-1.25-1.005-2.164-2.26-2.506-1.718-.468-3.418-.239-5.089.316-.424.14-.53.403-.412.822.197.708.407 1.416.539 2.138.12.658.381.791 1.02.575 1.197-.405 1.698-.03 1.72 1.241.025 1.568.04 3.137-.01 4.704-.026.824-.13 1.662-.326 2.461-.338 1.373-1.204 2.054-2.446 2.07-1.274.016-2.18-.658-2.51-2.067-.23-.984-.319-2.012-.374-3.025-.102-1.848-.032-3.71-.229-5.545-.119-1.107-.57-2.186-.942-3.253-.195-.56-.623-.77-1.254-.53-.794.3-1.617.527-2.431.771-.5.15-.659.385-.497.945.236.813.432 1.66.479 2.501.098 1.754.068 3.513.127 5.269.084 2.47.691 4.773 2.569 6.506 4.065 3.751 10.71 1.794 12.175-3.642.45-1.67.444-3.462.621-4.978zm7.699 6.312h-.775c-1.56 0-3.121.015-4.682-.009-.51-.007-.734.144-.71.688.035.758.024 1.52.003 2.279-.012.44.115.642.6.639 2.624-.018 5.25 0 7.874-.023.245-.002.641-.148.708-.325.557-1.49 1.739-2.836 1.109-4.625-.105-.299-.045-.658-.053-.99-.046-2.04-.02-4.084-.154-6.118-.118-1.79-.544-3.564-2.275-4.498-2.26-1.22-4.65-.992-7.02-.266-.38.116-.508.379-.377.777.17.517.312 1.044.468 1.567.37 1.242.37 1.242 1.593.907 2.101-.575 3.045.092 3.214 2.272.005.07.008.142.01.213.088 2.481-.225 4.983.467 7.512zm26.557-10.512v.809c0 1.614.023 3.23-.01 4.844-.015.691.248.93.92.9.92-.04 1.844-.01 2.766-.01 1.587 0 1.575.001 1.49-1.564-.022-.425-.185-.604-.599-.598-.606.01-1.213.003-1.826.003v-4.682c.3-.044.531-.098.765-.11.874-.043 1.747-.097 2.621-.1 1.446-.005 2.287.562 2.677 1.957.26.929.44 1.91.456 2.871.061 3.8.041 7.6.056 11.399.006 1.534.163 3.04.972 4.395.489.818.69.867 1.522.431.293-.153.575-.332.88-.459.553-.23.627-.58.324-1.062-.646-1.026-.786-2.167-.783-3.349.01-3.23.018-6.46-.002-9.69-.012-1.817-.232-3.607-1.001-5.28-.906-1.968-2.413-3.264-4.592-3.285-2.52-.024-5.042.239-7.562.405-.17.01-.43.227-.468.391-.311 1.314-.032 1.686 1.394 1.784zm-52.136 7.474h-.03c0-1.946.048-3.894-.012-5.838-.077-2.523-1.422-4.084-3.881-4.659-2.097-.49-4.187-.24-6.266.09-.999.16-1.98.44-2.959.701-.602.162-.855.522-.557 1.173.206.45.36.93.473 1.412.164.7.492.868 1.217.7 1.583-.365 3.184-.751 4.797-.867 2.126-.152 2.869.683 2.869 2.807 0 3.418.009 6.837-.008 10.256-.003.62.16.916.845.865.776-.058 1.56-.014 2.34-.014 1.172 0 1.172 0 1.172-1.142v-5.484zm76.211 4.16c-.29.639-.546 1.193-.794 1.75-.324.729-.26.858.53 1.068.158.042.323.066.487.08 1.893.174 3.042-.904 3.94-2.383.202-.332.352-.695.522-1.035.28.867.499 1.713.827 2.513.439 1.07.58 1.089 1.535.515.203-.121.398-.26.611-.36.531-.25.6-.608.3-1.09-.595-.96-.774-2.018-.748-3.136a88.27 88.27 0 00.002-3.49c-.028-1.614-.002-3.234-.149-4.837-.186-2.035-1.281-3.298-3.06-3.742a6.52 6.52 0 00-3.637.114c-1.272.41-1.374.65-.839 1.872.435.991.435.991 1.37.506 1.934-1.003 3.456-.22 3.552 1.944.106 2.394.054 4.795.056 7.193 0 .171-.075.38-.187.507a29.034 29.034 0 01-1.512 1.6c-.783.757-1.67 1.076-2.806.412zm15.854.209c-1.18 0-2.43-.015-3.68.003-1.796.027-1.512-.327-1.553 1.592-.011.488.164.674.66.67 2.08-.018 4.161-.003 6.242-.015.197 0 .529-.053.568-.164.25-.704.606-1.431.607-2.151.002-1.315-.291-2.628-.329-3.946-.07-2.42.005-4.843-.07-7.262-.061-1.947-1.007-3-2.945-3.182-1.034-.097-2.128.019-3.145.254-1.602.37-1.671.671-1.013 2.156.229.517.505.608.99.389a8.39 8.39 0 011.2-.427c1.584-.442 2.245.042 2.26 1.69.021 2.136-.017 4.273.015 6.41.019 1.298.123 2.595.193 3.983zm32.31-11.93c-.167.995-.43 1.895-.45 2.801-.073 3.18-.076 6.362-.078 9.543-.001 2.18-.262 1.782 1.837 1.857.712.026.877-.246.872-.908-.025-3.419-.043-6.84.012-10.258.013-.805.298-1.61.495-2.405.126-.508.484-.678 1.015-.65.293.016.754-.08.864-.279.285-.516.417-1.118.641-1.777-.44-.028-.718-.06-.996-.06-3.595-.004-7.19-.01-10.785 0-1.492.005-1.323-.25-1.36 1.368-.013.577.16.79.764.781 2.152-.032 4.304-.012 6.457-.013h.713zm-23.69-.008c-.215 1.288-.49 2.463-.588 3.654-.1 1.202-.024 2.42-.025 3.63 0 1.685-.01 3.37.003 5.056.016 2.17-.283 1.805 1.902 1.867.629.017.812-.201.807-.82a573.794 573.794 0 01-.004-9.185c.01-1.33.036-2.68.912-3.799.148-.189.43-.362.662-.378 1.118-.078 1.119-.058 1.118-1.174 0-.047-.006-.096.001-.142.1-.635-.127-.867-.802-.855-2.293.04-4.586.013-6.88.017-.227 0-.454.029-.663.043v2.086h3.558zm-31.521.009v.928c0 3.774-.013 7.548.005 11.321.01 2.282-.343 1.887 1.952 1.946.551.014.753-.175.751-.734-.013-4.96-.014-9.921.001-14.881.002-.571-.22-.74-.758-.729-1.229.027-2.459.002-3.688.01-1.565.012-1.363-.224-1.398 1.482-.01.503.185.675.665.662.798-.02 1.597-.005 2.47-.005zm42.084 0c.016.247.033.388.033.529.002 1.804.01 3.608-.003 5.411-.005.533.146.758.713.57.424-.14.867-.235 1.308-.305.511-.082.7-.328.695-.863-.027-2.23-.026-4.462-.002-6.693.006-.583-.19-.811-.778-.798-1.228.028-2.458 0-3.687.011-1.525.015-1.393-.26-1.41 1.474-.005.487.179.683.667.67.8-.023 1.6-.007 2.464-.007zm-26.215 66.17c.175 3.782-2.837 7.47-7.504 7.527-4.436.054-7.689-3.36-7.688-7.36.001-4.049 3.251-7.335 7.207-7.49 4.813-.188 8.177 3.735 7.985 7.323zm-41.59-60.344c-.195 1.261-.294 2.495-.594 3.677-.318 1.25-1.194 1.828-2.386 1.83-1.175.003-2.07-.595-2.406-1.822a13.851 13.851 0 01.003-7.441c.345-1.253 1.208-1.83 2.393-1.833 1.187-.003 2.065.567 2.387 1.828.312 1.227.411 2.509.603 3.761z"/></svg>