<svg xmlns="http://www.w3.org/2000/svg" width="468" height="60" viewBox="0 0 468 60"><path fill="#a1a1a1" d="M49.35 23.702v19.586c.01 8.117-6.616 14.706-14.8 14.716H14.804c-8.179 0-14.81-6.576-14.81-14.689 0-8.112 6.631-14.689 14.81-14.689h24.692v-4.905c0-2.71-2.215-4.906-4.946-4.906H8.43L5.57 9.023h28.98c8.17.01 14.79 6.576 14.8 14.68zm-9.873 14.643H14.804c-2.491.152-4.478 2.122-4.631 4.594-.169 2.704 1.905 5.031 4.631 5.198H34.55c2.724-.01 4.927-2.204 4.927-4.905zm26.854.056H54.484v-9.793h8.988zm33.154 4.98H95.16v-2.369a7.547 7.547 0 01-6.206 2.872c-5.484-.014-9.917-4.435-9.903-9.874 0-.147.004-.294.011-.44-.26-5.434 3.97-10.047 9.448-10.304.148-.007.296-.011.444-.011a7.545 7.545 0 016.206 2.89v-2.387h4.306zM83.5 33.569c-.261 3.266 2.195 6.124 5.488 6.384 3.292.259 6.173-2.178 6.435-5.443a5.896 5.896 0 000-.94c.262-3.266-2.195-6.124-5.488-6.383-3.292-.26-6.173 2.177-6.435 5.443a5.866 5.866 0 000 .94zm53.144-2.518v12.33h-4.325V32.469c0-3.301-1.711-5.148-4.607-5.148-2.697-.13-4.99 1.933-5.122 4.608a4.83 4.83 0 00.007.577v10.875h-4.344V32.45c0-3.302-1.712-5.149-4.608-5.149-2.708-.119-5 1.962-5.12 4.648-.009.18-.007.359.005.538v10.874h-4.325V23.758h4.288v2.388a7.035 7.035 0 016.074-2.91 7.803 7.803 0 016.826 3.507 8.052 8.052 0 017.222-3.507c4.2-.23 7.792 2.962 8.023 7.128.013.229.015.458.006.687zm49.308 2.518c.135 5.83-4.52 10.664-10.396 10.798-5.877.133-10.75-4.483-10.886-10.313-.135-5.829 4.52-10.663 10.397-10.797l.241-.002c5.667-.207 10.43 4.182 10.638 9.803.007.17.009.34.006.511zm-16.925 0c-.002 3.4 2.775 6.158 6.202 6.16 3.428.002 6.208-2.752 6.21-6.152v-.008c.002-3.399-2.774-6.157-6.202-6.159-3.427-.002-6.207 2.752-6.21 6.152v.007zm37.743-7.125l-2.764 2.929a6.663 6.663 0 00-4.74-2.033c-3.26.022-5.886 2.662-5.864 5.896.001.13.006.26.016.39-.239 3.225 2.204 6.033 5.456 6.27.13.01.262.015.392.015a7.232 7.232 0 004.852-2.051l2.67 2.947a9.553 9.553 0 01-7.39 3.133c-5.499.243-10.155-3.983-10.4-9.437a9.787 9.787 0 010-.878c-.244-5.454 4.016-10.072 9.515-10.314.295-.013.59-.013.885 0a9.438 9.438 0 017.372 3.133zm17.809 2.22a12.81 12.81 0 00-6.112-1.679c-2.35 0-3.761.933-3.761 2.332 0 1.399 1.448 1.753 3.253 2.033l2.05.298c4.306.616 6.864 2.444 6.864 5.801 0 3.73-3.31 6.398-8.99 6.398a14.605 14.605 0 01-8.443-2.48l1.994-3.209a9.985 9.985 0 006.525 2.014c2.953 0 4.495-.913 4.495-2.387 0-1.1-1.072-1.865-3.423-2.164l-2.069-.26c-4.381-.598-6.713-2.612-6.713-5.765 0-3.898 3.14-6.285 8.18-6.285a15.14 15.14 0 018.011 2.07zm-68.151-2.537v-7.144l4.306-1.51V43.38h-4.306v-2.369a7.548 7.548 0 01-6.225 2.872c-5.484-.014-9.917-4.435-9.903-9.874 0-.147.004-.294.012-.44-.26-5.434 3.97-10.047 9.447-10.304.148-.007.296-.011.444-.011a7.546 7.546 0 016.225 2.872zm-11.66 7.461c-.185 3.271 2.338 6.071 5.636 6.255 3.297.184 6.12-2.32 6.306-5.59a5.895 5.895 0 000-.665c.185-3.27-2.338-6.071-5.636-6.255-3.297-.183-6.12 2.32-6.306 5.59a5.895 5.895 0 000 .665zm188.765 11.634l-.754 4.254h-19.881l.753-4.254 15.302-11.548H315.7l.753-4.254h19.882l-.755 4.263-15.34 11.539zm.292-3.434l.784-4.255h13.856l-.783 4.255zm38.618-12.368l-.753 4.254h-14.458c-.342 0-.649.121-.92.364a1.496 1.496 0 00-.497.852l-1.626 9.116c-.06.325.004.608.195.852.191.242.457.364.799.364h14.46l-.754 4.254h-17.472c-.662 0-1.19-.237-1.581-.713-.392-.476-.527-1.05-.407-1.718l2.712-15.194c.12-.67.456-1.241 1.008-1.718.553-.475 1.16-.713 1.823-.713zm18.491 20.056h-4.223l.865-4.864a1.103 1.103 0 00-.225-.85.922.922 0 00-.765-.363h-9.005c-.34 0-.645.122-.915.365-.27.245-.436.53-.496.855l-.893 4.857h-4.224l3.133-17.625c.12-.67.456-1.241 1.009-1.718.552-.475 1.16-.713 1.823-.713h15.061c.683 0 1.216.238 1.597.713.381.476.512 1.049.392 1.718l-1.213 6.993c-.121.669-.46 1.24-1.017 1.716-.557.476-1.18.714-1.867.714.744 0 1.306.283 1.688.85.12.162.191.405.212.729.06.547.09.83.09.85zm-2.17-11.548l.54-3.04a1.018 1.018 0 00-.196-.85c-.19-.243-.456-.364-.797-.364h-9.028c-.34 0-.646.122-.917.365a1.489 1.489 0 00-.497.852l-.54 3.04c-.06.323.005.606.196.85.19.242.456.363.797.363h9.027c.32 0 .622-.121.903-.365.28-.243.451-.527.512-.85zm23.678-.607l-.781 4.254h-12.634l-.434 2.433c-.06.323.004.606.195.85.191.243.457.364.798.364h14.453l-.753 4.254h-17.471c-.663 0-1.19-.237-1.582-.714-.391-.475-.527-1.048-.407-1.717l2.711-15.194c.12-.67.457-1.241 1.01-1.718.551-.475 1.159-.713 1.822-.713h17.471l-.752 4.254h-14.454c-.341 0-.647.122-.919.365-.27.243-.436.527-.496.851l-.428 2.43zm6.46-7.901h17.47c.684 0 1.216.238 1.598.713.38.477.512 1.049.391 1.718l-2.71 15.194c-.121.669-.457 1.242-1.01 1.717-.552.477-1.16.714-1.822.714h-17.472zm1.422 15.802h10.23c.341 0 .647-.122.918-.364.271-.244.436-.528.497-.852l1.626-9.118a1.015 1.015 0 00-.196-.85c-.19-.243-.456-.364-.797-.364h-10.231zm20.923-15.802h4.223l-3.555 20.056h-4.223zm15.188 20.056h-4.218l2.591-14.586a1.018 1.018 0 00-.195-.852c-.192-.243-.458-.364-.799-.364h-6.627l.753-4.254h19.882l-.754 4.254h-6.627c-.341 0-.647.121-.918.364a1.493 1.493 0 00-.498.852zm-138.884 8.9h-1.39V55.62c0-.207-.031-.356-.094-.447-.063-.09-.192-.137-.386-.137h-.877v1.953c0 .16-.006.299-.02.415-.013.117-.036.22-.066.31a1.032 1.032 0 01-.277.427.994.994 0 01-.447.264 2.25 2.25 0 01-.596.07c-.11 0-.227-.02-.35-.062a.881.881 0 01-.28-.14v-.967a.6.6 0 00.316.118c.126 0 .218-.032.276-.097.058-.065.087-.173.087-.322v-3.097h2.73c.486 0 .836.12 1.051.363.216.242.323.633.323 1.173zm3.852 0h-1.381v-4.467h1.381zm6.797 0h-1.446l-1.406-2.071-.448 2.07h-1.248v-.134l.796-2.996-.804-1.235v-.101h1.482l1.216 1.78h.016l.372-1.78h1.256v.167l-.82 2.657 1.034 1.54zm6.397 0h-1.39v-2.772c0-.207-.031-.353-.094-.438-.064-.085-.192-.129-.386-.129h-.941v3.338h-1.382V53.91h2.82c.487 0 .838.127 1.052.38.214.255.321.65.321 1.188zm6.91 0h-2.448V57.25h1.091v-1.56c0-.163-.018-.297-.054-.4a.62.62 0 00-.15-.246.49.49 0 00-.222-.125 1.092 1.092 0 00-.269-.033.618.618 0 00-.212.042 1.17 1.17 0 00-.218.107c-.071.046-.14.097-.206.155a.99.99 0 00-.168.19l-.27 2.995h-1.35l.222-2.127c.022-.185.035-.352.04-.502a2.706 2.706 0 00-.021-.425 2.34 2.34 0 00-.083-.386 4.071 4.071 0 00-.141-.383l-.19-.452v-.191h1.183l.247.342c.247-.133.49-.236.725-.307.236-.073.49-.109.766-.109.61 0 1.052.136 1.323.406.27.27.405.714.405 1.33zm6.6 0h-1.39v-2.707c0-.203-.034-.36-.103-.468-.069-.11-.2-.164-.394-.164h-2.266V53.91h2.714c.485 0 .846.118 1.083.354s.356.625.356 1.166zm-2.731 0h-1.382v-2.613h1.382zm13.222 0h-1.39V55.62c0-.207-.032-.356-.095-.447-.063-.09-.191-.137-.385-.137h-.877v1.953c0 .16-.007.299-.02.415-.014.117-.036.22-.067.31a1.028 1.028 0 01-.277.427.995.995 0 01-.446.264 2.25 2.25 0 01-.596.07c-.11 0-.227-.02-.351-.062a.879.879 0 01-.279-.14v-.967c.121.08.226.118.315.118.127 0 .219-.032.277-.097.058-.065.087-.173.087-.322v-3.097h2.73c.485 0 .835.12 1.05.363.216.242.324.633.324 1.173zm6.663 0h-1.39v-2.772c0-.207-.031-.353-.094-.438-.063-.085-.192-.129-.386-.129h-.941v3.338h-1.382V53.91h2.82c.487 0 .838.127 1.052.38.214.255.321.65.321 1.188zm6.935-3.982l-.097 2.388a1.963 1.963 0 01-.215.855c-.129.242-.333.43-.613.563a1.695 1.695 0 01-.362.116 4.464 4.464 0 01-.822.096c-.132.002-.248.004-.347.004a11.627 11.627 0 01-1.477-.086 2.564 2.564 0 01-.386-.073l-.182-4.348h1.406l.101 3.415a.64.64 0 00.148.02c.066.003.133.007.202.013.068.005.134.007.198.007h.14c.33 0 .558-.046.682-.14.123-.094.188-.252.194-.475l.024-1.712h-.954V53.91h2.36zm6.292 3.981h-3.963V57.25h2.16v-1.58c0-.204-.034-.361-.104-.47-.07-.108-.2-.163-.392-.163h-1.648V53.91h2.093c.484 0 .846.118 1.084.354.238.236.358.625.358 1.166v1.821h.412zm6.445 0h-1.39V55.67c0-.203-.034-.36-.103-.468-.068-.11-.2-.164-.394-.164h-2.266V53.91h2.715c.484 0 .845.118 1.082.354.237.236.356.625.356 1.166zm-2.73 0h-1.382v-2.612h1.381zm6.582 0h-1.381V53.91h1.38zm7.36-1.752h-1.381v-2.714h1.382zm6.737 1.752h-1.446l-1.406-2.07-.448 2.07h-1.249v-.134l.797-2.996-.804-1.235v-.101h1.482l1.216 1.78h.016l.372-1.78h1.256v.167l-.82 2.657 1.034 1.54zm5.472 0h-1.39v-2.669c0-.212-.04-.377-.12-.493-.079-.117-.226-.176-.442-.176h-1.515V53.91h2.013c.484 0 .848.14 1.09.422.243.28.364.692.364 1.233zm7.997-4.466l-.122 2.237a6.18 6.18 0 01-.067.656 2.319 2.319 0 01-.159.57 1.65 1.65 0 01-.337.522 1.533 1.533 0 01-.531.342 3.065 3.065 0 01-.778.186 9.101 9.101 0 01-1.081.055c-.471 0-.896-.021-1.272-.063a7.144 7.144 0 01-.913-.15l-.323-4.355h1.373l.142 2.204c.094 0 .177-.004.248-.012a.375.375 0 00.186-.071.362.362 0 00.119-.167.92.92 0 00.04-.308l.033-1.646h1.3l-.056 1.662a1.89 1.89 0 01-.113.614.891.891 0 01-.27.374.995.995 0 01-.413.188c-.159.034-.338.05-.537.05h-.402a.355.355 0 01-.095-.007l.04.542c.04.01.098.02.172.029a6.005 6.005 0 00.511.032c.092.002.174.004.247.004.412 0 .732-.023.96-.069a.673.673 0 00.494-.363c.094-.2.15-.493.165-.876l.101-2.18zm6.744 4.466h-1.446l-1.406-2.07-.449 2.07h-1.248v-.134l.796-2.996-.804-1.235v-.101h1.483l1.216 1.78h.016l.372-1.78h1.255v.167l-.82 2.657 1.035 1.54zm10.225 0h-1.39v-2.754c0-.207-.031-.356-.095-.447-.063-.09-.191-.137-.386-.137h-.876v1.953c0 .16-.007.299-.02.415-.014.117-.036.22-.067.31a1.042 1.042 0 01-.277.427.998.998 0 01-.446.264c-.17.047-.37.07-.596.07-.11 0-.227-.02-.351-.062a.882.882 0 01-.28-.14v-.967a.6.6 0 00.316.118c.126 0 .219-.032.277-.097.058-.065.087-.173.087-.322v-3.097h2.73c.485 0 .835.12 1.05.363.216.242.324.633.324 1.173zm6.845-3.036c0 .198-.033.413-.098.644a3.99 3.99 0 01-.24.64l-.87 1.752H437.6v-.11l.922-1.785c.086-.165.155-.325.208-.479.052-.153.078-.288.078-.405a.574.574 0 00-.132-.377.467.467 0 00-.169-.133.55.55 0 00-.236-.049h-2.456V53.91h2.73c.397 0 .714.07.954.21.24.14.415.33.525.568.046.09.08.193.105.31.025.117.036.231.036.342zm-2.92 4.414h-1.358v-4.084h1.358zm6.635-3.13h-1.382v-2.714h1.382zm5.904-2.11l-.141 1.784a3.992 3.992 0 01-.186.964c-.092.264-.225.48-.402.647-.176.168-.4.29-.669.367a3.591 3.591 0 01-1.179.108 1.571 1.571 0 01-.275-.04v-1.036c.043.006.108.009.192.009h.22c.154 0 .289-.013.405-.04a.612.612 0 00.29-.146.76.76 0 00.188-.295c.047-.125.076-.288.087-.49l.089-1.308h-2.266v-2.236h1.38v1.108h2.267zm6.938 1.592c0 .356-.055.679-.165.968a2.125 2.125 0 01-1.2 1.233c-.28.114-.592.17-.933.17a3.34 3.34 0 01-.932-.122 1.878 1.878 0 01-.74-.4 1.865 1.865 0 01-.494-.738c-.119-.306-.178-.682-.178-1.127 0-.34.05-.651.146-.936.097-.283.239-.526.426-.728a1.89 1.89 0 01.703-.472 2.67 2.67 0 01.983-.167c.79 0 1.384.188 1.784.563.4.375.6.96.6 1.756zm-1.43.025c0-.166-.017-.328-.05-.487a1.52 1.52 0 00-.158-.43.913.913 0 00-.277-.31.717.717 0 00-.42-.118.677.677 0 00-.404.118.943.943 0 00-.272.305 1.458 1.458 0 00-.158.426c-.034.16-.05.322-.05.487 0 .413.078.742.236.987.157.244.373.367.648.367a.751.751 0 00.392-.1.854.854 0 00.28-.283c.078-.122.136-.265.174-.426.04-.162.059-.34.059-.536zM316.949 21.7s-4.143 2.494-11.707 9.44c-7.565 6.947-13.508 16.921-13.508 16.921s-3.062-3.74-7.384-8.015c-1.194-1.18-2.58-2.35-3.961-3.423l4.962 21.095h12.1l1.644-15.685 2.805-2.576-2.586 20.396h-15.636l-5.924-25.182a82.809 82.809 0 00-4.571-3.026l3.395-1.975-3.197-13.59L306.88.164l-1.404 11.076-2.099 1.864.915-9.35-28.456 13.519 2.654 11.283 6.579-3.828 6.124 11.489s3.913-8.944 8.194-14.784c7.835-10.687 17.2-15.408 17.2-15.408s-.72 5.344-.72 7.66c0 2.315 1.08 8.015 1.08 8.015z"/></svg>