<svg xmlns="http://www.w3.org/2000/svg" width="433" height="73" viewBox="0 0 433 73"><path fill="#a1a1a1" d="M300.015 22.214h-2.38l2.722-12.556h-4.11V4.804h2.174v2.963h4.77zm10.373 0h-2.254l-.364-3.27c-.364 1.71-1.526 3.27-3.279 3.27h-.444v-2.301h.501c2.562 0 3.085-2.461 2.767-4.866-.171-1.298-.615-5.389-.615-5.389h-1.571V7.767h3.666zm6.13-8.613v1.891h-5.214v-1.891zm3.895-5.834c3.916 0 4.144 2.575 4.144 6.243v8.204h-2.448v-8.59c0-2.12.137-3.966-1.867-3.966h-2.46V7.767zm14.195 0v14.447h-2.414V9.658h-5.055V7.767zm-7.469 5.526h2.425v8.921h-2.425zm-60.397 17.155c3.448 0 3.507 2.24 3.507 5.434v7.14h-1.308v-8.043c0-2.598-.455-3.58-2.05-3.58h-1.12v11.622h-3.24v-.952h1.952v-10.67h-1.209v-.951zm7.643 0V43.02h-1.318V30.448zm6.12 0c3.409 0 3.676 2.211 3.676 5.434v7.14h-1.317V34.83c0-2.172-.714-3.431-2.487-3.431h-1.595V43.02h-1.328V30.448zm7.503 0c2.785 0 3.498 1.457 3.498 4.858v2.876c0 3.401-.713 4.84-3.498 4.84h-1.803v-.953h2.1c1.11 0 1.873-.882 1.873-3.361V34.78c0-2.469-.763-3.381-1.872-3.381h-2.13v-.952zm7.558 0V43.02h-1.318V30.448zm3.128 11.621c1.219 0 1.437-.684 1.437-2.013V31.4h-1.645v-.952h2.963v9.033c0 2.251-.377 3.54-2.398 3.54h-1.357v-.952zm9.559-1.289h1.14v1.329l-1.586 3.728h-.584zm5.115-10.332c3.408 0 3.408 2.34 3.408 5.533v7.04h-1.337v-8.17c0-1.845-.11-3.451-2.22-3.451h-2.14v-.952zm7.142 0c2.784 0 3.498 1.457 3.498 4.858v2.876c0 3.401-.714 4.84-3.498 4.84h-1.803v-.953h2.1c1.11 0 1.873-.882 1.873-3.361V34.78c0-2.469-.763-3.381-1.872-3.381h-2.13v-.952zm14.473 0v7.218c0 4.591-1.674 5.355-4.39 5.355h-3.506l-1.05-12.573h1.347l1.03 11.621h2.07c1.893 0 3.191-.396 3.191-3.946v-7.675zm-3.567 7.843h-1.327v-7.843h1.327zm-66.732 13.843v7.219c0 4.591-1.674 5.355-4.389 5.355h-3.507l-1.05-12.574h1.347l1.03 11.622h2.071c1.892 0 3.19-.397 3.19-3.947v-7.675zm-3.567 7.844h-1.327v-7.844h1.327zm7.587-7.844v12.574h-1.318V52.134zm3.129 11.622c1.218 0 1.436-.685 1.436-2.013v-8.657h-1.645v-.952h2.963v9.034c0 2.25-.377 3.54-2.398 3.54h-1.357v-.952zm11.498.952l-3.666-7.546c-.763.257-1.02.902-1.02 1.715v5.83h-1.298v-5.324c0-1.577.386-2.777 1.932-3.144l-1.922-4.105h1.367l3.12 6.674c1.18-.457 1.556-.814 1.556-2.162v-4.512h1.288v4.184c0 1.865-.485 2.827-2.358 3.392l2.408 4.998zm9.234-12.574v6.624h-1.298v-6.624zm8.623 12.574h-6.28v-.952h3.754v-10.67h-3.695v-.952h4.983v11.622h1.238zm7.666 0l-3.666-7.546c-.763.257-1.02.902-1.02 1.715v5.83h-1.299v-5.324c0-1.577.387-2.777 1.932-3.144l-1.922-4.105h1.368l3.12 6.674c1.18-.457 1.556-.814 1.556-2.162v-4.512h1.288v4.184c0 1.865-.486 2.827-2.358 3.392l2.407 4.998zm12.313-12.574v7.219c0 4.591-1.675 5.355-4.39 5.355h-3.507l-1.05-12.574h1.348l1.03 11.622h2.07c1.893 0 3.191-.397 3.191-3.947v-7.675zm-3.567 7.844h-1.328v-7.844h1.328zm9.152 3.778h2.19V56.04c0-1.954-.594-2.955-2.19-2.955h-.683l-1.576 11.622h-1.396l1.684-11.622h-1.645v-.952h3.597c2.784 0 3.537 1.676 3.537 4.869v7.705h-3.518zm7.747-11.622v12.574h-1.318V52.134zm16.998 12.428h-.452V7.62h.452zm80.965-28.042c0 19.784-16.024 35.822-35.792 35.822-19.767 0-35.792-16.038-35.792-35.822 0-19.785 16.025-35.823 35.792-35.823 19.768 0 35.792 16.038 35.792 35.823zm-10.277-1.541c.344-11.264-5.516-20.024-9.48-24.629-13.81-7.114-28.85-.708-29.359-.487a30.487 30.487 0 00-8.115 9.76c-.038.45-2.337 29.309 21.87 41.186 2.958 1.466 5.694 2.3 8.222 2.68 3.623-2 15.46-9.914 16.862-28.51zM51.298 18.471c1.375.76 2.507 2.064 3.394 3.908.887 1.843 1.33 4.624 1.33 8.34 0 3.121-.434 5.653-1.304 7.594-.869 1.94-2.084 3.355-3.645 4.237-1.224.693-2.75 1.037-4.577 1.037-2.715 0-4.825-.8-6.334-2.403-2.163-2.295-3.246-5.837-3.246-10.631 0-4.035.7-7.127 2.102-9.283 1.72-2.625 4.231-3.937 7.53-3.937 1.793 0 3.376.38 4.75 1.138zM11.726 33.07v8.433c0 1.645.101 2.682.303 3.108.203.426.563.765 1.08 1.019.517.254 1.465.381 2.843.381v.83H.462v-.83c1.41 0 2.365-.13 2.867-.391.502-.262.854-.603 1.057-1.022.202-.418.303-1.45.303-3.095V21.766c0-1.645-.1-2.679-.303-3.105-.203-.426-.559-.768-1.068-1.022-.51-.254-1.461-.381-2.855-.381v-.83h13.286c4.377 0 7.517.777 9.42 2.332 1.904 1.556 2.855 3.5 2.855 5.832 0 1.974-.614 3.663-1.843 5.069-1.23 1.405-2.923 2.362-5.081 2.87-1.454.36-3.912.539-7.374.539zm0-14.893v13.144c.495.03.87.044 1.124.044 1.829 0 3.237-.54 4.227-1.624.989-1.085 1.483-2.764 1.483-5.037 0-2.258-.494-3.91-1.483-4.957-.99-1.046-2.466-1.57-4.43-1.57zm64.25-1.749L91.014 35.29V22.214c0-1.824-.263-3.057-.787-3.7-.72-.867-1.925-1.286-3.619-1.256v-.83H96.68v.83c-1.289.164-2.153.378-2.595.64-.442.262-.787.688-1.034 1.279-.248.59-.373 1.602-.373 3.037v25.322h-.764L71.299 22.214v19.334c0 1.75.401 2.93 1.203 3.544.802.613 1.72.92 2.754.92h.72v.83H65.161v-.83c1.678-.016 2.847-.36 3.507-1.033.66-.672.989-1.816.989-3.43V20.083l-.652-.808c-.644-.807-1.214-1.338-1.709-1.592-.494-.254-1.206-.396-2.135-.426v-.83zm51.256 0v8.231h-.81c-.479-1.899-1.01-3.262-1.595-4.092-.585-.83-1.387-1.492-2.406-1.986-.57-.269-1.566-.404-2.99-.404h-2.27v23.46c0 1.556.086 2.528.258 2.917.172.388.51.73 1.012 1.021.502.292 1.187.436 2.057.436h1.011v.83h-15.961v-.83h1.011c.884 0 1.596-.157 2.136-.47.39-.21.697-.569.922-1.077.165-.36.247-1.301.247-2.826v-23.46h-2.203c-2.053 0-3.545.433-4.474 1.3-1.304 1.211-2.128 2.938-2.473 5.181h-.854v-8.231zm19.59 29.583v.83h-15.939v-.83h1.012c.884 0 1.596-.157 2.135-.47.39-.21.69-.569.9-1.077.164-.36.247-1.301.247-2.826V21.63c0-1.555-.083-2.527-.248-2.916-.164-.388-.498-.727-1-1.019-.502-.291-1.18-.438-2.034-.438h-1.012v-.83h15.94v.83h-1.013c-.884 0-1.596.157-2.135.47-.39.21-.697.569-.922 1.077-.165.36-.247 1.301-.247 2.826v20.007c0 1.555.086 2.527.258 2.916.173.388.51.73 1.012 1.021.502.292 1.18.436 2.034.436zm22.258-30.278l.247 10.137h-.922c-.434-2.542-1.502-4.585-3.203-6.133-1.701-1.547-3.54-2.322-5.52-2.322-1.528 0-2.738.408-3.63 1.223-.892.815-1.338 1.752-1.338 2.814 0 .673.158 1.271.472 1.794.435.703 1.132 1.398 2.091 2.086.705.494 2.33 1.368 4.879 2.624 3.567 1.75 5.972 3.402 7.216 4.957 1.23 1.555 1.844 3.334 1.844 5.338 0 2.542-.993 4.73-2.98 6.562-1.985 1.831-4.507 2.746-7.564 2.746-.96 0-1.866-.097-2.72-.292-.855-.194-1.926-.56-3.215-1.099-.72-.299-1.312-.448-1.776-.448-.39 0-.802.15-1.237.448-.434.3-.787.755-1.056 1.368h-.832V36.053h.832c.66 3.23 1.93 5.694 3.81 7.391 1.881 1.698 3.908 2.545 6.082 2.545 1.678 0 3.016-.456 4.013-1.368.996-.912 1.494-1.974 1.494-3.185 0-.718-.19-1.413-.573-2.086-.382-.673-.963-1.31-1.742-1.916-.78-.606-2.158-1.396-4.137-2.368-2.772-1.36-4.766-2.52-5.98-3.476-1.214-.957-2.147-2.026-2.799-3.208-.652-1.18-.978-2.482-.978-3.902 0-2.422.892-4.486 2.676-6.19 1.783-1.705 4.031-2.557 6.744-2.557.99 0 1.948.12 2.878.359.704.179 1.562.513 2.574.999 1.011.486 1.72.727 2.124.727.39 0 .697-.12.922-.358.225-.24.435-.815.63-1.727zm-122.798-.576c-3.07-.13-5.779.603-8.132 2.187.04-.066.07-.139.11-.203 2.187-3.514 4.875-5.169 8.065-4.96 3.446-.209 6.246 1.44 8.4 4.946.04.066.07.138.11.204-2.393-1.576-5.242-2.304-8.553-2.174zM31.558 30.355c0 3.294.775 6.209 2.305 8.753-3.875-2.08-5.84-4.902-5.84-8.478 0-3.626 1.915-6.474 5.696-8.565-1.431 2.395-2.161 5.154-2.161 8.29zM46.552 45.99c3.18 0 5.905-.76 8.178-2.275-2.055 3.499-4.787 5.253-8.197 5.253-3.506 0-6.29-1.771-8.363-5.28 2.314 1.527 5.102 2.302 8.382 2.302zm18.345-15.568c.21 3.437-1.443 6.23-4.957 8.379-.344.211-.715.388-1.078.577 1.674-2.653 2.519-5.666 2.519-9.047 0-3.16-.73-5.937-2.163-8.34.235.13.482.245.709.386 3.522 2.182 5.18 4.863 4.97 8.045zM44.526 54.327h1.553v10.077h5.809v1.363h-7.362zm12.193 2.912a3.8 3.8 0 011.726.413c.566.286 1.007.673 1.32 1.16.238.385.41.849.514 1.394.083.447.125 1.06.125 1.838h-6.127c.057 1.87.837 2.804 2.34 2.804.735 0 1.32-.241 1.757-.724.25-.275.428-.6.531-.974h1.382c-.083.707-.434 1.355-1.054 1.947-.671.644-1.582.966-2.732.966-1.181 0-2.113-.433-2.794-1.3-.625-.795-.937-1.797-.937-3.007 0-1.272.333-2.325.998-3.161.724-.904 1.708-1.356 2.951-1.356zm2.241 3.691c-.057-.607-.19-1.093-.398-1.455-.385-.676-1.028-1.013-1.928-1.013-.677 0-1.23.247-1.663.74-.411.462-.63 1.038-.656 1.728zm3.45-5.832h1.42v2.328h1.336v1.145H63.83v5.444c0 .29.1.485.297.583.114.057.296.086.547.086.171 0 .335-.008.492-.023v1.106a3.892 3.892 0 01-1.07.132c-1.125 0-1.686-.602-1.686-1.806V58.57h-1.132v-1.145h1.132zm4.45 2.554c.583-.093.874-.57.874-1.433a.759.759 0 00-.023-.195h-.851v-1.697h1.67v1.565c0 .639-.12 1.174-.359 1.604-.291.52-.728.815-1.311.888zm4.098 5.498c.041.467.159.825.351 1.075.355.451.969.677 1.843.677.52 0 .956-.098 1.31-.295.438-.25.657-.612.657-1.09a.885.885 0 00-.477-.817c-.192-.114-.593-.247-1.203-.397l-1.116-.279c-.707-.176-1.233-.374-1.575-.593-.604-.383-.906-.909-.906-1.574 0-.857.32-1.524.96-2.002.573-.431 1.303-.647 2.194-.647 1.264 0 2.172.37 2.724 1.106.349.462.518.965.507 1.51H74.9a1.493 1.493 0 00-.336-.863c-.306-.369-.866-.554-1.678-.554-1.077 0-1.615.37-1.615 1.106 0 .364.18.655.538.872.213.13.52.244.92.343l.93.226c1.01.244 1.686.48 2.03.709.546.358.819.922.819 1.689 0 .91-.357 1.608-1.069 2.095-.62.425-1.405.64-2.357.64-2.233 0-3.391-.98-3.474-2.937zm14.55-5.871c.66 0 1.233.16 1.718.482.26.171.53.436.81.794v-1.051h1.297v7.585c0 1.065-.157 1.9-.469 2.508-.583 1.132-1.683 1.697-3.301 1.697-.912 0-1.65-.186-2.218-.56-.65-.431-1.011-1.075-1.085-1.931h1.429c.162.888.796 1.33 1.905 1.33 1.077 0 1.782-.378 2.115-1.136.198-.446.29-1.243.273-2.39-.557.84-1.418 1.26-2.584 1.26-1.15 0-2.021-.416-2.615-1.252-.52-.728-.78-1.69-.78-2.89 0-1.189.278-2.196.835-3.021.64-.951 1.53-1.425 2.67-1.425zm2.529 4.282c0-.85-.161-1.54-.484-2.071-.39-.649-.986-.973-1.788-.973-.989 0-1.665.461-2.03 1.386-.192.488-.287 1.134-.287 1.939 0 .8.148 1.45.444 1.954.364.619.921.927 1.67.927 1.01 0 1.72-.454 2.131-1.363.23-.508.344-1.108.344-1.799zm6.893-4.322a3.8 3.8 0 011.726.413c.566.286 1.007.673 1.319 1.16.239.385.41.849.515 1.394.083.447.125 1.06.125 1.838h-6.128c.057 1.87.838 2.804 2.341 2.804.735 0 1.32-.241 1.757-.724.25-.275.427-.6.531-.974h1.382c-.084.707-.435 1.355-1.055 1.947-.67.644-1.58.966-2.731.966-1.182 0-2.113-.433-2.795-1.3-.624-.795-.937-1.797-.937-3.007 0-1.272.334-2.325 1-3.161.723-.904 1.706-1.356 2.95-1.356zm2.24 3.691c-.056-.607-.19-1.093-.398-1.455-.384-.676-1.028-1.013-1.927-1.013-.677 0-1.23.247-1.663.74-.412.462-.63 1.038-.656 1.728zm3.45-5.832h1.42v2.328h1.336v1.145h-1.335v5.444c0 .29.099.485.297.583.114.057.296.086.547.086.17 0 .335-.008.491-.023v1.106a3.892 3.892 0 01-1.07.132c-1.124 0-1.686-.602-1.686-1.806V58.57h-1.13v-1.145h1.131zm8.485 2.367h1.367v1.106c.666-.898 1.53-1.347 2.592-1.347 1.108 0 1.972.436 2.59 1.308.542.768.813 1.729.813 2.882 0 1.817-.477 3.115-1.43 3.894a3.232 3.232 0 01-2.106.74c-.625 0-1.154-.138-1.585-.414-.255-.16-.534-.428-.835-.802v4.26h-1.406zm3.647 7.359c.803 0 1.405-.365 1.803-1.098.318-.576.476-1.303.476-2.18 0-.66-.097-1.23-.288-1.713-.363-.92-1.028-1.379-1.991-1.379-1.52 0-2.28 1.145-2.28 3.434 0 .644.096 1.192.288 1.644.362.862 1.027 1.292 1.992 1.292zm8.843-7.585a3.8 3.8 0 011.726.413c.567.286 1.007.673 1.32 1.16.238.385.41.849.514 1.394.083.447.125 1.06.125 1.838h-6.127c.057 1.87.838 2.804 2.341 2.804.734 0 1.32-.241 1.756-.724.25-.275.428-.6.532-.974h1.382c-.084.707-.435 1.355-1.055 1.947-.671.644-1.581.966-2.732.966-1.181 0-2.112-.433-2.794-1.3-.625-.795-.937-1.797-.937-3.007 0-1.272.333-2.325.999-3.161.723-.904 1.707-1.356 2.95-1.356zm2.241 3.691c-.057-.607-.19-1.093-.398-1.455-.385-.676-1.028-1.013-1.928-1.013-.677 0-1.23.247-1.663.74-.411.462-.629 1.038-.656 1.728zm3.2-3.504h1.335v1.44c.166-.425.476-.803.929-1.132.453-.33.903-.495 1.35-.495.053 0 .203.013.453.04v1.478a2.594 2.594 0 00-.461-.038c-.655 0-1.186.212-1.592.635-.405.423-.61.961-.61 1.616v4.797h-1.404zm6.128 5.724c.04.467.158.825.35 1.075.355.451.969.677 1.843.677.52 0 .957-.098 1.311-.295.437-.25.656-.612.656-1.09a.885.885 0 00-.476-.817c-.193-.114-.594-.247-1.203-.397l-1.117-.279c-.707-.176-1.233-.374-1.575-.593-.604-.383-.906-.909-.906-1.574 0-.857.32-1.524.96-2.002.573-.431 1.304-.647 2.194-.647 1.264 0 2.172.37 2.724 1.106.349.462.518.965.507 1.51h-1.327a1.492 1.492 0 00-.336-.863c-.306-.369-.865-.554-1.678-.554-1.076 0-1.615.37-1.615 1.106 0 .364.18.655.539.872.213.13.52.244.92.343l.929.226c1.01.244 1.686.48 2.03.709.547.358.82.922.82 1.689 0 .91-.357 1.608-1.07 2.095-.62.425-1.405.64-2.357.64-2.233 0-3.391-.98-3.474-2.937zm10.531-5.966c1.223 0 2.18.409 2.873 1.223.65.769.975 1.774.975 3.014 0 1.387-.317 2.487-.952 3.302-.703.898-1.73 1.347-3.084 1.347-1.213 0-2.154-.42-2.825-1.261-.62-.773-.93-1.784-.93-3.03 0-1.318.321-2.393.96-3.224.708-.914 1.702-1.37 2.983-1.37zm-.051 7.68c1.627 0 2.439-1.135 2.439-3.403 0-2.036-.808-3.054-2.424-3.054-.865 0-1.511.359-1.938 1.075-.35.587-.524 1.345-.524 2.274 0 .893.179 1.61.54 2.15.421.638 1.057.958 1.907.958zm5.57-7.438h1.333v1.184c.74-.914 1.65-1.37 2.733-1.37 1.186 0 1.988.412 2.404 1.237.229.453.344 1.099.344 1.94v5.35h-1.429V60.51c0-1.34-.528-2.01-1.585-2.01a2.89 2.89 0 00-.819.1c-.39.12-.73.35-1.015.687-.375.441-.562 1.145-.562 2.11v4.369h-1.405zm13.363 3.287c.323-.042.539-.177.648-.406.063-.129.093-.308.093-.537 0-.908-.658-1.362-1.974-1.362-.734 0-1.255.197-1.561.591-.171.219-.283.543-.336.973h-1.31c.046-1.832 1.125-2.748 3.239-2.748.92 0 1.664.153 2.231.46.72.389 1.078 1.004 1.078 1.845v4.804c0 .322.157.484.469.484.13 0 .283-.016.46-.046v1.028c-.328.092-.65.139-.968.139-.484 0-.836-.17-1.054-.51-.114-.18-.196-.436-.242-.767-.333.436-.78.78-1.343 1.028a4.051 4.051 0 01-1.663.358c-.749 0-1.37-.223-1.865-.67-.515-.461-.773-1.061-.773-1.798 0-1.506.878-2.369 2.632-2.586zm-3.41 2.834c0 .405.15.73.453.974.282.223.63.334 1.047.334.491 0 .971-.114 1.44-.341.781-.38 1.173-1 1.173-1.862v-1.13c-.317.205-.804.348-1.459.431l-.852.106c-.507.063-.891.17-1.152.32-.434.244-.65.634-.65 1.168zm7.86-9.22h1.404v11.44h-1.404z"/></svg>