<svg xmlns="http://www.w3.org/2000/svg" width="392" height="91" viewBox="0 0 392 91"><path fill="#a1a1a1" d="M265.625 81.583c0 1.51-.411 2.75-1.233 3.719-.822.97-1.844 1.454-3.065 1.454-1.22 0-2.241-.485-3.065-1.454-.822-.968-1.233-2.21-1.233-3.72V60.967c0-1.511.411-2.751 1.233-3.72.824-.968 1.844-1.453 3.065-1.453 1.22 0 2.243.485 3.065 1.453.822.969 1.233 2.209 1.233 3.72v6.192h-3.401v-6.456c0-.731-.305-1.096-.915-1.096-.611 0-.916.365-.916 1.096v21.145c0 .73.305 1.095.916 1.095.61 0 .915-.364.915-1.095v-6.456h3.4zm10.65 4.795h-7.25V56.17h3.512v26.583h3.738zm10.239 0h-7.25V56.17h7.25v3.624h-3.775v9.214h2.54v3.626h-2.54v10.119h3.775zm11.92 0h-3.588l-.224-5.475h-2.055l-.336 5.475h-3.102l2.43-30.208h4.408zm-4.036-9.326l-.635-12.045-.897 12.045zm16.443 9.326h-2.914l-3.588-16.5v16.5h-2.915V56.17h3.55l2.99 16.765V56.17h2.877zm23.654 0h-3.476V65.233l-2.615 21.145h-2.43l-2.354-21.183v21.183h-3.102V56.17h5.12l1.944 17.067 2.465-17.067h4.448zm12.295 0h-3.588l-.224-5.475h-2.055l-.336 5.475h-3.102l2.43-30.208h4.408zm-4.036-9.326l-.636-12.045-.896 12.045zm15.582 3.89c0 2.113-.536 3.674-1.606 4.681-.798.755-1.783 1.133-2.953 1.133-1.37 0-2.467-.529-3.289-1.586-.822-1.056-1.233-2.38-1.233-3.965v-3.663h3.215v4.192c0 .403.118.768.354 1.095.237.327.529.49.878.49.748 0 1.121-.528 1.121-1.585 0-2.567-.735-5.563-2.204-8.987-2.168-5.034-3.252-8.686-3.252-10.95 0-1.838.374-3.273 1.121-4.305.822-1.133 2.006-1.699 3.55-1.699 1.196 0 2.199.54 3.009 1.623s1.215 2.392 1.215 3.927v4.041h-3.252v-4.607c0-.906-.348-1.36-1.046-1.36-.723 0-1.083.454-1.083 1.36 0 1.812.173 3.348.523 4.607.198.68.796 2.215 1.793 4.607 2.093 5.034 3.14 8.684 3.14 10.95zm11.137-20.806h-2.317v26.242h-3.475V60.136h-2.504V56.17h8.296zm10.314 26.242h-7.25V56.17h7.25v3.624h-3.774v9.214h2.54v3.626h-2.54v10.119h3.774zm12.182 0h-3.476a24.07 24.07 0 01-.448-4.682v-7.098c0-.806-.262-1.21-.785-1.21h-.822v12.99h-3.513V56.17h4.522c2.64 0 3.961 1.586 3.961 4.758v7.702c0 1.184-.536 2.23-1.606 3.135 1.12.957 1.681 2 1.681 3.135v6.418c0 1.234.161 2.92.486 5.06zm-3.999-17.634v-7.74c0-.806-.212-1.21-.635-1.21h-.897v10.16h.897c.423 0 .635-.404.635-1.21zM345.858 40.1c-1.12.763-1.12.762-1.943-.406-.409-.579-.823-1.154-1.398-1.682.106.557.202 1.116.32 1.67.198.925-.024 1.137-.801 1.538-2.673 1.377-5.551.571-8.233 1.012-1.335-2.07-1.374-4.37-1.77-6.569l-.255.023v6.35c-.312.016-.585.043-.859.043-7.25.003-14.5-.004-21.749.017-.583.002-.76-.155-.826-.75-.103-.913-.362-1.807-.7-2.716l-.66 3.473h-1.033c.244-2.07.435-4.086.729-6.087.422-2.883 1.002-5.735 2.132-8.437 1.012-2.421 2.412-4.61 4.01-6.678.881-1.142 2.055-1.648 3.464-1.649 8.034-.002 16.069-.006 24.103.002 1.403.001 2.165 1.033 1.838 2.437-.2.859-.536 1.703-.608 2.571-.133 1.613-.263 3.252-.131 4.858.22 2.677.832 5.289 2.198 7.642.656 1.13 1.422 2.194 2.172 3.338zm-2.905-19.087c-.033-.365-.04-.499-.058-.631-.157-1.181-.771-1.73-1.949-1.73H314.75c1.51-1.968 2.87-3.866 4.385-5.629.392-.456 1.263-.642 1.93-.68 1.705-.094 3.42-.023 5.13-.045a14.26 14.26 0 001.769-.147c1.02-.141 1.772-.618 2.196-1.646 1.01-2.452 2.095-4.872 3.12-7.317.417-.994.953-1.864 1.86-2.476 1.644-1.11 2.994-.802 4.254.192 1.032.814 1.23 2.726.446 4.11-.955 1.684-1.98 3.327-2.971 4.99-.398.669-.786 1.344-1.251 2.143.534.08.942.189 1.35.193 2.068.02 4.136.02 6.203.016 1.357-.003 2.365.74 2.58 1.961.043.238.015.52-.074.745-.68 1.71-1.373 3.414-2.086 5.11-.108.257-.342.46-.637.841zM.567 57.948c0-6.861 2.093-12.463 6.28-16.81 4.187-4.344 9.673-6.518 16.456-6.518 6.42 0 11.677 1.948 15.772 5.84l-1.308-4.78h13.566l5.464 27.508h.127l5.4-27.507H74.51l5.276 27.88h.127l5.589-27.88h22.59l13.124 23.827V35.68h13.065v44.535h-13.503l-13.82-24.325v24.326H93.894v-25.97l-7.325 25.97h-13.44l-4.837-27.132h-.126l-4.71 27.132H49.952l-4.486-16.395c-.882 4.259-2.785 7.905-5.707 10.937-4.188 4.346-9.672 6.518-16.456 6.518-6.783 0-12.269-2.172-16.455-6.518C2.66 70.414.567 64.81.567 57.948zm13.817 0c0 4.45 1.046 7.735 3.14 9.855 1.592 1.58 3.519 2.37 5.78 2.37 2.26 0 4.186-.79 5.778-2.37 2.093-2.12 3.14-5.405 3.14-9.855 0-4.448-1.047-7.734-3.14-9.855-1.592-1.58-3.518-2.37-5.779-2.37-2.26 0-4.187.79-5.778 2.37-2.095 2.121-3.14 5.407-3.14 9.855zm119.92 32.812H.568v-4.884h133.738z"/></svg>