<svg xmlns="http://www.w3.org/2000/svg" width="405" height="64" viewBox="0 0 405 64"><path fill="#a1a1a1" d="M287.703 34.545v5.738h-4.476V63.22h-7.537V40.283h-4.458v-5.738zm1.72 0h5.335c3.556 0 5.964.136 7.224.407 1.258.272 2.285.965 3.079 2.081.793 1.115 1.19 2.896 1.19 5.34 0 2.231-.28 3.731-.841 4.499-.562.767-1.665 1.228-3.312 1.381 1.491.366 2.494.856 3.007 1.47.513.614.833 1.178.958 1.692.125.513.188 1.927.188 4.242v7.562h-7V53.69c0-1.535-.122-2.485-.367-2.851-.245-.366-.886-.549-1.924-.549v12.93h-7.538zm7.537 4.906v6.376c.847 0 1.44-.115 1.78-.346.341-.23.51-.977.51-2.24v-1.577c0-.908-.163-1.505-.491-1.788-.328-.284-.928-.425-1.8-.425zm25.238-4.906l4.31 28.674h-7.703l-.404-5.154h-2.696l-.453 5.154h-7.792l3.844-28.674zm-3.994 18.437c-.382-3.248-.765-7.263-1.148-12.044-.768 5.49-1.25 9.506-1.447 12.044zm26.413-18.437v28.674h-6.606l-3.921-13.035v13.035h-6.302V34.545h6.302l4.225 12.911V34.545zm15.63 0v5.738l-5.613 17.197h5.612v5.74h-13.893v-4.163l5.801-18.774h-5.12v-5.738zm9.488 0v28.674h-7.538V34.545zm10.563 0V57.48h4.582v5.74h-12.12V34.544zm20.35 0l4.31 28.674h-7.702l-.404-5.154h-2.696l-.453 5.154h-7.793l3.845-28.674zm-3.994 18.437c-.381-3.248-.764-7.263-1.148-12.044-.768 5.49-1.25 9.506-1.446 12.044zm-246.785 8.656c.432-2.074.896-4.061 1.255-6.067.768-4.29.902-8.611.5-12.947-.536-5.755-2.04-11.236-4.898-16.305-5.545-9.839-13.95-15.977-25.017-18.483-9.132-2.068-17.963-.952-26.241 3.354-8.403 4.371-14.61 10.819-17.89 19.776-.182.5-.414.69-.965.68-2.16-.032-4.32-.013-6.706-.013.703-1.82 1.261-3.562 2.031-5.208 5.479-11.71 14.54-19.542 26.768-23.846C105.303.258 112.11-.298 119.052.556c7.81.961 14.927 3.694 21.22 8.335 7.67 5.656 12.914 13.094 15.88 22.076 2.738 8.288 3.088 16.753 1.754 25.319-.25 1.6-.62 3.184-.976 4.767-.05.221-.33.556-.507.56-2.185.038-4.371.025-6.554.025zM39.907 41.698v19.991h-7.416V41.675h-4.314v-5.653h4.183c.091-1.491.125-2.896.273-4.289.447-4.215 3.072-7.304 7.174-8.239 3.203-.73 6.334-.367 9.366 1.153L46.92 29.71c-.882-.225-1.687-.503-2.517-.627-2.469-.37-4.189.919-4.435 3.373-.114 1.128-.02 2.276-.02 3.475H51.22c0-.455-.051-.93.009-1.39.228-1.748.26-3.565.79-5.223 1.256-3.929 4.296-5.784 8.309-6.103 2.579-.205 5.094.222 7.49 1.486l-2.222 5.004c-1.11-.217-2.105-.507-3.118-.59-2.005-.165-3.427.942-3.718 2.917-.186 1.267-.171 2.563-.251 3.93h6.745v5.653H58.56v20.006h-7.434V41.698H39.907zm87.662-2.033c3.075-3.79 7.132-5.22 11.243-4.05 3.218.915 5.379 3.474 5.691 6.777a28.5 28.5 0 01.127 2.613c.012 5.206.006 10.413.006 15.62v1.059h-7.39c-.014-.316-.04-.633-.04-.952-.003-4.694-.002-9.39-.003-14.084 0-1.282-.15-2.555-.942-3.607-1.637-2.176-4.9-2.009-6.546.287-1.204 1.68-1.445 3.615-1.462 5.585-.032 3.912-.01 7.824-.01 11.737v1.045h-7.432c0-.376.001-.727 0-1.078-.017-5.056-.002-10.112-.07-15.167-.025-1.893-1.169-3.323-2.804-3.824-1.612-.493-3.414.085-4.49 1.622a8.391 8.391 0 00-1.244 2.673c-.257 1.003-.278 2.081-.286 3.127-.03 3.822-.012 7.645-.012 11.467v1.053h-7.371V36.042h7.066v3.726c1.993-3.098 4.599-4.614 8.083-4.529 3.414.084 6.11 1.415 7.886 4.426zM24.897 61.64c-2.093 0-4.13.001-6.166-.002-.208 0-.415-.022-.73-.04v-3.506c-1.097.946-2.056 2.03-3.243 2.746-3.405 2.053-7.017 2.17-10.529.341-4.212-2.194-4.988-9.114-.013-12.18 2.27-1.399 4.795-2.022 7.37-2.519 1.313-.253 2.641-.434 3.95-.706 1.308-.272 1.988-.924 2.064-1.853.09-1.095-.667-2.265-1.808-2.661-1.751-.608-3.537-.517-5.307-.08-2.282.562-4.297 1.654-6.17 3.227l-2.469-5.045c1.627-1.332 3.482-2.207 5.425-2.9 3.356-1.198 6.782-1.61 10.315-.833 4.484.987 7.242 4.108 7.325 8.66.103 5.656.044 11.315.053 16.972 0 .087-.03.174-.067.379zm-7.569-11.731c-2.115.469-4.218.876-6.282 1.427-.703.187-1.373.656-1.94 1.133-.935.785-1.052 1.887-.733 2.979.31 1.06 1.205 1.427 2.252 1.529 4.136.403 7.036-3.585 6.703-7.068zm84.183-14.058l-1.327 6.535c-1.049-.23-2.029-.592-3.023-.633-2.822-.117-5.178 1.64-5.835 4.356-.287 1.186-.41 2.434-.43 3.657-.054 3.611-.02 7.224-.02 10.836v1.002h-7.37V36.04h6.855v3.876c1.17-1.922 2.553-3.502 4.74-4.19 2.121-.667 4.24-.633 6.41.125zM69.797 61.566V36.064h7.363v25.502h-7.363z"/></svg>