<svg xmlns="http://www.w3.org/2000/svg" width="400" height="88" viewBox="0 0 400 88"><path fill="#a1a1a1" d="M267.23 85.188V44.153h12.627v41.035zm21.466 0V62.37h-4.649v-7.01h4.65c-.154-3.87.63-6.668 2.353-8.392 1.224-1.226 2.774-2.03 4.65-2.413 1.185-.267 2.946-.403 5.28-.403.65 0 1.51.039 2.583.115 1.3.078 2.142.114 2.525.114V52.2c-2.144-.268-3.061-.403-2.754-.403-1.378 0-2.326.25-2.843.748-.515.498-.736 1.436-.66 2.816h5.97v7.01h-5.74v22.817zm38.53-13.793h12.628c0 .997.152 1.896.46 2.701.726 1.993 2.734 2.988 6.026 2.988 3.481 0 5.223-1.244 5.223-3.735 0-.996-.593-1.8-1.779-2.415-.919-.46-3.273-1.224-7.06-2.298-4.63-1.302-7.748-2.49-9.355-3.564-3.025-1.915-4.535-4.692-4.535-8.333 0-4.443 1.703-7.892 5.108-10.344 2.985-2.145 6.791-3.22 11.423-3.22 4.935 0 8.857.978 11.764 2.932 3.406 2.3 5.186 5.786 5.34 10.46h-11.94c.192-1.38-.305-2.471-1.491-3.275-1.034-.69-2.278-1.035-3.732-1.035-3.098 0-4.61.92-4.534 2.76.039 1.263 1.3 2.298 3.788 3.102 2.717.69 5.415 1.38 8.093 2.068 3.52.997 6.161 2.223 7.92 3.679 2.412 2.031 3.618 4.752 3.618 8.162 0 4.904-2.01 8.6-6.028 11.091-3.368 2.032-7.671 3.046-12.913 3.046-4.018 0-7.597-.825-10.735-2.472-4.82-2.528-7.251-6.627-7.288-12.298zm72.55-1.15c0 4.445-1.3 8.084-3.903 10.92-2.946 3.18-7.059 4.77-12.34 4.77-5.279 0-9.393-1.59-12.34-4.77-2.602-2.836-3.903-6.475-3.903-10.92 0-4.443 1.3-8.084 3.903-10.92 2.908-3.14 7.023-4.712 12.34-4.712 5.318 0 9.433 1.571 12.34 4.712 2.603 2.836 3.903 6.477 3.903 10.92zm-11.364 0c0-4.904-1.627-7.356-4.879-7.356s-4.878 2.452-4.878 7.356c0 4.943 1.627 7.415 4.878 7.415 3.252 0 4.879-2.472 4.879-7.415zm-77.328 5.998V55.315l14.473 10.464zM50.306 83.739H56.7l5.272-25.64h-6.394zm11.698-10.254l6.392.003 3.163-15.385h-6.392zm29.89 10.267l6.395.003 5.272-25.641h-6.392zm47.934-25.309h.14c-5.673.98-10.833 6.269-12.143 12.654-1.457 7.08 2.368 12.822 8.548 12.824 6.18.002 12.365-5.738 13.824-12.817 1.458-7.08-2.372-12.822-8.551-12.824-.61 0-1.217.055-1.816.162zm-1.39 6.748h.142a3.423 3.423 0 011.752-.51c1.88 0 4.382 2.046 3.484 6.42-.898 4.375-4.24 6.418-6.123 6.418-1.882 0-4.385-2.044-3.484-6.42.64-3.117 2.52-5.052 4.23-5.908zm-22.1-.587c1.597.001 4.145 1.888 3.213 6.422-.932 4.533-4.255 6.422-5.852 6.42-1.597 0-4.148-1.89-3.216-6.424l2.648-12.82h-6.392l-2.637 12.821c-1.455 7.083 2.251 12.822 8.28 12.825 6.03.001 12.095-5.736 13.55-12.817 1.457-7.083-2.249-12.825-8.276-12.825-.45 0-.899.031-1.345.092l-1.365 6.645a3.61 3.61 0 011.392-.338s-1.597-.002 0-.001zm-41.54-6.513L73.482 64.5l9.588.003-3.957 19.244 6.39.003 3.957-19.244h3.198l1.318-6.41zm-50.16 26.61h.003c-.01.07-.002 0-.002 0zm.003 0l.032-.206c.137.023.273.043.41.064l-.065.41-.207-.031c.066-.17.01-.249-.17-.238zm-12.213-2.36l.032-.207.409.065-.032.206-.407-.063s-.013.068-.002-.002zm16.431 2.188c.023-.136.043-.273.065-.41l1.023.162-.022.137c.013.129-.142.026-.215.036l-.032.205-.819-.13s-.023.136 0 0zm-11.187-2.2l.032-.204.41.065-.033.206-.409-.064s-.01.066 0-.002zm-1.637-.26h.001c-.01.068-.001 0-.001 0zm.001 0l.033-.204.818.13-.033.206c.137.024.273.044.41.065-.067.17-.01.25.172.238l-.032.207-.207-.033-.065.41c-.169-.067-.248-.009-.237.174l-.206-.034c.067-.169.01-.248-.172-.237.011-.07.021-.139.033-.207l.206.032.065-.409c-.137-.024-.273-.044-.41-.065l.033-.207-.408-.065zm1.94-.323h.002v.002c-.012.07-.002-.002-.002-.002zm.002 0l.032-.205c.137.024.273.044.41.065-.025.137-.044.274-.066.41l-.206-.032c.066-.168.01-.248-.17-.238zm13.706 2.179h.002c-.022.133-.002 0-.002 0zm.002 0v-.002l.065-.41.41.065-.033.207c-.17-.067-.248-.01-.237.173zm-11.16-2.61c.076.006.038-.144.067-.2l.41.065c-.034.205-.066.41-.098.615-.17-.067-.249-.01-.238.173l-.375-.06c-.095-.02-.004.215-.1.195l-.17-.028.13-.82zm-1.602-.256v.003c-.01.07 0-.003 0-.003zm0 0c.01-.069.022-.137.033-.204l.409.065-.033.205zm-8.594-1.362l.032-.207.207.032-.033.207-.204-.032s-.013.07-.002 0zm7.6.996l.033-.207.206.033-.032.207-.205-.032s-.012.069-.001 0zm13.945 2.004l.064-.41c.137.024.273.044.41.065l-.065.41c-.137-.023-.273-.043-.41-.065zm-7.981-1.476c.076.007.037-.143.067-.2l.409.066c-.024.136-.044.273-.065.41l-.818-.13.032-.207.375.06s-.076-.005 0 .001zm-2.216-.353l.065-.41c.136.02.272.042.408.065-.01.07-.02.138-.032.207l.206.032-.064.41-.207-.033.033-.204-.41-.066s-.02.136 0-.001zm3.542.14c.01-.069.022-.137.033-.205l.206.032-.032.207-.207-.032s-.01.067 0-.002zm-6.342-1.007h.004v.003c-.012.07-.004-.003-.004-.003zm.004 0l.032-.204.818.13c-.023.137-.043.274-.064.41l-.207-.032.033-.207-.17-.027c-.077-.007-.038.144-.067.2l-.207-.033c.067-.168.01-.248-.168-.237zm-7.98-1.264h.001c-.01.07 0 0 0 0zm.001 0l.032-.208.207.033-.033.207zm12.954 1.634l.032-.205.41.066-.033.206-.41-.065zm-7.492-.345l.206.032.098-.616c.17.068.248.01.237-.172l.375.06c.076.007.037-.143.066-.2l.41.065-.098.615c-.169-.066-.248-.01-.237.173l-.206-.033-.065.41-.41-.064.033-.207-.17-.027a3.84 3.84 0 00-.165.815 70.908 70.908 0 01-.614-.098l.032-.206.17.027a.935.935 0 00.098-.405c.17.067.248.01.237-.173zm-.51.547h.002zm0 0l-.407-.065.032-.207.408.065c-.01.07-.02.138-.032.206zm-.376-.272h.001zm0 0l-.783-.124c-.076-.008-.037.142-.066.2l-.206-.033.065-.41c.169.066.248.009.237-.173l.614.097c-.067.17-.01.25.172.238zm-2.085-1.378c-.021.136 0 0 0 0zm0 0l.065-.41.207.032-.066.41zm18.614 2.955l.098-.615.206.032-.033.207.17.027c.077.008.038-.143.067-.2.136.025.273.044.41.066-.067.17-.01.249.172.237l-.033.207.207.032c-.024.137-.044.273-.065.41l-.41-.065.033-.207-.818-.13s-.036.204-.004-.001zm-18.724-3.605c-.01.07 0 0 0 0zm0 0l.032-.207.207.033-.033.207a9.974 9.974 0 01-.206-.033zm-1.637-.26v.002c-.01.07 0-.002 0-.002zm0 0l.033-.205.206.033-.032.205zm11.02 1.542l.026.003c.076.006.038-.143.067-.2l.409.064c-.067.17-.01.25.172.239l-.032.206-.375-.059c-.077-.007-.037.142-.067.2-.136-.024-.273-.044-.41-.065.068-.17.01-.25-.171-.238l.032-.205c.116.017.234.037.35.055zm-3.009-.48v.003c-.01.07 0-.002 0-.002zm0 0l.033-.203c.272.042.545.088.818.13l-.065.41-.409-.065c.01-.07.022-.138.033-.206-.137-.024-.273-.044-.41-.065zm-2.896-.245c.023-.137.043-.273.064-.41l.41.065c-.024.137-.044.274-.065.41l-.41-.065s-.023.137 0 0zm-.819-.13l.066-.41.408.065-.064.41c-.137-.02-.273-.043-.41-.065 0 0-.021.136 0 0zm5.906.774l-.041.157.068.01-.027.171c-.02.096.215.005.194.101l-.027.171-1.023-.162.065-.41.068.01.008-.162.16-.021.027-.17c.008-.077-.142-.039-.198-.068l.032-.207c.137.024.273.044.409.065-.067.17-.009.25.173.238l-.033.207zm15.705 1.814l.033-.205.409.065-.032.207-.41-.065s-.01.066 0-.002zm-11.93-1.474l.097-.615c.204.033.407.064.613.098l-.13.82-.408-.065c.066-.17.01-.25-.172-.238 0 0-.032.205 0 0zM10.549 77l.033-.207.206.033-.033.207L10.55 77s-.01.07 0 0zm24.14 3.834c-.021.136 0 0 0 0zm0 0l.065-.41.614.097-.032.207.206.032c-.024.137-.043.273-.065.41l-.614-.097c.01-.07.022-.138.033-.207l-.207-.032zm-3.955-.21l.13-.82.206.032-.033.207c.07.01.139.02.207.032l-.033.207.206.032c-.042.274-.086.547-.13.82l.41.066c-.067.17-.01.249.172.237l-.032.207-.206-.032-.033.207-.409-.065.032-.207-.17-.027c-.076-.008-.038.142-.066.2l-.614-.098.032-.207-.41-.065c.023-.136.044-.273.066-.41.125.018.25.04.375.06.076.006.037-.143.066-.2l.41.065.027-.171c.007-.077-.143-.038-.2-.067 0 0-.046.27-.003-.003zm-1.952-.94l.032-.205.206.032c-.067.17-.01.249.172.238-.01.07-.022.138-.033.206l-.204-.032-.032.207-.99-.157c-.076-.007-.038.143-.067.2l-.409-.065.032-.207.207.033.032-.207.784.124c.077.007.038-.143.067-.2l.203.032zm-12.474-1.985c.01-.07.022-.139.033-.207l.409.065-.033.207-.409-.065s-.01.07 0 0zm-1.468-.231c.076.007.038-.143.066-.2l.207.032-.032.207.409.065-.033.207.207.032-.065.41-.375-.059c-.076-.007-.037.142-.066.2l-.207-.032c-.023.137-.043.273-.064.41l-.207-.033.032-.206-.409-.065.032-.207.207.032c.018-.126.04-.252.06-.376.006-.077-.143-.038-.2-.067.024-.136.043-.273.065-.41l.375.06s-.078-.008-.002 0zm17.627 2.8c.067-.17.01-.25-.172-.238l.032-.207.206.032-.032.207.375.06c.076.007.037-.143.066-.2.136.023.273.043.41.065l-.033.206.41.065c-.024.137-.044.274-.066.41l-.614-.097.033-.206-.614-.098s-.068.17-.001 0zm-21.24-3.586c.01-.07.022-.139.033-.207l.206.032-.032.207-.206-.033s-.011.071 0 0zm-1.155.657h.002l-.001.008c-.012.07 0-.008 0-.008zm.002 0l.031-.2-.41-.064.033-.207-.409-.065.033-.207.206.032c.01-.07.022-.138.033-.206l.204.032c.01-.07.022-.138.033-.207l.408.065c-.066.17-.009.249.173.238l-.033.207-.206-.032-.065.41c.273.043.545.088.818.13-.023.136-.043.273-.064.41l-.614-.098c.066-.169.01-.248-.171-.238zm13.836 1.364l.064-.41.614.097-.032.207.58.092c.095.021.005-.215.1-.194l.17.027-.096.616a342.55 342.55 0 00-1.023-.163l.032-.207-.41-.065s-.02.137 0 0zm-5.185-.374a2.11 2.11 0 00-.608-.132l.032-.206.614.097-.032.207.17.028c.077.007.038-.144.067-.2l.375.06a.938.938 0 00.098-.406c.17.067.249.01.238-.172l.206.032-.033.207.41.065-.065.41c-.193-.03-.386-.06-.578-.092-.076-.007-.038.143-.067.2l-.206-.032c-.018.125-.04.252-.06.376-.006.076.143.037.2.067-.011.07-.021.139-.033.206a6.802 6.802 0 01-.206-.032l-.032.207-.41-.065.06-.376c.007-.076-.142-.038-.2-.066.019-.126.04-.252.06-.376 0 0 .196.067 0-.007zm-10.772-2.17l.065-.41.409.066c-.067.17-.01.249.172.237l-.032.207-.614-.097zm4.943.576h.001c-.032.205-.001 0-.001 0zm.001 0l.098-.616 1.432.227-.065.41-.99-.156c-.077-.007-.038.143-.067.2zm17.043 2.077c.075.008.037-.142.066-.2l.204.033c-.031.205-.064.41-.097.616l-.408-.065c.066-.17.009-.25-.173-.238.01-.07.022-.138.033-.207.125.018.25.04.375.06 0 0-.076-.006 0 .001zm-3.477-.342l.065-.41.41.065-.033.207.409.064a79.92 79.92 0 00-.065.41l-.409-.064.032-.207-.409-.065s-.022.136 0 0zm-9.995-1.797l.033-.205.206.032-.032.205-.207-.032v.002c-.01.07 0-.002 0-.002zm16.367 2.6c.023-.136.043-.273.065-.41.136.023.272.044.409.065l-.065.41-.41-.065s-.023.136 0 0zM20.969 77.39h.001c-.02.133 0 0 0 0zm.001 0v-.002l.066-.41.409.065-.033.207c-.17-.067-.248-.01-.237.173zM2.213 73.988l.033-.207.206.033-.032.207-.206-.033s-.012.07 0 0zm8.216 1.095l.032-.207.207.032-.033.207-.206-.032s-.011.07 0 0zm31.128 4.734c.01-.07.022-.138.033-.207l.206.032-.032.207-.207-.032s-.01.07 0 0zm-24.14-3.833l.033-.207.614.097-.033.207-.206-.032-.033.207-.614-.098.033-.207.206.032s-.01.071 0 0zm5.695.694l.034.002c.076.007.037-.142.066-.2l.204.034-.032.207-.206-.033-.032.207-.41-.065.033-.207zm-3.615-.577v.001c-.01.07 0 0 0 0zm0 0l.032-.205.614.097c-.067.17-.01.249.172.239l-.032.204-.614-.097c.067-.17.01-.249-.172-.238zm-.614-.096c-.01.07 0 0 0 0zm0 0c.01-.07.022-.138.033-.206l.206.032-.033.207zm-8.764-1.602c-.021.136 0 0 0 0zm0 0l.065-.41.206.032-.065.41zm21.136 2.937l.032-.204c.273.042.546.085.818.129l-.032.205.204.033-.064.41c-.125-.018-.252-.04-.375-.06-.076-.007-.038.143-.067.2l-.818-.13.097-.615zM18.16 75.26c.01-.071.022-.14.033-.207l.206.032-.033.207-.206-.032s-.01.07 0 0zm17.153 2.934l.097-.616.614.098c-.018.126-.04.252-.06.376a.939.939 0 00.404.1l-.032.204.206.033-.065.41c-.169-.067-.248-.01-.237.173l-1.022-.163-.098.616-.415-.064.098-.615.206.033.027-.171c.021-.097-.215-.005-.194-.102l.017-.102c-.013-.129.141-.026.215-.036.01-.07.022-.139.033-.207l.206.033s-.033.205 0 0zm-8.56-1.571l.065-.411.818.13-.032.207a.94.94 0 01.403.1l-.016.101a.862.862 0 01-.59-.023l-.648-.102s-.022.135 0-.002zm-3.893-.824c.077.006.037-.143.067-.2l.409.065-.097.616-.578-.092c-.076-.008-.038.142-.066.2l-.614-.098.032-.207c-.136-.024-.273-.044-.409-.065l.032-.207.207.032.032-.207.41.065-.033.207.17.028c.076.007.038-.143.067-.2l.375.06s-.08-.004-.004.003zM6.732 73.237c-.011.07 0 0 0 0zm0 0l.033-.206.818.13-.033.207.41.065-.033.206c.273.044.546.088.819.13-.03.194-.061.387-.093.58-.02.096.215.005.194.101l-.016.102c.013.13-.142.027-.216.037l-.032.206-.784-.124c-.076-.007-.037.143-.066.2l-.99-.158c-.077-.006-.038.144-.067.2l-.41-.065.06-.376c.007-.076-.142-.037-.2-.066l.033-.207-.614-.097.065-.411c.17.067.248.01.237-.173l.784.124c.077.007.038-.142.067-.2l.207.033.026-.17c.008-.078-.142-.038-.199-.068zm-2.046-.324l.033-.207.41.065-.033.207-.41-.065s-.01.07 0 0zm36.891 5.438h.001c-.067.169 0 0 0 0zm.001 0c.066-.169.009-.248-.173-.238l.033-.207.206.033c-.066.17-.009.249.172.237l-.032.207zm-8.417-1.55c-.005-.002.001-.002.033.001.075.008.037-.142.066-.199l.818.13-.032.207.17.026c.076.008.038-.142.067-.199l.409.065-.022.136c.013.13-.142.027-.215.036l-.032.207-.99-.156c-.077-.008-.038.142-.067.198l-.614-.097c.023-.137.043-.273.065-.41.114.016.23.036.344.054zM22.18 75.052l.032-.206c.137.023.273.043.41.064l-.033.207c-.136-.023-.273-.043-.41-.065 0 0-.01.071 0 0zm-1.263-.199c.076.007.037-.143.066-.2l.206.034-.032.204.41.065-.033.207.205.033-.065.41-.614-.098-.027.171c-.007.077.142.038.2.067-.024.137-.044.274-.065.41l-.614-.097.156-.993c.007-.077-.142-.038-.199-.067l.032-.207.375.06s-.077-.006 0 .001zM4.82 72.09l.033-.207.206.033-.032.207-.206-.033s-.011.07 0 0zm-1.84-.294l.032-.207.614.097-.033.207.41.065-.033.207-.818-.13c.066-.17.009-.249-.173-.237 0 0-.011.068 0-.002zm10.466 1.452c-.01.07 0 0 0 0zm0 0l.033-.207.819.13-.033.207-.375-.06c-.076-.007-.037.143-.066.2a6.332 6.332 0 01-.206-.033c.066-.169.01-.248-.171-.237zm-6.992-.902l.064-.41.207.032-.032.207.206.032-.033.207.207.032-.066.41c-.136-.023-.272-.043-.409-.064.018-.126.04-.252.06-.376.007-.077-.143-.038-.2-.067 0 0-.026.133-.004-.003zm27.888 4.008v.002c-.01.07 0-.002 0-.002zm0 0l.032-.205.207.033-.033.204c-.07-.01-.137-.02-.205-.032zM17.384 74.55l-.041.157.068.01-.033.207c-.168-.066-.248-.01-.236.173l-.207-.032.033-.207-.207-.032.033-.207-.41-.065.033-.207c-.136-.023-.273-.042-.41-.064-.02.135-.042.272-.064.41l-.41-.065c.068-.17.01-.25-.171-.238l.032-.207c-.136-.023-.273-.043-.409-.064.067-.17.01-.249-.172-.238l.032-.207-.206-.032.033-.207-.207-.032c.024-.138.044-.274.065-.41l.206.032-.032.207.206.032-.032.207.206.032c-.01.07-.022.139-.033.207l.82.13-.034.207.376.06c.076.007.037-.143.066-.2l.375.06c.076.007.037-.143.067-.2l.204.032-.032.207.204.033c-.067.169-.01.248.172.237l-.032.207zm13.11.986l.033-.207.204.033-.032.207-.207-.033zm5.147.605l.033-.204.206.032c-.011.07-.021.139-.033.207l-.206-.033s-.011.067 0-.002zm-3.887-.617l.032-.206.615.097-.033.207-.614-.098s-.011.07 0 0zm5.287 1.049l.098-.616.409.065c-.067.17-.01.249.172.238l-.033.207-.206-.033-.033.207-.407-.067s-.032.204 0-.001zM8.87 71.68a39.6 39.6 0 00.033-.207l.206.033c-.011.07-.021.139-.033.206-.07-.01-.137-.02-.206-.032 0 0-.011.07 0 0zm25.982 4.127l.065-.41.206.031-.064.411-.207-.032s-.021.136 0 0zm-3.92-.414l.097-.616.207.033c-.067.17-.01.249.172.238l-.032.205c-.17-.067-.248-.01-.238.173l-.206-.033s-.032.205 0 0zm-13.845-2.618c-.01.07 0 0 0 0zm0 0l.033-.207.206.033-.032.207-.206-.033zm17.316 1.908v.005h-.005zm0 .005l.202.032.032-.207.206.033-.032.207-.206-.033-.124.786c-.007.076.142.037.2.066l-.033.207-.41-.065.033-.207-.614-.098.033-.206-.17-.028c-.077-.006-.039.143-.067.2l-.207-.032.033-.207.206.033.032-.207c.17.066.248.01.238-.173l.206.033-.033.206.17.028c.077.007.038-.143.067-.2.168.066.247.01.238-.168zm-17.6-2.794c-.01.07 0 0 0 0zm0 0l.033-.207.207.032-.033.207-.206-.032zm-6.34-1.012l.033-.207.207.032-.032.207-.207-.032s-.01.07 0 0zm25.57 3.852c.075.007.036-.143.065-.2l.41.065c-.01.07-.022.139-.033.207l.375.06c.076.007.038-.143.067-.2l.613.097c-.023.137-.043.274-.064.41l-.375-.06c-.077-.006-.038.144-.067.201l-.578-.092c-.076-.008-.037.142-.066.2l-.614-.098.032-.205-.409-.065.032-.207c.07.011.139.023.207.032l.032-.206.375.06s-.079-.005-.003.001zm-20.831-3.308l.032-.206.406.072-.156.993c-.007.076.142.038.199.067-.024.136-.044.274-.065.41l-.207-.032.033-.207-.818-.13.032-.207-.409-.065.033-.204c-.137-.024-.273-.044-.41-.066l.033-.206-.99-.157c-.077-.007-.038.143-.067.2-.211-.113-.207.074-.271.165l-.102-.016c-.128.013-.026-.142-.036-.216l-1.023-.162.032-.207.207.032.032-.207 1.398.222c.076.007.037-.143.066-.2l.614.098c-.01.07-.022.139-.033.206l.41.066-.033.204.578.093c.076.007.037-.143.066-.2.07.011.139.021.207.033l.032-.207.207.033s-.008.071.003.001zm3.101.283h.001c-.01.07-.001 0-.001 0zm.001 0l.033-.207.614.097-.032.207c-.17-.067-.248-.009-.238.173l-.206-.033c.067-.169.01-.248-.17-.237zm-7.774-1.236l.033-.207.409.065-.032.207-.41-.064s-.011.07 0-.001zm-2.834-.66l.032-.207.206.033-.032.206-.205-.032s-.012.07-.001 0zm-1.056.041h.001c-.021.135 0 0 0 0zm.001 0l.065-.412.82.13-.033.207-.207-.033-.065.41-.409-.065c.067-.169.01-.248-.17-.237zm10.906 1.306l.066-.41.204.033-.032.207.206.032c-.067.17-.01.249.172.238l-.033.207-.409-.065c.067-.17.01-.249-.172-.238 0 0-.023.132-.002-.004zM4.454 69.083c.024-.138.044-.274.065-.41l.206.031-.064.41-.207-.031s-.023.137 0 0zm6.203.564v.001c-.011.07 0-.001 0-.001zm0 0l.032-.206.409.066-.033.205zm1.464.023v.002c-.01.07 0-.002 0-.002zm0 0l.032-.204.41.064-.097.616c-.069-.01-.137-.022-.205-.033l.06-.376c.006-.076-.143-.037-.2-.067zm-2.724-.43l.03.002c.075.008.036-.141.065-.199l.41.065-.033.207.41.065-.066.41-1.023-.162c.113-.211-.073-.207-.165-.272l.027-.17zm-4.813-.973l.032-.207.207.033-.033.207-.206-.033s-.011.07 0 0zm1.97-.529l.065-.41.207.033c-.024.137-.044.274-.065.41l-.206-.033s-.022.135 0 0zm3.91-.85h.001v.001c-.067.17 0-.002 0-.002zm.001 0c.065-.169.008-.248-.172-.237l.032-.207.206.033c-.067.17-.01.249.172.238l-.032.204-.206-.032zm-.076-.852l.033-.207.206.033c-.011.07-.021.138-.033.206l-.206-.032s-.011.07 0 0zm3.197-.335c.024-.137.044-.274.065-.41.07.01.138.02.206.032-.066.17-.01.249.172.237l-.032.207c-.136-.02-.272-.043-.41-.064 0 0-.024.134 0-.002zm-1.118-3.541l.097-.616c.07.012.139.021.207.033l-.033.207.206.032c-.023.137-.043.274-.064.41l-.41-.065s-.035.204-.003-.001zm-3.692-1.85l.097-.615.206.033-.097.615-.206-.033s-.033.205 0 0zm.313-3.314l.033-.207.206.032-.032.207-.207-.032s-.01.07 0 0zm-2.684-3.16h.004c.076.007.037-.142.066-.2.137.024.273.044.41.065-.024.137-.044.273-.065.41l-.207-.032-.032.206-.41-.064c.067-.17.01-.25-.171-.237l.032-.207c.124.018.25.04.373.059zm7.111-1.182a.936.936 0 00.099-.405l.206.032-.032.207.206.033-.065.41c-.07-.01-.138-.02-.206-.032-.023.137-.043.274-.065.41l-.206-.033c.011-.07.021-.138.033-.206l-.41-.065c.067-.17.01-.249-.172-.238l.032-.207.58.092s-.063.128 0 .002zm1.489-1.236l.032-.207c.07.012.138.022.207.032l-.033.208c-.07-.01-.138-.022-.206-.033 0 0-.012.07 0 0zm1.11-1.718c.066-.17.01-.25-.173-.237.019-.126.04-.253.06-.377.021-.096-.215-.005-.194-.1l.027-.172c.137.024.273.044.41.065l-.098.616.41.065-.033.207a39.723 39.723 0 00-.41-.066s-.066.168 0-.001zM4.41 46.789l.033-.205.206.032-.033.207-.206-.032zm8.42 1.126l.033-.206c.07.01.138.02.206.032l-.032.207c-.07-.011-.138-.021-.206-.033 0 0-.011.071 0 0zm.507-.55l.033-.207.206.033-.033.206-.206-.031s-.011.07 0 0zm.302-.583l.032-.207.41.065-.033.207c-.136-.024-.272-.044-.409-.065 0 0-.01.07 0 0zm3.23-.538h.001c-.01.07 0 0 0 0zm.001 0l.032-.206.207.032-.033.207c-.07-.01-.138-.022-.206-.033zm-7.753-2.7l.032-.208.206.034-.032.204-.205-.032s-.012.071-.001.001zm-.99-.368c.01-.07.02-.139.032-.207l.41.065-.033.207c-.137-.024-.274-.044-.41-.065 0 0-.01.07 0 0zm7.796-.235c-.012.071 0 0 0 0zm0 0l.032-.206.41.065-.033.207zm.711-.517c-.01.07 0 0 0 0zm0 0c.01-.07.022-.137.033-.207l.206.033-.033.207c-.07-.01-.138-.022-.206-.033zm-7.707-1.646l.032-.207.41.065-.033.207-.41-.065s-.01.07 0 0zm-.99-.368h.003v.001c-.024.137-.004-.001-.004-.001zm.003 0c.023-.136.043-.273.065-.408.136.02.272.043.409.064l-.097.616-.207-.032.033-.207-.203-.032zm8.926.578l.033-.207.206.033-.032.207-.206-.033s-.012.07 0 0zm1.01-1.102l.207.033c.01-.07.022-.138.033-.207l.206.033-.032.207-.206-.032-.13.82-.614-.098.065-.41c.169.067.248.01.237-.172.17.067.248.01.237-.173zm.463-1.609l.032-.203.207.032-.06.376c-.007.077.143.038.2.067-.024.137-.044.274-.065.41l-.207-.032.032-.207-.408-.065.064-.41zm-6.956-1.101l.032-.207.206.033-.032.206-.206-.032s-.011.07 0 0zm9.088-.449l.032-.207.207.032-.032.207-.207-.032s-.011.07 0 0zm-8.797-1.397l.032-.207.206.033-.032.206-.206-.032s-.01.07 0 0zm10.015.328l.032-.207.206.033-.032.207-.206-.033s-.01.07 0 0zm.301-.584c.17.067.248.01.237-.172.07.01.138.02.206.033l-.032.206c-.169-.067-.248-.009-.237.173l-.206-.033.032-.206s-.169-.068 0-.001zm.776-.929c.066-.169.01-.248-.172-.237l.032-.207.206.033c-.066.17-.01.25.173.237l-.033.207c-.07-.01-.138-.02-.206-.032 0 0-.066.168 0 0zm.302-.582v.002c-.011.07 0-.002 0-.002zm0 0l.032-.205.614.097-.065.41-.41-.065c.068-.17.01-.248-.171-.237zm.742-.722c-.01.07 0 0 0 0zm0 0l.033-.207.206.033-.032.207zm-5.081-1.018c-.01.07 0 0 0 0zm0 0l.032-.206.206.032-.032.207zm5.686-.148l.032-.207.41.065c-.068.17-.01.249.171.238l-.032.207-.41-.065c.068-.17.01-.248-.171-.237 0 0-.012.07 0-.001zm-5.63-1.528l.065-.41.206.032c-.023.138-.043.274-.065.41-.07-.01-.137-.02-.206-.032 0 0-.021.136 0 0zm.57-.96h.001v.001c-.021.136 0-.001 0-.001zm.001 0l.065-.41.409.064-.065.41zm9.833 45.342c-.002.152-.081.196-.238.135.011.182-.068.24-.237.173a2.159 2.159 0 01-.132.61l-.17-.028.033-.207a5.927 5.927 0 01-1.018-.197l.027-.17c.136.02.273.043.409.065.03-.057-.01-.208.067-.2l.375.06c.029-.057-.01-.208.066-.2l.58.092c-.011-.183.068-.24.237-.173 0 0-.002.042 0 .04zm.007-.037l.031-.198.207.032.064-.41-.409-.065c-.029.056.01.207-.066.2l-.784-.125-.033.207-.206-.032-.032.204-.205-.032c-.03.057.01.208-.066.2l-.784-.124-.066.41c.058.03.208-.01.2.066l-.092.582a.942.942 0 01-.404-.099l.093-.582c-.182.011-.24-.068-.172-.237l-.614-.098c-.024.138-.044.274-.065.41l-.207-.031-.032.206c.181-.011.239.068.172.238.208.014.413.058.609.132l-.028.17c-.07-.01-.137-.02-.206-.032-.029.057.01.208-.066.2l-.375-.06c-.03.057.009.208-.066.2l-.376-.06-.065.41c.057.03.207-.009.2.067l-.027.171-.41-.064c-.029.056.01.207-.067.199a.777.777 0 01-.371-.094c.018-.125.04-.252.06-.376l-.207-.032.032-.207-.409-.066a.939.939 0 01.1-.405l.99.158.129-.82a.937.937 0 01-.404-.1l.06-.376-.614-.097c-.03.056.01.207-.066.2a5.633 5.633 0 01-.984-.192l.06-.376c-.137-.024-.273-.043-.41-.066l.033-.206-.41-.065.033-.207c-.136-.023-.273-.043-.409-.064l-.097.615.818.13-.032.207c.056.029.206-.01.199.066l-.027.171c-.211-.112-.207.075-.272.166l-.17-.028.032-.207-.818-.13.098-.615c-.182.011-.24-.068-.173-.238l-.614-.097.033-.207-.41-.065c-.023.137-.043.274-.064.41.057.03.207-.009.2.067l-.125.786c-.48-.059-.957-.146-1.427-.262l.028-.17.206.032a2.16 2.16 0 01.131-.61l.17.027-.032.207c.182-.01.239.068.172.238l.41.064c.023-.136.043-.273.064-.41-.057-.029-.206.01-.199-.066.04-.262.082-.524.124-.787-.205-.032-.408-.065-.614-.096l-.032.204-.207-.032c-.029.057.01.207-.067.2l-.375-.06.065-.41.206.032.13-.82a83.994 83.994 0 01-.409-.066l.033-.205c-.182.01-.24-.068-.173-.237a11.9 11.9 0 01-.206-.033l.032-.205-.818-.13.032-.207c-.182.011-.24-.068-.172-.238-.182.012-.239-.067-.172-.238l-.614-.097.033-.206c-.057-.03-.207.01-.2-.067l.06-.376-.41-.065c-.01.07-.02.138-.032.207l-.206-.032c-.029.056.01.207-.066.2l-.58-.093a.94.94 0 01.1-.405l.577.093c.023-.137.043-.275.065-.411a217.95 217.95 0 01-.819-.13c-.028.057.01.208-.066.2l-.17-.027c.023-.137.043-.273.065-.41l.206.032c.029-.057-.01-.207.066-.2l.58.092.065-.41-1.637-.26c-.029.056.01.208-.066.2l-.375-.06a.933.933 0 01-.099.405l-.17-.027.065-.41c-.057-.03-.207.009-.2-.067 0-.13.033-.257.094-.372l.17.027-.032.207.41.065c.028-.057-.01-.208.066-.2l.58.092c.023-.137.042-.273.064-.41l.206.032.033-.207.204.032c.01-.07.021-.138.033-.206-.182.01-.24-.069-.173-.238-.07-.01-.138-.022-.206-.033l.032-.206c-.181.01-.239-.069-.172-.238-.182.01-.239-.068-.172-.238l-.41-.065.033-.206c-.057-.03-.207.01-.2-.067l.125-.785-.41-.066c.01-.07.022-.139.033-.207-.057-.03-.207.01-.2-.066l.023-.165.41.065-.033.207.206.032c-.01-.182.068-.239.237-.172l.065-.41-.41-.065.033-.207a.93.93 0 01-.404-.1c.01-.056.018-.113.027-.17l.205.032.065-.41.206.033c.024-.137.044-.274.065-.41-.057-.03-.207.009-.2-.068l.125-.786c-.057-.028-.208.01-.2-.066.018-.125.04-.252.06-.376l-.41-.065.324-2.052c-.057-.03-.207.01-.2-.067l.06-.375c-.056-.03-.206.01-.199-.067 0-.13.032-.258.094-.372l.577.092.098-.616c-.057-.03-.207.01-.2-.067l.093-.581c-.057-.03-.207.01-.2-.066l.027-.172.206.033.033-.207c-.181.011-.239-.068-.172-.238-.057-.03-.207.01-.2-.066l.06-.377.206.033.033-.207c-.182.012-.24-.068-.173-.238-.181.012-.239-.068-.172-.237-.057-.03-.207.01-.2-.067l.06-.376.204.033c-.01-.182.068-.24.238-.173l.04-.4.207.033.324-2.051.206.032c-.01-.182.068-.24.238-.173-.011-.182.067-.239.237-.172l.097-.616c-.057-.029-.207.01-.2-.067l.06-.375.205.032.032-.207c-.182.01-.239-.067-.172-.237-.057-.03-.207.01-.2-.067l.028-.17c.273.042.545.088.818.129-.011-.182.068-.24.237-.173l.033-.206.206.032.065-.41.206.032c.024-.137.043-.273.065-.41l.206.032.097-.615.206.032.065-.41-.207-.032.033-.207c-.057-.029-.207.01-.199-.067 0-.13.032-.258.093-.372l.375.06.033-.207.206.032.066-.41.206.033.097-.616.207.032c.023-.136.043-.274.064-.41.07.01.139.021.207.033.029-.057-.01-.208.066-.2.126.018.252.039.375.06l.098-.616a.937.937 0 01-.404-.099l.027-.171.614.097.032-.206c.07.01.138.02.206.032-.01-.182.069-.24.238-.173l.292-1.846c.07.01.138.021.206.033l.032-.207a.94.94 0 01-.404-.099l.028-.171.206.032.065-.41.206.032.033-.204c-.057-.03-.207.009-.2-.068l.028-.17.32.106-.033.207.207.032c.023-.136.043-.274.064-.41l.207.032c.029-.057-.01-.208.066-.2l.375.06.098-.615c-.057-.03-.207.009-.2-.067 0-.13.032-.258.094-.372l.578.092.032-.207.207.032.097-.615c.07.01.137.022.206.033l.065-.41.206.032.065-.411.207.033.162-1.025c-.057-.03-.207.009-.2-.067l.028-.171.206.033c.03-.058-.01-.208.066-.2l.58.092.065-.41c-.057-.03-.207.009-.2-.067l.028-.171.614.097.097-.615.206.032.097-.615.206.032c-.011-.181.068-.24.237-.172-.011-.182.068-.24.237-.173l.032-.207.207.033c-.011-.182.067-.24.237-.173l.097-.615.206.033.13-.821.206.033c-.011-.183.068-.24.237-.173.03-.057-.009-.208.067-.2l.375.06c-.011-.182.068-.24.237-.173l.097-.615.206.032c.023-.137.044-.274.065-.41l.206.032c-.01-.182.067-.24.237-.173l.032-.206.207.032c.023-.137.043-.273.064-.41l.206.032.033-.207c-.057-.03-.207.01-.2-.066l.028-.171.206.032c-.011-.182.068-.24.237-.173.025-.277.08-.55.165-.815l.58.092c-.01-.182.068-.24.237-.173-.011-.182.068-.24.237-.172l.032-.207.207.033.032-.207c.07.01.138.021.207.033.023-.138.043-.275.064-.41l.207.031.064-.41.206.033c-.01-.182.068-.24.237-.173.014-.209.058-.414.132-.61l.375.06.032-.206.206.033c.029-.058-.01-.208.066-.2l.376.06.13-.821.206.032c-.012-.182.067-.24.236-.172-.011-.182.068-.24.238-.173-.012-.181.067-.239.236-.172.026-.277.081-.55.165-.815l.578.091.065-.41.206.033c-.011-.182.068-.24.238-.173l.031-.207.207.033c-.012-.182.067-.24.237-.173l.064-.41c.07.01.139.022.207.033-.012-.183.067-.24.237-.174.023-.136.043-.274.064-.41l.207.033.064-.41.41.065c.029-.057-.01-.208.066-.2l.375.06c-.01-.183.068-.24.237-.173l.032-.207.207.032a.942.942 0 01.099-.404l.375.06c-.011-.183.068-.24.237-.173l.065-.41.206.032.033-.207.206.032c.029-.056-.009-.206.067-.2l.375.06.032-.206.207.032c-.012-.182.067-.24.237-.172-.012-.182.067-.24.236-.173l.033-.207.206.032c-.011-.181.068-.239.237-.172l.032-.207.207.033c-.011-.182.068-.24.236-.173l.033-.206.206.033c-.011-.183.068-.24.237-.173-.011-.182.068-.24.238-.173l.032-.207.206.033.032-.208.207.033c-.01-.182.068-.239.237-.172l.065-.41.409.064.032-.207.207.032.032-.207.207.033c.028-.057-.01-.207.066-.2l.375.06.064-.41.207.032.064-.41c.137.021.273.042.41.065.03-.057-.01-.208.066-.2l.375.06.033-.207.206.033.033-.207.206.032.032-.207.207.033c.03-.057-.01-.208.067-.2l.375.06c.023-.137.043-.274.064-.411l.207.032c-.01-.181.068-.24.237-.173-.012-.18.067-.238.237-.172.029-.057-.01-.207.066-.199l.58.092.032-.207.207.033.032-.207.206.033a.933.933 0 01.1-.405l.374.06c.03-.058-.01-.208.067-.2l.375.06c-.01-.182.067-.24.237-.173l.032-.207.207.033.032-.207.206.032.032-.207.207.032.032-.206.207.032c-.011-.182.068-.24.237-.173.029-.056-.01-.206.066-.2l.578.093c.029-.057-.01-.207.067-.2l.375.06c-.01-.183.067-.24.237-.173l.032-.206.206.032c.03-.056-.01-.207.067-.2l.375.06.065-.41.409.066.032-.207.207.032.064-.41.614.098c.03-.058-.01-.209.066-.2l.58.092c-.01-.182.068-.24.237-.172.03-.058-.009-.208.067-.2l.99.157c.03-.058-.01-.208.067-.2l.375.06c.029-.057-.01-.207.066-.2l.375.06c.03-.057-.01-.208.067-.2l.58.092c.028-.057-.01-.207.066-.2l.17.027c-.01.07-.02.139-.032.207l.207.032c.028-.056-.01-.206.066-.198l.99.156c.03-.057-.01-.207.067-.199l.58.092c-.012-.182.067-.24.236-.173.03-.057-.009-.207.067-.2l1.193.19c.03-.057-.01-.207.067-.2l.17.028-.032.207.614.097c.028-.057-.01-.207.066-.2l1.194.19c.029-.057-.01-.208.066-.2l.373.057.065-.41.41.064-.033.207c.276.025.549.08.813.165l-.06.377.207.032c.029-.057-.01-.207.066-.2.333.035.662.099.983.192l-.059.376.597.104c.029-.057-.01-.207.066-.2l.58.093-.032.207c.181-.011.238.068.172.237l.613.098-.032.207.614.097-.032.205.818.13-.033.207c.345.036.685.101 1.018.197l-.06.376.207.032-.033.207.207.032-.033.207.206.032c-.01-.182.068-.239.237-.172.029-.057-.01-.208.067-.2.125.018.25.04.375.06l-.033.206c.182-.01.24.068.172.238l.819.129c.028-.057-.01-.207.066-.2l.17.028c-.01.07-.02.138-.032.207l.206.032c-.01-.182.069-.239.237-.172a.952.952 0 01.1-.405l.17.027-.098.616.615.097c.023-.137.042-.274.064-.41l.206.032c-.011-.182.068-.24.237-.173l.097-.615.207.032.065-.41c.07.011.138.021.206.033l.097-.616.207.032.194-1.23.206.032c-.01-.182.069-.239.237-.172.03-.057-.009-.208.067-.2l.375.06c.043-.274.088-.547.13-.821l.206.032.032-.206.204.032.033-.207c-.057-.029-.207.01-.199-.067l.027-.171.206.033c.026-.277.081-.551.165-.816l1.398.222.065-.41a59.746 59.746 0 01-.41-.065l.098-.615c-.057-.03-.207.01-.2-.067l.06-.376c-.07-.01-.138-.022-.206-.033l.032-.206c-.057-.03-.207.01-.2-.067.021-.125.04-.252.06-.376-.181.011-.239-.068-.172-.237-.181.01-.24-.068-.173-.238-.181.012-.238-.068-.171-.237-.182.01-.24-.069-.172-.238-.182.011-.24-.068-.173-.237l-.206-.032.032-.207L77 6.81c.01-.07.021-.138.033-.207-.182.011-.24-.068-.172-.237-.182.011-.24-.068-.173-.238a2.158 2.158 0 01-.609-.131c.019-.126.04-.252.06-.376l-.409-.066.032-.206-.409-.066c.01-.07.022-.138.033-.207-.182.011-.24-.068-.173-.238l-.409-.064c.01-.07.022-.139.033-.207-.182.01-.24-.069-.173-.238l-.613-.097.032-.207-.409-.065c.01-.07.022-.138.033-.207-.274-.043-.546-.088-.819-.13.01-.07.022-.138.033-.207l-1.024-.162.033-.207-.33-.117.033-.206-1.228-.196.033-.206-.206-.033c-.03.057.01.207-.067.2l-.17-.027.032-.207-.614-.097c-.028.057.01.207-.066.2l-.375-.06.032-.207-.614-.097.033-.207-.205-.032c-.029.057.01.207-.066.2l-.375-.06.032-.207-.206-.032c-.03.058.01.208-.067.2l-.99-.157.032-.207-.818-.13.032-.206c-.34-.053-.682-.107-1.022-.163.01.182-.068.24-.238.173-.029.057.01.207-.066.2l-.375-.06.032-.207-.613-.098.032-.206-.41-.065c-.028.057.01.207-.066.2l-.784-.125c-.03.058.01.208-.066.2l-2.012-.32c-.03.058.01.209-.067.2l-.578-.091c-.029.057.01.207-.067.2L57.48.673c-.03.057.01.207-.066.2l-.58-.093c-.03.057.01.208-.067.2L56.19.889c-.03.057.009.207-.067.2L55.34.963c-.03.057.01.208-.067.2l-.58-.092c-.028.057.01.207-.066.2l-.375-.06c-.029.057.01.207-.066.2l-.784-.125c-.03.057.01.208-.066.2l-.376-.06c-.029.057.01.208-.066.2l-.58-.092c-.029.057.01.208-.066.2l-.375-.06c-.029.057.009.208-.067.2l-.375-.06c-.029.058.01.208-.067.2l-.577-.092-.033.207-.206-.032c-.03.057.01.207-.066.2a53.92 53.92 0 01-.58-.093l-.032.207-.207-.032-.032.207-.206-.032c-.03.056.009.207-.067.2l-.58-.093-.032.207-.206-.033c-.03.057.01.208-.067.2l-.375-.06-.032.207-.207-.032c-.029.057.01.208-.066.2-.125-.018-.25-.04-.375-.06-.03.058.01.207-.067.2-.124-.018-.25-.04-.374-.06-.03.058.009.208-.067.2l-.578-.092c-.011.07-.021.139-.033.207l-.206-.032-.032.207-.206-.033c-.03.057.01.207-.067.2l-.375-.06c-.03.057.01.207-.067.2l-.375-.06-.032.207-.206-.032c-.03.057.01.207-.067.2l-.375-.06c.011.182-.068.24-.237.172l-.032.207-.206-.033c-.03.058.009.208-.067.2l-.578-.091-.032.207-.207-.033-.065.41c-.07-.01-.138-.02-.206-.032-.029.058.01.208-.066.2l-.375-.06-.033.208-.204-.033a.94.94 0 01-.1.405l-.374-.06c-.01.07-.021.138-.033.207l-.206-.033c-.029.057.01.208-.066.2l-.375-.06-.033.207-.206-.033c-.03.058.01.209-.067.2l-.375-.059a.933.933 0 01-.099.404l-.375-.059-.032.207-.207-.033-.032.207-.207-.032c-.01.07-.02.138-.032.206l-.206-.032c.01.181-.068.24-.237.173l-.032.204-.207-.032c-.03.057.01.207-.066.2l-.375-.06-.033.207-.206-.032c.011.182-.068.24-.237.173-.01.07-.022.138-.033.206l-.206-.031c-.03.056.01.207-.067.2l-.375-.06-.032.206-.206-.032-.033.207-.206-.032c.01.181-.068.24-.237.173.01.182-.068.239-.237.172.011.182-.068.24-.237.173l-.032.207a6.868 6.868 0 01-.207-.033l-.032.207-.207-.032c.011.181-.067.24-.236.172.01.183-.068.24-.237.173l-.065.41-.206-.032c-.03.057.01.208-.066.2l-.375-.06-.033.205a6.332 6.332 0 01-.206-.033c-.011.07-.021.14-.033.208l-.206-.033c.012.181-.067.239-.237.172.011.182-.068.24-.237.173.01.182-.068.24-.237.173l-.065.41c-.07-.01-.138-.022-.206-.033.01.182-.068.24-.237.173l-.032.207a6.396 6.396 0 01-.207-.033c.01.183-.067.24-.237.173-.028.057.01.208-.066.2l-.375-.06c-.01.069-.022.137-.033.205l-.206-.032-.065.41-.409-.065-.032.207-.207-.033-.032.207-.207-.033c.012.182-.067.24-.237.173.01.182-.067.24-.237.172a.938.938 0 01-.098.405l-.376-.06-.032.207-.206-.032c-.01.07-.022.138-.033.206l-.206-.031-.032.206-.206-.032-.065.41-.207-.032-.064.41-.207-.033a14.9 14.9 0 01-.032.207l-.205-.032-.032.204c-.07-.01-.138-.02-.206-.032.01.183-.068.24-.237.173.01.182-.068.24-.237.172.011.183-.068.24-.237.174.011.182-.068.24-.237.172-.01.07-.022.139-.033.207l-.206-.033-.032.207-.207-.032c.011.182-.068.24-.237.173.011.182-.068.24-.237.172.012.182-.068.24-.237.173l-.065.41-.206-.032c.011.182-.068.24-.237.173l-.065.41-.206-.033c-.024.137-.044.274-.065.41l-.206-.032c.01.182-.069.24-.238.173.012.182-.067.24-.237.172l-.032.207-.206-.032c.01.182-.068.24-.237.173l-.033.207-.206-.033-.065.41-.206-.032c-.03.057.009.207-.067.2l-.375-.06-.033.207-.204-.032-.065.41-.206-.033-.065.411c.057.029.207-.01.2.067a.797.797 0 01-.094.37l-.375-.06c.01.183-.068.24-.237.173-.01.07-.022.139-.033.207l-.206-.033c.011.183-.068.24-.237.173l-.032.207-.207-.032-.032.206-.185-.036-.032.205-.207-.033c-.023.137-.043.275-.064.41l-.207-.031-.065.41c-.07-.01-.138-.022-.206-.033l-.032.207-.206-.032c.01.182-.068.239-.238.172.011.182-.068.24-.237.173l-.032.207c-.07-.01-.139-.022-.207-.033l-.065.41-.206-.032-.065.41-.206-.032c.01.182-.068.24-.237.172l-.033.207-.206-.032c.011.182-.068.24-.237.172a2.14 2.14 0 01-.131.61l-.375-.059c-.024.136-.044.273-.065.41l-.207-.032c-.023.136-.043.273-.064.41l-.207-.032c-.023.136-.043.273-.065.41l-.206-.033.012.359-.207-.032c.011.182-.068.24-.237.173l-.065.41-.206-.033-.065.41-.205-.032c.012.182-.067.24-.237.173.011.182-.068.24-.237.173l-.097.615-.206-.032c-.024.136-.043.273-.065.41l-.207-.032c.011.181-.067.24-.236.173-.024.136-.044.273-.066.41l-.206-.033c-.024.137-.044.274-.065.41l-.206-.032c.01.182-.068.24-.237.173l-.065.41-.206-.032c.01.181-.068.239-.238.172l-.064.41-.207-.032c.011.182-.067.24-.237.173l-.097.615-.206-.032c-.024.137-.043.273-.065.41l-.207-.033-.032.207-.204-.032-.098.615-.206-.032-.097.615-.207-.033-.032.207c.057.029.207-.01.199.067-.01.056-.018.114-.027.17l-.206-.032c.01.182-.068.24-.238.173.011.182-.067.239-.236.172l-.098.616c-.07-.011-.138-.023-.206-.032l-.032.206-.207-.032c.012.182-.067.24-.237.173l-.097.615-.207-.032-.065.41-.206-.032-.097.615c.056.03.206-.01.199.066l-.092.582-.206-.033-.033.205-.206-.032c-.01.07-.022.138-.033.207a16.402 16.402 0 00-.204-.033c.011.182-.068.24-.237.172-.024.137-.043.274-.065.41l-.206-.032-.065.41-.206-.032-.065.41-.207-.032c-.023.137-.043.273-.064.41l-.207-.032-.194 1.23c.057.03.207-.01.2.067l-.028.171-.206-.032c-.03.056.01.207-.066.2l-.375-.06-.033.207-.206-.033c-.011.07-.021.139-.033.207l-.206-.033-.032.207c.056.03.207-.01.199.067-.018.125-.04.251-.06.376l-.205-.033c.011.182-.068.24-.237.173l-.195 1.23-.204-.032-.033.207-.206-.032c.01.182-.067.239-.237.172-.075.479-.15.958-.227 1.436l-.206-.032-.13.82-.206-.032c.011.182-.068.24-.237.173l-.065.41-.206-.033-.065.41c.057.03.207-.01.2.068l-.028.17c-.07-.01-.138-.02-.206-.033l-.033.207-.206-.032-.065.41-.206-.033-.097.616-.207-.033-.097.616c.057.029.207-.01.2.066-.018.126-.04.252-.06.377.057.028.207-.01.2.066l-.027.171-.207-.033-.097.616-.206-.032-.195 1.23c-.07-.01-.138-.02-.206-.033l-.065.411-.207-.032-.13.82c.057.029.207-.009.2.067l-.124.786c-.07-.01-.139-.022-.207-.031l-.097.614c-.07-.01-.138-.02-.206-.032L.6 54.98c.182-.011.24.068.172.237.057.029.207-.01.2.066l-.092.582-.206-.033-.033.207c.057.029.207-.01.2.067l-.092.581-.205-.032c-.086.546-.172 1.093-.26 1.64.058.03.208-.01.2.067l-.027.171-.206-.032-.065.41c.057.029.207-.01.2.067L.162 60.38c.07.012.138.023.206.032l-.032.207c.057.03.207-.01.2.067l-.157.993-.205-.033-.065.41c.057.03.207-.01.2.067l-.06.376c.057.03.207-.01.2.067-.019.128-.04.251-.06.376l-.206-.033-.097.616.204.032-.032.207c.057.03.207-.01.2.067l-.125.786-.206-.033c-.01.071-.022.14-.033.207.057.03.207-.009.2.067l-.189 1.196c.057.03.207-.008.199.067l-.026.172-.207-.033-.032.207c.056.028.207-.01.199.066l-.06.376c.057.03.207-.009.2.067l-.124.785-.206-.032-.033.207c.057.029.207-.01.199.066l-.092.582.207.032-.033.207c.182-.011.239.067.173.237.056.029.206-.01.199.067l-.124.786.206.032-.032.207.409.065-.032.207c.056.028.207-.01.199.066l-.027.17c-.07-.01-.138-.02-.206-.032l-.033.207c.182-.011.24.068.173.237l.613.098c-.023.136-.043.273-.065.41a6.802 6.802 0 01-.206-.033l-.032.207.409.065-.033.207c.182-.01.24.068.173.238.14.002.278.036.403.1l-.027.17-.204-.032-.033.207-.206-.032-.032.206-.207-.032-.032.206c.056.03.206-.01.199.067l-.157.993c.182-.01.24.069.172.238l.207.032-.033.207c.181-.011.239.068.172.238l.614.097-.065.41c-.068-.01-.137-.02-.204-.032l-.033.207c.181-.011.239.068.172.237.057.03.207-.01.2.067-.018.126-.04.252-.06.376.057.03.207-.01.2.067-.018.125-.04.252-.06.376l.207.033-.033.207c.182-.012.24.067.172.237l.41.065-.033.207c.181-.011.239.068.172.237.057.03.207-.01.2.067l-.092.58.206.034-.032.207.613.097-.032.207.206.032c.03-.057-.009-.207.067-.2.129 0 .256.033.37.094l-.027.17-.206-.031-.066.41c.058.03.208-.01.2.067-.018.125-.04.251-.06.375.058.03.207-.008.2.067-.018.125-.04.253-.06.376.205.034.408.065.615.098.029-.057-.01-.207.066-.2l.165.02-.065.41c.181-.01.239.067.172.238l.206.032-.032.207c.181-.012.239.068.172.237.057.03.207-.01.2.067l-.06.376.818.13c.03-.057-.01-.207.067-.2.13 0 .257.033.371.094l-.157.993.41.065-.033.207.41.065-.033.207c.181-.01.239.068.172.238a5.96 5.96 0 011.018.196c-.018.125-.04.252-.06.376l.41.065-.033.205c.07.01.139.022.207.033l-.033.207.403.047-.032.206.409.065-.033.207c.182-.011.24.068.172.237.273.044.546.088.819.13l-.032.207.613.098c.029-.058-.01-.208.066-.2l.375.059-.032.207.206.032-.032.207c.137.024.273.044.41.065l-.033.207.204.032c.03-.057-.01-.208.067-.2l.577.092c.03-.056-.009-.207.067-.2a.78.78 0 01.372.095c-.018.125-.04.252-.06.376l.614.097-.032.207.818.13c.029-.057-.01-.208.066-.2l.784.124-.032.207.206.033-.032.207.206.032c.03-.057-.01-.207.066-.2l1.398.222c.03-.056-.01-.207.066-.2l.376.06-.033.207 1.023.162.032-.206.207.032c.028-.056-.01-.207.066-.2l.58.093-.033.206.41.065-.033.207.206.032c.029-.057-.01-.207.066-.2l.376.06c.028-.057-.01-.207.066-.2l.375.06c.03-.057-.01-.207.067-.2l.577.092c.03-.056-.009-.207.067-.2l.17.028c-.01.07-.02.139-.032.207l.41.065.064-.41 1.432.227.065-.41.207.032c.028-.057-.01-.207.066-.2l.375.06c.029-.057-.01-.207.066-.2l.376.06c.029-.057-.01-.207.066-.2l.17.027-.032.207.613.097c-.01-.181.069-.24.238-.173.023-.136.043-.273.065-.41-.057-.029-.208.01-.2-.067l.06-.375.206.032c.03-.057-.01-.208.067-.2l1.194.19c.028-.058-.01-.207.066-.2l1.398.222.097-.615c-.057-.03-.207.009-.2-.067l.06-.377.39.07a40.1 40.1 0 00-.032.208l.206.032c-.01-.182.068-.24.237-.173.03-.056-.01-.208.066-.199l.578.092c.024-.137.044-.274.065-.41l.206.032.033-.207.206.032c.01-.069.022-.138.033-.206-.058-.03-.208.01-.2-.067l.027-.17c.07.01.138.02.206.032l-.032.205c.182-.01.239.068.172.238.057.029.207-.01.2.066l-.092.581.818.13c.01-.07.022-.138.033-.207l.206.033c-.011-.182.068-.24.237-.172a.937.937 0 01.1-.405l.17.027-.066.41.207.033c-.011-.183.068-.24.237-.173.023-.137.043-.274.065-.41-.057-.03-.207.009-.2-.067l.028-.171.206.032.097-.615c-.07-.01-.138-.022-.206-.033-.03.058.01.208-.067.2-.725-.138-1.553-.2-2.21-.386l.026-.171.206.032c.03-.057-.009-.207.067-.2l.375.06.065-.41.614.097.032-.206.206.032c.01-.07.022-.138.033-.206l.206.032a.93.93 0 01.099-.405l.375.06.032-.205.206.032c.03-.057-.009-.208.067-.2l.58.092-.033.207.206.032c.03-.057-.01-.207.067-.2.127.018.251.04.375.06l.033-.207.206.032c.029-.057-.01-.206.066-.2l.375.06c.03-.057-.01-.207.067-.199l.174.026c-.024.138-.043.274-.065.41l.207.033-.033.207c.181-.01.24.068.172.238.057.029.207-.01.2.066l-.028.172-.206-.033c-.03.057.01.207-.066.2l-.376-.06.033-.207-1.023-.162c-.03.056.01.207-.066.2l-.376-.06c-.029.057.01.207-.066.2l-.375-.06.032-.205-.206-.033c-.023.137-.043.273-.065.41l-.409-.064-.097.615.818.13-.032.207.606.115c.029-.057-.01-.208.066-.2l.17.027-.032.207.614.097c.024-.136.043-.273.065-.41.136.023.273.044.41.065.028-.057-.01-.207.065-.2l.784.124.033-.206.206.032c.01-.07.022-.139.033-.207l.206.032c.03-.057-.009-.207.067-.199l.577.092c.024-.137.044-.274.065-.41l-.41-.065.033-.207c-.057-.03-.207.01-.199-.067l.027-.172.614.098-.032.207.409.065-.033.207.206.032c-.01-.182.068-.24.237-.172l.065-.411c-.057-.029-.207.01-.199-.066.01-.057.018-.115.027-.172l.204.033c.03-.057-.009-.207.067-.2l.375.06c.03-.057-.01-.207.066-.2l.784.124.033-.207.206.033c.029-.057-.01-.207.067-.2l.784.124c.023-.136.043-.273.064-.41-.136-.024-.272-.044-.408-.065a.938.938 0 01.098-.405l.375.06c.03-.058-.01-.207.067-.2.125.018.251.04.375.06l.032-.207.207.032.032-.205c.07.01.138.022.207.033l.096-.616-1.022-.162.032-.207c-.057-.029-.207.01-.2-.066l.028-.171 1.84.292.066-.41.206.032c.03-.057-.01-.207.067-.199l.375.06.064-.41-.206-.033.032-.207-.409-.065a17.1 17.1 0 01-.032.207c-.07-.01-.138-.022-.207-.033-.029.058.01.208-.066.2a15.863 15.863 0 01-.17-.027c.023-.136.043-.273.064-.41l-.41-.065.033-.207-.409-.065-.032.207-.204-.033-.033.207-.206-.033c-.03.057.01.207-.067.2l-.784-.124.033-.207c-.137-.024-.273-.044-.41-.065-.029.056.01.208-.066.2l-.58-.093c.012.182-.067.24-.237.173-.023.137-.043.274-.064.41l.409.065-.032.207c.18-.01.238.068.172.238.056.03.206-.01.199.066-.018.126-.04.253-.06.377l-.206-.033c.011.182-.068.24-.237.173.011.182-.067.24-.237.172-.029.057.01.208-.066.2l-.58-.092.032-.207-.409-.065c-.029.058.01.208-.066.2l-.785-.124-.097.616.207.032c.029-.057-.01-.207.066-.2.928.171 1.962.265 2.824.484a25.88 25.88 0 01-.026.171l-.41-.066c-.028.058.01.208-.066.2l-.375-.06c.011.183-.068.24-.237.174-.024.137-.043.274-.065.41l-.41-.065.033-.207-.206-.032c-.03.057.01.207-.066.2l-.376-.06c-.023.136-.042.273-.064.41.057.029.206-.01.199.067l-.027.17-.614-.097.097-.616c-.18.011-.238-.067-.172-.237l-2.25-.357.032-.207-.206-.032c-.03.056.01.206-.067.2a5.661 5.661 0 01-.983-.192l.027-.171.206.032.033-.207.206.033c-.01-.182.068-.24.237-.173l.032-.206c.07.01.139.02.207.032.029-.057-.01-.208.066-.2l.375.06c.023-.137.043-.273.065-.41l.206.032c.03-.057-.009-.207.067-.2l.375.06c.029-.057-.01-.207.066-.2l.375.06.065-.41a90.4 90.4 0 01-.41-.065l.034-.207-.207-.033.032-.206c-.056-.03-.206.01-.198-.067l.108-.558.409.066-.032.207c.057.028.207-.01.2.066l-.06.376.41.065-.033.207.409.064.032-.206.206.033c.03-.058-.01-.208.067-.2l.577.092c.03-.058-.009-.208.067-.2l.375.06c.024-.137.044-.274.065-.41a.945.945 0 01-.404-.1l.028-.17.206.032.032-.207.206.032.065-.41-.205-.033.033-.207c-.07-.01-.138-.02-.207-.032l.033-.207-.206-.032c-.03.057.01.207-.066.2l-.376-.06-.13.82c.057.03.208-.009.2.067l-.027.171-.819-.13.033-.207-.206-.032.032-.206c-.057-.03-.207.01-.2-.067l.028-.17.206.031c-.01-.182.068-.239.237-.172.03-.057-.01-.208.067-.2l.577.092.13-.82.207.032c.029-.057-.01-.207.067-.2l.784.124-.033.207c.341.053.682.108 1.023.163l.033-.207c-.057-.03-.207.009-.2-.067l.027-.171c.137.024.273.043.41.065l.064-.41-.206-.032.032-.207c-.056-.03-.206.01-.198-.067.017-.125.04-.252.059-.376l-.614-.097c-.03.056.01.207-.066.2l-.58-.093.032-.207a33.592 33.592 0 00-.409-.065l-.033.205a6.606 6.606 0 01-.203-.033l-.034.207-.206-.032c.011.181-.068.239-.237.172l-.032.207-.207-.032c-.029.056.01.207-.066.199l-.784-.124.032-.207-.206-.032c-.03.056.01.207-.067.2a.78.78 0 01-.371-.095c.018-.124.04-.252.059-.376l.206.033c.03-.057-.009-.207.067-.2l.17.028-.032.206.409.065c.03-.056-.01-.207.067-.2l.375.06c.023-.137.043-.274.065-.41l.409.065.032-.207c-.181.011-.239-.068-.172-.237-.34-.053-.682-.108-1.023-.163-.029.057.01.207-.066.2l-.17-.027c.023-.137.042-.274.064-.41a40.063 40.063 0 01-.41-.066.952.952 0 01.1-.404l.375.06c-.012-.183.067-.24.237-.173l.097-.616-.206-.032.032-.207-.206-.033c-.03.057.01.207-.067.2l-.375-.06c-.03.057.01.207-.066.2l-.376-.06c-.029.057.01.208-.066.2l-.375-.06.032-.206-.614-.097c.01.18-.067.239-.237.171.011.183-.067.24-.237.174-.023.136-.043.273-.064.41l.613.097-.032.207.614.098-.032.207c.056.029.206-.01.199.066l-.027.17-.614-.097.032-.207-.41-.065c-.028.057.01.208-.065.2l-.375-.06c-.03.057.009.208-.067.2l-.58-.092c-.029.058.01.208-.066.2a.782.782 0 01-.372-.094l.06-.376.206.033.032-.207-.613-.098c.01.182-.068.24-.237.173a.94.94 0 01-.099.405l-.375-.06c-.03.057.01.207-.067.2l-.375-.06c.01-.07.022-.138.033-.206l-.41-.066.033-.206-.206-.033c.01.182-.069.24-.237.173-.024.136-.043.273-.065.41.057.03.207-.01.199.066-.018.126-.04.252-.06.376l.41.065c-.01.07-.022.139-.033.207a.95.95 0 01.404.099l-.027.171-.818-.13c-.03.057.01.208-.067.2l-.17-.027.032-.206-.204-.034.032-.206-.206-.032.032-.207-.206-.033c-.03.057.01.208-.067.2l-.375-.06-.097.616c.057.028.207-.01.2.066-.027.047.011.183-.062.166l-.17-.027.032-.207-.206-.032c-.03.056.01.207-.067.2l-.58-.092c-.028.056.01.207-.066.199z"/></svg>