<svg xmlns="http://www.w3.org/2000/svg" width="405" height="82" viewBox="0 0 405 82"><path fill="#a1a1a1" d="M294.2 23.614c0 1.115.01 2.15-.01 3.184-.003.136-.14.284-.242.402-4.166 4.79-6.905 10.29-7.966 16.575-.892 5.28-.364 10.393 2.228 15.167 1.954 3.6 4.84 6.283 8.307 8.367 3.872 2.329 8.09 3.746 12.474 4.695 7.712 1.67 15.524 1.982 23.37 1.582a159.73 159.73 0 0011.07-.936c5.543-.671 10.99-1.88 16.373-3.37 6.822-1.89 13.475-4.241 19.808-7.448 1.21-.613 2.391-1.283 3.643-1.958.01.192.024.36.024.527.001 2.77-.007 5.541.01 8.311.003.394-.117.598-.466.785-5.156 2.758-10.576 4.862-16.14 6.606a132.62 132.62 0 01-18.628 4.38c-7.883 1.268-15.817 1.798-23.797 1.474-6.697-.272-13.3-1.174-19.718-3.207-5.243-1.661-10.143-3.993-14.379-7.589-4.915-4.173-7.943-9.42-8.993-15.84-1.356-8.289.466-15.834 5.063-22.765 2.171-3.273 4.802-6.14 7.716-8.75.056-.05.12-.091.253-.192zm91.46 31.267v-.609c0-1.825.023-3.651-.013-5.476-.01-.52.149-.803.59-1.082 4.186-2.651 7.525-6.11 9.658-10.64 3.972-8.439 1.944-17.77-5.138-23.844-3.085-2.647-6.639-4.442-10.444-5.763-4.054-1.408-8.236-2.212-12.494-2.668-4.875-.523-9.757-.56-14.644-.251-4.928.312-9.814.973-14.659 1.938-9.055 1.804-17.804 4.58-26.216 8.413-1.542.703-3.06 1.462-4.665 2.231 0-.761-.02-1.486.018-2.208.007-.137.225-.294.378-.387a92.325 92.325 0 0111.084-5.714c7.073-3.078 14.404-5.318 21.962-6.802C348.26.608 355.51-.098 362.836.075c5.79.137 11.516.799 17.125 2.307 4.938 1.327 9.624 3.237 13.81 6.247 4.387 3.154 7.704 7.157 9.297 12.411 2.126 7.017 1.388 13.8-2.081 20.225-3.234 5.988-7.98 10.395-14.192 13.163-.349.155-.71.284-1.134.453zm-14.494-10.617h-15.99c-.139 2.172 1.016 4.793 3.784 5.427 2.722.624 5.245.193 7.314-1.886.08-.08.167-.153.292-.266l3.91 3.755c-1.57 1.605-3.323 2.858-5.466 3.45-2.853.786-5.725.816-8.567-.058-2.965-.912-5.19-2.777-6.358-5.671-1.789-4.429-1.877-8.944.075-13.343 1.655-3.729 4.663-5.775 8.67-6.307 2.878-.381 5.58.086 7.945 1.905 1.136.873 2.02 1.966 2.706 3.225 1.709 3.135 1.879 6.484 1.685 9.769zm-6.318-4.366c.023-3.417-1.99-5.563-5.05-5.34-3.18.233-4.718 2.69-4.615 5.34h9.665zm-54.06-10.231h3.452c3.172.002 6.345.003 9.517.009 1.223.002 2.42.156 3.552.656 2.3 1.015 3.47 2.883 3.88 5.295.098.575.129 1.167.13 1.751.009 5.688.005 11.375.005 17.063v.424h-6.333V37.634c0-.13.002-.26 0-.391-.019-1.417-.67-2.282-2.059-2.355-1.916-.102-3.842-.026-5.815-.026v20.013h-6.33V29.667zm25.282-6.837h6.35v6.832h4.748v5.148h-4.725c-.01.225-.025.398-.025.57-.002 3.879-.002 7.757 0 11.636 0 .163.003.326.015.488.103 1.393.75 2.01 2.147 2.032.744.012 1.489.003 2.233.003.2 0 .394-.019.394.284-.006 1.66-.003 3.32-.003 4.954-.057.046-.082.083-.106.083-1.984-.024-3.983.229-5.944-.262-2.784-.697-4.706-2.94-4.993-5.81a16.757 16.757 0 01-.087-1.657c-.006-7.855-.004-15.71-.004-23.564v-.737zm38.847-3.617h6.364v35.36c-3.036.191-5.87-2.218-6.262-5.321-.063-.5-.098-1.006-.098-1.51-.006-9.334-.004-18.67-.004-28.004v-.525zm-69.825 35.908c-2.878.197-5.74-2.1-6.22-5.018a12.135 12.135 0 01-.162-1.944c-.009-5.964 0-11.928.005-17.892V29.7h6.377v25.42zm-6.337-35.025h6.322v6.051h-6.322v-6.05zm89.502 4.236a2.636 2.636 0 01-2.624-2.642 2.636 2.636 0 012.624-2.642 2.636 2.636 0 012.624 2.642 2.636 2.636 0 01-2.624 2.642zm0-4.795a2.148 2.148 0 00-2.138 2.153c0 1.187.96 2.152 2.138 2.152a2.148 2.148 0 002.138-2.152c0-1.187-.96-2.153-2.138-2.153zm-1.087 3.342v-2.51h1.257c.285 0 .5.06.648.178.148.119.221.286.221.501 0 .326-.144.537-.434.633v.007c.26.035.39.212.39.53 0 .343.048.563.144.661h-.494c-.047-.072-.07-.195-.07-.369 0-.241-.034-.41-.103-.506-.076-.106-.216-.158-.42-.158h-.679v1.033zm.46-2.15v.783h.756c.3 0 .45-.134.45-.4 0-.256-.153-.384-.457-.384zM98.74 34.612l-6.705 6.728-12.249-12.29 6.706-6.727zm6.706 6.728l12.248 12.29-6.706 6.727L98.74 48.068zm-13.411 0l6.705 6.728-12.248 12.29-6.706-6.729zm13.41 0l-6.705-6.728 12.248-12.289 6.706 6.728zm56.868 6.732l-6.71-6.732 6.71-6.732 6.71 6.732zm-82.495-7.93v2.4a18.726 18.726 0 01-.146 1.476l-28.029-.015c-.006.064.22.695.225.708a9.547 9.547 0 001.653 2.816 9.516 9.516 0 007.299 3.401 9.516 9.516 0 007.299-3.4h10.718c-2.561 7.512-9.659 12.915-18.017 12.915-8.356 0-15.456-5.403-18.017-12.916a18.968 18.968 0 01-.732-2.856 19.048 19.048 0 01-.289-3.33c0-1.137.098-2.25.293-3.332.169-.981.416-1.933.73-2.856 2.562-7.513 9.66-12.916 18.015-12.916 8.358 0 15.452 5.403 18.013 12.916.319.923.563 1.875.735 2.856.123.698.208 1.41.25 2.133zm-10.032-2.133a9.544 9.544 0 00-1.667-2.856 9.516 9.516 0 00-7.3-3.4 9.516 9.516 0 00-7.298 3.4 9.548 9.548 0 00-1.668 2.856zM38.61 41.342v19.1h-9.48v-19.1c0-5.279-4.247-9.556-9.497-9.588-5.25.032-9.497 4.31-9.497 9.588v19.1H.656v-19.1a19.105 19.105 0 019.48-16.525 18.886 18.886 0 019.437-2.577v-.003l.06.001h.06v.002c3.439.021 6.662.955 9.438 2.577a19.105 19.105 0 019.48 16.525zm105.333 6.185h10.714c-2.56 7.513-9.658 12.916-18.017 12.916-10.513 0-19.037-8.553-19.037-19.105 0-10.548 8.524-19.1 19.037-19.1 8.359 0 15.456 5.402 18.017 12.915h-10.714a9.528 9.528 0 00-7.303-3.4c-5.277 0-9.557 4.29-9.557 9.585 0 5.3 4.28 9.59 9.557 9.59a9.528 9.528 0 007.303-3.4z"/></svg>