<svg xmlns="http://www.w3.org/2000/svg" width="30" height="27" viewBox="0 0 30 27"><path d="M.997 9.137a1.648 1.648 0 01.39-2.3L13.585.408a2.429 2.429 0 012.694 0l12.197 6.429a1.675 1.675 0 010 2.69L16.28 15.005a2.626 2.626 0 01-2.694 0L1.387 9.527a1.654 1.654 0 01-.39-.39zm1.486-.955l12.458 5.236 12.458-5.272L14.94 1.457zm-1.096 7.083c-.646-.35-.817-1.614-.817-2.313.817.466 1.958.96 1.913.96l12.458 5.728 12.44-5.765 1.913-.96c0 .718-.225 2.027-.818 2.314l-12.197 5.47a2.626 2.626 0 01-2.694 0l-12.198-5.47zm25.994 4.375l1.913-.95c0 .708-.225 2.026-.818 2.304l-12.197 5.47a2.59 2.59 0 01-2.694 0l-12.198-5.47C.741 20.654.57 19.381.57 18.69c.817.457 1.958.95 1.913.95l12.458 5.739z"/></svg>