<svg xmlns="http://www.w3.org/2000/svg" width="28" height="27" viewBox="0 0 28 27"><path fill="#fff" d="M18.807 18.59v3.385a5.078 5.078 0 01-5.08 5.074h-8.47a5.078 5.078 0 01-5.08-5.074v-3.384c0-2.222 1.439-4.089 3.428-4.776-1.083-1.46-1.735-3.333-1.735-5.373 0-4.67 3.413-8.457 7.622-8.457 4.21 0 7.622 3.786 7.622 8.457 0 2.04-.652 3.912-1.735 5.373 1.99.687 3.428 2.554 3.428 4.776zm-9.315-3.382c3.274 0 5.928-3.029 5.928-6.766s-2.654-6.766-5.928-6.766-5.928 3.029-5.928 6.766 2.654 6.766 5.928 6.766zm7.622 3.807c0-1.799-1.367-3.296-3.198-3.695-1.248.991-2.773 1.58-4.424 1.58-1.652 0-3.176-.589-4.424-1.58-1.832.4-3.198 1.896-3.198 3.695v2.537c0 2.102 1.862 3.806 4.158 3.806h6.928c2.296 0 4.158-1.704 4.158-3.806zm1.693-13.11c0-.467.379-.846.847-.846h6.775a.846.846 0 110 1.691h-6.775a.845.845 0 01-.847-.845zm8.469 5.074a.846.846 0 01-.847.846h-6.775a.845.845 0 110-1.69h6.775c.468 0 .847.377.847.844zm0 5.075a.847.847 0 01-.847.847h-5.081a.847.847 0 110-1.693h5.08c.469 0 .848.38.848.846zm0 5.075a.846.846 0 01-.847.846h-5.081a.846.846 0 110-1.692h5.08c.469 0 .848.379.848.846z"/></svg>