<svg xmlns="http://www.w3.org/2000/svg" width="26" height="27" viewBox="0 0 26 27"><path d="M23.777 14.42a4.503 4.503 0 01-3.512 3.522 4.497 4.497 0 01-5.302-3.521H1.383a.9.9 0 01-.899-.902.9.9 0 01.9-.902h13.58a4.503 4.503 0 013.511-3.521 4.497 4.497 0 015.302 3.521h.99a.9.9 0 01.898.902.9.9 0 01-.899.902zm-4.407 1.804a2.702 2.702 0 002.698-2.705 2.702 2.702 0 00-2.698-2.706 2.702 2.702 0 00-2.698 2.706 2.702 2.702 0 002.698 2.705zm-8.184 7.215a4.503 4.503 0 01-3.512 3.522 4.497 4.497 0 01-5.301-3.522h-.99a.9.9 0 01-.899-.902.9.9 0 01.9-.902h.989a4.503 4.503 0 013.512-3.521 4.497 4.497 0 015.301 3.521h13.58a.9.9 0 01.9.902.9.9 0 01-.9.902zM6.78 25.243a2.702 2.702 0 002.698-2.706 2.702 2.702 0 00-2.698-2.705 2.702 2.702 0 00-2.699 2.705 2.702 2.702 0 002.699 2.706zm8.004-19.84a4.503 4.503 0 01-3.512 3.521A4.497 4.497 0 015.97 5.403H1.384a.9.9 0 01-.9-.902.9.9 0 01.9-.902H5.97A4.503 4.503 0 019.482.077 4.497 4.497 0 0114.784 3.6h9.982a.9.9 0 01.9.902.9.9 0 01-.9.902zm-4.407 1.803a2.702 2.702 0 002.698-2.705 2.702 2.702 0 00-2.698-2.706 2.702 2.702 0 00-2.698 2.706 2.702 2.702 0 002.698 2.705z"/></svg>