<svg xmlns="http://www.w3.org/2000/svg" width="29" height="29" viewBox="0 0 29 29"><path fill="#111" d="M26.357 21.525a3.577 3.577 0 11-4.346 4.346H7.452a3.577 3.577 0 11-4.346-4.346V6.967A3.577 3.577 0 117.452 2.62h14.559a3.577 3.577 0 114.346 4.346zm-2.683-18.01a1.788 1.788 0 103.577 0 1.788 1.788 0 00-3.577 0zM4 5.303a1.788 1.788 0 100-3.577 1.788 1.788 0 000 3.577zm1.79 19.674a1.789 1.789 0 10-3.578 0 1.789 1.789 0 003.578 0zm18.78-3.452V6.967a3.577 3.577 0 01-2.558-2.558H7.452a3.577 3.577 0 01-2.558 2.558v14.558a3.577 3.577 0 012.558 2.558h14.559a3.577 3.577 0 012.557-2.558zm2.682 3.452a1.789 1.789 0 10-3.577 0 1.789 1.789 0 003.577 0z"/></svg>