<svg xmlns="http://www.w3.org/2000/svg" xmlns:xlink="http://www.w3.org/1999/xlink" viewBox="0 0 1465.3 137.1"><style>.st0{fill:#a1a1a1}</style><g id="logo"><path class="st0" d="M64.9 67.4c0-5.8 1.8-10.5 5.3-14.2 3.5-3.7 8.1-5.5 13.8-5.5 5.7 0 10.3 1.8 13.8 5.5s5.3 8.4 5.3 14.2-1.8 10.5-5.3 14.2c-3.5 3.7-8.1 5.5-13.8 5.5-5.7 0-10.3-1.8-13.8-5.5-3.6-3.7-5.3-8.4-5.3-14.2zm11.6 0c0 3.8.9 6.5 2.6 8.3 1.3 1.3 2.9 2 4.8 2s3.5-.7 4.8-2c1.8-1.8 2.6-4.6 2.6-8.3 0-3.8-.9-6.5-2.6-8.3-1.3-1.3-2.9-2-4.8-2s-3.5.7-4.8 2c-1.7 1.7-2.6 4.5-2.6 8.3z"/><path class="st0" d="M147.5 48.6L137 86.2h-11.3l-4.1-22.9h-.1l-3.9 22.9h-11.3L96.1 48.6h11.4l4.6 23.2h.1l4.5-23.2h10.2l4.4 23.5h.1l4.7-23.5h11.4z"/><path class="st0" d="M143.1 86.2V48.6H155l11 20.1V48.6h11v37.6h-11.3l-11.6-20.5v20.5h-11zm-78.2 4.7H177V95H64.9zm253.3-33.6h-2l2.3-10.5H315v-4.1h1.8v2.5h4l-2.6 12.1zm8.7 0H325l-.3-2.7c-.3 1.4-1.3 2.7-2.7 2.7h-.4v-1.9h.4c2.1 0 2.6-2.1 2.3-4.1-.1-1.1-.5-4.5-.5-4.5h-1.3v-1.6h3.1l1.3 12.1zm.8-7.2h4.4v1.6h-4.4zm7.6-4.9c3.3 0 3.5 2.2 3.5 5.2v6.9h-2.1v-7.2c0-1.8.1-3.3-1.6-3.3H333v-1.6h2.3zm11.9 0v12.1h-2V46.8H341v-1.6h6.2zm-6.3 4.6h2v7.5h-2v-7.5zm-50.6 14.4c2.9 0 2.9 1.9 2.9 4.6v6h-1.1V68c0-2.2-.4-3-1.7-3h-.9v9.7h-2.7V74h1.6v-9h-1v-.8h2.9zm6.4 0v10.5h-1.1V64.2h1.1zm5.1 0c2.9 0 3.1 1.9 3.1 4.6v6h-1.1v-6.9c0-1.8-.6-2.9-2.1-2.9h-1.3v9.7h-1.1V64.2h2.5zm6.3 0c2.3 0 2.9 1.2 2.9 4.1v2.4c0 2.8-.6 4.1-2.9 4.1h-1.5V74h1.8c.9 0 1.6-.7 1.6-2.8v-3.3c0-2.1-.6-2.8-1.6-2.8h-1.8v-.8h1.5zm6.4 0v10.5h-1.1V64.2h1.1zm2.6 9.8c1 0 1.2-.6 1.2-1.7V65h-1.4v-.8h2.5v7.6c0 1.9-.3 3-2 3h-1.1V74h.8zm8-1.1h1V74l-1.3 3.1h-.5l.8-4.2zm4.3-8.7c2.9 0 2.9 2 2.9 4.6v5.9h-1.1v-6.8c0-1.5-.1-2.9-1.9-2.9h-1.8v-.8h1.9zm6 0c2.3 0 2.9 1.2 2.9 4.1v2.4c0 2.8-.6 4.1-2.9 4.1h-1.5V74h1.8c.9 0 1.6-.7 1.6-2.8v-3.3c0-2.1-.6-2.8-1.6-2.8h-1.8v-.8h1.5zm12.1 0v6c0 3.8-1.4 4.5-3.7 4.5h-2.9l-.9-10.5h1.1l.9 9.8h1.7c1.6 0 2.7-.3 2.7-3.3v-6.4h1.1zm-3 6.6h-1.1v-6.6h1.1v6.6zm-55.9 11.6v6c0 3.8-1.4 4.5-3.7 4.5H282l-.9-10.5h1.1l.9 9.7h1.7c1.6 0 2.7-.3 2.7-3.3v-6.4h1.1zm-3 6.6h-1.1v-6.6h1.1V89zm6.3-6.6v10.5h-1.1V82.4h1.1zm2.7 9.7c1 0 1.2-.6 1.2-1.7v-7.3h-1.4v-.8h2.5V90c0 1.9-.3 3-2 3h-1.1v-.8h.8zm9.6.8l-3.1-6.3c-.6.2-.9.8-.9 1.4v4.9h-1.1v-4.5c0-1.3.3-2.3 1.6-2.6l-1.6-3.4h1.1L303 88c1-.4 1.3-.7 1.3-1.8v-3.8h1.1v3.5c0 1.6-.4 2.4-2 2.8l2 4.2h-1.2zm7.7-10.5V88h-1.1v-5.6h1.1zm7.3 10.5h-5.3v-.8h3.1v-8.9h-3v-.8h4.2v9.7h1v.8zm6.4 0l-3.1-6.3c-.6.2-.9.8-.9 1.4v4.9h-1.1v-4.5c0-1.3.3-2.3 1.6-2.6l-1.6-3.4h1.1l2.6 5.6c1-.4 1.3-.7 1.3-1.8v-3.8h1.1v3.5c0 1.6-.4 2.4-2 2.8l2 4.2h-1zm10.3-10.5v6c0 3.8-1.4 4.5-3.7 4.5h-2.9l-.9-10.5h1.1l.9 9.7h1.7c1.6 0 2.7-.3 2.7-3.3v-6.4h1.1zm-3 6.6h-1.1v-6.6h1.1V89zm7.7 3.1h1.8v-6.5c0-1.6-.5-2.5-1.8-2.5h-.6l-1.3 9.7h-1.2l1.4-9.7h-1.4v-.8h3c2.3 0 3 1.4 3 4.1v6.5h-2.9v-.8zm6.5-9.7v10.5H346V82.4h1.1z"/><path transform="rotate(-180 361.178 68.944)" class="st0" d="M361 45.1h.4v47.7h-.4z"/><path class="st0" d="M561.4 53.6c-2.8 0-4.9 1.1-6.3 3.3-1.2 1.8-1.8 4.4-1.8 7.8 0 4 .9 7 2.7 8.9 1.3 1.3 3 2 5.3 2 1.5 0 2.8-.3 3.8-.9 1.3-.7 2.3-1.9 3.1-3.6.7-1.6 1.1-3.8 1.1-6.4 0-3.1-.4-5.5-1.1-7-.7-1.5-1.7-2.6-2.8-3.3-1.2-.4-2.5-.8-4-.8zm-29.2 13.3V74c0 1.4.1 2.3.3 2.6s.5.6.9.9c.4.2 1.2.3 2.4.3v.7h-13v-.7c1.2 0 2-.1 2.4-.3.4-.2.7-.5.9-.9.2-.4.3-1.2.3-2.6V57.4c0-1.4-.1-2.3-.3-2.6s-.5-.6-.9-.9c-.4-.2-1.2-.3-2.4-.3v-.7h11.1c3.7 0 6.3.7 7.9 2 1.6 1.3 2.4 2.9 2.4 4.9 0 1.7-.5 3.1-1.5 4.3-1 1.2-2.4 2-4.3 2.4-1.2.2-3.3.4-6.2.4zm0-12.5v11h.9c1.5 0 2.7-.5 3.5-1.4.8-.9 1.2-2.3 1.2-4.2 0-1.9-.4-3.3-1.2-4.2-.8-.9-2.1-1.3-3.7-1.3h-.7zm53.8-1.5l12.6 15.8v-11c0-1.5-.2-2.6-.7-3.1-.6-.7-1.6-1.1-3-1.1v-.7h8.4v.7c-1.1.1-1.8.3-2.2.5-.4.2-.7.6-.9 1.1-.2.5-.3 1.3-.3 2.6V79h-.6L582 57.7V74c0 1.5.3 2.5 1 3s1.4.8 2.3.8h.6v.7H577v-.7c1.4 0 2.4-.3 2.9-.9.6-.6.8-1.5.8-2.9V56l-.5-.7c-.5-.7-1-1.1-1.4-1.3-.4-.2-1-.3-1.8-.4v-.7h9zm43 0v6.9h-.7c-.4-1.6-.8-2.7-1.3-3.4-.5-.7-1.2-1.3-2-1.7-.5-.2-1.3-.3-2.5-.3h-1.9v19.7c0 1.3.1 2.1.2 2.4.1.3.4.6.8.9.4.2 1 .4 1.7.4h.8v.7h-13.4v-.7h.8c.7 0 1.3-.1 1.8-.4.3-.2.6-.5.8-.9.1-.3.2-1.1.2-2.4V54.4h-1.8c-1.7 0-3 .4-3.7 1.1-1.1 1-1.8 2.5-2.1 4.4h-.7V53h23zm16.4 24.8v.7H632v-.7h.8c.7 0 1.3-.1 1.8-.4.3-.2.6-.5.8-.9.1-.3.2-1.1.2-2.4V57.3c0-1.3-.1-2.1-.2-2.4-.1-.3-.4-.6-.8-.9s-1-.4-1.7-.4h-.8v-.7h13.4v.7h-.8c-.7 0-1.3.1-1.8.4-.3.2-.6.5-.8.9-.1.3-.2 1.1-.2 2.4v16.8c0 1.3.1 2.1.2 2.4.1.3.4.6.8.9.4.2 1 .4 1.7.4h.8zm18.7-25.4l.2 8.5h-.8c-.4-2.1-1.3-3.9-2.7-5.2-1.4-1.3-3-2-4.6-2-1.3 0-2.3.3-3 1-.7.7-1.1 1.5-1.1 2.4 0 .6.1 1.1.4 1.5.4.6.9 1.2 1.8 1.8.6.4 2 1.1 4.1 2.2 3 1.5 5 2.9 6 4.2 1 1.3 1.5 2.8 1.5 4.5 0 2.1-.8 4-2.5 5.5s-3.8 2.3-6.3 2.3c-.8 0-1.6-.1-2.3-.2-.7-.2-1.6-.5-2.7-.9-.6-.3-1.1-.4-1.5-.4-.3 0-.7.1-1 .4-.4.3-.7.6-.9 1.1h-.7v-9.6h.7c.6 2.7 1.6 4.8 3.2 6.2 1.6 1.4 3.3 2.1 5.1 2.1 1.4 0 2.5-.4 3.4-1.1.8-.8 1.3-1.7 1.3-2.7 0-.6-.2-1.2-.5-1.8-.3-.6-.8-1.1-1.5-1.6s-1.8-1.2-3.5-2c-2.3-1.1-4-2.1-5-2.9-1-.8-1.8-1.7-2.3-2.7-.5-1-.8-2.1-.8-3.3 0-2 .7-3.8 2.2-5.2 1.5-1.4 3.4-2.1 5.7-2.1.8 0 1.6.1 2.4.3.6.2 1.3.4 2.2.8.8.4 1.4.6 1.8.6.3 0 .6-.1.8-.3.2-.2.4-.7.5-1.5h.4zm-95.8 1.3c0-.1-.1-.1-.1-.2-1.8-2.9-4.2-4.3-7-4.2-2.7-.2-4.9 1.2-6.8 4.2 0 .1-.1.1-.1.2 2-1.3 4.2-1.9 6.8-1.8 2.8-.1 5.2.5 7.2 1.8zm-17.7 4c-3.2 1.8-4.8 4.1-4.8 7.2 0 3 1.6 5.4 4.9 7.1-1.3-2.1-1.9-4.6-1.9-7.4 0-2.6.6-4.9 1.8-6.9zm3.8 18.2c1.7 2.9 4.1 4.4 7 4.4 2.9 0 5.1-1.5 6.9-4.4-1.9 1.3-4.2 1.9-6.9 1.9-2.8 0-5.1-.6-7-1.9zm18.2-17.9l-.6-.3c1.2 2 1.8 4.4 1.8 7 0 2.8-.7 5.4-2.1 7.6.3-.2.6-.3.9-.5 2.9-1.8 4.3-4.2 4.2-7 .1-2.7-1.3-5-4.2-6.8zm-12.9 26.8h1.3v8.5h4.9v1.1h-6.2v-9.6zm10.2 2.5c.5 0 1 .1 1.4.3.5.2.8.6 1.1 1 .2.3.3.7.4 1.2.1.4.1.9.1 1.5h-5.1c0 1.6.7 2.4 2 2.4.6 0 1.1-.2 1.5-.6.2-.2.4-.5.4-.8h1.2c-.1.6-.4 1.1-.9 1.6-.6.5-1.3.8-2.3.8-1 0-1.8-.4-2.3-1.1-.5-.7-.8-1.5-.8-2.5 0-1.1.3-2 .8-2.7.6-.8 1.5-1.1 2.5-1.1zm1.9 3.1c0-.5-.2-.9-.3-1.2-.3-.6-.9-.9-1.6-.9-.6 0-1 .2-1.4.6-.3.4-.5.9-.5 1.5h3.8zm2.9-4.9h1.2v2h1.1v1h-1.1V93c0 .2.1.4.2.5.1 0 .2.1.5.1h.4v.9c-.3.1-.6.1-.9.1-.9 0-1.4-.5-1.4-1.5v-4.6h-.9v-1h.9v-2.1zm3.7 2.1c.5-.1.7-.5.7-1.2v-.2h-.7v-1.4h1.4V86c0 .5-.1 1-.3 1.3-.2.4-.6.7-1.1.7v-.5zm3.4 4.6c0 .4.1.7.3.9.3.4.8.6 1.5.6.4 0 .8-.1 1.1-.2.4-.2.5-.5.5-.9 0-.3-.1-.5-.4-.7-.2-.1-.5-.2-1-.3l-.9-.2c-.6-.1-1-.3-1.3-.5-.5-.3-.8-.8-.8-1.3 0-.7.3-1.3.8-1.7.5-.4 1.1-.5 1.8-.5 1.1 0 1.8.3 2.3.9.3.4.4.8.4 1.3H585c0-.3-.1-.5-.3-.7-.3-.3-.7-.5-1.4-.5-.9 0-1.4.3-1.4.9 0 .3.2.5.5.7.2.1.4.2.8.3l.8.2c.8.2 1.4.4 1.7.6.5.3.7.8.7 1.4 0 .8-.3 1.4-.9 1.8-.5.4-1.2.5-2 .5-1.9 0-2.8-.8-2.9-2.5h1.2zm12.2-4.9c.6 0 1 .1 1.4.4.2.1.4.4.7.7v-.9h1.1v6.4c0 .9-.1 1.6-.4 2.1-.5 1-1.4 1.4-2.8 1.4-.8 0-1.4-.2-1.9-.5-.5-.4-.8-.9-.9-1.6h1.2c.1.7.7 1.1 1.6 1.1.9 0 1.5-.3 1.8-1 .2-.4.2-1 .2-2-.5.7-1.2 1.1-2.2 1.1-1 0-1.7-.4-2.2-1.1-.4-.6-.7-1.4-.7-2.4s.2-1.8.7-2.5c.7-.8 1.5-1.2 2.4-1.2zm2.2 3.6c0-.7-.1-1.3-.4-1.7-.3-.5-.8-.8-1.5-.8-.8 0-1.4.4-1.7 1.2-.2.4-.2 1-.2 1.6 0 .7.1 1.2.4 1.6.3.5.8.8 1.4.8.8 0 1.4-.4 1.8-1.1.1-.5.2-1 .2-1.6zm5.7-3.6c.5 0 1 .1 1.4.3.5.2.8.6 1.1 1 .2.3.3.7.4 1.2.1.4.1.9.1 1.5h-5.1c0 1.6.7 2.4 2 2.4.6 0 1.1-.2 1.5-.6.2-.2.4-.5.4-.8h1.2c-.1.6-.4 1.1-.9 1.6-.6.5-1.3.8-2.3.8-1 0-1.8-.4-2.3-1.1-.5-.7-.8-1.5-.8-2.5 0-1.1.3-2 .8-2.7.7-.8 1.5-1.1 2.5-1.1zm1.9 3.1c0-.5-.2-.9-.3-1.2-.3-.6-.9-.9-1.6-.9-.6 0-1 .2-1.4.6-.3.4-.5.9-.5 1.5h3.8zm2.9-4.9h1.2v2h1.1v1h-1.1V93c0 .2.1.4.2.5.1 0 .2.1.5.1h.4v.9c-.3.1-.6.1-.9.1-.9 0-1.4-.5-1.4-1.5v-4.6h-.9v-1h.9v-2.1zm7.1 2h1.1v.9c.6-.8 1.3-1.1 2.2-1.1.9 0 1.7.4 2.2 1.1.5.6.7 1.5.7 2.4 0 1.5-.4 2.6-1.2 3.3-.5.4-1.1.6-1.8.6-.5 0-1-.1-1.3-.3-.2-.1-.4-.4-.7-.7v3.6h-1.2v-9.8zm3.1 6.1c.7 0 1.2-.3 1.5-.9.3-.5.4-1.1.4-1.8 0-.6-.1-1-.2-1.4-.3-.8-.9-1.2-1.7-1.2-1.3 0-1.9 1-1.9 2.9 0 .5.1 1 .2 1.4.3.7.9 1 1.7 1zm7.4-6.3c.5 0 1 .1 1.4.3.5.2.8.6 1.1 1 .2.3.3.7.4 1.2.1.4.1.9.1 1.5h-5.1c0 1.6.7 2.4 2 2.4.6 0 1.1-.2 1.5-.6.2-.2.4-.5.4-.8h1.2c-.1.6-.4 1.1-.9 1.6-.6.5-1.3.8-2.3.8-1 0-1.8-.4-2.3-1.1-.5-.7-.8-1.5-.8-2.5 0-1.1.3-2 .8-2.7.6-.8 1.4-1.1 2.5-1.1zm1.9 3.1c0-.5-.2-.9-.3-1.2-.3-.6-.9-.9-1.6-.9-.6 0-1 .2-1.4.6-.3.4-.5.9-.5 1.5h3.8zm2.6-3h1.1v1.2c.1-.4.4-.7.8-1 .4-.3.8-.4 1.1-.4h.4v1.2h-.4c-.5 0-1 .2-1.3.5s-.5.8-.5 1.4v4h-1.2v-6.9zm5.2 4.8c0 .4.1.7.3.9.3.4.8.6 1.5.6.4 0 .8-.1 1.1-.2.4-.2.5-.5.5-.9 0-.3-.1-.5-.4-.7-.2-.1-.5-.2-1-.3l-.9-.2c-.6-.1-1-.3-1.3-.5-.5-.3-.8-.8-.8-1.3 0-.7.3-1.3.8-1.7.5-.4 1.1-.5 1.8-.5 1.1 0 1.8.3 2.3.9.3.4.4.8.4 1.3h-1.1c0-.3-.1-.5-.3-.7-.3-.3-.7-.5-1.4-.5-.9 0-1.4.3-1.4.9 0 .3.2.5.5.7.2.1.4.2.8.3l.8.2c.8.2 1.4.4 1.7.6.5.3.7.8.7 1.4 0 .8-.3 1.4-.9 1.8-.5.4-1.2.5-2 .5-1.9 0-2.8-.8-2.9-2.5h1.2zm8.8-5c1 0 1.8.3 2.4 1 .5.6.8 1.5.8 2.5 0 1.2-.3 2.1-.8 2.8-.6.8-1.5 1.1-2.6 1.1-1 0-1.8-.4-2.4-1.1-.5-.6-.8-1.5-.8-2.5 0-1.1.3-2 .8-2.7.7-.7 1.5-1.1 2.6-1.1zm0 6.5c1.4 0 2-1 2-2.9 0-1.7-.7-2.6-2-2.6-.7 0-1.3.3-1.6.9-.3.5-.4 1.1-.4 1.9 0 .8.2 1.4.5 1.8.2.6.7.9 1.5.9zm4.6-6.3h1.1v1c.6-.8 1.4-1.2 2.3-1.2 1 0 1.7.3 2 1 .2.4.3.9.3 1.6v4.5h-1.2v-4.4c0-1.1-.4-1.7-1.3-1.7-.3 0-.5 0-.7.1-.3.1-.6.3-.9.6-.3.4-.5 1-.5 1.8v3.7h-1.2v-7zm11.2 2.8c.3 0 .5-.1.5-.3.1-.1.1-.3.1-.5 0-.8-.6-1.1-1.7-1.1-.6 0-1.1.2-1.3.5-.1.2-.2.5-.3.8h-1.1c0-1.5.9-2.3 2.7-2.3.8 0 1.4.1 1.9.4.6.3.9.8.9 1.6v4c0 .3.1.4.4.4h.4v.9c-.3.1-.5.1-.8.1-.4 0-.7-.1-.9-.4-.1-.2-.2-.4-.2-.6-.3.4-.7.7-1.1.9-.4.2-.9.3-1.4.3-.6 0-1.1-.2-1.6-.6-.4-.4-.6-.9-.6-1.5 0-1.3.7-2 2.2-2.2l1.9-.4zm-2.8 2.4c0 .3.1.6.4.8.2.2.5.3.9.3s.8-.1 1.2-.3c.7-.3 1-.8 1-1.6v-.9c-.3.2-.7.3-1.2.4l-.7.1c-.4.1-.7.1-1 .3-.5.1-.6.4-.6.9zm6.5-7.8h1.2v9.6h-1.2v-9.6zm654.5-11.3l-.6 3.5h-16.7l.6-3.5 12.8-9.6h-11.1l.6-3.5h16.7l-.6 3.5-12.9 9.6h11.2z"/><path class="st0" d="M1317.1 70.6l.7-3.5h11.6l-.7 3.5h-11.6zm32.4-10.3l-.6 3.5h-12.1c-.3 0-.5.1-.8.3-.2.2-.4.4-.4.7l-1.4 7.6c-.1.3 0 .5.2.7.2.2.4.3.7.3h12.1l-.6 3.5h-14.7c-.6 0-1-.2-1.3-.6-.3-.4-.4-.9-.3-1.4l2.3-12.6c.1-.6.4-1 .8-1.4.5-.4 1-.6 1.5-.6h14.6zM1365 77h-3.5l.7-4c0-.3 0-.5-.2-.7-.2-.2-.4-.3-.6-.3h-7.6c-.3 0-.5.1-.8.3-.2.2-.4.4-.4.7l-.8 4h-3.5l2.6-14.7c.1-.6.4-1 .8-1.4.5-.4 1-.6 1.5-.6h12.6c.6 0 1 .2 1.3.6.3.4.4.9.3 1.4l-1 5.8c-.1.6-.4 1-.9 1.4-.5.4-1 .6-1.6.6.6 0 1.1.2 1.4.7.1.1.2.3.2.6.1.5.1.7.1.7l-.6 4.9zm-1.8-9.6l.5-2.5c.1-.3 0-.5-.2-.7-.2-.2-.4-.3-.7-.3h-7.6c-.3 0-.5.1-.8.3-.2.2-.4.4-.4.7l-.5 2.5c-.1.3 0 .5.2.7.2.2.4.3.7.3h7.6c.3 0 .5-.1.8-.3.2-.2.4-.5.4-.7zm19.9-.5l-.7 3.5h-10.6l-.4 2c-.1.3 0 .5.2.7.2.2.4.3.7.3h12.1l-.6 3.5h-14.7c-.6 0-1-.2-1.3-.6-.3-.4-.4-.9-.3-1.4l2.3-12.6c.1-.6.4-1 .8-1.4.5-.4 1-.6 1.5-.6h14.7l-.6 3.5H1374c-.3 0-.5.1-.8.3-.2.2-.4.4-.4.7l-.4 2h10.7zm5.4-6.6h14.7c.6 0 1 .2 1.3.6.3.4.4.9.3 1.4l-2.3 12.6c-.1.6-.4 1-.8 1.4-.5.4-1 .6-1.5.6h-14.7l3-16.6zm1.2 13.1h8.6c.3 0 .5-.1.8-.3.2-.2.4-.4.4-.7l1.4-7.6c.1-.3 0-.5-.2-.7-.2-.2-.4-.3-.7-.3h-8.6l-1.7 9.6zm17.6-13.1h3.5l-3 16.7h-3.5l3-16.7zm12.8 16.7h-3.5l2.2-12.1c.1-.3 0-.5-.2-.7-.2-.2-.4-.3-.7-.3h-5.6l.6-3.5h16.7l-.6 3.5h-5.6c-.3 0-.5.1-.8.3-.2.2-.4.4-.4.7l-2.1 12.1zm-116.7 7.4h-1.2v-2.3c0-.2 0-.3-.1-.4-.1-.1-.2-.1-.3-.1h-.7v1.9c0 .1 0 .2-.1.3 0 .1-.1.1-.1.2s-.1.1-.1.2c-.1.1-.2.2-.4.2-.1 0-.3.1-.5.1-.1 0-.2 0-.3-.1-.1 0-.2-.1-.2-.1v-.8c.1.1.2.1.3.1.1 0 .2 0 .2-.1s.1-.1.1-.3v-2.6h2.4c.4 0 .7.1.9.3.2.2.3.5.3 1v2.5zm3.3 0h-1.2v-3.7h1.2v3.7zm5.7 0h-1.2l-1.2-1.7-.4 1.7h-1v-.1l.7-2.5-.7-1v-.1h1.2l1 1.5.3-1.5h1.1v.1l-.7 2.2.9 1.4zm5.3 0h-1.2v-2.3c0-.2 0-.3-.1-.4-.1-.1-.2-.1-.3-.1h-.8v2.8h-1.2v-3.7h2.4c.4 0 .7.1.9.3.2.2.3.5.3 1v2.4zm5.8 0h-2.1v-.9h.9v-1.6c0-.1-.1-.2-.1-.2-.1-.1-.1-.1-.2-.1h-.4c-.1 0-.1.1-.2.1s-.1.1-.2.1-.1.1-.1.2l-.2 2.5h-1.1l.2-1.8v-.8c0-.1 0-.2-.1-.3 0-.1-.1-.2-.1-.3l-.2-.4v-.2h1l.2.3.6-.3c.2-.1.4-.1.6-.1.5 0 .9.1 1.1.3.2.2.3.6.3 1.1v2.4zm5.6 0h-1.2v-2.3c0-.2 0-.3-.1-.4-.1-.1-.2-.1-.3-.1h-1.9v-.9h2.3c.4 0 .7.1.9.3s.3.5.3 1v2.4zm-2.3 0h-1.2v-2.2h1.2v2.2zm11.1 0h-1.2v-2.3c0-.2 0-.3-.1-.4-.1-.1-.2-.1-.3-.1h-.7v1.9c0 .1 0 .2-.1.3 0 .1-.1.1-.1.2s-.1.1-.1.2c-.1.1-.2.2-.4.2-.1 0-.3.1-.5.1-.1 0-.2 0-.3-.1-.1 0-.2-.1-.2-.1v-.8c.1.1.2.1.3.1.1 0 .2 0 .2-.1s.1-.1.1-.3v-2.6h2.4c.4 0 .7.1.9.3.2.2.3.5.3 1v2.5zm5.6 0h-1.2v-2.3c0-.2 0-.3-.1-.4-.1-.1-.2-.1-.3-.1h-.8v2.8h-1.2v-3.7h2.4c.4 0 .7.1.9.3.2.2.3.5.3 1v2.4zm5.8-3.3l-.1 2c0 .3-.1.5-.2.7-.1.2-.3.4-.5.5-.1 0-.2.1-.3.1-.1 0-.2 0-.3.1h-1.8c-.1 0-.2 0-.3-.1l-.2-3.6h1.2l.1 2.8h.6c.3 0 .5 0 .6-.1.1-.1.2-.2.2-.4v-1.4h-.8v-.9h2v.3zm5.3 3.3h-3.3v-.9h1.8v-1.3c0-.2 0-.3-.1-.4-.1-.1-.2-.1-.3-.1h-1.4v-.9h1.8c.4 0 .7.1.9.3.2.2.3.5.3 1v1.5h.3v.8zm5.4 0h-1.2v-2.3c0-.2 0-.3-.1-.4-.1-.1-.2-.1-.3-.1h-1.9v-.9h2.3c.4 0 .7.1.9.3s.3.5.3 1v2.4zm-2.3 0h-1.2v-2.2h1.2v2.2zm5.5 0h-1.2v-3.7h1.2v3.7zm6.2-1.5h-1.2v-2.3h1.2v2.3zm5.7 1.5h-1.2l-1.2-1.7-.4 1.7h-1v-.1l.7-2.5-.7-1v-.1h1.2l1 1.5.3-1.5h1.1v.1l-.7 2.2.9 1.4zm4.6 0h-1.2v-2.2c0-.2 0-.3-.1-.4-.1-.1-.2-.1-.4-.1h-1.3v-.9h1.7c.4 0 .7.1.9.4.2.2.3.6.3 1v2.2zm6.7-3.7l-.1 1.9c0 .2 0 .4-.1.5 0 .2-.1.3-.1.5-.1.2-.2.3-.3.4-.1.1-.3.2-.4.3-.2.1-.4.1-.7.2h-.9c-.4 0-.8 0-1.1-.1-.3 0-.6-.1-.8-.1l-.3-3.6h1.2l.1 1.8h.2c.1 0 .1 0 .2-.1l.1-.1v-1.7h1.1V82c0 .2 0 .4-.1.5-.1.1-.1.2-.2.3-.1.1-.2.1-.3.2h-.9v.5h.7c.3 0 .6 0 .8-.1.2 0 .3-.1.4-.3.1-.2.1-.4.1-.7l.1-1.8h1.3zm5.7 3.7h-1.2l-1.2-1.7-.4 1.7h-1v-.1l.7-2.5-.7-1v-.1h1.2l1 1.5.3-1.5h1.1v.1l-.7 2.2.9 1.4zm8.5 0h-1.2v-2.3c0-.2 0-.3-.1-.4-.1-.1-.2-.1-.3-.1h-.7v1.9c0 .1 0 .2-.1.3s-.1.1-.1.2-.1.1-.1.2c-.1.1-.2.2-.4.2-.1 0-.3.1-.5.1-.1 0-.2 0-.3-.1-.1 0-.2-.1-.2-.1v-.8c.1.1.2.1.3.1.1 0 .2 0 .2-.1s.1-.1.1-.3v-2.6h2.4c.4 0 .7.1.9.3.2.2.3.5.3 1v2.5zm5.8-2.5c0 .2 0 .3-.1.5s-.1.4-.2.5l-.7 1.5h-1.1v-.1l.8-1.5c.1-.1.1-.3.2-.4 0-.1.1-.2.1-.3v-.2c0-.1 0-.1-.1-.1l-.1-.1h-2.3v-.9h2.3c.3 0 .6.1.8.2.2.1.3.3.4.5 0 .1.1.2.1.3-.1-.1-.1 0-.1.1zm-2.5 3.6h-1.1v-3.4h1.1v3.4zm5.6-2.6h-1.2v-2.3h1.2v2.3zm5-1.7l-.1 1.5c0 .3-.1.6-.2.8-.1.2-.2.4-.3.5-.1.1-.3.2-.6.3-.2.1-.5.1-.8.1h-.4v-.9h.7c.1 0 .2-.1.2-.1l.2-.2c0-.1.1-.2.1-.4l.1-1.1h-1.9v-1.9h1.2v.9h1.9v.5zm5.8 1.3c0 .3 0 .6-.1.8-.1.2-.2.4-.4.6-.2.2-.4.3-.6.4-.2.1-.5.1-.8.1-.3 0-.5 0-.8-.1l-.6-.3c-.2-.2-.3-.4-.4-.6-.1-.3-.1-.6-.1-.9 0-.3 0-.5.1-.8.1-.2.2-.4.4-.6.2-.2.4-.3.6-.4.2-.1.5-.1.8-.1.7 0 1.2.2 1.5.5.2.2.4.7.4 1.4zm-1.2 0v-.4c0-.1-.1-.3-.1-.4-.1-.1-.1-.2-.2-.3-.1-.1-.2-.1-.4-.1-.1 0-.2 0-.3.1-.1.1-.2.2-.2.3-.1.1-.1.2-.1.4v.4c0 .3.1.6.2.8.1.2.3.3.5.3.1 0 .2 0 .3-.1.1-.1.2-.1.2-.2.1-.1.1-.2.1-.4v-.4zM1302 47.2c0-1.9.6-6.4.6-6.4s-7.9 3.9-14.4 12.8c-3.6 4.9-6.9 12.3-6.9 12.3l-5.1-9.6-5.5 3.2-2.2-9.4 23.9-11.3-.8 7.8 1.8-1.6 1.2-9.2-28.1 13.2 2.7 11.3-2.9 1.6s1.7 1 3.8 2.5l5 21h13.1l2.2-17-2.4 2.1-1.4 13.1h-10.2l-4.2-17.6c1.2.9 2.3 1.9 3.3 2.8 3.6 3.6 6.2 6.7 6.2 6.7s5-8.3 11.3-14.1c6.4-5.8 9.8-7.9 9.8-7.9s-.8-4.4-.8-6.3zm-487.4 6.3h7.9c1.1 0 2.2.1 3.3.4 1 .3 1.9.7 2.6 1.5.6.7.9 1.5 1.2 2.3.2.9.4 1.9.5 2.8.2 1.8.2 3.6.2 5.4v10.5c0 1.3-.1 2.5-.2 3.8-.2 1.2-.4 2.3-.9 3.4-.7 1.5-2 2.4-3.6 2.9-1 .3-2 .4-3.1.4h-7.8c-.1-11.1-.1-22.2-.1-33.4zm4.5 29.5h2.8c.2 0 .5 0 .7-.1 1-.2 1.8-.8 2.2-1.8.1-.4.2-.7.3-1.1.2-1.1.3-2.2.3-3.2V63.5c0-.8 0-1.5-.1-2.3 0-.6-.2-1.3-.4-1.9-.3-.8-.9-1.4-1.7-1.6-.3-.1-.7-.2-1-.2-1 0-2 0-2.9-.1h-.1c-.1 8.5-.1 17.1-.1 25.6zm77.5-10.5v14.4h-4.5V53.5h8.5c1 0 2 .1 2.9.4 1.4.4 2.2 1.3 2.6 2.7.2.8.3 1.6.4 2.4.1 1.7.1 3.4.1 5.1 0 .9-.1 1.9-.4 2.8-.4 1.3-1.2 2.3-2.4 2.9-.3.1-.6.3-.9.4-.1 0-.2.1-.4.1.3.1.6.1.9.2.9.2 1.7.5 2.2 1.2.5.6.8 1.3.9 2 .1.5.1.9.1 1.4v8.2c0 1.1.1 2.2.2 3.3v.2h-4.5c-.3-.4-.3-1-.3-1.5v-9.2c0-.5 0-1.1-.1-1.6-.2-1.2-.8-1.9-2.1-2-.5-.1-1-.1-1.6-.1-.5 0-1 .1-1.6.1zm0-15.1v10.8h.1c1.1 0 2.1.1 3.2-.1 1.2-.2 1.8-.7 2.1-1.9.2-.8.2-1.6.2-2.4 0-1.3 0-2.6-.1-3.9 0-.4-.1-.8-.3-1.2-.2-.6-.6-1-1.3-1.2-.2-.1-.5-.1-.7-.1h-3.2zm-14.4 14.5V83h8.1v4h-12.6V53.6h12.6v3.9h-8.1V68h7.5c.1.3.1 3.6 0 3.9h-7.5zm-37.5 11v3.9c-.2.1-11.8.1-12.6 0-.1-.2-.1-32.7 0-33.4.2-.1 12.1-.1 12.6 0 .1.2.1 3.4 0 3.9h-8.1v10.5h7.5c.1.3.1 3.6 0 3.9h-7.5v11.1c2.7.1 5.4.1 8.1.1zm6.4-15h7.5v3.9h-7.4c-.1.3-.1 10.7 0 11.1h8v4h-12.6c-.1-.2-.1-32.9 0-33.4.2-.1 12.2-.1 12.6 0v3.9h-8.1v10.5zm10-10.5v-3.9h14.7v3.7c0 .2 0 .3-.1.5-3.3 8.2-6.6 16.4-9.8 24.6-.1.2-.2.4-.3.7h10.2c.1.3.1 3.5 0 3.9h-14.7v-3.7c0-.2 0-.3.1-.5 2-4.9 4-9.9 6-14.8 1.4-3.4 2.8-6.8 4.1-10.2 0-.1.1-.2.1-.4-3.4.1-6.9.1-10.3.1zm-71.5 21.7v-3c.2-.1 9.3-.1 10 0v3h-10zm-11.2-15.7v-3c.3-.1 9.6-.1 10 0v3c-.2.1-9.3.1-10 0zm0 15.7v-3h9.9c.1.2.1 2.6 0 3h-9.9zm10-11.8h-9.9v-3h9.9c0 .3.1 2.7 0 3zm-22.3 11.8h-9.9v-3c.2-.1 9.3-.1 9.9 0v3zm0-7.8h-9.9c-.1-.2-.1-2.6 0-3h9.9v3zm12.3 0v-3c.3-.1 9.6-.1 10 0v3h-10zm11.2 0v-3c.2-.1 9.4-.1 9.9 0 .1.2.1 2.6 0 3h-9.9zm-23.5.9v3h-9.9c-.1-.2-.1-2.6 0-3h9.9zm0 7.8v3h-9.9c-.1-.2-.1-2.6 0-3h9.9zm12.3 3v-3h9.9c.1.2.1 2.5 0 3h-9.9zm10-7.8h-10v-3h10v3zm11.2-3v3h-9.9v-3c.2-.1 9.5-.1 9.9 0zm-10 10.8v-3c.2-.1 9.6-.1 10 0v3h-10zm-12.4-3.9h-9.9c-.1-.2-.1-2.6 0-3h9.9v3zm23.6-15.7v-3h9.9v3h-9.9zm9.9-6.9v3h-9.9c-.1-.2-.1-2.6 0-3h9.9zm0 19.6v3h-9.9v-3h9.9zm-9.9-.9v-3c.2-.1 9.4-.1 9.9 0v3h-9.9zm9.9-7v3h-9.9v-3h9.9zm-9.9-.9v-3h9.9v3h-9.9zm9.9 15.7h-9.9c-.1-.2-.1-2.6 0-3h9.9v3zm-44.6 3.9h-9.9v-3c.2-.1 9.4-.1 9.9 0v3zm12.3-3h9.9c.1.2.1 2.6 0 3h-9.9v-3zm21.2 0v3h-10v-3h10zm-32.3-.9v-3c.2-.1 9.5-.1 9.9 0v3h-9.9zm9.9.9v3c-.2.1-9.5.1-9.9 0v-3h9.9zm33.5 0v2.9c-.2.1-9.4.1-9.9 0v-3c3.3.1 6.6.1 9.9.1zm220.5-6.3c-.4-.7-.6-1.5-.7-2.6h17.6c0-9.8-4.6-14.8-13.7-14.8-3.8 0-6.8 1.2-9.2 3.7-2.4 2.5-3.6 5.5-3.6 9.1 0 1.7.2 3.2.7 4.6h8.9zm4-11.4c1.2 0 2.1.4 2.9 1.2.8.8 1.1 1.7 1.1 2.9h-8.8c.5-2.7 2.1-4.1 4.8-4.1zm56.4 11.4c-.4-.7-.6-1.5-.7-2.6h17.6c0-9.8-4.6-14.8-13.7-14.8-3.8 0-6.8 1.2-9.2 3.7-2.4 2.5-3.6 5.5-3.6 9.1 0 1.7.2 3.2.7 4.6h8.9zm4-11.4c1.2 0 2.1.4 2.9 1.2.8.8 1.1 1.7 1.1 2.9h-8.8c.5-2.7 2.1-4.1 4.8-4.1zm-44 11.4h9.2v-11h7v11h9.2v-11h4.7v-5.7h-4.8c-.1-1.1.1-1.9.5-2.3.4-.4 1.2-.6 2.3-.6-.2 0 .5.1 2.2.3V52c-.3 0-1 0-2-.1-.9-.1-1.6-.1-2.1-.1-1.9 0-3.3.1-4.3.3-1.5.3-2.8 1-3.8 2-1.4 1.4-2 3.7-1.9 6.8h-7.2c-.1-1.1.1-1.9.5-2.3.4-.4 1.2-.6 2.3-.6-.2 0 .5.1 2.2.3V52c-.3 0-1 0-2-.1-.9-.1-1.6-.1-2.1-.1-1.9 0-3.3.1-4.3.3-1.5.3-2.8 1-3.8 2-1.4 1.4-2 3.7-1.9 6.8h-3.8v5.7h3.8v11zm68.7 0c-.7-1-1.1-2.5-1.1-4.6 0-4 1.4-6 4.1-6 2 0 3.2 1 3.4 3.1h8.8c-.3-3.2-1.6-5.7-4-7.4-2.2-1.6-5-2.4-8.3-2.4-3.7 0-6.8 1.2-9.3 3.5-2.5 2.4-3.8 5.4-3.8 9.2 0 1.7.3 3.2.8 4.6h9.4zm19.1 0h10l-.2-.2c-.4-.4-.6-1.2-.6-2.4v-8.4h4.9v-5.7h-4.9v-7.4h-9.2v7.4h-4.1v5.7h4.1v11zM399.3 39.3c-16.6 0-30 13.4-30 30s13.4 30 30 30 30-13.4 30-30-13.5-30-30-30zm7.2 52.6c-2.1-.3-4.4-1-6.9-2.2-20.3-10-18.4-34.1-18.3-34.5 1.8-3.4 4.2-6.1 6.8-8.2.4-.2 13-5.6 24.6.4 3.3 3.9 8.2 11.2 7.9 20.6-1.1 15.6-11.1 22.2-14.1 23.9z"/></g></svg>