<svg xmlns="http://www.w3.org/2000/svg" xmlns:xlink="http://www.w3.org/1999/xlink" viewBox="0 0 1465.3 137.1"><style>.st0{fill:#a1a1a1}</style><g id="logo"><path class="st0" d="M1025.7 49.1h-24.3l2.4 8.3h21.9c2.3 0 4.2 1.9 4.2 4.2v4.2h-20.7c-6.9 0-12.4 5.6-12.4 12.4s5.6 12.4 12.4 12.4h16.6c6.9 0 12.4-5.6 12.4-12.5V61.5c-.1-6.8-5.6-12.4-12.5-12.4zm4.2 29c0 2.3-1.8 4.1-4.1 4.2h-16.6c-2.3-.1-4-2.1-3.9-4.4.1-2.1 1.8-3.8 3.9-3.9h20.7v4.1zm20.1-12.4h-7.5V74h9.9zm30.2 12.5h-3.6v-2c-1.2 1.6-3.2 2.5-5.2 2.4-4.6 0-8.3-3.8-8.3-8.4v-.4c-.2-4.6 3.3-8.5 7.9-8.7h.4c2-.1 4 .8 5.2 2.4v-2h3.6v16.7zm-13.4-8.3c-.2 2.8 1.8 5.2 4.6 5.4 2.8.2 5.2-1.8 5.4-4.6v-.8c.2-2.8-1.8-5.2-4.6-5.4s-5.2 1.8-5.4 4.6v.8zm44.6-2.2v10.4h-3.6v-9.2c0-2.8-1.4-4.4-3.9-4.4-2.3-.1-4.2 1.6-4.3 3.9v9.7h-3.6v-9.3c0-2.8-1.4-4.4-3.9-4.4-2.3-.1-4.2 1.7-4.3 3.9V78h-3.6V61.6h3.6v2c1.2-1.6 3.1-2.6 5.1-2.5 2.3-.1 4.5 1 5.7 3 1.3-2 3.7-3.1 6.1-3 3.5-.2 6.5 2.5 6.7 6v.6zm41.4 2.2c.1 4.9-3.8 9-8.7 9.1-4.9.1-9-3.8-9.1-8.7-.1-4.9 3.8-9 8.7-9.1h.2c4.8-.2 8.8 3.5 8.9 8.3v.4zm-14.2 0c0 2.9 2.3 5.2 5.2 5.2 2.9 0 5.2-2.3 5.2-5.2 0-2.9-2.3-5.2-5.2-5.2-2.8 0-5.2 2.3-5.2 5.2zm31.7-6.1l-2.3 2.5c-1-1.1-2.5-1.7-4-1.7-2.7 0-4.9 2.3-4.9 5v.3c-.2 2.7 1.9 5.1 4.6 5.3h.3c1.5 0 3-.7 4.1-1.7l2.2 2.5c-1.6 1.8-3.8 2.7-6.2 2.7-4.6.2-8.5-3.4-8.7-8V70c-.2-4.6 3.4-8.5 8-8.7h.7c2.4-.2 4.6.8 6.2 2.5zm15 1.9c-1.6-.9-3.3-1.4-5.1-1.4-2 0-3.2.8-3.2 2s1.2 1.5 2.7 1.7l1.7.3c3.6.5 5.8 2.1 5.8 4.9 0 3.2-2.8 5.4-7.5 5.4-2.5.1-5-.7-7.1-2.1l1.7-2.7c1.6 1.2 3.5 1.8 5.5 1.7 2.5 0 3.8-.8 3.8-2 0-.9-.9-1.6-2.9-1.8l-1.7-.2c-3.7-.5-5.6-2.2-5.6-4.9 0-3.3 2.6-5.3 6.9-5.3 2.4-.1 4.7.6 6.7 1.8l-1.7 2.6zm-57.3-2.1v-6l3.6-1.3v21.9h-3.6v-2c-1.2 1.6-3.2 2.5-5.2 2.4-4.6 0-8.3-3.8-8.3-8.4v-.4c-.2-4.6 3.3-8.5 7.9-8.7h.4c2.1 0 4 .9 5.2 2.5zm-9.7 6.3c-.2 2.8 2 5.1 4.7 5.3 2.8.2 5.1-2 5.3-4.7v-.6c.2-2.8-2-5.1-4.7-5.3-2.8-.2-5.1 2-5.3 4.7-.1.2-.1.4 0 .6zM320.7 55.7v2.7c0 .1-.1.2-.2.3-3.5 4-5.8 8.6-6.7 13.8-.7 4.4-.3 8.7 1.9 12.6 1.6 3 4.1 5.2 7 7 3.3 1.9 6.8 3.1 10.5 3.9 6.5 1.4 13 1.7 19.6 1.3 3.1-.2 6.2-.4 9.3-.8 4.7-.6 9.2-1.6 13.7-2.8 5.7-1.6 11.3-3.5 16.6-6.2 1-.5 2-1.1 3.1-1.6v7.3c0 .3-.1.5-.4.7-4.3 2.3-8.9 4.1-13.5 5.5-5.1 1.6-10.3 2.8-15.6 3.7-6.6 1.1-13.3 1.5-20 1.2-5.6-.2-11.2-1-16.5-2.7-4.4-1.4-8.5-3.3-12.1-6.3-4.1-3.5-6.7-7.9-7.5-13.2-1.1-6.9.4-13.2 4.2-19 1.8-2.7 4-5.1 6.5-7.3-.1 0 0 0 .1-.1zm76.8 26.1v-5.1c0-.4.1-.7.5-.9 3.5-2.2 6.3-5.1 8.1-8.9 3.3-7 1.6-14.8-4.3-19.9-2.6-2.2-5.6-3.7-8.8-4.8-3.4-1.2-6.9-1.8-10.5-2.2-4.1-.4-8.2-.5-12.3-.2-4.1.3-8.2.8-12.3 1.6-7.6 1.5-14.9 3.8-22 7-1.3.6-2.6 1.2-3.9 1.9v-1.8c0-.1.2-.2.3-.3 3-1.8 6.1-3.4 9.3-4.8 5.9-2.6 12.1-4.4 18.4-5.7 6-1.2 12.1-1.8 18.3-1.6 4.9.1 9.7.7 14.4 1.9 4.1 1.1 8.1 2.7 11.6 5.2 3.7 2.6 6.5 6 7.8 10.3 1.8 5.8 1.2 11.5-1.7 16.9-2.7 5-6.7 8.7-11.9 11-.4.1-.7.2-1 .4z"/><path class="st0" d="M385.3 72.9h-13.4c-.1 1.8.9 4 3.2 4.5 2.3.5 4.4.2 6.1-1.6l.2-.2c1.1 1 2.2 2.1 3.3 3.1-1.3 1.3-2.8 2.4-4.6 2.9-2.4.7-4.8.7-7.2 0-2.5-.8-4.4-2.3-5.3-4.7-1.5-3.7-1.6-7.5.1-11.1 1.4-3.1 3.9-4.8 7.3-5.3 2.4-.3 4.7.1 6.7 1.6 1 .7 1.7 1.6 2.3 2.7 1.3 2.6 1.5 5.4 1.3 8.1zm-5.3-3.6c0-2.8-1.7-4.6-4.2-4.5-2.7.2-4 2.2-3.9 4.5h8.1zm-45.4-8.5h10.9c1 0 2 .1 3 .5 1.9.8 2.9 2.4 3.3 4.4.1.5.1 1 .1 1.5v14.6h-5.3V67.1c0-1.2-.6-1.9-1.7-2-1.6-.1-3.2 0-4.9 0v16.7h-5.3c-.1-7-.1-14-.1-21zm21.2-5.7h5.3v5.7h4v4.3h-4v10.6c.1 1.2.6 1.7 1.8 1.7h1.9c.2 0 .3 0 .3.2v4.1l-.1.1c-1.7 0-3.3.2-5-.2-2.3-.6-3.9-2.5-4.2-4.8 0-.5-.1-.9-.1-1.4V55.8c.1-.3.1-.5.1-.7zm32.6-3.1h5.3v29.5c-2.5.2-4.9-1.8-5.3-4.4-.1-.4-.1-.8-.1-1.3V52.5c.1-.2.1-.3.1-.5zm-58.6 30c-2.4.2-4.8-1.8-5.2-4.2-.1-.5-.1-1.1-.1-1.6V60.8h5.4c-.1 7-.1 14.1-.1 21.2zm-5.3-29.2h5.3v5h-5.3v-5zm75.1 3.5c-1.2 0-2.2-1-2.2-2.2s1-2.2 2.2-2.2 2.2 1 2.2 2.2-.9 2.2-2.2 2.2zm0-4c-1 0-1.8.8-1.8 1.8s.8 1.8 1.8 1.8 1.8-.8 1.8-1.8-.8-1.8-1.8-1.8z"/><path class="st0" d="M398.7 55.1V53h1.1c.2 0 .4 0 .5.1.1.1.2.2.2.4 0 .3-.1.4-.4.5.2 0 .3.2.3.4 0 .3 0 .5.1.6h-.4c0-.1-.1-.2-.1-.3 0-.2 0-.3-.1-.4-.1-.1-.2-.1-.4-.1h-.6v.9h-.2zm.4-1.8v.7h.6c.3 0 .4-.1.4-.3 0-.2-.1-.3-.4-.3h-.6zm899.5 4.4v4.8h-3.7v19.3h-6.3V62.6h-3.7v-4.8h13.7zm1.5 0h4.5c3 0 5 .1 6 .3 1.1.2 1.9.8 2.6 1.8.7.9 1 2.4 1 4.5 0 1.9-.2 3.1-.7 3.8-.5.6-1.4 1-2.8 1.2 1.2.3 2.1.7 2.5 1.2.4.5.7 1 .8 1.4.1.4.2 1.6.2 3.6v6.4h-5.8v-8c0-1.3-.1-2.1-.3-2.4-.2-.3-.7-.5-1.6-.5v10.9h-6.3V57.7zm6.3 4.2v5.4c.7 0 1.2-.1 1.5-.3.3-.2.4-.8.4-1.9v-1.3c0-.8-.1-1.3-.4-1.5-.3-.3-.8-.4-1.5-.4zm21-4.2l3.6 24.2h-6.4l-.3-4.3h-2.2l-.4 4.3h-6.5l3.2-24.2h9zm-3.3 15.6c-.3-2.7-.6-6.1-1-10.2-.6 4.6-1 8-1.2 10.2h2.2zm22-15.6v24.2h-5.5l-3.3-11v11h-5.3V57.7h5.3l3.5 10.9V57.7h5.3zm13.1 0v4.8l-4.7 14.5h4.7v4.8h-11.6v-3.5l4.8-15.8h-4.3v-4.8h11.1zm7.9 0v24.2h-6.3V57.7h6.3zm8.8 0V77h3.8v4.8h-10.1V57.7h6.3zm17 0l3.6 24.2h-6.4l-.3-4.3h-2.2l-.4 4.3h-6.5l3.2-24.2h9zm-3.4 15.6c-.3-2.7-.6-6.1-1-10.2-.6 4.6-1 8-1.2 10.2h2.2zm-873.4 9.4c.3-.1.6-.1.8-.1h153.3v1H517c-.3 0-.7-.1-1-.2.1-.3.1-.5.1-.7zm30.3 19.9v-9.3h2.1v5.5c1.3.1 2.3-.5 2.9-1.7.8-1.8.4-4-.9-5.2-1.4-1.2-3.7-1.4-5.3-.4-1.7 1-2.3 3.1-1.6 5.3.1.3.2.6.3.8-.1 0-.1.1-.2.1-.1-.1-.3-.3-.3-.5-1.1-2.1-.7-4.9.9-6.5 1.7-1.7 4.5-2 6.7-.9 2.1 1.1 3.3 3.4 2.8 5.9-.4 2.1-2 3.5-4.1 3.6h-1.2v3.3h-2.1zm53.1-78.2c.7.6.7.8.1 1.3-1.6 1.4-1.6 2.4 0 4 .6-.6 1.1-1.2 1.7-1.9l.1.1c-.8 2.3-1.6 4.5-2.5 6.9-.5-.7-.5-1.4-.2-2 .2-.4.4-.7.6-1 .5-.7.4-1.4-.1-2-.3-.3-.6-.6-.8-1-.9-1.2-.6-2.4.6-3.1.2-.1.4-.3.7-.5-1.2-.6-2.5.3-2.5 1.5 0 .5.1 1.1.4 1.5.7 1.4.7 2.9.3 4.4-.2.8 0 1.6 0 2.5-.4-.3-.9-.7-1.6-1.3 0 .6-.2 1 0 1.4.1.2.6.3 1.1.5-.4.1-.8.3-.9.2-.4-.3-.9-.7-1-1.1-.2-.8-.3-1.7 0-2.4.3-.8.4-1.5 0-2.3.2.3.4.5.8 1 .2-.6.3-1 .3-1.5 0-.3-.1-.6-.2-.9-.6-2.3-.4-2.9 1.6-4.2.6-.1 1.1-.1 1.5-.1zm-2.1 5.5c-.6 1.1-1 2.1-1.5 3.1.1 0 .1.1.2.1.7-1 1.7-1.7 1.3-3.2z"/><path class="st0" d="M602.4 59.3c-.8-.5-1.5-.9-2.2-1.4-.1 0-.2.1-.2.1.2.4.3.9.6 1.3.2.3.6.6.6.9.1.5 0 1.1-.2 1.5-.3.6-1 .6-1.8.4.3-.2.5-.3.9-.5-1.2-.7-2.6-1.2-2.4-3-.3.2-.4.3-.6.4v-.2c.2-.7.5-1.3.7-2 .1-.3-.1-.7-.3-.9-.3-.4-.8-.6-1.3-1-.1 1.8-.2 3.6-.3 5.6-.6-.8-1.2-1.5-1.7-2.3-.8 2-2.4 2.3-4.2 2.2.5-.8 1.2-1.5 1.3-2.2.1-.8-.4-1.6-.7-2.6-.5.3-.9.5-1.2.6 0 0 0-.1-.1-.1.2-.2.4-.4.5-.6.2-.4.4-.8.4-1.1 0-1.1.5-1.8 1.3-2.4.9-.7.9-1.1.1-2.1-1.6 2.6-3.2 5.1-4.8 7.7h-.1c.2-1.3.4-2.5.5-3.8-1.5.2-2 .7-2.4 2-.2.6-.4 1.1-.7 1.6-.7.8-1.9.5-2.3-.5-.2-.7 0-1.1 1.2-1.5-.1-.2-.1-.4-.2-.6-.6-1.2-.3-2.3 1-2.8.6-.3 1.3-.4 1.9-.6.4-.1.7-.4 1.1-.6 0-.1 0-.1-.1-.2-.3 0-.6.1-.9.1-.3 0-.6 0-.9-.1.5-.1.9-.3 1.4-.4.9-.1 1.2-.6 1.3-1.5 0-.3 0-.6.1-1.1-2.1 1.1-4 2.2-6 3.3l-.1-.1c.5-.8 1-1.7 1.5-2.5-.1 0-.1-.1-.1-.1-1.5 1.1-2.8 1-4.2-.2-.4-.3-.9-.5-1.3-.7.3-.9.7-1.2 1.6-.9 1.5.6 2.3-.4 3.2-1.3-1.2-.6-2.3-1.2-3.4-1.8 3.3-.2 6.5-.1 9.8-.2-.1-.8-.6-.8-1-.8-.9.1-1.8.3-2.7.4-1 .1-1.8 0-2.7-.6-.3-.2-.8-.1-1.2-.1.1-.1.4-.3.6-.4-1.1-1.4-1.6-1.5-3.7-.6-.4-.9-.2-1.8.6-2.5.9-.8 2.1-1 3.1-.5.5.3.9.7 1.3 1 .4.3.9.6 1.5.2-.9-1-1.7-2-2.6-3l.1-.1c1.4.7 2.7 1.3 4.3 2.1-.3-1.1-.4-2.1-1.7-2.1h1c-.2-.8-.7-1.1-1.3-1.4-.5-.2-1-.3-1.5-.6-1.5-.7-1.7-3-.3-3.8.3-.2.8-.2 1.3-.4-.3 2.4.5 3.3 2.5 2.9-.2-.7-.4-1.4-.6-1.9 1.8 1.8 3.7 3.6 5.7 5.5-.8.6-1.6.6-2.2-.1-.5-.6-.9-1.3-1.2-1.9-.4-.9-.7-1.1-1.7-.8-.4.1-.8.2-1.4.4 1.3.4 1.5 1.4 1.7 2.4.1.6.3 1.4.7 1.8.4.5 1.1.7 1.8 1.1-.8.5-2.2-.3-2.9.7l2.7 1.5c-.2-.4-.4-.9-.6-1.3.9-.1 2-.2 2.1-1.5 1 .5.9 1-.4 2.1 0 .2 0 .5.1.7 0 .2.1.5.2.8.2-.3.2-.4.3-.5.4.3.8.6 1.3 1-.1-.6-.2-1.1-.3-1.6-.1 0-.3.1-.4.2l-.1-.1c.2-.3.4-.7.7-1 .6.2 1.1.4 1.7.6 0 .1-.1.1-.1.1-.4.1-1 .1-.8.7.2.6.8.4 1.2.2.7-.3 1.2-.9 1.3-1.7 0-.3.1-.6.1-.9.6.1.9.7.8 1.5-.1.5-.5 1.2.5 1.3-.4.1-.8.2-1.2.4v.4c.7 0 1.3.1 2 .1v.2c-.7 0-1.4.1-2.1.1.2.6.9 1.2 1.4 1 1.4-.4 1.6-.6 1.5-1.4.6.2.7.4.3.8-.3.3-.7.4-1 .6-.3.2-.6.6-.6.8 0 .3.4.8.6.8.4 0 1-.1 1.2-.4.7-1 1-2 .3-3.2-.6-1.3-.6-1.3 1-1.6-.7.8-.2 1.1.6 1.2-.2.2-.4.4-.5.6-.4.6-.3 1 .4 1.3 1 .4 1.8 1.1 2.3 2 .3.6.6 1.3 1 1.9.4.7 1 1.3 1.4 1.9-1.1.2-2.2-.7-3.5-2.9-.2 1.5 1.3 3.4 2.8 3.6.7.1 1.3.1 2 .1.9 0 1.5.4 1.8 1.2.2.5.4.9.6 1.4.4.8 1.7 1.4 2.5 1.2.3-.1.6-.4 1-.7-.6-.1-1.2 0-1.6-.2-.3-.1-.6-.4-.8-.7-.3-.7-.6-1.4-.8-2.1-.3-.9-.9-1.5-1.9-1.7-1.5-.2-2.4-1.1-3.2-2.3-.8-1.3-1.8-2.6-2.7-3.9.6-.2 1.3 0 1.9.6.6.6 1.2 1.3 1.8 1.9.2.3.4.5.7.8 1.7 2.1 2.9 2.2 5.2.9.7-.4 1.5-.6 2.3-.7 1.1-.1 1.5.4 1.5 1.5v.5c.6-1.3.1-2.4-1-2.5-.8-.1-1.6 0-2.3.3-1.8.6-2.9.4-4.1-1.2-.3-.4-.6-.9-.9-1.3-.6-.9-1.2-1.6-2.3-1.9v-.2c.4 0 .9-.1 1.2 0 .5.2 1 .6 1.6.8.9.5 1.5.3 2-.6.3-.5.4-1 .7-1.5.3-.6.7-.7 1.3-.3.2.2.4.3.6.5.7.8 1.4 1 2.5.5 0 .2-.1.4-.1.6 1.1-.4 1.5-2 .9-3-.3.6-.5 1.3-.9 1.9-.2.2-.9.1-1.3.1v-.2c.3-.1.5-.2.7-.3-.8-.4-1.6-.7-2.4-1.1-.8-.4-1.7-.1-2.3.9-.8 1.2-.8 1.2-2.2.8-.3-.1-.7-.1-1-.2 0-.1 0-.2-.1-.2l1.2-.3c.5-.1 1.1-.2 1.4-.5.9-.7 1.7-1.4 2.9-1 .2.1.5-.2.8-.4-.1.2-.2.5-.3.7 1.7 1.3 2.5 1.1 2.8-1 1.2.6 1.6 1.9 1 3.2-.6 1.2-1.7 1.7-2.9 1.1-.2-.1-.3-.2-.5-.3-.8-.5-.9-.4-1.6.3l.6.3c.2.1.3.2.5.3-.2 0-.4 0-.6-.1-.5-.1-1 0-1.5.3-.6.3-1.4.4-2.2.6h7.1c0 .1 0 .2.1.3-1.5.7-3 1.3-4.4 2 0 .1 0 .1.1.2.5-.1 1-.3 1.5-.4.8-.1 1.5-.3 2.3-.2 1.6.3 2.5 2 1.7 3.4-.1.3-.4.4-.7.8-.3-1 .4-2.8-1.6-2.3-.5.1-1 .4-1.2.8-.2.3 0 .9 0 1.3-.2-.2-.5-.5-.7-.8-.2.1-.5.2-.7.3-.2.1-.5.2-.9.3 1.1.6 2.1 1.2 3 1.8v.1h-2c-.2 1.6.3 2 3.2 2.3-.2.7-.7 1.2-1.3 1.2-.8.1-1.6 0-2.4-.1-.2 0-.4 0-.8-.1-.5-.9-.9-2.2-2.2-2.8-.6-.2-1.2-.3-1.8-.4-.1.1-.1.2-.2.3 1.5 1.4 3.1 2.9 4.6 4.3 0 .1-.1.1-.1.2h-.7c-.3 2.1-1.3 3.5-2.6 3.7.2-.4.4-.8.6-1.1.5-1.1.3-2-.7-2.6-1.8-.9-2.5-2.6-3-4.4.4.4.8.9 1.2 1.3.6.7 1.1 1.4 1.8 2 1.7 1.4 1.8 1.6 1.3 3.8 1.2-1.2 1.3-2.9 0-3.9-2.4-1.8-4.1-4.3-6-6.6-.3-.4-.5-.9-.9-1.5 0 .3-.1.5 0 .7.2.6.3 1.2.6 1.7.7 1.2 1.4 2.4 1.7 3.9.3 1.2.9 2.3 1.9 3.1-.8.2-1.4-.2-1.7-.7-.6-1.1-1.1-2.2-1.7-3.4-.1-.3-.2-.6-.4-.9-.1 0-.2.1-.3.1 0 3.1.9 5.7 1.8 8.4zm-12.8-9.7c-.2-1.9.2-3.6 1-5.2-1 .6-1.7 1.5-1.9 2.6l-.3 2.4c-.2 1.8-1.2 2.8-3 3.2-.5.1-1.1.2-1.6.3-1 .3-1.2 1.1-.6 1.9.2.3.4.6.6 1l.6-1.2c-.2-.2-.4-.4-.8-.7 2.3-.5 4.4-1.3 6-2.9 1.6-1.7 1.9-4 2.5-6.3-1.5 1.3-1.5 3.3-2.5 4.9zm10.7 11.2s.1 0 .1-.1c-.3-.6-.5-1.1-.8-1.7-.3-.7-.6-1.4-.1-2 .8-1.1.7-2.2 0-3.3-.9-1.5-1.6-3.1-1.1-4.9.1-.4-.2-1-.4-1.5-.2.8-.3 1.5-.6 2.1-.7 1.8-.5 3.4.7 4.9.3.4.7 1.2.5 1.7-.6 1.9-.1 3.5 1.4 4.7.2.1.2.1.3.1zm-7.4-13.5c-.2.8 0 1.6.3 2.4.4.9.3 1.4-.4 2.1-.2.2-.5.4-.7.7-.9 1-1.1 2.1-.6 3.3.6 1.4 1 2.7-.1 4.1 1.4-.4 1.9-1.4 1.4-2.9-.5-1.8-.4-3.4.9-4.8.8-.9.8-2 .1-3-.3-.7-.5-1.3-.9-1.9zm2.1.4c.8 1.8.4 3.4-.7 5-1 1.4-.9 2.9-.2 4.4.3-.5.6-1 .6-1.5.1-1.1.3-2.2 1-3.2 1-1.6.7-3.5-.7-4.7zm-16.4-8.5c0 .1.1.1.1.2.1 0 .3.1.4 0 .8-.1 1.4.2 1.9.7 1.3 1.4 2.9 2.1 4.8 1.9-1.7-.5-3-1.5-4.2-2.8-.5-.5-2-.8-2.6-.5 0 .1-.2.3-.4.5zm10.4 5c-.1-.1-.1-.2-.2-.3-1.1.7-2.3.8-3.6.4-.4-.1-.7-.2-1.1-.2-.7 0-1.1.4-1.3.8.9.2 1.8.4 2.6.6.5.1 1.1.2 1.8.3-.2-.4-.2-.6-.3-.6.8-.4 1.4-.7 2.1-1zm-.8 1.5c-.9 1-1.9 1-3.1.7-.5-.1-1.1-.1-1.7 0-.6.1-.9.4-1 .9.8.1 1.7.2 2.6.3 1.5.2 2.6-.4 3.2-1.9zm-6.8 2c-1.2-.2-2.2-.3-3.2-.5v.2c.6.4 1.2.8 1.8 1.1.3.1.7.1.9 0 .3-.2.4-.6.5-.8zm12.7-2.1v.3c.4 0 .9.2 1.2.1.2-.1.5-.7.4-.9-.1-.3-.5-.5-.9-.6-.3-.2-.7-.2-1.1-.3 0 0 0 .1-.1.1.3.2.5.3.8.5-.2.1-.3.1-.5.2.3.1.5.2.8.4-.3.1-.4.1-.6.2zm-10-11.9c-.4-.4-1.1-.6-1.3-1.1-.2-.5 0-1.1 0-1.7-.6.2-.9.8-.7 1.6.2.9 1 1.3 2 1.2zm-1.2 23.1c-.1-.3-.2-.5-.3-.7-.5.2-.7.6-.4 1 .2.2.7.4 1 .3.6-.2.6-.7.3-1.3-.2.2-.4.4-.6.7zm14.6-10.1v-.2h-2.8v.2h2.8zm11.3-4.7c1.1-.8 1.4-1.4 1-2.2-.4.8-.7 1.4-1 2.2zm60.8 21v.8c-.1 0-.1.1-.1.1-1.3.1-1.3.1-1.3 1.4v10.8c0 2.1 0 2.1 2 2.4v.9h-7.5v-.9c1.3-.2 1.3-.2 1.3-1.5v-5.8h-5.4v6.3c0 .6.3 1 1 .9h.9c0 .3 0 .6.1 1h-7.7v-.8l.1-.1c1.2-.1 1.2-.1 1.2-1.3V65.6c0-1.4-.1-1.5-1.6-1.5h-.4v-.9h7.7v.8l-.1.1c-1.3.1-1.3.1-1.3 1.5v4.5h5.5V65c0-.6-.3-1-1-.9h-.9v-.9c2.5-.2 5-.2 7.5-.2zm-79.1 8.3c1.5 2.2 3 4.3 4.5 6.3.3.4.9.7 1.4 1.1v.7h-4.9c-.3 0-.8-.4-.9-.8-1-1.9-2-3.7-2.9-5.7-.4-.8-.8-.9-1.5-.8v5.7c0 .5.3.7.8.7h1.1v1h-7.7v-.8c.1 0 .1-.1.2-.1 1.2-.1 1.2-.1 1.2-1.3V65.4c-.1-1.2-.2-1.3-1.4-1.3h-.6c0-.3 0-.6-.1-.9.3 0 .5-.1.7-.1 2.6 0 5.3-.1 7.9 0 1 0 2 .3 2.9.6 1.8.7 2.7 2.4 2.7 4.3 0 1.4-1 2.6-2.4 3.1-.1-.1-.4 0-1 .2zm-4.4-.4c1.5.1 2.7-.1 3.4-1.5.9-1.6.2-4.1-1.5-5-.4-.2-1-.3-1.4-.4-.2 0-.5.3-.5.4v6.5zm-36.3 8.5v-.9c.4 0 .8-.1 1.3-.1V65c0-.7-.3-1.1-1.1-1h-.8v-.9c.3 0 .5-.1.7-.1 2.6 0 5.3-.1 7.9 0 1 0 2.1.3 3 .6 1.5.6 2.3 1.8 2.5 3.5.2 1.7-.6 3-2 3.9-1.6 1.1-3.3 1.2-5.2.9-.3 0-.5-.1-.8-.1v5.6c0 .8.4 1.2 1.3 1.1h.7v.9h-7.5zm5.5-12v2.7c0 .5.2.6.6.7 1.4.2 2.7-.5 3.1-1.9.4-1.6.1-3-1.1-4.1-.5-.4-1.2-.6-1.8-.7-.5-.1-.7.1-.7.6-.1.9-.1 1.8-.1 2.7zm48.6-3.5v-.8c.1 0 .1-.1.1-.1h9.4c1.3 0 2.6.5 3.5 1.5 1.9 2 1.4 5.1-1.1 6.6-1.5.9-3.2 1-4.9.8-.3 0-.5-.1-.8-.1v5.6c0 .7.3 1.2 1.2 1h.8v1h-7.6v-.9c.1 0 .1-.1.2-.1 1.2-.1 1.2-.1 1.2-1.3v-12c-.1-1.1-.2-1.2-1.3-1.2h-.7zm6.2 3.5v2.7c0 .4.1.6.6.7 1.2.2 2.5-.4 3-1.5.7-1.5.1-3.7-1.3-4.6-.5-.3-1.1-.4-1.7-.6-.4-.1-.6.1-.6.5v2.8zm-67.4-3.5V63h4.8v.7c-.1.1-.1.1-.2.1-1.3.2-1.3.2-1.3 1.5 0 2.4-.1 4.8 0 7.2.2 6-3.8 7.5-7.9 7.3-1 0-2.1-.3-3-.6-2.1-.8-3.2-2.4-3.2-4.6v-9.1c0-1.5-.1-1.6-1.6-1.6h-.4c0-.3 0-.6-.1-.9h7.6v.8l-.1.1c-1.2.1-1.2.1-1.2 1.3v8.3c0 .8.1 1.7.3 2.5.4 1.4 1.3 2.2 2.7 2.4 2.5.3 5.3-.6 5.4-4.3.1-2.9 0-5.7 0-8.6 0-1.4-.2-1.6-1.6-1.6h-.2zm21.8 0V63h13.2c-.1.8-.1 1.6-.3 2.4 0 .2-.3.4-.4.4-.1 0-.4-.2-.5-.4-.1-.6-.4-.9-1-.9-1.5-.2-3-.3-4.5-.4-.1 0-.4.3-.4.5V70c1.3-.1 2.5-.1 3.6-.2.5 0 .8-.4.8-.9v-.8c.2 0 .5 0 .8-.1v4.6h-.7c-.3-1.4-.3-1.5-1.8-1.6h-2.6v6.6c0 .4.3.7.7.7 1.3-.1 2.5-.1 3.8-.3 1-.1 2-.5 2.6-1.5.1-.1.4-.2.5-.2.1.1.3.4.2.5-.2.8-.4 1.5-.6 2.2 0 .1-.3.3-.5.3h-12.3l-.1-.1v-.8c.1 0 .1-.1.2-.1 1.2-.1 1.2-.1 1.2-1.3V64.8c0-.7-.3-1.2-1.2-1.1-.1.2-.4.2-.7.2zm54.3 0V63h7.6v.8c-.1 0-.1.1-.1.1-1.2.1-1.2.1-1.2 1.4v8.2c0 .8.1 1.7.3 2.5.4 1.5 1.4 2.3 2.9 2.5 2.9.4 5.1-1.1 5.2-4 .2-3.1.1-6.2.1-9.3 0-1.1-.2-1.1-2-1.3 0-.3 0-.5-.1-.9h4.8v.8c-.1.1-.1.1-.2.1-1.1.1-1.1.1-1.1 1.4V73c0 4.2-2.1 6.5-6.2 6.9-1.6.2-3.1 0-4.6-.5-2.1-.8-3.3-2.4-3.3-4.7v-9.6c-.1-1-.2-1.1-1.2-1.1-.3-.1-.5-.1-.9-.1zm-91.9.6v.2c-.1.4-.1 1-.3 1-.6.2-.5-.4-.8-.7-.3-.4-.6-.8-1-1-1.2-.6-2.4-.5-3.6.1-.8.4-1.3 1.1-1.3 2.1s.6 1.5 1.4 1.9c.7.3 1.5.5 2.2.8l2.1.9c1.8.9 2.8 2.5 2.7 4.5 0 2.1-1 3.6-2.8 4.6-2 1.1-4.2 1.2-6.4.7-2.9-.6-2.1-.2-2.8-2.9-.1-.2.2-.6.3-.8.3.2.6.3.7.5 1.1 2.2 4.7 2.9 6.6 1.3 1.5-1.3 1.3-3.5-.5-4.5-.7-.3-1.4-.6-2.1-.8-.7-.3-1.5-.6-2.2-.9-1.6-.8-2.5-2.2-2.5-4 0-1.8.8-3.2 2.4-4.1 1.9-1.1 3.9-1.3 6.1-.9h.1c1.8.4 1.5.1 1.7 2zm116 15.4c-.7-.1-2-.4-3.3-.6-.5-.1-.7-.3-.8-.8-.1-.6-.3-1.1-.3-1.7 0-.3.2-.5.3-.8.2.1.5.2.6.5 1.1 2 4 2.9 6 1.8 1.1-.6 1.6-1.5 1.6-2.7 0-1.2-.7-1.9-1.7-2.3-1.1-.5-2.3-.9-3.4-1.3-1.5-.6-2.7-1.6-3-3.3-.5-2.2.4-4.2 2.5-5.3 2.3-1.2 4.7-1.2 7.1-.6.2.1.4.3.4.5.1.6.1 1.2.1 1.8 0 .2-.2.5-.3.5-.2 0-.4-.2-.5-.3-1-1.8-3.1-2.4-4.9-1.3-.8.5-1.2 1.2-1.2 2.1 0 .9.6 1.5 1.3 1.8.7.3 1.5.5 2.2.8.8.3 1.6.6 2.3 1 3.3 1.9 3.6 6.3.5 8.6-1.5 1.3-3.2 1.6-5.5 1.6zm-37.6 14.2v-4.4c0-.4 0-.7.5-.8 1.3-.1 2.7-.4 4-.3 2.6.2 4.3 2.1 4.6 4.8.3 3-1.3 5.6-4 6.1-1.5.2-3.1-.1-4.6-.2-.2 0-.4-.4-.4-.7-.1-1.5-.1-3-.1-4.5zm2.4 0v3.3c0 .6.2.7.7.8 1.1.1 1.9-.3 2.6-1.1 1.3-1.5 1.3-4.3.1-5.9-.7-.9-1.6-1.3-2.8-1.2-.4.1-.6.3-.6.7v3.4zm29.6 7.1c.4-.7.9-.8 1.6-.6.1 0 .1 0 .1.1 1.4.5 2 .1 1.8-1.5-.8.5-1.7.5-2.5 0-.9-.5-1.3-1.3-1.5-2.3-.2-1.3-.2-2.5.5-3.7.8-1.5 2.5-1.8 3.8-.8.6-.2 1.2-.4 1.9-.7v7.5c0 1.5-.7 2.7-1.8 3.1-1.3.4-2.9 0-3.9-1.1zm3.5-5.6c0-.5 0-1-.1-1.6-.1-.3-.4-.7-.7-.7-.2 0-.8.4-.8.6-.1 1.2-.1 2.3 0 3.5 0 .2.6.7.8.6.3 0 .6-.5.7-.8.2-.4.1-1 .1-1.6zm-75.2 3.2c-.6.6-1.4.1-2.1.4V87.5h2V92c.8-.1 1.6-.3 2.4-.4.4 0 .9.2 1.3.4 1.4.7 1.9 2.5 1.5 4.5-.4 1.7-1.6 2.8-3.2 2.8-.7-.1-1.3-.3-1.9-.5zm3.1-3.6c-.1 0-.1 0 0 0-.1-.4-.1-.8-.2-1.2 0-.3-.1-.5-.2-.8-.3-.9-.8-1.4-1.5-1.3-.7.1-1.3.7-1.3 1.7v3.7c0 .7.4 1.3 1.1 1.5.8.2 1.3-.3 1.5-1 .3-.9.4-1.7.6-2.6zm63.8-3.4c2.2 0 3.6 1.5 3.6 3.8 0 2.2-1.5 3.9-3.6 3.9s-3.6-1.6-3.6-3.8c0-2.3 1.5-3.9 3.6-3.9zm-1.4 3.9c.1.4.1.9.2 1.3.2.6.5.9 1.2.9.6 0 1.1-.3 1.2-.9.1-.9.1-1.8 0-2.7-.1-.6-.5-.9-1.2-.9-.6 0-1 .4-1.1.9-.2.5-.2.9-.3 1.4zm-8.3 2.9c-1.2 1-2.6 1.2-3.6.4-.7-.5-1-1.5-.7-2.4.4-1.1 1.9-1.9 3.4-1.7.1.6-.1 1-.6 1.3-.2.1-.5.2-.5.3-.1.4-.3.8-.2 1.2 0 .2.6.4.8.3.3-.1.8-.4.8-.7.1-1.1.1-2.2 0-3.3 0-.6-.4-.8-.9-.8-.3 0-.6.1-.9.2-.9.3-1.1.3-1.8-.5 1-1.2 3.3-1.6 4.6-.9.8.4 1.2 1.1 1.3 2 .1 1.3-.1 2.6.4 3.9.2.6-.3 1-.8 1.3-.8.6-.9-.2-1.3-.6zm-65-6.9c-.3 1.7-.5 3.2-.8 4.7 0 .2-.1.4-.1.6 0 1 .5 1.6 1.2 1.6.9 0 1.6-.7 1.6-1.7v-5.2h2V99h-2c0-.2-.1-.5-.1-.8-.8.8-1.8 1.1-2.8 1-1.3-.2-2.2-1.1-2-2.3.2-1.6.5-3.2.8-4.8 0-.1.3-.3.4-.3.6-.1 1.2-.1 1.8-.1zm31.7 6.6l.6.3c.7.1 1.4.3 2 .1.8-.1 1.2-.9.8-1.7-.3-.6-.7-1.2-1.2-1.7-.6-.7-1.3-1.4-1.9-2.1-.7-.9-1.2-1.9-.6-3s1.7-1.4 2.9-1.4c.6 0 1.3.3 1.9.4 0 .1-.1.2-.1.4-.2-.1-.5-.2-.7-.3-.7-.2-1.4-.4-1.9.3s-.3 1.4.2 1.9c.7.8 1.5 1.6 2.2 2.4.7.8 1.3 1.6 1.1 2.6-.1.6-.3 1.2-.7 1.6-.9 1-3.1 1.3-4.3.6-.2-.1-.3-.2-.4-.4 0 .1.1 0 .1 0zM574 87.4V99h-2V87.4h2zm51.8 1.3c1.3-.1 2.2.4 2.2 1.5v9.3c-1.3.3-2.1-.4-2.2-1.7v-9.1z"/><path class="st0" d="M591.8 36.1c-.3-1-1.1-1.4-1.8-1.9-.5-.3-1-.8-1.3-1.4-.3-.7-.7-1.4-1.5-1.7.3 0 .7.1 1.1.2.3-1 .6-1.9.8-2.9.2-1-.2-1.3-1.2-1.1-.4.1-1 .4-1.1-.2-.1-.4.3-.9.6-1.1 1-.6 2.1-.7 3.2-.2.9.4 1.2 1.2 1.2 2.1 0 .9-.1 1.7-.1 2.6 0 .6.2 1.1.9 1.3.3-1.3.7-2.7 1-4h.2c.3 1.9.7 3.8 1 5.7l-2.1-.9c-1.1-.5-1.5-1.2-1.4-2.4 0-.7.1-1.4.2-2.1 0-1.5-.7-2.2-2.3-2.2.2.2.3.3.5.3.7.4 1 1.1.7 1.9-.2.7-.6 1.4-.9 2.1-.8 1.9-.5 2.7 1.1 3.9.9.4 1.5 1 1.2 2zm-4.6-9.3h1.9c-.7-.6-1.2-.6-1.9 0zm23.5 5.6c-.4.2-.7.3-1.1.4.4-1 1-1.1 2.2-.5-.3-.6-.8-.9-1.3-.8-.8.1-1.4.6-1.6 1.3-.2.5-.2 1-.3 1.6-.3 1.8-1 2.3-2.7 1.7-.9-.3-1.4.1-1.9.7-.3.3-.7.6-1.2.8.8-1.3 1.4-2.6 3.2-2.8 1.3-.2 1.7-1.4 1.8-2.3.4-.2.6-.3.8-.5 1.1-1 2.5-1.1 3.5 0 .2.2.3.6.5.8-.8.3-1.8.3-2.1.8-.5.8-.5 1.9-.8 3h2v.2c-2.3 1-4.5 2-6.8 3 0-.1-.1-.1-.1-.2.3-.2.5-.6.9-.7.6-.3 1.1-.4 1.7-.6 1.3-.4 2-1.2 2.1-2.5 0-.5 0-1.1.2-1.6.1-.7.5-1.2 1-1.8zm-4.7 3.2c.2.1.5.2.8.3.2 0 .5 0 .6-.1.3-.6.5-1.2.7-1.7l-2.1 1.5zm-21.6 56.6c-.2 0-.4-.1-.5-.1-1.3-.4-2.2 0-2.4 1.4-.2 1.2-.2 2.5 0 3.6.3 1.5 1.3 2 2.7 1.4.1-.1.3-.1.5-.1-.5 1-2.7 1.2-4 .4-1.7-1-2.3-3.9-1.1-5.7.9-1.7 3.4-2.2 4.8-.9zm3.5-.4V99h-2.1v-7.2h2.1zm-12.3-.1h2V99h-2v-7.3zm42.1 7.8c-1.6-.1-2.1-.5-2.2-1.9-.1-1.5 0-3 0-4.5 0-.9.4-1.3 1.2-1.3.7 0 1 .4 1 1.3v6.4zM606 31.2c.4-.2 1-.5 1.5-.8-1.6 2.2-3.1 4.6-5.2 6.4 1-.8 1.3-1.9 1.5-3.1.1-.7.6-1.3 1.1-1.8.7-.9 1.1-1.9 1.1-3 0-.9-.5-1.5-1.6-1.8.1.2.3.4.4.6.6.9.4 1.6-.5 2.2-.4.3-.9.5-1.4.7-.8.3-1.3.9-1.5 1.7-.1.3-.1.6-.2.9-.1 1.5-1.1 2.2-2.4 2.5.2-.2.4-.5.7-.7.8-.6 1.2-1.4 1.3-2.4 0-.8.3-1.5.9-2 .3-.2.2-.7.4-1.2.1.3.2.5.4.9.4-.2.8-.3 1.2-.5 1-.5 1.1-1.2.4-2l-.3-.3c-.1-.2-.2-.5-.1-.6.1-.1.4-.2.6-.2.8.1 1.7.8 1.8 1.8.1.9 0 1.8-.1 2.7zM601.5 94c0 .8-.7 1.5-1.5 1.5s-1.5-.7-1.5-1.5.7-1.5 1.5-1.5 1.5.7 1.5 1.5zM588 89.5c0 .7-.5 1.1-1.2 1.1s-1.1-.4-1.1-1.1c0-.7.4-1.2 1.1-1.2.7 0 1.2.5 1.2 1.2zm-10.2-.1c0 .7-.4 1.2-1.1 1.2-.7 0-1.1-.4-1.2-1.1 0-.7.4-1.2 1.1-1.2.7 0 1.1.5 1.2 1.1zm39.9.4c0 .7-.5 1.2-1.2 1.1-.6 0-1.1-.5-1.1-1.1 0-.6.5-1.2 1.2-1.2.6.1 1.1.6 1.1 1.2zm-19.8-49.2c-.2-.7-.3-1.3.3-1.8.9-.6 1.5.2 2.2.5-.4.8-.8 1-2.5 1.3zm-11-6.1c.2.2.5.5.7.8.2.3.2.6.3 1 .4 1.3.6 1.5 1.9 1.6 0 .1.1.1.1.2-.4.1-.8.5-1.2.4-.5-.1-1-.5-1.3-.9-.2-.3-.1-.9-.2-1.3l-.3-1.8zm4.7 4.9c.7-.3 1.3-1.1 2.2-.5.6.4.5 1 .3 1.8-.9-.4-1.7-.7-2.6-1 0-.1.1-.2.1-.3z"/><path class="st0" d="M601.3 36.4c.2-.6.6-1.2.6-1.8 0-1.6.5-2.8 2-3.5.3-.1.5-.3.8-.4-.2.2-.4.5-.7.7-1 .7-1.6 1.6-1.6 2.9 0 .8-.1 1.6-.9 2.1h-.2zm-6.7-1.3c-.5-.4-1.1-.8-1.7-1.2-.7-.3-1.4-.5-2.1-.8-.8-.4-1-1-.5-2 .1 1.2.9 1.6 1.8 1.9.6.2 1.2.4 1.7.7.7.4 1 .9.8 1.4zm-1.3 1.8l-1 1h3.5c-.3.7-.7.8-1.1.6-.9-.4-1.7-.3-2.5.1-.5.3-1 .2-1.1-.3.8-.5 1.4-1 2.1-1.4.1-.1.1 0 .1 0zm7.9 1.4c-.3.1-.8.3-1 .2-.8-.4-1.6-.3-2.4 0-.3.1-.9-.1-1.1-.4-.3-.4-.1-.9.3-1.1.2.4.2.9.5 1.1.2.2.7 0 1.1-.2.6-.2 1.1-.4 1.7-.1.2.1.5.1.8.2 0 .1.1.2.1.3zm7.7-2c-1.1 1.6-3.2 1-4.6 2.2.5-.9 1-1.2 2.4-1.5.7-.1 1.3-.5 2-.8h.1c0-.1 0 0 .1.1zm-5.8 4.6c-.7 0-1.4.1-2.1.1.4-.6 1.2-.7 2.1-.1zM754 66.2c.3-1.1.4-2.3.8-3.3 2-5.8 6.1-9.5 11.7-11.7 2.4-.9 4.9-1.3 7.4-1.3 34.4 0 68.8-.1 103.2 0 7.1 0 12.9 3 16.8 9 4.3 6.5 3.3 15.1-2.2 20.6-4.1 4.1-9.1 6.2-14.9 6.2h-39.2v22.1s-.1 0-.1.1c-.1-.2-.3-.3-.4-.5-6-7.1-12-14.2-18-21.4-.3-.3-.6-.3-.9-.3-14.8 0-29.7.1-44.5 0-7-.1-12.7-2.9-16.7-8.7-1.5-2.2-2.4-4.6-2.7-7.3 0-.1-.1-.2-.1-.3-.2-1-.2-2.1-.2-3.2zm50.8-2.7c-.1.1-.1.2-.1.3-1 2.3-1 4.7-.3 7.1.8 2.8 3 4.3 6 4.3 2.9 0 5-1.6 5.9-4.4.6-2 .6-4.1 0-6.1-.8-2.9-3.1-4.6-6.1-4.5-2 .1-4 .2-5.9.4-1.1.1-1.1.1-1.1 1.2 0 1.4 0 1.4 1.4 1.5 0 .2.1.2.2.2zm-13.4 3.1c-.1-1.5-.2-2.7-.4-4-.2-1-.8-1.8-1.9-2.1-1.4-.4-2.9-.2-4.3.3-.4.1-.4.3-.3.7.2.6.3 1.2.5 1.8.1.5.3.7.9.5 1-.3 1.4 0 1.4 1v3.9c0 .7-.1 1.4-.3 2.1-.3 1.1-1 1.7-2 1.7-1.1 0-1.8-.5-2.1-1.7-.2-.8-.3-1.7-.3-2.5-.1-1.5 0-3.1-.2-4.6-.1-.9-.5-1.8-.8-2.7-.2-.5-.5-.6-1.1-.4-.7.3-1.4.4-2 .6-.4.1-.6.3-.4.8.2.7.4 1.4.4 2.1.1 1.5.1 2.9.1 4.4.1 2.1.6 4 2.2 5.4 3.4 3.1 9 1.5 10.2-3 .2-1.5.2-3 .4-4.3zm6.4 5.3h-4.5c-.4 0-.6.1-.6.6v1.9c0 .4.1.5.5.5h6.6c.2 0 .5-.1.6-.3.5-1.2 1.5-2.4.9-3.9-.1-.2 0-.5 0-.8 0-1.7 0-3.4-.1-5.1-.1-1.5-.5-3-1.9-3.8-1.9-1-3.9-.8-5.9-.2-.3.1-.4.3-.3.6.1.4.3.9.4 1.3.3 1 .3 1 1.3.8 1.8-.5 2.6.1 2.7 1.9v.2c0 2.1-.3 4.2.3 6.3zm22.3-8.8v4.7c0 .6.2.8.8.8h2.3c1.3 0 1.3 0 1.2-1.3 0-.4-.2-.5-.5-.5h-1.5v-3.9c.3 0 .4-.1.6-.1.7 0 1.5-.1 2.2-.1 1.2 0 1.9.5 2.2 1.6.2.8.4 1.6.4 2.4.1 3.2 0 6.3 0 9.5 0 1.3.1 2.5.8 3.7.4.7.6.7 1.3.4.2-.1.5-.3.7-.4.5-.2.5-.5.3-.9-.5-.9-.7-1.8-.7-2.8v-8.1c0-1.5-.2-3-.8-4.4-.8-1.6-2-2.7-3.8-2.7-2.1 0-4.2.2-6.3.3-.1 0-.4.2-.4.3-.3 1.1 0 1.4 1.2 1.5zm-43.7 6.2v-4.9c-.1-2.1-1.2-3.4-3.3-3.9-1.8-.4-3.5-.2-5.3.1-.8.1-1.7.4-2.5.6-.5.1-.7.4-.5 1 .2.4.3.8.4 1.2.1.6.4.7 1 .6 1.3-.3 2.7-.6 4-.7 1.8-.1 2.4.6 2.4 2.3v8.6c0 .5.1.8.7.7h2c1 0 1 0 1-1 .1-1.5.1-3 .1-4.6zm63.9 3.5c-.2.5-.5 1-.7 1.5-.3.6-.2.7.4.9.1 0 .3.1.4.1 1.6.1 2.5-.8 3.3-2 .2-.3.3-.6.4-.9.2.7.4 1.4.7 2.1.4.9.5.9 1.3.4.2-.1.3-.2.5-.3.4-.2.5-.5.3-.9-.5-.8-.6-1.7-.6-2.6v-2.9c0-1.3 0-2.7-.1-4-.2-1.7-1.1-2.8-2.6-3.1-1-.3-2-.2-3 .1-1.1.3-1.2.5-.7 1.6.4.8.4.8 1.1.4 1.6-.8 2.9-.2 3 1.6.1 2 0 4 0 6 0 .1-.1.3-.2.4-.4.5-.8.9-1.3 1.3-.5.6-1.3.9-2.2.3zm13.2.2h-3.1c-1.5 0-1.3-.3-1.3 1.3 0 .4.1.6.6.6h5.2c.2 0 .4 0 .5-.1.2-.6.5-1.2.5-1.8 0-1.1-.2-2.2-.3-3.3-.1-2 0-4-.1-6.1-.1-1.6-.8-2.5-2.5-2.7-.9-.1-1.8 0-2.6.2-1.3.3-1.4.6-.8 1.8.2.4.4.5.8.3.3-.1.7-.3 1-.4 1.3-.4 1.9 0 1.9 1.4v5.3c.1 1.2.2 2.3.2 3.5zm27.1-10c-.1.8-.4 1.6-.4 2.3-.1 2.7-.1 5.3-.1 8 0 1.8-.2 1.5 1.5 1.5.6 0 .7-.2.7-.8v-8.6c0-.7.2-1.3.4-2 .1-.4.4-.6.9-.5.2 0 .6-.1.7-.2.2-.4.3-.9.5-1.5-.4 0-.6-.1-.8-.1h-9c-1.3 0-1.1-.2-1.1 1.1 0 .5.1.7.6.7h5.4c.3.1.5.1.7.1zm-19.8 0c-.2 1.1-.4 2.1-.5 3-.1 1 0 2 0 3v4.2c0 1.8-.2 1.5 1.6 1.6.5 0 .7-.2.7-.7v-7.7c0-1.1 0-2.2.8-3.2.1-.2.4-.3.6-.3.9-.1.9 0 .9-1v-.1c.1-.5-.1-.7-.7-.7h-6.4v1.7c1 .2 2 .2 3 .2zm-26.5 0v10.2c0 1.9-.3 1.6 1.6 1.6.5 0 .6-.1.6-.6V61.8c0-.5-.2-.6-.6-.6h-3.1c-1.3 0-1.1-.2-1.2 1.2 0 .4.2.6.6.6h2.1zm35.3 0v4.9c0 .4.1.6.6.5.4-.1.7-.2 1.1-.3.4-.1.6-.3.6-.7v-5.6c0-.5-.2-.7-.7-.7h-3.1c-1.3 0-1.2-.2-1.2 1.2 0 .4.2.6.6.6.7.1 1.4.1 2.1.1zm-22 55.2c.1 3.2-2.4 6.2-6.3 6.3-3.7 0-6.4-2.8-6.4-6.1 0-3.4 2.7-6.1 6-6.2 4.1-.2 6.9 3 6.7 6z"/><path class="st0" d="M812.8 67.9c-.2 1.1-.2 2.1-.5 3.1s-1 1.5-2 1.5-1.7-.5-2-1.5c-.6-2.1-.6-4.1 0-6.2.3-1 1-1.5 2-1.5s1.7.5 2 1.5c.2 1 .3 2 .5 3.1z"/><path transform="rotate(-45.001 132.943 62.303)" class="st0" d="M129 55h8v14.5h-8z"/><path transform="rotate(-45.001 148.838 78.199)" class="st0" d="M144.9 70.9h8v14.5h-8z"/><path transform="rotate(-45.001 132.943 78.198)" class="st0" d="M125.7 74.2h14.5v8h-14.5z"/><path transform="rotate(-45.001 148.839 62.303)" class="st0" d="M141.6 58.3h14.5v8h-14.5z"/><path transform="rotate(45.001 194.206 70.247)" class="st0" d="M190.2 66.3h8v8h-8z"/><path class="st0" d="M124.8 67.5c-.1-.8-.3-1.6-.6-2.4-2.1-6.3-8.1-10.8-15.1-10.8s-13 4.5-15.1 10.8c-.3.8-.5 1.6-.6 2.4-.2.9-.2 1.8-.2 2.8 0 .9.1 1.9.2 2.8.1.8.3 1.6.6 2.4 2.1 6.3 8.1 10.8 15.1 10.8s13-4.5 15.1-10.8h-9c-1.5 1.7-3.7 2.8-6.1 2.8-2.5 0-4.7-1.1-6.1-2.8-.6-.7-1.1-1.5-1.4-2.4 0 0-.2-.5-.2-.6h23.5v-.4c0-.3.1-.6.1-.9v-2c0-.6-.1-1.2-.2-1.7zm-23.2 0c.3-.9.8-1.7 1.4-2.4 1.5-1.7 3.7-2.8 6.1-2.8 2.5 0 4.7 1.1 6.1 2.8.6.7 1.1 1.5 1.4 2.4h-15zM82.5 56.4c-2.3-1.4-5-2.1-7.9-2.2h-.2c-2.9 0-5.6.8-7.9 2.2-4.8 2.8-7.9 7.9-7.9 13.8v16h7.9v-16c0-4.4 3.6-8 8-8s8 3.6 8 8v16h7.9v-16c.1-5.8-3.1-11-7.9-13.8zm96.3 19h9c-2.1 6.3-8.1 10.8-15.1 10.8-8.8 0-16-7.1-16-16 0-8.8 7.1-16 16-16 7 0 13 4.5 15.1 10.8h-9c-1.5-1.7-3.7-2.8-6.1-2.8-4.4 0-8 3.6-8 8s3.6 8 8 8c2.4.1 4.6-1 6.1-2.8z"/></g></svg>